M48
;DRILL file {Pcbnew (2014-jan-25)-product} date Wed 15 Apr 2015 09:56:48 BST
;FORMAT={-:-/ absolute / inch / decimal}
FMAT,2
INCH,TZ
T1C0.028
T2C0.031
T3C0.032
T4C0.032
T5C0.039
T6C0.040
T7C0.045
T8C0.050
%
G90
G05
M72
T1
X6.9Y-5.45
X7.3Y-5.45
T2
X4.496Y-4.5759
X4.5371Y-4.28
X4.8442Y-4.1956
X4.9775Y-3.6022
X5.0101Y-3.5552
X5.0782Y-3.7453
X5.1147Y-3.5862
X5.2882Y-3.9673
X5.3532Y-4.1632
X5.4225Y-4.193
X5.4501Y-3.9608
X5.5218Y-3.9608
X5.5514Y-4.8255
X5.825Y-4.3653
X6.1682Y-4.1903
X6.2048Y-4.931
X6.2188Y-3.9803
X6.2235Y-3.0734
X6.547Y-4.4513
T3
X3.95Y-4.6
X3.95Y-4.7
X5.65Y-3.25
X5.65Y-3.35
X5.65Y-5.15
X5.65Y-5.25
X5.8Y-5.6
X5.8Y-5.7
X5.85Y-3.25
X5.85Y-3.35
X5.85Y-3.85
X5.85Y-3.95
X5.85Y-4.45
X5.85Y-4.55
X5.85Y-5.1
X5.85Y-5.2
X6.Y-5.6106
X6.Y-5.6894
X6.3Y-2.8106
X6.3Y-2.8894
X6.8Y-5.6106
X6.8Y-5.6894
X6.85Y-3.85
X6.85Y-3.95
X7.Y-5.6
X7.Y-5.7
T4
X3.65Y-3.85
X3.65Y-4.45
X3.75Y-3.85
X3.75Y-4.45
X3.85Y-3.85
X3.85Y-4.45
X3.95Y-3.85
X3.95Y-4.45
X4.05Y-3.85
X4.05Y-4.45
X4.15Y-3.15
X4.15Y-3.45
X4.15Y-3.85
X4.15Y-4.45
X4.15Y-4.7
X4.15Y-5.3
X4.25Y-3.15
X4.25Y-3.45
X4.25Y-3.85
X4.25Y-4.45
X4.25Y-4.7
X4.25Y-5.3
X4.35Y-3.15
X4.35Y-3.45
X4.35Y-3.85
X4.35Y-4.45
X4.35Y-4.7
X4.35Y-5.3
X4.45Y-3.15
X4.45Y-3.45
X4.45Y-3.85
X4.45Y-4.45
X4.45Y-4.7
X4.45Y-5.3
X4.55Y-3.15
X4.55Y-3.45
X4.55Y-3.85
X4.55Y-4.45
X4.55Y-4.7
X4.55Y-5.3
X4.65Y-3.15
X4.65Y-3.45
X4.65Y-3.85
X4.65Y-4.45
X4.65Y-4.7
X4.65Y-5.3
X4.75Y-3.15
X4.75Y-3.45
X4.75Y-3.85
X4.75Y-4.45
X4.75Y-4.7
X4.75Y-5.3
X4.85Y-3.15
X4.85Y-3.45
X4.85Y-3.85
X4.85Y-4.45
X4.85Y-4.7
X4.85Y-5.3
X4.95Y-3.15
X4.95Y-3.45
X4.95Y-3.85
X4.95Y-4.45
X4.95Y-4.7
X4.95Y-5.3
X5.05Y-3.15
X5.05Y-3.45
X5.05Y-3.85
X5.05Y-4.45
X5.05Y-4.7
X5.05Y-5.3
X5.15Y-3.15
X5.15Y-3.45
X5.15Y-3.85
X5.15Y-4.45
X5.15Y-4.7
X5.15Y-5.3
X5.25Y-3.15
X5.25Y-3.45
X5.25Y-3.85
X5.25Y-4.45
X5.25Y-4.7
X5.25Y-5.3
X5.35Y-3.15
X5.35Y-3.45
X5.35Y-3.85
X5.35Y-4.45
X5.35Y-4.7
X5.35Y-5.3
X5.45Y-3.15
X5.45Y-3.45
X5.45Y-3.85
X5.45Y-4.45
X5.45Y-4.7
X5.45Y-5.3
X5.55Y-3.85
X5.55Y-4.45
X6.05Y-3.15
X6.05Y-3.45
X6.05Y-3.75
X6.05Y-4.05
X6.05Y-4.35
X6.05Y-4.65
X6.05Y-5.
X6.05Y-5.3
X6.15Y-3.15
X6.15Y-3.45
X6.15Y-3.75
X6.15Y-4.05
X6.15Y-4.35
X6.15Y-4.65
X6.15Y-5.
X6.15Y-5.3
X6.25Y-3.15
X6.25Y-3.45
X6.25Y-3.75
X6.25Y-4.05
X6.25Y-4.35
X6.25Y-4.65
X6.25Y-5.
X6.25Y-5.3
X6.35Y-3.15
X6.35Y-3.45
X6.35Y-3.75
X6.35Y-4.05
X6.35Y-4.35
X6.35Y-4.65
X6.35Y-5.
X6.35Y-5.3
X6.45Y-3.15
X6.45Y-3.45
X6.45Y-3.75
X6.45Y-4.05
X6.45Y-4.35
X6.45Y-4.65
X6.45Y-5.
X6.45Y-5.3
X6.55Y-3.15
X6.55Y-3.45
X6.55Y-3.75
X6.55Y-4.05
X6.55Y-4.35
X6.55Y-4.65
X6.55Y-5.
X6.55Y-5.3
X6.65Y-3.15
X6.65Y-3.45
X6.65Y-3.75
X6.65Y-4.05
X6.65Y-4.35
X6.65Y-4.65
X6.65Y-5.
X6.65Y-5.3
X6.75Y-3.15
X6.75Y-3.45
X7.Y-3.75
X7.Y-4.05
X7.032Y-5.102
X7.032Y-5.2
X7.032Y-5.298
X7.1Y-3.75
X7.1Y-4.05
X7.2Y-3.75
X7.2Y-4.05
X7.2Y-4.45
X7.268Y-5.102
X7.268Y-5.2
X7.268Y-5.298
X7.3Y-3.75
X7.3Y-4.05
X7.3Y-4.45
T5
X3.8Y-3.0969
X3.8Y-3.4969
X3.8Y-4.8531
X3.8Y-5.2531
X3.95Y-3.0969
X3.95Y-3.4969
X3.95Y-4.8531
X3.95Y-5.2531
X5.7031Y-2.75
X5.7031Y-2.9
X6.1031Y-2.75
X6.1031Y-2.9
X6.5Y-2.75
X6.5031Y-2.9
X6.9031Y-2.9
X6.9031Y-4.25
X7.022Y-3.1614
X7.022Y-3.3386
X7.278Y-3.1614
X7.278Y-3.3386
X7.3031Y-4.25
T6
X3.65Y-3.1
X3.65Y-3.2
X3.65Y-3.3
X3.65Y-3.4
X3.65Y-3.5
X3.65Y-3.6
X3.65Y-4.85
X3.65Y-4.95
X3.65Y-5.05
X3.65Y-5.15
X3.65Y-5.25
X3.65Y-5.35
X3.9Y-2.85
X3.9Y-5.6
X4.Y-2.85
X4.Y-5.6
X4.1Y-2.85
X4.1Y-5.6
X4.2Y-2.85
X4.2Y-5.6
X4.3Y-2.85
X4.3Y-5.6
X4.4Y-2.85
X4.4Y-5.6
X4.5Y-2.85
X4.5Y-5.6
X4.6Y-2.85
X4.6Y-5.6
X4.8Y-2.85
X4.8Y-5.6
X4.9Y-2.85
X4.9Y-5.6
X5.Y-2.85
X5.Y-5.6
X5.1Y-2.85
X5.1Y-5.6
X5.2Y-2.85
X5.2Y-5.6
X5.3Y-2.85
X5.3Y-5.6
X5.4Y-2.85
X5.4Y-5.6
X5.5Y-2.85
X5.5Y-5.6
X5.65Y-4.75
X5.65Y-4.85
X5.65Y-4.95
T7
X6.3Y-5.6
X6.4Y-5.6
X6.5Y-5.6
T8
X6.9Y-2.75
T5
X6.8559Y-4.8393G85X6.8559Y-4.7607
G05
X7.0133Y-4.615G85X6.9346Y-4.615
G05
X7.0921Y-4.8393G85X7.0921Y-4.7607
G05
T0
M30
