%FSLAX34Y34*%
G04 Gerber Fmt 3.4, Leading zero omitted, Abs format*
G04 (created by PCBNEW (2014-jan-25)-product) date Wed 15 Apr 2015 09:56:20 BST*
%MOIN*%
G01*
G70*
G90*
G04 APERTURE LIST*
%ADD10C,0.005906*%
%ADD11C,0.007874*%
%ADD12C,0.011811*%
%ADD13C,0.009843*%
%ADD14C,0.015000*%
%ADD15C,0.010000*%
%ADD16C,0.008000*%
%ADD17C,0.003000*%
%ADD18C,0.006000*%
%ADD19C,0.012000*%
%ADD20C,0.011250*%
%ADD21C,0.003500*%
%ADD22C,0.059100*%
%ADD23C,0.058300*%
%ADD24C,0.066900*%
%ADD25R,0.066900X0.066900*%
%ADD26R,0.080000X0.068000*%
%ADD27O,0.080000X0.068000*%
%ADD28C,0.078700*%
%ADD29R,0.078700X0.078700*%
%ADD30R,0.068000X0.080000*%
%ADD31O,0.068000X0.080000*%
%ADD32R,0.137800X0.137800*%
%ADD33R,0.062000X0.090000*%
%ADD34O,0.062000X0.090000*%
%ADD35C,0.070000*%
%ADD36R,0.070000X0.070000*%
%ADD37C,0.066000*%
%ADD38O,0.052000X0.052000*%
%ADD39C,0.137800*%
G04 APERTURE END LIST*
G54D10*
G54D11*
X35142Y-34247D02*
X34992Y-34352D01*
X35142Y-34427D02*
X34827Y-34427D01*
X34827Y-34307D01*
X34842Y-34277D01*
X34857Y-34262D01*
X34887Y-34247D01*
X34932Y-34247D01*
X34962Y-34262D01*
X34977Y-34277D01*
X34992Y-34307D01*
X34992Y-34427D01*
X34812Y-33887D02*
X35217Y-34157D01*
X34827Y-33812D02*
X35142Y-33737D01*
X34917Y-33677D01*
X35142Y-33617D01*
X34827Y-33542D01*
X34773Y-33857D02*
X34773Y-33497D01*
G54D12*
X57303Y-49176D02*
X57668Y-49176D01*
X57471Y-49401D01*
X57556Y-49401D01*
X57612Y-49429D01*
X57640Y-49457D01*
X57668Y-49514D01*
X57668Y-49654D01*
X57640Y-49710D01*
X57612Y-49739D01*
X57556Y-49767D01*
X57387Y-49767D01*
X57331Y-49739D01*
X57303Y-49710D01*
X57668Y-47767D02*
X57331Y-47767D01*
X57500Y-47767D02*
X57500Y-47176D01*
X57443Y-47260D01*
X57387Y-47317D01*
X57331Y-47345D01*
X57331Y-48232D02*
X57359Y-48204D01*
X57415Y-48176D01*
X57556Y-48176D01*
X57612Y-48204D01*
X57640Y-48232D01*
X57668Y-48289D01*
X57668Y-48345D01*
X57640Y-48429D01*
X57303Y-48767D01*
X57668Y-48767D01*
X58949Y-48294D02*
X58612Y-48294D01*
X58781Y-48294D02*
X58781Y-47704D01*
X58724Y-47788D01*
X58668Y-47844D01*
X58612Y-47872D01*
X59231Y-48266D02*
X59231Y-48294D01*
X59203Y-48350D01*
X59174Y-48379D01*
X59456Y-47760D02*
X59484Y-47732D01*
X59540Y-47704D01*
X59681Y-47704D01*
X59737Y-47732D01*
X59765Y-47760D01*
X59793Y-47816D01*
X59793Y-47872D01*
X59765Y-47957D01*
X59428Y-48294D01*
X59793Y-48294D01*
X60496Y-48294D02*
X60496Y-47704D01*
X60834Y-48294D01*
X60834Y-47704D01*
X61227Y-47704D02*
X61340Y-47704D01*
X61396Y-47732D01*
X61452Y-47788D01*
X61480Y-47901D01*
X61480Y-48097D01*
X61452Y-48210D01*
X61396Y-48266D01*
X61340Y-48294D01*
X61227Y-48294D01*
X61171Y-48266D01*
X61115Y-48210D01*
X61087Y-48097D01*
X61087Y-47901D01*
X61115Y-47788D01*
X61171Y-47732D01*
X61227Y-47704D01*
X62071Y-48294D02*
X61874Y-48013D01*
X61733Y-48294D02*
X61733Y-47704D01*
X61958Y-47704D01*
X62015Y-47732D01*
X62043Y-47760D01*
X62071Y-47816D01*
X62071Y-47901D01*
X62043Y-47957D01*
X62015Y-47985D01*
X61958Y-48013D01*
X61733Y-48013D01*
X62324Y-48294D02*
X62324Y-47704D01*
X62521Y-48125D01*
X62718Y-47704D01*
X62718Y-48294D01*
X62971Y-48125D02*
X63252Y-48125D01*
X62915Y-48294D02*
X63111Y-47704D01*
X63308Y-48294D01*
X63786Y-48294D02*
X63505Y-48294D01*
X63505Y-47704D01*
X58612Y-48705D02*
X58640Y-48677D01*
X58696Y-48649D01*
X58837Y-48649D01*
X58893Y-48677D01*
X58921Y-48705D01*
X58949Y-48761D01*
X58949Y-48817D01*
X58921Y-48902D01*
X58584Y-49239D01*
X58949Y-49239D01*
X59231Y-49211D02*
X59231Y-49239D01*
X59203Y-49295D01*
X59174Y-49323D01*
X59428Y-48649D02*
X59793Y-48649D01*
X59596Y-48874D01*
X59681Y-48874D01*
X59737Y-48902D01*
X59765Y-48930D01*
X59793Y-48986D01*
X59793Y-49127D01*
X59765Y-49183D01*
X59737Y-49211D01*
X59681Y-49239D01*
X59512Y-49239D01*
X59456Y-49211D01*
X59428Y-49183D01*
X60834Y-49239D02*
X60637Y-48958D01*
X60496Y-49239D02*
X60496Y-48649D01*
X60721Y-48649D01*
X60777Y-48677D01*
X60805Y-48705D01*
X60834Y-48761D01*
X60834Y-48845D01*
X60805Y-48902D01*
X60777Y-48930D01*
X60721Y-48958D01*
X60496Y-48958D01*
X61199Y-48649D02*
X61312Y-48649D01*
X61368Y-48677D01*
X61424Y-48733D01*
X61452Y-48845D01*
X61452Y-49042D01*
X61424Y-49155D01*
X61368Y-49211D01*
X61312Y-49239D01*
X61199Y-49239D01*
X61143Y-49211D01*
X61087Y-49155D01*
X61059Y-49042D01*
X61059Y-48845D01*
X61087Y-48733D01*
X61143Y-48677D01*
X61199Y-48649D01*
X61705Y-49239D02*
X61705Y-48649D01*
X61902Y-49070D01*
X62099Y-48649D01*
X62099Y-49239D01*
X62774Y-48649D02*
X62915Y-49239D01*
X63027Y-48817D01*
X63140Y-49239D01*
X63280Y-48649D01*
X63843Y-49239D02*
X63646Y-48958D01*
X63505Y-49239D02*
X63505Y-48649D01*
X63730Y-48649D01*
X63786Y-48677D01*
X63814Y-48705D01*
X63843Y-48761D01*
X63843Y-48845D01*
X63814Y-48902D01*
X63786Y-48930D01*
X63730Y-48958D01*
X63505Y-48958D01*
X64096Y-49239D02*
X64096Y-48649D01*
X64293Y-48649D02*
X64630Y-48649D01*
X64461Y-49239D02*
X64461Y-48649D01*
X64827Y-48930D02*
X65024Y-48930D01*
X65108Y-49239D02*
X64827Y-49239D01*
X64827Y-48649D01*
X65108Y-48649D01*
G54D11*
X55052Y-57440D02*
X55052Y-57290D01*
X55142Y-57470D02*
X54827Y-57365D01*
X55142Y-57260D01*
X55142Y-56990D02*
X55142Y-57170D01*
X55142Y-57080D02*
X54827Y-57080D01*
X54872Y-57110D01*
X54902Y-57140D01*
X54917Y-57170D01*
X54827Y-56705D02*
X54827Y-56855D01*
X54977Y-56870D01*
X54962Y-56855D01*
X54947Y-56825D01*
X54947Y-56750D01*
X54962Y-56720D01*
X54977Y-56705D01*
X55007Y-56690D01*
X55082Y-56690D01*
X55112Y-56705D01*
X55127Y-56720D01*
X55142Y-56750D01*
X55142Y-56825D01*
X55127Y-56855D01*
X55112Y-56870D01*
X53052Y-57440D02*
X53052Y-57290D01*
X53142Y-57470D02*
X52827Y-57365D01*
X53142Y-57260D01*
X53142Y-56990D02*
X53142Y-57170D01*
X53142Y-57080D02*
X52827Y-57080D01*
X52872Y-57110D01*
X52902Y-57140D01*
X52917Y-57170D01*
X52827Y-56885D02*
X52827Y-56690D01*
X52947Y-56795D01*
X52947Y-56750D01*
X52962Y-56720D01*
X52977Y-56705D01*
X53007Y-56690D01*
X53082Y-56690D01*
X53112Y-56705D01*
X53127Y-56720D01*
X53142Y-56750D01*
X53142Y-56840D01*
X53127Y-56870D01*
X53112Y-56885D01*
X52052Y-57440D02*
X52052Y-57290D01*
X52142Y-57470D02*
X51827Y-57365D01*
X52142Y-57260D01*
X52142Y-56990D02*
X52142Y-57170D01*
X52142Y-57080D02*
X51827Y-57080D01*
X51872Y-57110D01*
X51902Y-57140D01*
X51917Y-57170D01*
X51857Y-56870D02*
X51842Y-56855D01*
X51827Y-56825D01*
X51827Y-56750D01*
X51842Y-56720D01*
X51857Y-56705D01*
X51887Y-56690D01*
X51917Y-56690D01*
X51962Y-56705D01*
X52142Y-56885D01*
X52142Y-56690D01*
X51052Y-57440D02*
X51052Y-57290D01*
X51142Y-57470D02*
X50827Y-57365D01*
X51142Y-57260D01*
X51142Y-56990D02*
X51142Y-57170D01*
X51142Y-57080D02*
X50827Y-57080D01*
X50872Y-57110D01*
X50902Y-57140D01*
X50917Y-57170D01*
X51142Y-56690D02*
X51142Y-56870D01*
X51142Y-56780D02*
X50827Y-56780D01*
X50872Y-56810D01*
X50902Y-56840D01*
X50917Y-56870D01*
X50052Y-57440D02*
X50052Y-57290D01*
X50142Y-57470D02*
X49827Y-57365D01*
X50142Y-57260D01*
X50142Y-56990D02*
X50142Y-57170D01*
X50142Y-57080D02*
X49827Y-57080D01*
X49872Y-57110D01*
X49902Y-57140D01*
X49917Y-57170D01*
X49827Y-56795D02*
X49827Y-56765D01*
X49842Y-56735D01*
X49857Y-56720D01*
X49887Y-56705D01*
X49947Y-56690D01*
X50022Y-56690D01*
X50082Y-56705D01*
X50112Y-56720D01*
X50127Y-56735D01*
X50142Y-56765D01*
X50142Y-56795D01*
X50127Y-56825D01*
X50112Y-56840D01*
X50082Y-56855D01*
X50022Y-56870D01*
X49947Y-56870D01*
X49887Y-56855D01*
X49857Y-56840D01*
X49842Y-56825D01*
X49827Y-56795D01*
X49052Y-57440D02*
X49052Y-57290D01*
X49142Y-57470D02*
X48827Y-57365D01*
X49142Y-57260D01*
X49142Y-57140D02*
X49142Y-57080D01*
X49127Y-57050D01*
X49112Y-57035D01*
X49067Y-57005D01*
X49007Y-56990D01*
X48887Y-56990D01*
X48857Y-57005D01*
X48842Y-57020D01*
X48827Y-57050D01*
X48827Y-57110D01*
X48842Y-57140D01*
X48857Y-57155D01*
X48887Y-57170D01*
X48962Y-57170D01*
X48992Y-57155D01*
X49007Y-57140D01*
X49022Y-57110D01*
X49022Y-57050D01*
X49007Y-57020D01*
X48992Y-57005D01*
X48962Y-56990D01*
X48052Y-57440D02*
X48052Y-57290D01*
X48142Y-57470D02*
X47827Y-57365D01*
X48142Y-57260D01*
X47962Y-57110D02*
X47947Y-57140D01*
X47932Y-57155D01*
X47902Y-57170D01*
X47887Y-57170D01*
X47857Y-57155D01*
X47842Y-57140D01*
X47827Y-57110D01*
X47827Y-57050D01*
X47842Y-57020D01*
X47857Y-57005D01*
X47887Y-56990D01*
X47902Y-56990D01*
X47932Y-57005D01*
X47947Y-57020D01*
X47962Y-57050D01*
X47962Y-57110D01*
X47977Y-57140D01*
X47992Y-57155D01*
X48022Y-57170D01*
X48082Y-57170D01*
X48112Y-57155D01*
X48127Y-57140D01*
X48142Y-57110D01*
X48142Y-57050D01*
X48127Y-57020D01*
X48112Y-57005D01*
X48082Y-56990D01*
X48022Y-56990D01*
X47992Y-57005D01*
X47977Y-57020D01*
X47962Y-57050D01*
X54052Y-57440D02*
X54052Y-57290D01*
X54142Y-57470D02*
X53827Y-57365D01*
X54142Y-57260D01*
X54142Y-56990D02*
X54142Y-57170D01*
X54142Y-57080D02*
X53827Y-57080D01*
X53872Y-57110D01*
X53902Y-57140D01*
X53917Y-57170D01*
X53932Y-56720D02*
X54142Y-56720D01*
X53812Y-56795D02*
X54037Y-56870D01*
X54037Y-56675D01*
X46052Y-57440D02*
X46052Y-57290D01*
X46142Y-57470D02*
X45827Y-57365D01*
X46142Y-57260D01*
X45827Y-57185D02*
X45827Y-56975D01*
X46142Y-57110D01*
X45052Y-57440D02*
X45052Y-57290D01*
X45142Y-57470D02*
X44827Y-57365D01*
X45142Y-57260D01*
X44827Y-57020D02*
X44827Y-57080D01*
X44842Y-57110D01*
X44857Y-57125D01*
X44902Y-57155D01*
X44962Y-57170D01*
X45082Y-57170D01*
X45112Y-57155D01*
X45127Y-57140D01*
X45142Y-57110D01*
X45142Y-57050D01*
X45127Y-57020D01*
X45112Y-57005D01*
X45082Y-56990D01*
X45007Y-56990D01*
X44977Y-57005D01*
X44962Y-57020D01*
X44947Y-57050D01*
X44947Y-57110D01*
X44962Y-57140D01*
X44977Y-57155D01*
X45007Y-57170D01*
X44052Y-57440D02*
X44052Y-57290D01*
X44142Y-57470D02*
X43827Y-57365D01*
X44142Y-57260D01*
X43827Y-57005D02*
X43827Y-57155D01*
X43977Y-57170D01*
X43962Y-57155D01*
X43947Y-57125D01*
X43947Y-57050D01*
X43962Y-57020D01*
X43977Y-57005D01*
X44007Y-56990D01*
X44082Y-56990D01*
X44112Y-57005D01*
X44127Y-57020D01*
X44142Y-57050D01*
X44142Y-57125D01*
X44127Y-57155D01*
X44112Y-57170D01*
X43052Y-57440D02*
X43052Y-57290D01*
X43142Y-57470D02*
X42827Y-57365D01*
X43142Y-57260D01*
X42932Y-57020D02*
X43142Y-57020D01*
X42812Y-57095D02*
X43037Y-57170D01*
X43037Y-56975D01*
X42052Y-57440D02*
X42052Y-57290D01*
X42142Y-57470D02*
X41827Y-57365D01*
X42142Y-57260D01*
X41827Y-57185D02*
X41827Y-56990D01*
X41947Y-57095D01*
X41947Y-57050D01*
X41962Y-57020D01*
X41977Y-57005D01*
X42007Y-56990D01*
X42082Y-56990D01*
X42112Y-57005D01*
X42127Y-57020D01*
X42142Y-57050D01*
X42142Y-57140D01*
X42127Y-57170D01*
X42112Y-57185D01*
X41052Y-57440D02*
X41052Y-57290D01*
X41142Y-57470D02*
X40827Y-57365D01*
X41142Y-57260D01*
X40857Y-57170D02*
X40842Y-57155D01*
X40827Y-57125D01*
X40827Y-57050D01*
X40842Y-57020D01*
X40857Y-57005D01*
X40887Y-56990D01*
X40917Y-56990D01*
X40962Y-57005D01*
X41142Y-57185D01*
X41142Y-56990D01*
X40052Y-57440D02*
X40052Y-57290D01*
X40142Y-57470D02*
X39827Y-57365D01*
X40142Y-57260D01*
X40142Y-56990D02*
X40142Y-57170D01*
X40142Y-57080D02*
X39827Y-57080D01*
X39872Y-57110D01*
X39902Y-57140D01*
X39917Y-57170D01*
X39052Y-57440D02*
X39052Y-57290D01*
X39142Y-57470D02*
X38827Y-57365D01*
X39142Y-57260D01*
X38827Y-57095D02*
X38827Y-57065D01*
X38842Y-57035D01*
X38857Y-57020D01*
X38887Y-57005D01*
X38947Y-56990D01*
X39022Y-56990D01*
X39082Y-57005D01*
X39112Y-57020D01*
X39127Y-57035D01*
X39142Y-57065D01*
X39142Y-57095D01*
X39127Y-57125D01*
X39112Y-57140D01*
X39082Y-57155D01*
X39022Y-57170D01*
X38947Y-57170D01*
X38887Y-57155D01*
X38857Y-57140D01*
X38842Y-57125D01*
X38827Y-57095D01*
G54D13*
X39178Y-27674D02*
X38784Y-27674D01*
X38784Y-27581D01*
X38803Y-27524D01*
X38840Y-27487D01*
X38878Y-27468D01*
X38953Y-27449D01*
X39009Y-27449D01*
X39084Y-27468D01*
X39121Y-27487D01*
X39159Y-27524D01*
X39178Y-27581D01*
X39178Y-27674D01*
X38784Y-27206D02*
X38784Y-27168D01*
X38803Y-27131D01*
X38821Y-27112D01*
X38859Y-27093D01*
X38934Y-27074D01*
X39028Y-27074D01*
X39103Y-27093D01*
X39140Y-27112D01*
X39159Y-27131D01*
X39178Y-27168D01*
X39178Y-27206D01*
X39159Y-27243D01*
X39140Y-27262D01*
X39103Y-27281D01*
X39028Y-27299D01*
X38934Y-27299D01*
X38859Y-27281D01*
X38821Y-27262D01*
X38803Y-27243D01*
X38784Y-27206D01*
G54D12*
X52666Y-36267D02*
X52666Y-35676D01*
X52919Y-36267D02*
X52919Y-35957D01*
X52891Y-35901D01*
X52835Y-35873D01*
X52750Y-35873D01*
X52694Y-35901D01*
X52666Y-35929D01*
X53116Y-35873D02*
X53341Y-35873D01*
X53200Y-35676D02*
X53200Y-36182D01*
X53228Y-36239D01*
X53285Y-36267D01*
X53341Y-36267D01*
X53453Y-35873D02*
X53678Y-35873D01*
X53538Y-35676D02*
X53538Y-36182D01*
X53566Y-36239D01*
X53622Y-36267D01*
X53678Y-36267D01*
X53875Y-35873D02*
X53875Y-36464D01*
X53875Y-35901D02*
X53931Y-35873D01*
X54044Y-35873D01*
X54100Y-35901D01*
X54128Y-35929D01*
X54156Y-35985D01*
X54156Y-36154D01*
X54128Y-36210D01*
X54100Y-36239D01*
X54044Y-36267D01*
X53931Y-36267D01*
X53875Y-36239D01*
X54381Y-36239D02*
X54438Y-36267D01*
X54550Y-36267D01*
X54606Y-36239D01*
X54634Y-36182D01*
X54634Y-36154D01*
X54606Y-36098D01*
X54550Y-36070D01*
X54466Y-36070D01*
X54410Y-36042D01*
X54381Y-35985D01*
X54381Y-35957D01*
X54410Y-35901D01*
X54466Y-35873D01*
X54550Y-35873D01*
X54606Y-35901D01*
X54888Y-36210D02*
X54916Y-36239D01*
X54888Y-36267D01*
X54859Y-36239D01*
X54888Y-36210D01*
X54888Y-36267D01*
X54888Y-35901D02*
X54916Y-35929D01*
X54888Y-35957D01*
X54859Y-35929D01*
X54888Y-35901D01*
X54888Y-35957D01*
X55591Y-35648D02*
X55084Y-36407D01*
X56209Y-35648D02*
X55703Y-36407D01*
X56659Y-35873D02*
X56659Y-36351D01*
X56631Y-36407D01*
X56603Y-36435D01*
X56547Y-36464D01*
X56462Y-36464D01*
X56406Y-36435D01*
X56659Y-36239D02*
X56603Y-36267D01*
X56491Y-36267D01*
X56434Y-36239D01*
X56406Y-36210D01*
X56378Y-36154D01*
X56378Y-35985D01*
X56406Y-35929D01*
X56434Y-35901D01*
X56491Y-35873D01*
X56603Y-35873D01*
X56659Y-35901D01*
X56940Y-36267D02*
X56940Y-35873D01*
X56940Y-35676D02*
X56912Y-35704D01*
X56940Y-35732D01*
X56969Y-35704D01*
X56940Y-35676D01*
X56940Y-35732D01*
X57137Y-35873D02*
X57362Y-35873D01*
X57222Y-35676D02*
X57222Y-36182D01*
X57250Y-36239D01*
X57306Y-36267D01*
X57362Y-36267D01*
X57559Y-36267D02*
X57559Y-35676D01*
X57812Y-36267D02*
X57812Y-35957D01*
X57784Y-35901D01*
X57728Y-35873D01*
X57643Y-35873D01*
X57587Y-35901D01*
X57559Y-35929D01*
X58347Y-35873D02*
X58347Y-36267D01*
X58093Y-35873D02*
X58093Y-36182D01*
X58122Y-36239D01*
X58178Y-36267D01*
X58262Y-36267D01*
X58318Y-36239D01*
X58347Y-36210D01*
X58628Y-36267D02*
X58628Y-35676D01*
X58628Y-35901D02*
X58684Y-35873D01*
X58796Y-35873D01*
X58853Y-35901D01*
X58881Y-35929D01*
X58909Y-35985D01*
X58909Y-36154D01*
X58881Y-36210D01*
X58853Y-36239D01*
X58796Y-36267D01*
X58684Y-36267D01*
X58628Y-36239D01*
X59162Y-36210D02*
X59190Y-36239D01*
X59162Y-36267D01*
X59134Y-36239D01*
X59162Y-36210D01*
X59162Y-36267D01*
X59696Y-36239D02*
X59640Y-36267D01*
X59528Y-36267D01*
X59471Y-36239D01*
X59443Y-36210D01*
X59415Y-36154D01*
X59415Y-35985D01*
X59443Y-35929D01*
X59471Y-35901D01*
X59528Y-35873D01*
X59640Y-35873D01*
X59696Y-35901D01*
X60034Y-36267D02*
X59978Y-36239D01*
X59949Y-36210D01*
X59921Y-36154D01*
X59921Y-35985D01*
X59949Y-35929D01*
X59978Y-35901D01*
X60034Y-35873D01*
X60118Y-35873D01*
X60174Y-35901D01*
X60203Y-35929D01*
X60231Y-35985D01*
X60231Y-36154D01*
X60203Y-36210D01*
X60174Y-36239D01*
X60118Y-36267D01*
X60034Y-36267D01*
X60484Y-36267D02*
X60484Y-35873D01*
X60484Y-35929D02*
X60512Y-35901D01*
X60568Y-35873D01*
X60652Y-35873D01*
X60709Y-35901D01*
X60737Y-35957D01*
X60737Y-36267D01*
X60737Y-35957D02*
X60765Y-35901D01*
X60821Y-35873D01*
X60906Y-35873D01*
X60962Y-35901D01*
X60990Y-35957D01*
X60990Y-36267D01*
X61693Y-35648D02*
X61187Y-36407D01*
X61890Y-36267D02*
X61890Y-35873D01*
X61890Y-35985D02*
X61918Y-35929D01*
X61946Y-35901D01*
X62002Y-35873D01*
X62059Y-35873D01*
X62255Y-35873D02*
X62255Y-36379D01*
X62227Y-36435D01*
X62171Y-36464D01*
X62143Y-36464D01*
X62255Y-35676D02*
X62227Y-35704D01*
X62255Y-35732D01*
X62284Y-35704D01*
X62255Y-35676D01*
X62255Y-35732D01*
X62480Y-35873D02*
X62593Y-36267D01*
X62705Y-35985D01*
X62818Y-36267D01*
X62930Y-35873D01*
X63437Y-35676D02*
X63155Y-35676D01*
X63127Y-35957D01*
X63155Y-35929D01*
X63212Y-35901D01*
X63352Y-35901D01*
X63408Y-35929D01*
X63437Y-35957D01*
X63465Y-36014D01*
X63465Y-36154D01*
X63437Y-36210D01*
X63408Y-36239D01*
X63352Y-36267D01*
X63212Y-36267D01*
X63155Y-36239D01*
X63127Y-36210D01*
X63661Y-35676D02*
X64055Y-35676D01*
X63802Y-36267D01*
X64702Y-35648D02*
X64196Y-36407D01*
X64899Y-36267D02*
X64899Y-35676D01*
X64899Y-35901D02*
X64955Y-35873D01*
X65068Y-35873D01*
X65124Y-35901D01*
X65152Y-35929D01*
X65180Y-35985D01*
X65180Y-36154D01*
X65152Y-36210D01*
X65124Y-36239D01*
X65068Y-36267D01*
X64955Y-36267D01*
X64899Y-36239D01*
X65686Y-35873D02*
X65686Y-36267D01*
X65433Y-35873D02*
X65433Y-36182D01*
X65461Y-36239D01*
X65517Y-36267D01*
X65602Y-36267D01*
X65658Y-36239D01*
X65686Y-36210D01*
X65967Y-36267D02*
X65967Y-35873D01*
X65967Y-35985D02*
X65996Y-35929D01*
X66024Y-35901D01*
X66080Y-35873D01*
X66136Y-35873D01*
X66333Y-36267D02*
X66333Y-35873D01*
X66333Y-35676D02*
X66305Y-35704D01*
X66333Y-35732D01*
X66361Y-35704D01*
X66333Y-35676D01*
X66333Y-35732D01*
X38281Y-35985D02*
X38366Y-36013D01*
X38394Y-36041D01*
X38422Y-36097D01*
X38422Y-36182D01*
X38394Y-36238D01*
X38366Y-36266D01*
X38309Y-36294D01*
X38084Y-36294D01*
X38084Y-35704D01*
X38281Y-35704D01*
X38338Y-35732D01*
X38366Y-35760D01*
X38394Y-35816D01*
X38394Y-35872D01*
X38366Y-35929D01*
X38338Y-35957D01*
X38281Y-35985D01*
X38084Y-35985D01*
X38675Y-35704D02*
X38675Y-36182D01*
X38703Y-36238D01*
X38731Y-36266D01*
X38787Y-36294D01*
X38900Y-36294D01*
X38956Y-36266D01*
X38984Y-36238D01*
X39012Y-36182D01*
X39012Y-35704D01*
X39631Y-36294D02*
X39434Y-36013D01*
X39294Y-36294D02*
X39294Y-35704D01*
X39519Y-35704D01*
X39575Y-35732D01*
X39603Y-35760D01*
X39631Y-35816D01*
X39631Y-35901D01*
X39603Y-35957D01*
X39575Y-35985D01*
X39519Y-36013D01*
X39294Y-36013D01*
X39884Y-36294D02*
X39884Y-35704D01*
X40615Y-36294D02*
X40615Y-35901D01*
X40615Y-35957D02*
X40643Y-35929D01*
X40700Y-35901D01*
X40784Y-35901D01*
X40840Y-35929D01*
X40868Y-35985D01*
X40868Y-36294D01*
X40868Y-35985D02*
X40897Y-35929D01*
X40953Y-35901D01*
X41037Y-35901D01*
X41093Y-35929D01*
X41122Y-35985D01*
X41122Y-36294D01*
X41403Y-36294D02*
X41403Y-35901D01*
X41403Y-35704D02*
X41375Y-35732D01*
X41403Y-35760D01*
X41431Y-35732D01*
X41403Y-35704D01*
X41403Y-35760D01*
X41937Y-36266D02*
X41881Y-36294D01*
X41768Y-36294D01*
X41712Y-36266D01*
X41684Y-36238D01*
X41656Y-36182D01*
X41656Y-36013D01*
X41684Y-35957D01*
X41712Y-35929D01*
X41768Y-35901D01*
X41881Y-35901D01*
X41937Y-35929D01*
X42190Y-36294D02*
X42190Y-35901D01*
X42190Y-36013D02*
X42218Y-35957D01*
X42246Y-35929D01*
X42303Y-35901D01*
X42359Y-35901D01*
X42640Y-36294D02*
X42584Y-36266D01*
X42556Y-36238D01*
X42528Y-36182D01*
X42528Y-36013D01*
X42556Y-35957D01*
X42584Y-35929D01*
X42640Y-35901D01*
X42724Y-35901D01*
X42781Y-35929D01*
X42809Y-35957D01*
X42837Y-36013D01*
X42837Y-36182D01*
X42809Y-36238D01*
X42781Y-36266D01*
X42724Y-36294D01*
X42640Y-36294D01*
X43343Y-36266D02*
X43287Y-36294D01*
X43174Y-36294D01*
X43118Y-36266D01*
X43090Y-36238D01*
X43062Y-36182D01*
X43062Y-36013D01*
X43090Y-35957D01*
X43118Y-35929D01*
X43174Y-35901D01*
X43287Y-35901D01*
X43343Y-35929D01*
X43681Y-36294D02*
X43624Y-36266D01*
X43596Y-36238D01*
X43568Y-36182D01*
X43568Y-36013D01*
X43596Y-35957D01*
X43624Y-35929D01*
X43681Y-35901D01*
X43765Y-35901D01*
X43821Y-35929D01*
X43849Y-35957D01*
X43877Y-36013D01*
X43877Y-36182D01*
X43849Y-36238D01*
X43821Y-36266D01*
X43765Y-36294D01*
X43681Y-36294D01*
X44131Y-36294D02*
X44131Y-35901D01*
X44131Y-35957D02*
X44159Y-35929D01*
X44215Y-35901D01*
X44299Y-35901D01*
X44356Y-35929D01*
X44384Y-35985D01*
X44384Y-36294D01*
X44384Y-35985D02*
X44412Y-35929D01*
X44468Y-35901D01*
X44552Y-35901D01*
X44609Y-35929D01*
X44637Y-35985D01*
X44637Y-36294D01*
X44918Y-35901D02*
X44918Y-36491D01*
X44918Y-35929D02*
X44974Y-35901D01*
X45087Y-35901D01*
X45143Y-35929D01*
X45171Y-35957D01*
X45199Y-36013D01*
X45199Y-36182D01*
X45171Y-36238D01*
X45143Y-36266D01*
X45087Y-36294D01*
X44974Y-36294D01*
X44918Y-36266D01*
X45705Y-35901D02*
X45705Y-36294D01*
X45452Y-35901D02*
X45452Y-36210D01*
X45480Y-36266D01*
X45537Y-36294D01*
X45621Y-36294D01*
X45677Y-36266D01*
X45705Y-36238D01*
X45902Y-35901D02*
X46127Y-35901D01*
X45987Y-35704D02*
X45987Y-36210D01*
X46015Y-36266D01*
X46071Y-36294D01*
X46127Y-36294D01*
X46549Y-36266D02*
X46493Y-36294D01*
X46380Y-36294D01*
X46324Y-36266D01*
X46296Y-36210D01*
X46296Y-35985D01*
X46324Y-35929D01*
X46380Y-35901D01*
X46493Y-35901D01*
X46549Y-35929D01*
X46577Y-35985D01*
X46577Y-36041D01*
X46296Y-36097D01*
X46830Y-36294D02*
X46830Y-35901D01*
X46830Y-36013D02*
X46858Y-35957D01*
X46886Y-35929D01*
X46943Y-35901D01*
X46999Y-35901D01*
X40601Y-37183D02*
X40573Y-37211D01*
X40489Y-37239D01*
X40433Y-37239D01*
X40348Y-37211D01*
X40292Y-37155D01*
X40264Y-37098D01*
X40236Y-36986D01*
X40236Y-36902D01*
X40264Y-36789D01*
X40292Y-36733D01*
X40348Y-36677D01*
X40433Y-36649D01*
X40489Y-36649D01*
X40573Y-36677D01*
X40601Y-36705D01*
X40854Y-37239D02*
X40854Y-36649D01*
X41079Y-36649D01*
X41136Y-36677D01*
X41164Y-36705D01*
X41192Y-36761D01*
X41192Y-36845D01*
X41164Y-36902D01*
X41136Y-36930D01*
X41079Y-36958D01*
X40854Y-36958D01*
X41445Y-36649D02*
X41445Y-37127D01*
X41473Y-37183D01*
X41501Y-37211D01*
X41557Y-37239D01*
X41670Y-37239D01*
X41726Y-37211D01*
X41754Y-37183D01*
X41782Y-37127D01*
X41782Y-36649D01*
X42514Y-37239D02*
X42514Y-36649D01*
X42514Y-36874D02*
X42570Y-36845D01*
X42682Y-36845D01*
X42739Y-36874D01*
X42767Y-36902D01*
X42795Y-36958D01*
X42795Y-37127D01*
X42767Y-37183D01*
X42739Y-37211D01*
X42682Y-37239D01*
X42570Y-37239D01*
X42514Y-37211D01*
X43132Y-37239D02*
X43076Y-37211D01*
X43048Y-37183D01*
X43020Y-37127D01*
X43020Y-36958D01*
X43048Y-36902D01*
X43076Y-36874D01*
X43132Y-36845D01*
X43217Y-36845D01*
X43273Y-36874D01*
X43301Y-36902D01*
X43329Y-36958D01*
X43329Y-37127D01*
X43301Y-37183D01*
X43273Y-37211D01*
X43217Y-37239D01*
X43132Y-37239D01*
X43835Y-37239D02*
X43835Y-36930D01*
X43807Y-36874D01*
X43751Y-36845D01*
X43638Y-36845D01*
X43582Y-36874D01*
X43835Y-37211D02*
X43779Y-37239D01*
X43638Y-37239D01*
X43582Y-37211D01*
X43554Y-37155D01*
X43554Y-37098D01*
X43582Y-37042D01*
X43638Y-37014D01*
X43779Y-37014D01*
X43835Y-36986D01*
X44116Y-37239D02*
X44116Y-36845D01*
X44116Y-36958D02*
X44145Y-36902D01*
X44173Y-36874D01*
X44229Y-36845D01*
X44285Y-36845D01*
X44735Y-37239D02*
X44735Y-36649D01*
X44735Y-37211D02*
X44679Y-37239D01*
X44566Y-37239D01*
X44510Y-37211D01*
X44482Y-37183D01*
X44454Y-37127D01*
X44454Y-36958D01*
X44482Y-36902D01*
X44510Y-36874D01*
X44566Y-36845D01*
X44679Y-36845D01*
X44735Y-36874D01*
X40461Y-29204D02*
X40658Y-29794D01*
X40855Y-29204D01*
X41361Y-29794D02*
X41024Y-29794D01*
X41192Y-29794D02*
X41192Y-29204D01*
X41136Y-29288D01*
X41080Y-29344D01*
X41024Y-29372D01*
X41614Y-29738D02*
X41642Y-29766D01*
X41614Y-29794D01*
X41586Y-29766D01*
X41614Y-29738D01*
X41614Y-29794D01*
X42008Y-29204D02*
X42064Y-29204D01*
X42120Y-29232D01*
X42149Y-29260D01*
X42177Y-29316D01*
X42205Y-29429D01*
X42205Y-29569D01*
X42177Y-29682D01*
X42149Y-29738D01*
X42120Y-29766D01*
X42064Y-29794D01*
X42008Y-29794D01*
X41952Y-29766D01*
X41924Y-29738D01*
X41895Y-29682D01*
X41867Y-29569D01*
X41867Y-29429D01*
X41895Y-29316D01*
X41924Y-29260D01*
X41952Y-29232D01*
X42008Y-29204D01*
X43077Y-30019D02*
X43048Y-29991D01*
X42992Y-29907D01*
X42964Y-29850D01*
X42936Y-29766D01*
X42908Y-29625D01*
X42908Y-29513D01*
X42936Y-29372D01*
X42964Y-29288D01*
X42992Y-29232D01*
X43048Y-29147D01*
X43077Y-29119D01*
X43639Y-29738D02*
X43611Y-29766D01*
X43526Y-29794D01*
X43470Y-29794D01*
X43386Y-29766D01*
X43330Y-29710D01*
X43302Y-29654D01*
X43273Y-29541D01*
X43273Y-29457D01*
X43302Y-29344D01*
X43330Y-29288D01*
X43386Y-29232D01*
X43470Y-29204D01*
X43526Y-29204D01*
X43611Y-29232D01*
X43639Y-29260D01*
X43836Y-30019D02*
X43864Y-29991D01*
X43920Y-29907D01*
X43948Y-29850D01*
X43976Y-29766D01*
X44005Y-29625D01*
X44005Y-29513D01*
X43976Y-29372D01*
X43948Y-29288D01*
X43920Y-29232D01*
X43864Y-29147D01*
X43836Y-29119D01*
X44708Y-29260D02*
X44736Y-29232D01*
X44792Y-29204D01*
X44933Y-29204D01*
X44989Y-29232D01*
X45017Y-29260D01*
X45045Y-29316D01*
X45045Y-29372D01*
X45017Y-29457D01*
X44679Y-29794D01*
X45045Y-29794D01*
X45411Y-29204D02*
X45467Y-29204D01*
X45523Y-29232D01*
X45551Y-29260D01*
X45579Y-29316D01*
X45607Y-29429D01*
X45607Y-29569D01*
X45579Y-29682D01*
X45551Y-29738D01*
X45523Y-29766D01*
X45467Y-29794D01*
X45411Y-29794D01*
X45354Y-29766D01*
X45326Y-29738D01*
X45298Y-29682D01*
X45270Y-29569D01*
X45270Y-29429D01*
X45298Y-29316D01*
X45326Y-29260D01*
X45354Y-29232D01*
X45411Y-29204D01*
X46170Y-29794D02*
X45832Y-29794D01*
X46001Y-29794D02*
X46001Y-29204D01*
X45945Y-29288D01*
X45889Y-29344D01*
X45832Y-29372D01*
X46704Y-29204D02*
X46423Y-29204D01*
X46395Y-29485D01*
X46423Y-29457D01*
X46479Y-29429D01*
X46620Y-29429D01*
X46676Y-29457D01*
X46704Y-29485D01*
X46732Y-29541D01*
X46732Y-29682D01*
X46704Y-29738D01*
X46676Y-29766D01*
X46620Y-29794D01*
X46479Y-29794D01*
X46423Y-29766D01*
X46395Y-29738D01*
X47773Y-29794D02*
X47576Y-29513D01*
X47435Y-29794D02*
X47435Y-29204D01*
X47660Y-29204D01*
X47717Y-29232D01*
X47745Y-29260D01*
X47773Y-29316D01*
X47773Y-29401D01*
X47745Y-29457D01*
X47717Y-29485D01*
X47660Y-29513D01*
X47435Y-29513D01*
X48026Y-29794D02*
X48026Y-29401D01*
X48026Y-29204D02*
X47998Y-29232D01*
X48026Y-29260D01*
X48054Y-29232D01*
X48026Y-29204D01*
X48026Y-29260D01*
X48560Y-29766D02*
X48504Y-29794D01*
X48392Y-29794D01*
X48335Y-29766D01*
X48307Y-29738D01*
X48279Y-29682D01*
X48279Y-29513D01*
X48307Y-29457D01*
X48335Y-29429D01*
X48392Y-29401D01*
X48504Y-29401D01*
X48560Y-29429D01*
X48813Y-29794D02*
X48813Y-29204D01*
X49066Y-29794D02*
X49066Y-29485D01*
X49038Y-29429D01*
X48982Y-29401D01*
X48898Y-29401D01*
X48841Y-29429D01*
X48813Y-29457D01*
X49741Y-29204D02*
X49882Y-29794D01*
X49994Y-29372D01*
X50107Y-29794D01*
X50248Y-29204D01*
X50726Y-29794D02*
X50726Y-29485D01*
X50697Y-29429D01*
X50641Y-29401D01*
X50529Y-29401D01*
X50473Y-29429D01*
X50726Y-29766D02*
X50669Y-29794D01*
X50529Y-29794D01*
X50473Y-29766D01*
X50444Y-29710D01*
X50444Y-29654D01*
X50473Y-29597D01*
X50529Y-29569D01*
X50669Y-29569D01*
X50726Y-29541D01*
X51007Y-29794D02*
X51007Y-29401D01*
X51007Y-29513D02*
X51035Y-29457D01*
X51063Y-29429D01*
X51119Y-29401D01*
X51176Y-29401D01*
X51597Y-29766D02*
X51541Y-29794D01*
X51429Y-29794D01*
X51372Y-29766D01*
X51344Y-29710D01*
X51344Y-29485D01*
X51372Y-29429D01*
X51429Y-29401D01*
X51541Y-29401D01*
X51597Y-29429D01*
X51625Y-29485D01*
X51625Y-29541D01*
X51344Y-29597D01*
X51879Y-29794D02*
X51879Y-29204D01*
X52132Y-29794D02*
X52132Y-29485D01*
X52104Y-29429D01*
X52047Y-29401D01*
X51963Y-29401D01*
X51907Y-29429D01*
X51879Y-29457D01*
X52666Y-29794D02*
X52666Y-29485D01*
X52638Y-29429D01*
X52582Y-29401D01*
X52469Y-29401D01*
X52413Y-29429D01*
X52666Y-29766D02*
X52610Y-29794D01*
X52469Y-29794D01*
X52413Y-29766D01*
X52385Y-29710D01*
X52385Y-29654D01*
X52413Y-29597D01*
X52469Y-29569D01*
X52610Y-29569D01*
X52666Y-29541D01*
X52947Y-29794D02*
X52947Y-29401D01*
X52947Y-29457D02*
X52975Y-29429D01*
X53032Y-29401D01*
X53116Y-29401D01*
X53172Y-29429D01*
X53200Y-29485D01*
X53200Y-29794D01*
X53200Y-29485D02*
X53228Y-29429D01*
X53285Y-29401D01*
X53369Y-29401D01*
X53425Y-29429D01*
X53453Y-29485D01*
X53453Y-29794D01*
X41080Y-30739D02*
X41080Y-30345D01*
X41080Y-30458D02*
X41108Y-30402D01*
X41136Y-30374D01*
X41192Y-30345D01*
X41249Y-30345D01*
X41446Y-30739D02*
X41446Y-30345D01*
X41446Y-30149D02*
X41417Y-30177D01*
X41446Y-30205D01*
X41474Y-30177D01*
X41446Y-30149D01*
X41446Y-30205D01*
X41980Y-30711D02*
X41924Y-30739D01*
X41811Y-30739D01*
X41755Y-30711D01*
X41727Y-30683D01*
X41699Y-30627D01*
X41699Y-30458D01*
X41727Y-30402D01*
X41755Y-30374D01*
X41811Y-30345D01*
X41924Y-30345D01*
X41980Y-30374D01*
X42233Y-30739D02*
X42233Y-30149D01*
X42486Y-30739D02*
X42486Y-30430D01*
X42458Y-30374D01*
X42402Y-30345D01*
X42317Y-30345D01*
X42261Y-30374D01*
X42233Y-30402D01*
X42767Y-30683D02*
X42795Y-30711D01*
X42767Y-30739D01*
X42739Y-30711D01*
X42767Y-30683D01*
X42767Y-30739D01*
X43048Y-30739D02*
X43048Y-30149D01*
X43048Y-30374D02*
X43105Y-30345D01*
X43217Y-30345D01*
X43273Y-30374D01*
X43302Y-30402D01*
X43330Y-30458D01*
X43330Y-30627D01*
X43302Y-30683D01*
X43273Y-30711D01*
X43217Y-30739D01*
X43105Y-30739D01*
X43048Y-30711D01*
X43836Y-30345D02*
X43836Y-30739D01*
X43583Y-30345D02*
X43583Y-30655D01*
X43611Y-30711D01*
X43667Y-30739D01*
X43751Y-30739D01*
X43808Y-30711D01*
X43836Y-30683D01*
X44117Y-30739D02*
X44117Y-30345D01*
X44117Y-30458D02*
X44145Y-30402D01*
X44173Y-30374D01*
X44230Y-30345D01*
X44286Y-30345D01*
X44483Y-30739D02*
X44483Y-30345D01*
X44483Y-30149D02*
X44455Y-30177D01*
X44483Y-30205D01*
X44511Y-30177D01*
X44483Y-30149D01*
X44483Y-30205D01*
X45129Y-30458D02*
X45101Y-30430D01*
X45045Y-30402D01*
X44989Y-30402D01*
X44933Y-30430D01*
X44904Y-30458D01*
X44876Y-30514D01*
X44876Y-30570D01*
X44904Y-30627D01*
X44933Y-30655D01*
X44989Y-30683D01*
X45045Y-30683D01*
X45101Y-30655D01*
X45129Y-30627D01*
X45129Y-30402D02*
X45129Y-30627D01*
X45158Y-30655D01*
X45186Y-30655D01*
X45242Y-30627D01*
X45270Y-30570D01*
X45270Y-30430D01*
X45214Y-30345D01*
X45129Y-30289D01*
X45017Y-30261D01*
X44904Y-30289D01*
X44820Y-30345D01*
X44764Y-30430D01*
X44736Y-30542D01*
X44764Y-30655D01*
X44820Y-30739D01*
X44904Y-30795D01*
X45017Y-30823D01*
X45129Y-30795D01*
X45214Y-30739D01*
X45523Y-30739D02*
X45523Y-30345D01*
X45523Y-30458D02*
X45551Y-30402D01*
X45579Y-30374D01*
X45636Y-30345D01*
X45692Y-30345D01*
X45889Y-30739D02*
X45889Y-30345D01*
X45889Y-30149D02*
X45861Y-30177D01*
X45889Y-30205D01*
X45917Y-30177D01*
X45889Y-30149D01*
X45889Y-30205D01*
X46423Y-30711D02*
X46367Y-30739D01*
X46254Y-30739D01*
X46198Y-30711D01*
X46170Y-30683D01*
X46142Y-30627D01*
X46142Y-30458D01*
X46170Y-30402D01*
X46198Y-30374D01*
X46254Y-30345D01*
X46367Y-30345D01*
X46423Y-30374D01*
X46676Y-30739D02*
X46676Y-30149D01*
X46929Y-30739D02*
X46929Y-30430D01*
X46901Y-30374D01*
X46845Y-30345D01*
X46760Y-30345D01*
X46704Y-30374D01*
X46676Y-30402D01*
X47154Y-30345D02*
X47267Y-30739D01*
X47379Y-30458D01*
X47492Y-30739D01*
X47604Y-30345D01*
X48082Y-30739D02*
X48082Y-30430D01*
X48054Y-30374D01*
X47998Y-30345D01*
X47885Y-30345D01*
X47829Y-30374D01*
X48082Y-30711D02*
X48026Y-30739D01*
X47885Y-30739D01*
X47829Y-30711D01*
X47801Y-30655D01*
X47801Y-30598D01*
X47829Y-30542D01*
X47885Y-30514D01*
X48026Y-30514D01*
X48082Y-30486D01*
X48363Y-30739D02*
X48363Y-30345D01*
X48363Y-30458D02*
X48392Y-30402D01*
X48420Y-30374D01*
X48476Y-30345D01*
X48532Y-30345D01*
X48954Y-30711D02*
X48898Y-30739D01*
X48785Y-30739D01*
X48729Y-30711D01*
X48701Y-30655D01*
X48701Y-30430D01*
X48729Y-30374D01*
X48785Y-30345D01*
X48898Y-30345D01*
X48954Y-30374D01*
X48982Y-30430D01*
X48982Y-30486D01*
X48701Y-30542D01*
X49235Y-30739D02*
X49235Y-30149D01*
X49488Y-30739D02*
X49488Y-30430D01*
X49460Y-30374D01*
X49404Y-30345D01*
X49320Y-30345D01*
X49263Y-30374D01*
X49235Y-30402D01*
X50023Y-30739D02*
X50023Y-30430D01*
X49994Y-30374D01*
X49938Y-30345D01*
X49826Y-30345D01*
X49769Y-30374D01*
X50023Y-30711D02*
X49966Y-30739D01*
X49826Y-30739D01*
X49769Y-30711D01*
X49741Y-30655D01*
X49741Y-30598D01*
X49769Y-30542D01*
X49826Y-30514D01*
X49966Y-30514D01*
X50023Y-30486D01*
X50304Y-30739D02*
X50304Y-30345D01*
X50304Y-30402D02*
X50332Y-30374D01*
X50388Y-30345D01*
X50473Y-30345D01*
X50529Y-30374D01*
X50557Y-30430D01*
X50557Y-30739D01*
X50557Y-30430D02*
X50585Y-30374D01*
X50641Y-30345D01*
X50726Y-30345D01*
X50782Y-30374D01*
X50810Y-30430D01*
X50810Y-30739D01*
X51091Y-30683D02*
X51119Y-30711D01*
X51091Y-30739D01*
X51063Y-30711D01*
X51091Y-30683D01*
X51091Y-30739D01*
X51625Y-30711D02*
X51569Y-30739D01*
X51457Y-30739D01*
X51401Y-30711D01*
X51372Y-30683D01*
X51344Y-30627D01*
X51344Y-30458D01*
X51372Y-30402D01*
X51401Y-30374D01*
X51457Y-30345D01*
X51569Y-30345D01*
X51625Y-30374D01*
X51963Y-30739D02*
X51907Y-30711D01*
X51879Y-30683D01*
X51850Y-30627D01*
X51850Y-30458D01*
X51879Y-30402D01*
X51907Y-30374D01*
X51963Y-30345D01*
X52047Y-30345D01*
X52104Y-30374D01*
X52132Y-30402D01*
X52160Y-30458D01*
X52160Y-30627D01*
X52132Y-30683D01*
X52104Y-30711D01*
X52047Y-30739D01*
X51963Y-30739D01*
X52413Y-30739D02*
X52413Y-30345D01*
X52413Y-30402D02*
X52441Y-30374D01*
X52497Y-30345D01*
X52582Y-30345D01*
X52638Y-30374D01*
X52666Y-30430D01*
X52666Y-30739D01*
X52666Y-30430D02*
X52694Y-30374D01*
X52750Y-30345D01*
X52835Y-30345D01*
X52891Y-30374D01*
X52919Y-30430D01*
X52919Y-30739D01*
G54D11*
X35127Y-54047D02*
X35142Y-54002D01*
X35142Y-53927D01*
X35127Y-53897D01*
X35112Y-53882D01*
X35082Y-53867D01*
X35052Y-53867D01*
X35022Y-53882D01*
X35007Y-53897D01*
X34992Y-53927D01*
X34977Y-53987D01*
X34962Y-54017D01*
X34947Y-54032D01*
X34917Y-54047D01*
X34887Y-54047D01*
X34857Y-54032D01*
X34842Y-54017D01*
X34827Y-53987D01*
X34827Y-53912D01*
X34842Y-53867D01*
X34992Y-53672D02*
X35142Y-53672D01*
X34827Y-53777D02*
X34992Y-53672D01*
X34827Y-53567D01*
X35142Y-53462D02*
X34827Y-53462D01*
X35142Y-53282D01*
X34827Y-53282D01*
X35112Y-52952D02*
X35127Y-52967D01*
X35142Y-53012D01*
X35142Y-53042D01*
X35127Y-53087D01*
X35097Y-53117D01*
X35067Y-53132D01*
X35007Y-53147D01*
X34962Y-53147D01*
X34902Y-53132D01*
X34872Y-53117D01*
X34842Y-53087D01*
X34827Y-53042D01*
X34827Y-53012D01*
X34842Y-52967D01*
X34857Y-52952D01*
X35327Y-52844D02*
X35642Y-52739D01*
X35327Y-52634D01*
X35642Y-52529D02*
X35327Y-52529D01*
X35642Y-52380D02*
X35327Y-52380D01*
X35642Y-52200D01*
X35327Y-52200D01*
X35142Y-51822D02*
X34827Y-51822D01*
X35142Y-51492D02*
X34992Y-51597D01*
X35142Y-51672D02*
X34827Y-51672D01*
X34827Y-51552D01*
X34842Y-51522D01*
X34857Y-51507D01*
X34887Y-51492D01*
X34932Y-51492D01*
X34962Y-51507D01*
X34977Y-51522D01*
X34992Y-51552D01*
X34992Y-51672D01*
X35172Y-51147D02*
X35157Y-51177D01*
X35127Y-51207D01*
X35082Y-51252D01*
X35067Y-51282D01*
X35067Y-51312D01*
X35142Y-51297D02*
X35127Y-51327D01*
X35097Y-51357D01*
X35037Y-51372D01*
X34932Y-51372D01*
X34872Y-51357D01*
X34842Y-51327D01*
X34827Y-51297D01*
X34827Y-51237D01*
X34842Y-51207D01*
X34872Y-51177D01*
X34932Y-51162D01*
X35037Y-51162D01*
X35097Y-51177D01*
X35127Y-51207D01*
X35142Y-51237D01*
X35142Y-51297D01*
X34773Y-51897D02*
X34773Y-51102D01*
X35642Y-50694D02*
X35492Y-50799D01*
X35642Y-50874D02*
X35327Y-50874D01*
X35327Y-50754D01*
X35342Y-50724D01*
X35357Y-50709D01*
X35387Y-50694D01*
X35432Y-50694D01*
X35462Y-50709D01*
X35477Y-50724D01*
X35492Y-50754D01*
X35492Y-50874D01*
X35642Y-50559D02*
X35327Y-50559D01*
X35327Y-50485D01*
X35342Y-50440D01*
X35372Y-50410D01*
X35402Y-50395D01*
X35462Y-50380D01*
X35507Y-50380D01*
X35567Y-50395D01*
X35597Y-50410D01*
X35627Y-50440D01*
X35642Y-50485D01*
X35642Y-50559D01*
X35492Y-50185D02*
X35642Y-50185D01*
X35327Y-50290D02*
X35492Y-50185D01*
X35327Y-50080D01*
X34842Y-49739D02*
X34827Y-49769D01*
X34827Y-49814D01*
X34842Y-49859D01*
X34872Y-49889D01*
X34902Y-49904D01*
X34962Y-49919D01*
X35007Y-49919D01*
X35067Y-49904D01*
X35097Y-49889D01*
X35127Y-49859D01*
X35142Y-49814D01*
X35142Y-49784D01*
X35127Y-49739D01*
X35112Y-49724D01*
X35007Y-49724D01*
X35007Y-49784D01*
X35142Y-49589D02*
X34827Y-49589D01*
X35142Y-49410D01*
X34827Y-49410D01*
X35142Y-49260D02*
X34827Y-49260D01*
X34827Y-49185D01*
X34842Y-49140D01*
X34872Y-49110D01*
X34902Y-49095D01*
X34962Y-49080D01*
X35007Y-49080D01*
X35067Y-49095D01*
X35097Y-49110D01*
X35127Y-49140D01*
X35142Y-49185D01*
X35142Y-49260D01*
X35522Y-48904D02*
X35522Y-48664D01*
X35642Y-48784D02*
X35402Y-48784D01*
X35327Y-48365D02*
X35327Y-48514D01*
X35477Y-48529D01*
X35462Y-48514D01*
X35447Y-48485D01*
X35447Y-48410D01*
X35462Y-48380D01*
X35477Y-48365D01*
X35507Y-48350D01*
X35582Y-48350D01*
X35612Y-48365D01*
X35627Y-48380D01*
X35642Y-48410D01*
X35642Y-48485D01*
X35627Y-48514D01*
X35612Y-48529D01*
X35327Y-48260D02*
X35642Y-48155D01*
X35327Y-48050D01*
X35477Y-33119D02*
X35492Y-33074D01*
X35507Y-33059D01*
X35537Y-33044D01*
X35582Y-33044D01*
X35612Y-33059D01*
X35627Y-33074D01*
X35642Y-33104D01*
X35642Y-33224D01*
X35327Y-33224D01*
X35327Y-33119D01*
X35342Y-33089D01*
X35357Y-33074D01*
X35387Y-33059D01*
X35417Y-33059D01*
X35447Y-33074D01*
X35462Y-33089D01*
X35477Y-33119D01*
X35477Y-33224D01*
X35477Y-32910D02*
X35477Y-32805D01*
X35642Y-32760D02*
X35642Y-32910D01*
X35327Y-32910D01*
X35327Y-32760D01*
X35142Y-32472D02*
X34827Y-32472D01*
X34827Y-32352D01*
X34842Y-32322D01*
X34857Y-32307D01*
X34887Y-32292D01*
X34932Y-32292D01*
X34962Y-32307D01*
X34977Y-32322D01*
X34992Y-32352D01*
X34992Y-32472D01*
X35142Y-32157D02*
X34827Y-32157D01*
X34977Y-32157D02*
X34977Y-31977D01*
X35142Y-31977D02*
X34827Y-31977D01*
X35142Y-31827D02*
X34827Y-31827D01*
X34857Y-31692D02*
X34842Y-31677D01*
X34827Y-31647D01*
X34827Y-31572D01*
X34842Y-31542D01*
X34857Y-31527D01*
X34887Y-31512D01*
X34917Y-31512D01*
X34962Y-31527D01*
X35142Y-31707D01*
X35142Y-31512D01*
X55142Y-27704D02*
X54827Y-27704D01*
X54827Y-27494D02*
X54827Y-27434D01*
X54842Y-27404D01*
X54872Y-27374D01*
X54932Y-27359D01*
X55037Y-27359D01*
X55097Y-27374D01*
X55127Y-27404D01*
X55142Y-27434D01*
X55142Y-27494D01*
X55127Y-27524D01*
X55097Y-27554D01*
X55037Y-27569D01*
X54932Y-27569D01*
X54872Y-27554D01*
X54842Y-27524D01*
X54827Y-27494D01*
X54827Y-27254D02*
X54827Y-27044D01*
X55142Y-27179D01*
X54773Y-27779D02*
X54773Y-27000D01*
X54142Y-27704D02*
X53827Y-27704D01*
X53827Y-27494D02*
X53827Y-27434D01*
X53842Y-27404D01*
X53872Y-27374D01*
X53932Y-27359D01*
X54037Y-27359D01*
X54097Y-27374D01*
X54127Y-27404D01*
X54142Y-27434D01*
X54142Y-27494D01*
X54127Y-27524D01*
X54097Y-27554D01*
X54037Y-27569D01*
X53932Y-27569D01*
X53872Y-27554D01*
X53842Y-27524D01*
X53827Y-27494D01*
X53827Y-27089D02*
X53827Y-27149D01*
X53842Y-27179D01*
X53857Y-27194D01*
X53902Y-27224D01*
X53962Y-27239D01*
X54082Y-27239D01*
X54112Y-27224D01*
X54127Y-27209D01*
X54142Y-27179D01*
X54142Y-27119D01*
X54127Y-27089D01*
X54112Y-27074D01*
X54082Y-27059D01*
X54007Y-27059D01*
X53977Y-27074D01*
X53962Y-27089D01*
X53947Y-27119D01*
X53947Y-27179D01*
X53962Y-27209D01*
X53977Y-27224D01*
X54007Y-27239D01*
X53773Y-27779D02*
X53773Y-27000D01*
X53142Y-27704D02*
X52827Y-27704D01*
X52827Y-27494D02*
X52827Y-27434D01*
X52842Y-27404D01*
X52872Y-27374D01*
X52932Y-27359D01*
X53037Y-27359D01*
X53097Y-27374D01*
X53127Y-27404D01*
X53142Y-27434D01*
X53142Y-27494D01*
X53127Y-27524D01*
X53097Y-27554D01*
X53037Y-27569D01*
X52932Y-27569D01*
X52872Y-27554D01*
X52842Y-27524D01*
X52827Y-27494D01*
X52827Y-27074D02*
X52827Y-27224D01*
X52977Y-27239D01*
X52962Y-27224D01*
X52947Y-27194D01*
X52947Y-27119D01*
X52962Y-27089D01*
X52977Y-27074D01*
X53007Y-27059D01*
X53082Y-27059D01*
X53112Y-27074D01*
X53127Y-27089D01*
X53142Y-27119D01*
X53142Y-27194D01*
X53127Y-27224D01*
X53112Y-27239D01*
X52773Y-27779D02*
X52773Y-27000D01*
X52142Y-27704D02*
X51827Y-27704D01*
X51827Y-27494D02*
X51827Y-27434D01*
X51842Y-27404D01*
X51872Y-27374D01*
X51932Y-27359D01*
X52037Y-27359D01*
X52097Y-27374D01*
X52127Y-27404D01*
X52142Y-27434D01*
X52142Y-27494D01*
X52127Y-27524D01*
X52097Y-27554D01*
X52037Y-27569D01*
X51932Y-27569D01*
X51872Y-27554D01*
X51842Y-27524D01*
X51827Y-27494D01*
X51932Y-27089D02*
X52142Y-27089D01*
X51812Y-27164D02*
X52037Y-27239D01*
X52037Y-27044D01*
X51773Y-27779D02*
X51773Y-27000D01*
X51142Y-27704D02*
X50827Y-27704D01*
X50827Y-27494D02*
X50827Y-27434D01*
X50842Y-27404D01*
X50872Y-27374D01*
X50932Y-27359D01*
X51037Y-27359D01*
X51097Y-27374D01*
X51127Y-27404D01*
X51142Y-27434D01*
X51142Y-27494D01*
X51127Y-27524D01*
X51097Y-27554D01*
X51037Y-27569D01*
X50932Y-27569D01*
X50872Y-27554D01*
X50842Y-27524D01*
X50827Y-27494D01*
X50827Y-27254D02*
X50827Y-27059D01*
X50947Y-27164D01*
X50947Y-27119D01*
X50962Y-27089D01*
X50977Y-27074D01*
X51007Y-27059D01*
X51082Y-27059D01*
X51112Y-27074D01*
X51127Y-27089D01*
X51142Y-27119D01*
X51142Y-27209D01*
X51127Y-27239D01*
X51112Y-27254D01*
X50773Y-27779D02*
X50773Y-27000D01*
X50142Y-27704D02*
X49827Y-27704D01*
X49827Y-27494D02*
X49827Y-27434D01*
X49842Y-27404D01*
X49872Y-27374D01*
X49932Y-27359D01*
X50037Y-27359D01*
X50097Y-27374D01*
X50127Y-27404D01*
X50142Y-27434D01*
X50142Y-27494D01*
X50127Y-27524D01*
X50097Y-27554D01*
X50037Y-27569D01*
X49932Y-27569D01*
X49872Y-27554D01*
X49842Y-27524D01*
X49827Y-27494D01*
X49857Y-27239D02*
X49842Y-27224D01*
X49827Y-27194D01*
X49827Y-27119D01*
X49842Y-27089D01*
X49857Y-27074D01*
X49887Y-27059D01*
X49917Y-27059D01*
X49962Y-27074D01*
X50142Y-27254D01*
X50142Y-27059D01*
X49773Y-27779D02*
X49773Y-27000D01*
X49142Y-27704D02*
X48827Y-27704D01*
X48827Y-27494D02*
X48827Y-27434D01*
X48842Y-27404D01*
X48872Y-27374D01*
X48932Y-27359D01*
X49037Y-27359D01*
X49097Y-27374D01*
X49127Y-27404D01*
X49142Y-27434D01*
X49142Y-27494D01*
X49127Y-27524D01*
X49097Y-27554D01*
X49037Y-27569D01*
X48932Y-27569D01*
X48872Y-27554D01*
X48842Y-27524D01*
X48827Y-27494D01*
X49142Y-27059D02*
X49142Y-27239D01*
X49142Y-27149D02*
X48827Y-27149D01*
X48872Y-27179D01*
X48902Y-27209D01*
X48917Y-27239D01*
X48773Y-27779D02*
X48773Y-27000D01*
X48142Y-27704D02*
X47827Y-27704D01*
X47827Y-27494D02*
X47827Y-27434D01*
X47842Y-27404D01*
X47872Y-27374D01*
X47932Y-27359D01*
X48037Y-27359D01*
X48097Y-27374D01*
X48127Y-27404D01*
X48142Y-27434D01*
X48142Y-27494D01*
X48127Y-27524D01*
X48097Y-27554D01*
X48037Y-27569D01*
X47932Y-27569D01*
X47872Y-27554D01*
X47842Y-27524D01*
X47827Y-27494D01*
X47827Y-27164D02*
X47827Y-27134D01*
X47842Y-27104D01*
X47857Y-27089D01*
X47887Y-27074D01*
X47947Y-27059D01*
X48022Y-27059D01*
X48082Y-27074D01*
X48112Y-27089D01*
X48127Y-27104D01*
X48142Y-27134D01*
X48142Y-27164D01*
X48127Y-27194D01*
X48112Y-27209D01*
X48082Y-27224D01*
X48022Y-27239D01*
X47947Y-27239D01*
X47887Y-27224D01*
X47857Y-27209D01*
X47842Y-27194D01*
X47827Y-27164D01*
X47773Y-27779D02*
X47773Y-27000D01*
G54D13*
X46178Y-27674D02*
X45784Y-27674D01*
X45784Y-27581D01*
X45803Y-27524D01*
X45840Y-27487D01*
X45878Y-27468D01*
X45953Y-27449D01*
X46009Y-27449D01*
X46084Y-27468D01*
X46121Y-27487D01*
X46159Y-27524D01*
X46178Y-27581D01*
X46178Y-27674D01*
X45784Y-27318D02*
X45784Y-27056D01*
X46178Y-27224D01*
X45178Y-27674D02*
X44784Y-27674D01*
X44784Y-27581D01*
X44803Y-27524D01*
X44840Y-27487D01*
X44878Y-27468D01*
X44953Y-27449D01*
X45009Y-27449D01*
X45084Y-27468D01*
X45121Y-27487D01*
X45159Y-27524D01*
X45178Y-27581D01*
X45178Y-27674D01*
X44784Y-27112D02*
X44784Y-27187D01*
X44803Y-27224D01*
X44821Y-27243D01*
X44878Y-27281D01*
X44953Y-27299D01*
X45103Y-27299D01*
X45140Y-27281D01*
X45159Y-27262D01*
X45178Y-27224D01*
X45178Y-27149D01*
X45159Y-27112D01*
X45140Y-27093D01*
X45103Y-27074D01*
X45009Y-27074D01*
X44971Y-27093D01*
X44953Y-27112D01*
X44934Y-27149D01*
X44934Y-27224D01*
X44953Y-27262D01*
X44971Y-27281D01*
X45009Y-27299D01*
X44178Y-27674D02*
X43784Y-27674D01*
X43784Y-27581D01*
X43803Y-27524D01*
X43840Y-27487D01*
X43878Y-27468D01*
X43953Y-27449D01*
X44009Y-27449D01*
X44084Y-27468D01*
X44121Y-27487D01*
X44159Y-27524D01*
X44178Y-27581D01*
X44178Y-27674D01*
X43784Y-27093D02*
X43784Y-27281D01*
X43971Y-27299D01*
X43953Y-27281D01*
X43934Y-27243D01*
X43934Y-27149D01*
X43953Y-27112D01*
X43971Y-27093D01*
X44009Y-27074D01*
X44103Y-27074D01*
X44140Y-27093D01*
X44159Y-27112D01*
X44178Y-27149D01*
X44178Y-27243D01*
X44159Y-27281D01*
X44140Y-27299D01*
X43178Y-27674D02*
X42784Y-27674D01*
X42784Y-27581D01*
X42803Y-27524D01*
X42840Y-27487D01*
X42878Y-27468D01*
X42953Y-27449D01*
X43009Y-27449D01*
X43084Y-27468D01*
X43121Y-27487D01*
X43159Y-27524D01*
X43178Y-27581D01*
X43178Y-27674D01*
X42915Y-27112D02*
X43178Y-27112D01*
X42765Y-27206D02*
X43046Y-27299D01*
X43046Y-27056D01*
X42178Y-27674D02*
X41784Y-27674D01*
X41784Y-27581D01*
X41803Y-27524D01*
X41840Y-27487D01*
X41878Y-27468D01*
X41953Y-27449D01*
X42009Y-27449D01*
X42084Y-27468D01*
X42121Y-27487D01*
X42159Y-27524D01*
X42178Y-27581D01*
X42178Y-27674D01*
X41784Y-27318D02*
X41784Y-27074D01*
X41934Y-27206D01*
X41934Y-27149D01*
X41953Y-27112D01*
X41971Y-27093D01*
X42009Y-27074D01*
X42103Y-27074D01*
X42140Y-27093D01*
X42159Y-27112D01*
X42178Y-27149D01*
X42178Y-27262D01*
X42159Y-27299D01*
X42140Y-27318D01*
X41178Y-27674D02*
X40784Y-27674D01*
X40784Y-27581D01*
X40803Y-27524D01*
X40840Y-27487D01*
X40878Y-27468D01*
X40953Y-27449D01*
X41009Y-27449D01*
X41084Y-27468D01*
X41121Y-27487D01*
X41159Y-27524D01*
X41178Y-27581D01*
X41178Y-27674D01*
X40821Y-27299D02*
X40803Y-27281D01*
X40784Y-27243D01*
X40784Y-27149D01*
X40803Y-27112D01*
X40821Y-27093D01*
X40859Y-27074D01*
X40896Y-27074D01*
X40953Y-27093D01*
X41178Y-27318D01*
X41178Y-27074D01*
X40178Y-27674D02*
X39784Y-27674D01*
X39784Y-27581D01*
X39803Y-27524D01*
X39840Y-27487D01*
X39878Y-27468D01*
X39953Y-27449D01*
X40009Y-27449D01*
X40084Y-27468D01*
X40121Y-27487D01*
X40159Y-27524D01*
X40178Y-27581D01*
X40178Y-27674D01*
X40178Y-27074D02*
X40178Y-27299D01*
X40178Y-27187D02*
X39784Y-27187D01*
X39840Y-27224D01*
X39878Y-27262D01*
X39896Y-27299D01*
G54D11*
X35642Y-31172D02*
X35492Y-31277D01*
X35642Y-31352D02*
X35327Y-31352D01*
X35327Y-31232D01*
X35342Y-31202D01*
X35357Y-31187D01*
X35387Y-31172D01*
X35432Y-31172D01*
X35462Y-31187D01*
X35477Y-31202D01*
X35492Y-31232D01*
X35492Y-31352D01*
X35627Y-31052D02*
X35642Y-31007D01*
X35642Y-30932D01*
X35627Y-30902D01*
X35612Y-30887D01*
X35582Y-30872D01*
X35552Y-30872D01*
X35522Y-30887D01*
X35507Y-30902D01*
X35492Y-30932D01*
X35477Y-30992D01*
X35462Y-31022D01*
X35447Y-31037D01*
X35417Y-31052D01*
X35387Y-31052D01*
X35357Y-31037D01*
X35342Y-31022D01*
X35327Y-30992D01*
X35327Y-30917D01*
X35342Y-30872D01*
X35327Y-30782D02*
X35327Y-30602D01*
X35642Y-30692D02*
X35327Y-30692D01*
X35273Y-31427D02*
X35273Y-30572D01*
G54D14*
X56000Y-51200D02*
X56000Y-52800D01*
X57000Y-52800D02*
X57000Y-51200D01*
X40000Y-47300D02*
X40000Y-45700D01*
X39000Y-45700D02*
X39000Y-47300D01*
X59000Y-39800D02*
X59000Y-38200D01*
X58000Y-38200D02*
X58000Y-39800D01*
X56000Y-32200D02*
X56000Y-33800D01*
X57000Y-33800D02*
X57000Y-32200D01*
X69000Y-39800D02*
X69000Y-38200D01*
X68000Y-38200D02*
X68000Y-39800D01*
X60748Y-56185D02*
X60512Y-56185D01*
X60630Y-56067D02*
X60630Y-56303D01*
X60984Y-56500D02*
G75*
G03X60984Y-56500I-984J0D01*
G74*
G01*
X68748Y-56185D02*
X68512Y-56185D01*
X68630Y-56067D02*
X68630Y-56303D01*
X68984Y-56500D02*
G75*
G03X68984Y-56500I-984J0D01*
G74*
G01*
X70500Y-57300D02*
X70500Y-55700D01*
X69500Y-55700D02*
X69500Y-57300D01*
X59000Y-45800D02*
X59000Y-44200D01*
X58000Y-44200D02*
X58000Y-45800D01*
X59000Y-33800D02*
X59000Y-32200D01*
X58000Y-32200D02*
X58000Y-33800D01*
X71900Y-54500D02*
X72450Y-54500D01*
X70150Y-54500D02*
X69550Y-54500D01*
G54D15*
X70300Y-54800D02*
X70300Y-54200D01*
X70200Y-54800D02*
X70200Y-54200D01*
X70100Y-54500D02*
X70100Y-54200D01*
X70100Y-54200D02*
X71900Y-54200D01*
X71900Y-54200D02*
X71900Y-54800D01*
X71900Y-54800D02*
X70100Y-54800D01*
X70100Y-54800D02*
X70100Y-54500D01*
X56000Y-48000D02*
X56000Y-50000D01*
X56000Y-50000D02*
X57000Y-50000D01*
X57000Y-50000D02*
X57000Y-48000D01*
X57000Y-47000D02*
X57000Y-48000D01*
X57000Y-48000D02*
X56000Y-48000D01*
X57000Y-47000D02*
X56000Y-47000D01*
X56000Y-47000D02*
X56000Y-48000D01*
G54D14*
X38000Y-33969D02*
X38000Y-34369D01*
X38000Y-31969D02*
X38000Y-31569D01*
X37500Y-33969D02*
X37500Y-31969D01*
X37500Y-31969D02*
X38500Y-31969D01*
X38500Y-31969D02*
X38500Y-33969D01*
X38500Y-33969D02*
X37500Y-33969D01*
X38000Y-49531D02*
X38000Y-49131D01*
X38000Y-51531D02*
X38000Y-51931D01*
X38500Y-49531D02*
X38500Y-51531D01*
X38500Y-51531D02*
X37500Y-51531D01*
X37500Y-51531D02*
X37500Y-49531D01*
X37500Y-49531D02*
X38500Y-49531D01*
X39500Y-33969D02*
X39500Y-34369D01*
X39500Y-31969D02*
X39500Y-31569D01*
X39000Y-33969D02*
X39000Y-31969D01*
X39000Y-31969D02*
X40000Y-31969D01*
X40000Y-31969D02*
X40000Y-33969D01*
X40000Y-33969D02*
X39000Y-33969D01*
X39500Y-49531D02*
X39500Y-49131D01*
X39500Y-51531D02*
X39500Y-51931D01*
X40000Y-49531D02*
X40000Y-51531D01*
X40000Y-51531D02*
X39000Y-51531D01*
X39000Y-51531D02*
X39000Y-49531D01*
X39000Y-49531D02*
X40000Y-49531D01*
X66031Y-29000D02*
X65631Y-29000D01*
X68031Y-29000D02*
X68431Y-29000D01*
X66031Y-28500D02*
X68031Y-28500D01*
X68031Y-28500D02*
X68031Y-29500D01*
X68031Y-29500D02*
X66031Y-29500D01*
X66031Y-29500D02*
X66031Y-28500D01*
X58031Y-29000D02*
X57631Y-29000D01*
X60031Y-29000D02*
X60431Y-29000D01*
X58031Y-28500D02*
X60031Y-28500D01*
X60031Y-28500D02*
X60031Y-29500D01*
X60031Y-29500D02*
X58031Y-29500D01*
X58031Y-29500D02*
X58031Y-28500D01*
X58031Y-27500D02*
X57631Y-27500D01*
X60031Y-27500D02*
X60431Y-27500D01*
X58031Y-27000D02*
X60031Y-27000D01*
X60031Y-27000D02*
X60031Y-28000D01*
X60031Y-28000D02*
X58031Y-28000D01*
X58031Y-28000D02*
X58031Y-27000D01*
X69925Y-32303D02*
X69925Y-32697D01*
X73075Y-32303D02*
X73075Y-32697D01*
X69925Y-34075D02*
X73075Y-34075D01*
X69925Y-30925D02*
X73075Y-30925D01*
X72380Y-32500D02*
G75*
G03X72380Y-32500I-880J0D01*
G74*
G01*
X58500Y-57300D02*
X58500Y-55700D01*
X57500Y-55700D02*
X57500Y-57300D01*
X62252Y-28815D02*
X62488Y-28815D01*
X62370Y-28933D02*
X62370Y-28697D01*
X63984Y-28500D02*
G75*
G03X63984Y-28500I-984J0D01*
G74*
G01*
X68000Y-27500D02*
X68400Y-27500D01*
X66100Y-27500D02*
X65600Y-27500D01*
G54D15*
X66200Y-28000D02*
X66200Y-27000D01*
X66300Y-28000D02*
X66300Y-27000D01*
X66400Y-28000D02*
X66400Y-27000D01*
X66100Y-28000D02*
X66100Y-27000D01*
X66500Y-28000D02*
X66000Y-27000D01*
X66000Y-28000D02*
X66500Y-27000D01*
X66500Y-28000D02*
X66500Y-27000D01*
X66250Y-28000D02*
X66250Y-27000D01*
X66000Y-27000D02*
X66000Y-28000D01*
X66000Y-28000D02*
X68000Y-28000D01*
X68000Y-28000D02*
X68000Y-27000D01*
X68000Y-27000D02*
X66000Y-27000D01*
X39500Y-28000D02*
X46500Y-28000D01*
X46500Y-28000D02*
X46500Y-29000D01*
X46500Y-29000D02*
X39500Y-29000D01*
X38500Y-28000D02*
X39500Y-28000D01*
X39500Y-28000D02*
X39500Y-29000D01*
X38500Y-28000D02*
X38500Y-29000D01*
X38500Y-29000D02*
X39500Y-29000D01*
G54D14*
X72575Y-49772D02*
X72575Y-46228D01*
X73953Y-49772D02*
X73953Y-46228D01*
X73953Y-46228D02*
X68244Y-46228D01*
X68244Y-46228D02*
X68244Y-49772D01*
X68244Y-49772D02*
X73953Y-49772D01*
G54D15*
X37000Y-49000D02*
X37000Y-54000D01*
X37000Y-54000D02*
X36000Y-54000D01*
X36000Y-54000D02*
X36000Y-49000D01*
X37000Y-48000D02*
X37000Y-49000D01*
X37000Y-49000D02*
X36000Y-49000D01*
X37000Y-48000D02*
X36000Y-48000D01*
X36000Y-48000D02*
X36000Y-49000D01*
X37000Y-31500D02*
X37000Y-36500D01*
X37000Y-36500D02*
X36000Y-36500D01*
X36000Y-36500D02*
X36000Y-31500D01*
X37000Y-30500D02*
X37000Y-31500D01*
X37000Y-31500D02*
X36000Y-31500D01*
X37000Y-30500D02*
X36000Y-30500D01*
X36000Y-30500D02*
X36000Y-31500D01*
X48500Y-28000D02*
X55500Y-28000D01*
X55500Y-28000D02*
X55500Y-29000D01*
X55500Y-29000D02*
X48500Y-29000D01*
X47500Y-28000D02*
X48500Y-28000D01*
X48500Y-28000D02*
X48500Y-29000D01*
X47500Y-28000D02*
X47500Y-29000D01*
X47500Y-29000D02*
X48500Y-29000D01*
X39500Y-55500D02*
X46500Y-55500D01*
X46500Y-55500D02*
X46500Y-56500D01*
X46500Y-56500D02*
X39500Y-56500D01*
X38500Y-55500D02*
X39500Y-55500D01*
X39500Y-55500D02*
X39500Y-56500D01*
X38500Y-55500D02*
X38500Y-56500D01*
X38500Y-56500D02*
X39500Y-56500D01*
X48500Y-55500D02*
X55500Y-55500D01*
X55500Y-55500D02*
X55500Y-56500D01*
X55500Y-56500D02*
X48500Y-56500D01*
X47500Y-55500D02*
X48500Y-55500D01*
X48500Y-55500D02*
X48500Y-56500D01*
X47500Y-55500D02*
X47500Y-56500D01*
X47500Y-56500D02*
X48500Y-56500D01*
G54D14*
X35500Y-41000D02*
X36000Y-41000D01*
X36000Y-41000D02*
X36000Y-42000D01*
X36000Y-42000D02*
X35500Y-42000D01*
X35500Y-39000D02*
X56500Y-39000D01*
X56500Y-39000D02*
X56500Y-44000D01*
X56500Y-44000D02*
X35500Y-44000D01*
X35500Y-44000D02*
X35500Y-39000D01*
X55500Y-50500D02*
X55500Y-50500D01*
X55500Y-50500D02*
X55000Y-50500D01*
X55000Y-50500D02*
X55000Y-49500D01*
X55000Y-49500D02*
X55500Y-49500D01*
X55500Y-52500D02*
X40500Y-52500D01*
X40500Y-52500D02*
X40500Y-47500D01*
X40500Y-47500D02*
X55500Y-47500D01*
X55500Y-47500D02*
X55500Y-52500D01*
X59500Y-38000D02*
X67500Y-38000D01*
X67500Y-40000D02*
X59500Y-40000D01*
X59500Y-40000D02*
X59500Y-38000D01*
X59500Y-38500D02*
X60000Y-38500D01*
X60000Y-38500D02*
X60000Y-39500D01*
X60000Y-39500D02*
X59500Y-39500D01*
X67500Y-38000D02*
X67500Y-40000D01*
X55500Y-34000D02*
X40500Y-34000D01*
X40500Y-34000D02*
X40500Y-32000D01*
X40500Y-32000D02*
X55500Y-32000D01*
X55500Y-32000D02*
X55500Y-34000D01*
X55500Y-33500D02*
X55000Y-33500D01*
X55000Y-33500D02*
X55000Y-32500D01*
X55000Y-32500D02*
X55500Y-32500D01*
X69500Y-38500D02*
X70000Y-38500D01*
X70000Y-38500D02*
X70000Y-39500D01*
X70000Y-39500D02*
X69500Y-39500D01*
X69500Y-38000D02*
X73500Y-38000D01*
X73500Y-38000D02*
X73500Y-40000D01*
X73500Y-40000D02*
X69500Y-40000D01*
X69500Y-40000D02*
X69500Y-38000D01*
G54D15*
X65750Y-56750D02*
X65750Y-57000D01*
X65750Y-57000D02*
X62250Y-57000D01*
X62250Y-57000D02*
X62250Y-56750D01*
X65750Y-55250D02*
X65750Y-56750D01*
X65750Y-56750D02*
X62250Y-56750D01*
X62250Y-56750D02*
X62250Y-55250D01*
X62250Y-55250D02*
X65750Y-55250D01*
G54D14*
X59500Y-44000D02*
X67500Y-44000D01*
X67500Y-46000D02*
X59500Y-46000D01*
X59500Y-46000D02*
X59500Y-44000D01*
X59500Y-44500D02*
X60000Y-44500D01*
X60000Y-44500D02*
X60000Y-45500D01*
X60000Y-45500D02*
X59500Y-45500D01*
X67500Y-44000D02*
X67500Y-46000D01*
X59500Y-50500D02*
X67500Y-50500D01*
X67500Y-52500D02*
X59500Y-52500D01*
X59500Y-52500D02*
X59500Y-50500D01*
X59500Y-51000D02*
X60000Y-51000D01*
X60000Y-51000D02*
X60000Y-52000D01*
X60000Y-52000D02*
X59500Y-52000D01*
X67500Y-50500D02*
X67500Y-52500D01*
X59500Y-32500D02*
X59500Y-32500D01*
X59500Y-32500D02*
X60000Y-32500D01*
X60000Y-32500D02*
X60000Y-33500D01*
X60000Y-33500D02*
X59500Y-33500D01*
X59500Y-32000D02*
X68500Y-32000D01*
X68500Y-32000D02*
X68500Y-34000D01*
X68500Y-34000D02*
X59500Y-34000D01*
X59500Y-34000D02*
X59500Y-32000D01*
G54D16*
X71380Y-43750D02*
X71380Y-45250D01*
G54D17*
X73107Y-44500D02*
G75*
G03X73107Y-44500I-707J0D01*
G74*
G01*
G54D15*
X71400Y-45251D02*
G75*
G03X71400Y-43750I999J751D01*
G74*
G01*
G54D18*
X72400Y-44950D02*
G75*
G03X72850Y-44500I0J450D01*
G74*
G01*
X72400Y-44050D02*
G75*
G03X71950Y-44500I0J-450D01*
G74*
G01*
X72400Y-45150D02*
G75*
G03X73050Y-44500I0J650D01*
G74*
G01*
X72400Y-43850D02*
G75*
G03X71750Y-44500I0J-650D01*
G74*
G01*
X72400Y-45350D02*
G75*
G03X73250Y-44500I0J850D01*
G74*
G01*
X72400Y-43650D02*
G75*
G03X71550Y-44500I0J-850D01*
G74*
G01*
G54D14*
X70031Y-42500D02*
X69631Y-42500D01*
X72031Y-42500D02*
X72431Y-42500D01*
X70031Y-42000D02*
X72031Y-42000D01*
X72031Y-42000D02*
X72031Y-43000D01*
X72031Y-43000D02*
X70031Y-43000D01*
X70031Y-43000D02*
X70031Y-42000D01*
G54D18*
X69500Y-53750D02*
X69500Y-50250D01*
X73500Y-50250D02*
X73500Y-53750D01*
X69500Y-53750D02*
X70500Y-53750D01*
X70500Y-54000D02*
X70500Y-53750D01*
X73500Y-53750D02*
X72500Y-53750D01*
X72500Y-54000D02*
X72500Y-53750D01*
X72500Y-54000D02*
X71750Y-54000D01*
X73500Y-50250D02*
X72500Y-50250D01*
X72500Y-50000D02*
X72500Y-50250D01*
X69500Y-50250D02*
X70500Y-50250D01*
X70500Y-50000D02*
X70500Y-50250D01*
X70500Y-50000D02*
X71250Y-50000D01*
X71750Y-50000D02*
X71750Y-50250D01*
X71750Y-50000D02*
X72500Y-50000D01*
X71750Y-50250D02*
X71250Y-50250D01*
X71250Y-50250D02*
X71250Y-50000D01*
X71250Y-50000D02*
X71750Y-50000D01*
X71750Y-54000D02*
X71750Y-53750D01*
X71750Y-54000D02*
X71250Y-54000D01*
X71750Y-53750D02*
X71250Y-53750D01*
X71250Y-53750D02*
X71250Y-54000D01*
X71250Y-54000D02*
X70500Y-54000D01*
X72750Y-53500D02*
X70250Y-53500D01*
X72750Y-50500D02*
X70250Y-50500D01*
X72750Y-50650D02*
X72750Y-50500D01*
X72250Y-53000D02*
X72250Y-51250D01*
X72250Y-51000D02*
X70750Y-51000D01*
X70750Y-51000D02*
X70750Y-51250D01*
X70750Y-53000D02*
X72250Y-53000D01*
X73900Y-50820D02*
X73900Y-53180D01*
X69100Y-53180D02*
X71500Y-53180D01*
X69100Y-53180D02*
X69100Y-50820D01*
X73900Y-50820D02*
X71500Y-50820D01*
X69500Y-51250D02*
X69500Y-52750D01*
X73500Y-51250D02*
X73500Y-52750D01*
X73500Y-52750D02*
X71500Y-53180D01*
X71500Y-53180D02*
X69500Y-52750D01*
X69500Y-51250D02*
X71500Y-50820D01*
X71500Y-50820D02*
X73500Y-51250D01*
X73500Y-51250D02*
X73900Y-50820D01*
X73500Y-52750D02*
X73900Y-53180D01*
X69500Y-52750D02*
X69100Y-53180D01*
X69500Y-51250D02*
X69100Y-50820D01*
X71500Y-50820D02*
X69100Y-50820D01*
X71500Y-53180D02*
X73900Y-53180D01*
X72750Y-53500D02*
X72750Y-53350D01*
X70250Y-50650D02*
X70250Y-50500D01*
X70250Y-53500D02*
X70250Y-53350D01*
X72000Y-52000D02*
X71000Y-52000D01*
X71500Y-51500D02*
X71500Y-52500D01*
X72250Y-51250D02*
X70750Y-51250D01*
X72250Y-51250D02*
X72250Y-51000D01*
X70750Y-51250D02*
X70750Y-53000D01*
G54D14*
X34500Y-58000D02*
X34500Y-26504D01*
X34500Y-26504D02*
X73870Y-26504D01*
X73870Y-26504D02*
X73870Y-58000D01*
X73870Y-58000D02*
X34500Y-58000D01*
X59000Y-52300D02*
X59000Y-50700D01*
X58000Y-50700D02*
X58000Y-52300D01*
G54D19*
X56400Y-53714D02*
X56371Y-53742D01*
X56285Y-53771D01*
X56228Y-53771D01*
X56142Y-53742D01*
X56085Y-53685D01*
X56057Y-53628D01*
X56028Y-53514D01*
X56028Y-53428D01*
X56057Y-53314D01*
X56085Y-53257D01*
X56142Y-53200D01*
X56228Y-53171D01*
X56285Y-53171D01*
X56371Y-53200D01*
X56400Y-53228D01*
X56971Y-53771D02*
X56628Y-53771D01*
X56800Y-53771D02*
X56800Y-53171D01*
X56742Y-53257D01*
X56685Y-53314D01*
X56628Y-53342D01*
X38714Y-46600D02*
X38742Y-46628D01*
X38771Y-46714D01*
X38771Y-46771D01*
X38742Y-46857D01*
X38685Y-46914D01*
X38628Y-46942D01*
X38514Y-46971D01*
X38428Y-46971D01*
X38314Y-46942D01*
X38257Y-46914D01*
X38200Y-46857D01*
X38171Y-46771D01*
X38171Y-46714D01*
X38200Y-46628D01*
X38228Y-46600D01*
X38228Y-46371D02*
X38200Y-46342D01*
X38171Y-46285D01*
X38171Y-46142D01*
X38200Y-46085D01*
X38228Y-46057D01*
X38285Y-46028D01*
X38342Y-46028D01*
X38428Y-46057D01*
X38771Y-46400D01*
X38771Y-46028D01*
X57714Y-39100D02*
X57742Y-39128D01*
X57771Y-39214D01*
X57771Y-39271D01*
X57742Y-39357D01*
X57685Y-39414D01*
X57628Y-39442D01*
X57514Y-39471D01*
X57428Y-39471D01*
X57314Y-39442D01*
X57257Y-39414D01*
X57200Y-39357D01*
X57171Y-39271D01*
X57171Y-39214D01*
X57200Y-39128D01*
X57228Y-39100D01*
X57171Y-38900D02*
X57171Y-38528D01*
X57400Y-38728D01*
X57400Y-38642D01*
X57428Y-38585D01*
X57457Y-38557D01*
X57514Y-38528D01*
X57657Y-38528D01*
X57714Y-38557D01*
X57742Y-38585D01*
X57771Y-38642D01*
X57771Y-38814D01*
X57742Y-38871D01*
X57714Y-38900D01*
X56400Y-31714D02*
X56371Y-31742D01*
X56285Y-31771D01*
X56228Y-31771D01*
X56142Y-31742D01*
X56085Y-31685D01*
X56057Y-31628D01*
X56028Y-31514D01*
X56028Y-31428D01*
X56057Y-31314D01*
X56085Y-31257D01*
X56142Y-31200D01*
X56228Y-31171D01*
X56285Y-31171D01*
X56371Y-31200D01*
X56400Y-31228D01*
X56914Y-31371D02*
X56914Y-31771D01*
X56771Y-31142D02*
X56628Y-31571D01*
X57000Y-31571D01*
X68400Y-37714D02*
X68371Y-37742D01*
X68285Y-37771D01*
X68228Y-37771D01*
X68142Y-37742D01*
X68085Y-37685D01*
X68057Y-37628D01*
X68028Y-37514D01*
X68028Y-37428D01*
X68057Y-37314D01*
X68085Y-37257D01*
X68142Y-37200D01*
X68228Y-37171D01*
X68285Y-37171D01*
X68371Y-37200D01*
X68400Y-37228D01*
X68942Y-37171D02*
X68657Y-37171D01*
X68628Y-37457D01*
X68657Y-37428D01*
X68714Y-37400D01*
X68857Y-37400D01*
X68914Y-37428D01*
X68942Y-37457D01*
X68971Y-37514D01*
X68971Y-37657D01*
X68942Y-37714D01*
X68914Y-37742D01*
X68857Y-37771D01*
X68714Y-37771D01*
X68657Y-37742D01*
X68628Y-37714D01*
X59900Y-55214D02*
X59871Y-55242D01*
X59785Y-55271D01*
X59728Y-55271D01*
X59642Y-55242D01*
X59585Y-55185D01*
X59557Y-55128D01*
X59528Y-55014D01*
X59528Y-54928D01*
X59557Y-54814D01*
X59585Y-54757D01*
X59642Y-54700D01*
X59728Y-54671D01*
X59785Y-54671D01*
X59871Y-54700D01*
X59900Y-54728D01*
X60100Y-54671D02*
X60500Y-54671D01*
X60242Y-55271D01*
X67400Y-55214D02*
X67371Y-55242D01*
X67285Y-55271D01*
X67228Y-55271D01*
X67142Y-55242D01*
X67085Y-55185D01*
X67057Y-55128D01*
X67028Y-55014D01*
X67028Y-54928D01*
X67057Y-54814D01*
X67085Y-54757D01*
X67142Y-54700D01*
X67228Y-54671D01*
X67285Y-54671D01*
X67371Y-54700D01*
X67400Y-54728D01*
X67742Y-54928D02*
X67685Y-54900D01*
X67657Y-54871D01*
X67628Y-54814D01*
X67628Y-54785D01*
X67657Y-54728D01*
X67685Y-54700D01*
X67742Y-54671D01*
X67857Y-54671D01*
X67914Y-54700D01*
X67942Y-54728D01*
X67971Y-54785D01*
X67971Y-54814D01*
X67942Y-54871D01*
X67914Y-54900D01*
X67857Y-54928D01*
X67742Y-54928D01*
X67685Y-54957D01*
X67657Y-54985D01*
X67628Y-55042D01*
X67628Y-55157D01*
X67657Y-55214D01*
X67685Y-55242D01*
X67742Y-55271D01*
X67857Y-55271D01*
X67914Y-55242D01*
X67942Y-55214D01*
X67971Y-55157D01*
X67971Y-55042D01*
X67942Y-54985D01*
X67914Y-54957D01*
X67857Y-54928D01*
X71400Y-57714D02*
X71371Y-57742D01*
X71285Y-57771D01*
X71228Y-57771D01*
X71142Y-57742D01*
X71085Y-57685D01*
X71057Y-57628D01*
X71028Y-57514D01*
X71028Y-57428D01*
X71057Y-57314D01*
X71085Y-57257D01*
X71142Y-57200D01*
X71228Y-57171D01*
X71285Y-57171D01*
X71371Y-57200D01*
X71400Y-57228D01*
X71685Y-57771D02*
X71800Y-57771D01*
X71857Y-57742D01*
X71885Y-57714D01*
X71942Y-57628D01*
X71971Y-57514D01*
X71971Y-57285D01*
X71942Y-57228D01*
X71914Y-57200D01*
X71857Y-57171D01*
X71742Y-57171D01*
X71685Y-57200D01*
X71657Y-57228D01*
X71628Y-57285D01*
X71628Y-57428D01*
X71657Y-57485D01*
X71685Y-57514D01*
X71742Y-57542D01*
X71857Y-57542D01*
X71914Y-57514D01*
X71942Y-57485D01*
X71971Y-57428D01*
X57714Y-45385D02*
X57742Y-45414D01*
X57771Y-45500D01*
X57771Y-45557D01*
X57742Y-45642D01*
X57685Y-45700D01*
X57628Y-45728D01*
X57514Y-45757D01*
X57428Y-45757D01*
X57314Y-45728D01*
X57257Y-45700D01*
X57200Y-45642D01*
X57171Y-45557D01*
X57171Y-45500D01*
X57200Y-45414D01*
X57228Y-45385D01*
X57771Y-44814D02*
X57771Y-45157D01*
X57771Y-44985D02*
X57171Y-44985D01*
X57257Y-45042D01*
X57314Y-45100D01*
X57342Y-45157D01*
X57171Y-44442D02*
X57171Y-44385D01*
X57200Y-44328D01*
X57228Y-44300D01*
X57285Y-44271D01*
X57400Y-44242D01*
X57542Y-44242D01*
X57657Y-44271D01*
X57714Y-44300D01*
X57742Y-44328D01*
X57771Y-44385D01*
X57771Y-44442D01*
X57742Y-44500D01*
X57714Y-44528D01*
X57657Y-44557D01*
X57542Y-44585D01*
X57400Y-44585D01*
X57285Y-44557D01*
X57228Y-44528D01*
X57200Y-44500D01*
X57171Y-44442D01*
X58114Y-31714D02*
X58085Y-31742D01*
X58000Y-31771D01*
X57942Y-31771D01*
X57857Y-31742D01*
X57800Y-31685D01*
X57771Y-31628D01*
X57742Y-31514D01*
X57742Y-31428D01*
X57771Y-31314D01*
X57800Y-31257D01*
X57857Y-31200D01*
X57942Y-31171D01*
X58000Y-31171D01*
X58085Y-31200D01*
X58114Y-31228D01*
X58685Y-31771D02*
X58342Y-31771D01*
X58514Y-31771D02*
X58514Y-31171D01*
X58457Y-31257D01*
X58400Y-31314D01*
X58342Y-31342D01*
X59257Y-31771D02*
X58914Y-31771D01*
X59085Y-31771D02*
X59085Y-31171D01*
X59028Y-31257D01*
X58971Y-31314D01*
X58914Y-31342D01*
G54D15*
X68204Y-53771D02*
X68204Y-53171D01*
X68300Y-53171D01*
X68357Y-53200D01*
X68395Y-53257D01*
X68414Y-53314D01*
X68433Y-53428D01*
X68433Y-53514D01*
X68414Y-53628D01*
X68395Y-53685D01*
X68357Y-53742D01*
X68300Y-53771D01*
X68204Y-53771D01*
X68814Y-53771D02*
X68585Y-53771D01*
X68700Y-53771D02*
X68700Y-53171D01*
X68661Y-53257D01*
X68623Y-53314D01*
X68585Y-53342D01*
G54D16*
X56083Y-46226D02*
X56083Y-46583D01*
X56059Y-46654D01*
X56011Y-46702D01*
X55940Y-46726D01*
X55892Y-46726D01*
X56321Y-46726D02*
X56321Y-46226D01*
X56511Y-46226D01*
X56559Y-46250D01*
X56583Y-46273D01*
X56607Y-46321D01*
X56607Y-46392D01*
X56583Y-46440D01*
X56559Y-46464D01*
X56511Y-46488D01*
X56321Y-46488D01*
X57083Y-46726D02*
X56797Y-46726D01*
X56940Y-46726D02*
X56940Y-46226D01*
X56892Y-46297D01*
X56845Y-46345D01*
X56797Y-46369D01*
G54D19*
X38271Y-33100D02*
X37985Y-33300D01*
X38271Y-33442D02*
X37671Y-33442D01*
X37671Y-33214D01*
X37700Y-33157D01*
X37728Y-33128D01*
X37785Y-33100D01*
X37871Y-33100D01*
X37928Y-33128D01*
X37957Y-33157D01*
X37985Y-33214D01*
X37985Y-33442D01*
X38271Y-32528D02*
X38271Y-32871D01*
X38271Y-32700D02*
X37671Y-32700D01*
X37757Y-32757D01*
X37814Y-32814D01*
X37842Y-32871D01*
X38271Y-50600D02*
X37985Y-50800D01*
X38271Y-50942D02*
X37671Y-50942D01*
X37671Y-50714D01*
X37700Y-50657D01*
X37728Y-50628D01*
X37785Y-50600D01*
X37871Y-50600D01*
X37928Y-50628D01*
X37957Y-50657D01*
X37985Y-50714D01*
X37985Y-50942D01*
X37728Y-50371D02*
X37700Y-50342D01*
X37671Y-50285D01*
X37671Y-50142D01*
X37700Y-50085D01*
X37728Y-50057D01*
X37785Y-50028D01*
X37842Y-50028D01*
X37928Y-50057D01*
X38271Y-50400D01*
X38271Y-50028D01*
X39771Y-33100D02*
X39485Y-33300D01*
X39771Y-33442D02*
X39171Y-33442D01*
X39171Y-33214D01*
X39200Y-33157D01*
X39228Y-33128D01*
X39285Y-33100D01*
X39371Y-33100D01*
X39428Y-33128D01*
X39457Y-33157D01*
X39485Y-33214D01*
X39485Y-33442D01*
X39171Y-32900D02*
X39171Y-32528D01*
X39400Y-32728D01*
X39400Y-32642D01*
X39428Y-32585D01*
X39457Y-32557D01*
X39514Y-32528D01*
X39657Y-32528D01*
X39714Y-32557D01*
X39742Y-32585D01*
X39771Y-32642D01*
X39771Y-32814D01*
X39742Y-32871D01*
X39714Y-32900D01*
X39771Y-50600D02*
X39485Y-50800D01*
X39771Y-50942D02*
X39171Y-50942D01*
X39171Y-50714D01*
X39200Y-50657D01*
X39228Y-50628D01*
X39285Y-50600D01*
X39371Y-50600D01*
X39428Y-50628D01*
X39457Y-50657D01*
X39485Y-50714D01*
X39485Y-50942D01*
X39371Y-50085D02*
X39771Y-50085D01*
X39142Y-50228D02*
X39571Y-50371D01*
X39571Y-50000D01*
X66900Y-29271D02*
X66700Y-28985D01*
X66557Y-29271D02*
X66557Y-28671D01*
X66785Y-28671D01*
X66842Y-28700D01*
X66871Y-28728D01*
X66900Y-28785D01*
X66900Y-28871D01*
X66871Y-28928D01*
X66842Y-28957D01*
X66785Y-28985D01*
X66557Y-28985D01*
X67442Y-28671D02*
X67157Y-28671D01*
X67128Y-28957D01*
X67157Y-28928D01*
X67214Y-28900D01*
X67357Y-28900D01*
X67414Y-28928D01*
X67442Y-28957D01*
X67471Y-29014D01*
X67471Y-29157D01*
X67442Y-29214D01*
X67414Y-29242D01*
X67357Y-29271D01*
X67214Y-29271D01*
X67157Y-29242D01*
X67128Y-29214D01*
X58900Y-29271D02*
X58700Y-28985D01*
X58557Y-29271D02*
X58557Y-28671D01*
X58785Y-28671D01*
X58842Y-28700D01*
X58871Y-28728D01*
X58900Y-28785D01*
X58900Y-28871D01*
X58871Y-28928D01*
X58842Y-28957D01*
X58785Y-28985D01*
X58557Y-28985D01*
X59414Y-28671D02*
X59300Y-28671D01*
X59242Y-28700D01*
X59214Y-28728D01*
X59157Y-28814D01*
X59128Y-28928D01*
X59128Y-29157D01*
X59157Y-29214D01*
X59185Y-29242D01*
X59242Y-29271D01*
X59357Y-29271D01*
X59414Y-29242D01*
X59442Y-29214D01*
X59471Y-29157D01*
X59471Y-29014D01*
X59442Y-28957D01*
X59414Y-28928D01*
X59357Y-28900D01*
X59242Y-28900D01*
X59185Y-28928D01*
X59157Y-28957D01*
X59128Y-29014D01*
X58900Y-27771D02*
X58700Y-27485D01*
X58557Y-27771D02*
X58557Y-27171D01*
X58785Y-27171D01*
X58842Y-27200D01*
X58871Y-27228D01*
X58900Y-27285D01*
X58900Y-27371D01*
X58871Y-27428D01*
X58842Y-27457D01*
X58785Y-27485D01*
X58557Y-27485D01*
X59100Y-27171D02*
X59500Y-27171D01*
X59242Y-27771D01*
X70700Y-30380D02*
X70785Y-30409D01*
X70928Y-30409D01*
X70985Y-30380D01*
X71014Y-30352D01*
X71042Y-30295D01*
X71042Y-30238D01*
X71014Y-30180D01*
X70985Y-30152D01*
X70928Y-30123D01*
X70814Y-30095D01*
X70757Y-30066D01*
X70728Y-30038D01*
X70700Y-29980D01*
X70700Y-29923D01*
X70728Y-29866D01*
X70757Y-29838D01*
X70814Y-29809D01*
X70957Y-29809D01*
X71042Y-29838D01*
X71242Y-29809D02*
X71385Y-30409D01*
X71500Y-29980D01*
X71614Y-30409D01*
X71757Y-29809D01*
X72300Y-30409D02*
X71957Y-30409D01*
X72128Y-30409D02*
X72128Y-29809D01*
X72071Y-29895D01*
X72014Y-29952D01*
X71957Y-29980D01*
X70628Y-35133D02*
X70428Y-34847D01*
X70285Y-35133D02*
X70285Y-34533D01*
X70514Y-34533D01*
X70571Y-34562D01*
X70600Y-34590D01*
X70628Y-34647D01*
X70628Y-34733D01*
X70600Y-34790D01*
X70571Y-34819D01*
X70514Y-34847D01*
X70285Y-34847D01*
X70885Y-34819D02*
X71085Y-34819D01*
X71171Y-35133D02*
X70885Y-35133D01*
X70885Y-34533D01*
X71171Y-34533D01*
X71400Y-35104D02*
X71485Y-35133D01*
X71628Y-35133D01*
X71685Y-35104D01*
X71714Y-35076D01*
X71742Y-35019D01*
X71742Y-34962D01*
X71714Y-34904D01*
X71685Y-34876D01*
X71628Y-34847D01*
X71514Y-34819D01*
X71457Y-34790D01*
X71428Y-34762D01*
X71400Y-34704D01*
X71400Y-34647D01*
X71428Y-34590D01*
X71457Y-34562D01*
X71514Y-34533D01*
X71657Y-34533D01*
X71742Y-34562D01*
X72000Y-34819D02*
X72200Y-34819D01*
X72285Y-35133D02*
X72000Y-35133D01*
X72000Y-34533D01*
X72285Y-34533D01*
X72457Y-34533D02*
X72800Y-34533D01*
X72628Y-35133D02*
X72628Y-34533D01*
X57900Y-55214D02*
X57871Y-55242D01*
X57785Y-55271D01*
X57728Y-55271D01*
X57642Y-55242D01*
X57585Y-55185D01*
X57557Y-55128D01*
X57528Y-55014D01*
X57528Y-54928D01*
X57557Y-54814D01*
X57585Y-54757D01*
X57642Y-54700D01*
X57728Y-54671D01*
X57785Y-54671D01*
X57871Y-54700D01*
X57900Y-54728D01*
X58414Y-54671D02*
X58300Y-54671D01*
X58242Y-54700D01*
X58214Y-54728D01*
X58157Y-54814D01*
X58128Y-54928D01*
X58128Y-55157D01*
X58157Y-55214D01*
X58185Y-55242D01*
X58242Y-55271D01*
X58357Y-55271D01*
X58414Y-55242D01*
X58442Y-55214D01*
X58471Y-55157D01*
X58471Y-55014D01*
X58442Y-54957D01*
X58414Y-54928D01*
X58357Y-54900D01*
X58242Y-54900D01*
X58185Y-54928D01*
X58157Y-54957D01*
X58128Y-55014D01*
X62614Y-30214D02*
X62585Y-30242D01*
X62500Y-30271D01*
X62442Y-30271D01*
X62357Y-30242D01*
X62300Y-30185D01*
X62271Y-30128D01*
X62242Y-30014D01*
X62242Y-29928D01*
X62271Y-29814D01*
X62300Y-29757D01*
X62357Y-29700D01*
X62442Y-29671D01*
X62500Y-29671D01*
X62585Y-29700D01*
X62614Y-29728D01*
X63185Y-30271D02*
X62842Y-30271D01*
X63014Y-30271D02*
X63014Y-29671D01*
X62957Y-29757D01*
X62900Y-29814D01*
X62842Y-29842D01*
X63414Y-29728D02*
X63442Y-29700D01*
X63500Y-29671D01*
X63642Y-29671D01*
X63700Y-29700D01*
X63728Y-29728D01*
X63757Y-29785D01*
X63757Y-29842D01*
X63728Y-29928D01*
X63385Y-30271D01*
X63757Y-30271D01*
G54D15*
X66704Y-27771D02*
X66704Y-27171D01*
X66800Y-27171D01*
X66857Y-27200D01*
X66895Y-27257D01*
X66914Y-27314D01*
X66933Y-27428D01*
X66933Y-27514D01*
X66914Y-27628D01*
X66895Y-27685D01*
X66857Y-27742D01*
X66800Y-27771D01*
X66704Y-27771D01*
X67085Y-27228D02*
X67104Y-27200D01*
X67142Y-27171D01*
X67238Y-27171D01*
X67276Y-27200D01*
X67295Y-27228D01*
X67314Y-27285D01*
X67314Y-27342D01*
X67295Y-27428D01*
X67066Y-27771D01*
X67314Y-27771D01*
G54D16*
X38226Y-28869D02*
X37726Y-28869D01*
X37726Y-28678D01*
X37750Y-28630D01*
X37773Y-28607D01*
X37821Y-28583D01*
X37892Y-28583D01*
X37940Y-28607D01*
X37964Y-28630D01*
X37988Y-28678D01*
X37988Y-28869D01*
X37726Y-28416D02*
X37726Y-28107D01*
X37916Y-28273D01*
X37916Y-28202D01*
X37940Y-28154D01*
X37964Y-28130D01*
X38011Y-28107D01*
X38130Y-28107D01*
X38178Y-28130D01*
X38202Y-28154D01*
X38226Y-28202D01*
X38226Y-28345D01*
X38202Y-28392D01*
X38178Y-28416D01*
X36130Y-47726D02*
X36130Y-47226D01*
X36321Y-47226D01*
X36369Y-47250D01*
X36392Y-47273D01*
X36416Y-47321D01*
X36416Y-47392D01*
X36392Y-47440D01*
X36369Y-47464D01*
X36321Y-47488D01*
X36130Y-47488D01*
X36892Y-47726D02*
X36607Y-47726D01*
X36750Y-47726D02*
X36750Y-47226D01*
X36702Y-47297D01*
X36654Y-47345D01*
X36607Y-47369D01*
X36130Y-30226D02*
X36130Y-29726D01*
X36321Y-29726D01*
X36369Y-29750D01*
X36392Y-29773D01*
X36416Y-29821D01*
X36416Y-29892D01*
X36392Y-29940D01*
X36369Y-29964D01*
X36321Y-29988D01*
X36130Y-29988D01*
X36607Y-29773D02*
X36630Y-29750D01*
X36678Y-29726D01*
X36797Y-29726D01*
X36845Y-29750D01*
X36869Y-29773D01*
X36892Y-29821D01*
X36892Y-29869D01*
X36869Y-29940D01*
X36583Y-30226D01*
X36892Y-30226D01*
X47226Y-28869D02*
X46726Y-28869D01*
X46726Y-28678D01*
X46750Y-28630D01*
X46773Y-28607D01*
X46821Y-28583D01*
X46892Y-28583D01*
X46940Y-28607D01*
X46964Y-28630D01*
X46988Y-28678D01*
X46988Y-28869D01*
X46892Y-28154D02*
X47226Y-28154D01*
X46702Y-28273D02*
X47059Y-28392D01*
X47059Y-28083D01*
X38226Y-56369D02*
X37726Y-56369D01*
X37726Y-56178D01*
X37750Y-56130D01*
X37773Y-56107D01*
X37821Y-56083D01*
X37892Y-56083D01*
X37940Y-56107D01*
X37964Y-56130D01*
X37988Y-56178D01*
X37988Y-56369D01*
X37726Y-55630D02*
X37726Y-55869D01*
X37964Y-55892D01*
X37940Y-55869D01*
X37916Y-55821D01*
X37916Y-55702D01*
X37940Y-55654D01*
X37964Y-55630D01*
X38011Y-55607D01*
X38130Y-55607D01*
X38178Y-55630D01*
X38202Y-55654D01*
X38226Y-55702D01*
X38226Y-55821D01*
X38202Y-55869D01*
X38178Y-55892D01*
X47226Y-56369D02*
X46726Y-56369D01*
X46726Y-56178D01*
X46750Y-56130D01*
X46773Y-56107D01*
X46821Y-56083D01*
X46892Y-56083D01*
X46940Y-56107D01*
X46964Y-56130D01*
X46988Y-56178D01*
X46988Y-56369D01*
X46726Y-55654D02*
X46726Y-55750D01*
X46750Y-55797D01*
X46773Y-55821D01*
X46845Y-55869D01*
X46940Y-55892D01*
X47130Y-55892D01*
X47178Y-55869D01*
X47202Y-55845D01*
X47226Y-55797D01*
X47226Y-55702D01*
X47202Y-55654D01*
X47178Y-55630D01*
X47130Y-55607D01*
X47011Y-55607D01*
X46964Y-55630D01*
X46940Y-55654D01*
X46916Y-55702D01*
X46916Y-55797D01*
X46940Y-55845D01*
X46964Y-55869D01*
X47011Y-55892D01*
G54D20*
X35157Y-45116D02*
X35157Y-45683D01*
X35178Y-45750D01*
X35200Y-45783D01*
X35242Y-45816D01*
X35328Y-45816D01*
X35371Y-45783D01*
X35392Y-45750D01*
X35414Y-45683D01*
X35414Y-45116D01*
X35864Y-45816D02*
X35607Y-45816D01*
X35735Y-45816D02*
X35735Y-45116D01*
X35692Y-45216D01*
X35650Y-45283D01*
X35607Y-45316D01*
G54D19*
X36166Y-42616D02*
X36333Y-43316D01*
X36466Y-42816D01*
X36600Y-43316D01*
X36766Y-42616D01*
X37033Y-43316D02*
X37033Y-42616D01*
X37200Y-42616D01*
X37300Y-42650D01*
X37366Y-42716D01*
X37400Y-42783D01*
X37433Y-42916D01*
X37433Y-43016D01*
X37400Y-43150D01*
X37366Y-43216D01*
X37300Y-43283D01*
X37200Y-43316D01*
X37033Y-43316D01*
X38033Y-42616D02*
X37900Y-42616D01*
X37833Y-42650D01*
X37800Y-42683D01*
X37733Y-42783D01*
X37700Y-42916D01*
X37700Y-43183D01*
X37733Y-43250D01*
X37766Y-43283D01*
X37833Y-43316D01*
X37966Y-43316D01*
X38033Y-43283D01*
X38066Y-43250D01*
X38100Y-43183D01*
X38100Y-43016D01*
X38066Y-42950D01*
X38033Y-42916D01*
X37966Y-42883D01*
X37833Y-42883D01*
X37766Y-42916D01*
X37733Y-42950D01*
X37700Y-43016D01*
X38733Y-42616D02*
X38400Y-42616D01*
X38366Y-42950D01*
X38400Y-42916D01*
X38466Y-42883D01*
X38633Y-42883D01*
X38700Y-42916D01*
X38733Y-42950D01*
X38766Y-43016D01*
X38766Y-43183D01*
X38733Y-43250D01*
X38700Y-43283D01*
X38633Y-43316D01*
X38466Y-43316D01*
X38400Y-43283D01*
X38366Y-43250D01*
X39466Y-43250D02*
X39433Y-43283D01*
X39333Y-43316D01*
X39266Y-43316D01*
X39166Y-43283D01*
X39100Y-43216D01*
X39066Y-43150D01*
X39033Y-43016D01*
X39033Y-42916D01*
X39066Y-42783D01*
X39100Y-42716D01*
X39166Y-42650D01*
X39266Y-42616D01*
X39333Y-42616D01*
X39433Y-42650D01*
X39466Y-42683D01*
X39900Y-42616D02*
X39966Y-42616D01*
X40033Y-42650D01*
X40066Y-42683D01*
X40100Y-42750D01*
X40133Y-42883D01*
X40133Y-43050D01*
X40100Y-43183D01*
X40066Y-43250D01*
X40033Y-43283D01*
X39966Y-43316D01*
X39900Y-43316D01*
X39833Y-43283D01*
X39800Y-43250D01*
X39766Y-43183D01*
X39733Y-43050D01*
X39733Y-42883D01*
X39766Y-42750D01*
X39800Y-42683D01*
X39833Y-42650D01*
X39900Y-42616D01*
X40400Y-42683D02*
X40433Y-42650D01*
X40500Y-42616D01*
X40666Y-42616D01*
X40733Y-42650D01*
X40766Y-42683D01*
X40800Y-42750D01*
X40800Y-42816D01*
X40766Y-42916D01*
X40366Y-43316D01*
X40800Y-43316D01*
G54D20*
X40157Y-53116D02*
X40157Y-53683D01*
X40178Y-53750D01*
X40200Y-53783D01*
X40242Y-53816D01*
X40328Y-53816D01*
X40371Y-53783D01*
X40392Y-53750D01*
X40414Y-53683D01*
X40414Y-53116D01*
X40607Y-53183D02*
X40628Y-53150D01*
X40671Y-53116D01*
X40778Y-53116D01*
X40821Y-53150D01*
X40842Y-53183D01*
X40864Y-53250D01*
X40864Y-53316D01*
X40842Y-53416D01*
X40585Y-53816D01*
X40864Y-53816D01*
G54D19*
X41050Y-48616D02*
X41383Y-48616D01*
X40983Y-48816D02*
X41216Y-48116D01*
X41450Y-48816D01*
X41583Y-48116D02*
X41983Y-48116D01*
X41783Y-48816D02*
X41783Y-48116D01*
X42183Y-48183D02*
X42216Y-48150D01*
X42283Y-48116D01*
X42450Y-48116D01*
X42516Y-48150D01*
X42550Y-48183D01*
X42583Y-48250D01*
X42583Y-48316D01*
X42550Y-48416D01*
X42150Y-48816D01*
X42583Y-48816D01*
X42983Y-48416D02*
X42916Y-48383D01*
X42883Y-48350D01*
X42850Y-48283D01*
X42850Y-48250D01*
X42883Y-48183D01*
X42916Y-48150D01*
X42983Y-48116D01*
X43116Y-48116D01*
X43183Y-48150D01*
X43216Y-48183D01*
X43250Y-48250D01*
X43250Y-48283D01*
X43216Y-48350D01*
X43183Y-48383D01*
X43116Y-48416D01*
X42983Y-48416D01*
X42916Y-48450D01*
X42883Y-48483D01*
X42850Y-48550D01*
X42850Y-48683D01*
X42883Y-48750D01*
X42916Y-48783D01*
X42983Y-48816D01*
X43116Y-48816D01*
X43183Y-48783D01*
X43216Y-48750D01*
X43250Y-48683D01*
X43250Y-48550D01*
X43216Y-48483D01*
X43183Y-48450D01*
X43116Y-48416D01*
X43950Y-48750D02*
X43916Y-48783D01*
X43816Y-48816D01*
X43750Y-48816D01*
X43650Y-48783D01*
X43583Y-48716D01*
X43550Y-48650D01*
X43516Y-48516D01*
X43516Y-48416D01*
X43550Y-48283D01*
X43583Y-48216D01*
X43650Y-48150D01*
X43750Y-48116D01*
X43816Y-48116D01*
X43916Y-48150D01*
X43950Y-48183D01*
X44216Y-48183D02*
X44250Y-48150D01*
X44316Y-48116D01*
X44483Y-48116D01*
X44550Y-48150D01*
X44583Y-48183D01*
X44616Y-48250D01*
X44616Y-48316D01*
X44583Y-48416D01*
X44183Y-48816D01*
X44616Y-48816D01*
X45250Y-48116D02*
X44916Y-48116D01*
X44883Y-48450D01*
X44916Y-48416D01*
X44983Y-48383D01*
X45150Y-48383D01*
X45216Y-48416D01*
X45250Y-48450D01*
X45283Y-48516D01*
X45283Y-48683D01*
X45250Y-48750D01*
X45216Y-48783D01*
X45150Y-48816D01*
X44983Y-48816D01*
X44916Y-48783D01*
X44883Y-48750D01*
X45883Y-48116D02*
X45750Y-48116D01*
X45683Y-48150D01*
X45650Y-48183D01*
X45583Y-48283D01*
X45550Y-48416D01*
X45550Y-48683D01*
X45583Y-48750D01*
X45616Y-48783D01*
X45683Y-48816D01*
X45816Y-48816D01*
X45883Y-48783D01*
X45916Y-48750D01*
X45950Y-48683D01*
X45950Y-48516D01*
X45916Y-48450D01*
X45883Y-48416D01*
X45816Y-48383D01*
X45683Y-48383D01*
X45616Y-48416D01*
X45583Y-48450D01*
X45550Y-48516D01*
G54D20*
X59157Y-40171D02*
X59157Y-40657D01*
X59178Y-40714D01*
X59200Y-40742D01*
X59242Y-40771D01*
X59328Y-40771D01*
X59371Y-40742D01*
X59392Y-40714D01*
X59414Y-40657D01*
X59414Y-40171D01*
X59585Y-40171D02*
X59864Y-40171D01*
X59714Y-40400D01*
X59778Y-40400D01*
X59821Y-40428D01*
X59842Y-40457D01*
X59864Y-40514D01*
X59864Y-40657D01*
X59842Y-40714D01*
X59821Y-40742D01*
X59778Y-40771D01*
X59650Y-40771D01*
X59607Y-40742D01*
X59585Y-40714D01*
G54D19*
G54D20*
X60532Y-38671D02*
X60832Y-38671D01*
X60639Y-39271D01*
X61196Y-38871D02*
X61196Y-39271D01*
X61089Y-38642D02*
X60982Y-39071D01*
X61260Y-39071D01*
X61432Y-39271D02*
X61432Y-38671D01*
X61432Y-38957D02*
X61689Y-38957D01*
X61689Y-39271D02*
X61689Y-38671D01*
X62160Y-39214D02*
X62139Y-39242D01*
X62075Y-39271D01*
X62032Y-39271D01*
X61967Y-39242D01*
X61925Y-39185D01*
X61903Y-39128D01*
X61882Y-39014D01*
X61882Y-38928D01*
X61903Y-38814D01*
X61925Y-38757D01*
X61967Y-38700D01*
X62032Y-38671D01*
X62075Y-38671D01*
X62139Y-38700D01*
X62160Y-38728D01*
X62589Y-39271D02*
X62332Y-39271D01*
X62460Y-39271D02*
X62460Y-38671D01*
X62417Y-38757D01*
X62375Y-38814D01*
X62332Y-38842D01*
X62739Y-38671D02*
X63017Y-38671D01*
X62867Y-38900D01*
X62932Y-38900D01*
X62975Y-38928D01*
X62996Y-38957D01*
X63017Y-39014D01*
X63017Y-39157D01*
X62996Y-39214D01*
X62975Y-39242D01*
X62932Y-39271D01*
X62803Y-39271D01*
X62760Y-39242D01*
X62739Y-39214D01*
X63189Y-38728D02*
X63210Y-38700D01*
X63253Y-38671D01*
X63360Y-38671D01*
X63403Y-38700D01*
X63425Y-38728D01*
X63446Y-38785D01*
X63446Y-38842D01*
X63425Y-38928D01*
X63167Y-39271D01*
X63446Y-39271D01*
G54D19*
G54D20*
X40157Y-34171D02*
X40157Y-34657D01*
X40178Y-34714D01*
X40200Y-34742D01*
X40242Y-34771D01*
X40328Y-34771D01*
X40371Y-34742D01*
X40392Y-34714D01*
X40414Y-34657D01*
X40414Y-34171D01*
X40821Y-34371D02*
X40821Y-34771D01*
X40714Y-34142D02*
X40607Y-34571D01*
X40885Y-34571D01*
G54D19*
G54D20*
X42864Y-33214D02*
X42842Y-33242D01*
X42778Y-33271D01*
X42735Y-33271D01*
X42671Y-33242D01*
X42628Y-33185D01*
X42607Y-33128D01*
X42585Y-33014D01*
X42585Y-32928D01*
X42607Y-32814D01*
X42628Y-32757D01*
X42671Y-32700D01*
X42735Y-32671D01*
X42778Y-32671D01*
X42842Y-32700D01*
X42864Y-32728D01*
X43142Y-32985D02*
X43142Y-33271D01*
X42992Y-32671D02*
X43142Y-32985D01*
X43292Y-32671D01*
X43400Y-32671D02*
X43700Y-32671D01*
X43507Y-33271D01*
X44128Y-33214D02*
X44107Y-33242D01*
X44042Y-33271D01*
X44000Y-33271D01*
X43935Y-33242D01*
X43892Y-33185D01*
X43871Y-33128D01*
X43850Y-33014D01*
X43850Y-32928D01*
X43871Y-32814D01*
X43892Y-32757D01*
X43935Y-32700D01*
X44000Y-32671D01*
X44042Y-32671D01*
X44107Y-32700D01*
X44128Y-32728D01*
X44557Y-33271D02*
X44300Y-33271D01*
X44428Y-33271D02*
X44428Y-32671D01*
X44385Y-32757D01*
X44342Y-32814D01*
X44300Y-32842D01*
X44771Y-33271D02*
X44857Y-33271D01*
X44900Y-33242D01*
X44921Y-33214D01*
X44964Y-33128D01*
X44985Y-33014D01*
X44985Y-32785D01*
X44964Y-32728D01*
X44942Y-32700D01*
X44900Y-32671D01*
X44814Y-32671D01*
X44771Y-32700D01*
X44750Y-32728D01*
X44728Y-32785D01*
X44728Y-32928D01*
X44750Y-32985D01*
X44771Y-33014D01*
X44814Y-33042D01*
X44900Y-33042D01*
X44942Y-33014D01*
X44964Y-32985D01*
X44985Y-32928D01*
X45199Y-33271D02*
X45285Y-33271D01*
X45328Y-33242D01*
X45349Y-33214D01*
X45392Y-33128D01*
X45414Y-33014D01*
X45414Y-32785D01*
X45392Y-32728D01*
X45371Y-32700D01*
X45328Y-32671D01*
X45242Y-32671D01*
X45199Y-32700D01*
X45178Y-32728D01*
X45157Y-32785D01*
X45157Y-32928D01*
X45178Y-32985D01*
X45199Y-33014D01*
X45242Y-33042D01*
X45328Y-33042D01*
X45371Y-33014D01*
X45392Y-32985D01*
X45414Y-32928D01*
G54D19*
G54D20*
X68657Y-40116D02*
X68657Y-40683D01*
X68678Y-40750D01*
X68700Y-40783D01*
X68742Y-40816D01*
X68828Y-40816D01*
X68871Y-40783D01*
X68892Y-40750D01*
X68914Y-40683D01*
X68914Y-40116D01*
X69342Y-40116D02*
X69128Y-40116D01*
X69107Y-40450D01*
X69128Y-40416D01*
X69171Y-40383D01*
X69278Y-40383D01*
X69321Y-40416D01*
X69342Y-40450D01*
X69364Y-40516D01*
X69364Y-40683D01*
X69342Y-40750D01*
X69321Y-40783D01*
X69278Y-40816D01*
X69171Y-40816D01*
X69128Y-40783D01*
X69107Y-40750D01*
G54D19*
G54D15*
X70185Y-39316D02*
X70185Y-38616D01*
X70319Y-39116D01*
X70452Y-38616D01*
X70452Y-39316D01*
X70604Y-38616D02*
X70871Y-39316D01*
X70871Y-38616D02*
X70604Y-39316D01*
X71100Y-38616D02*
X71176Y-38616D01*
X71214Y-38650D01*
X71252Y-38716D01*
X71271Y-38850D01*
X71271Y-39083D01*
X71252Y-39216D01*
X71214Y-39283D01*
X71176Y-39316D01*
X71100Y-39316D01*
X71061Y-39283D01*
X71023Y-39216D01*
X71004Y-39083D01*
X71004Y-38850D01*
X71023Y-38716D01*
X71061Y-38650D01*
X71100Y-38616D01*
X71614Y-38850D02*
X71614Y-39316D01*
X71519Y-38583D02*
X71423Y-39083D01*
X71671Y-39083D01*
X72014Y-38616D02*
X71823Y-38616D01*
X71804Y-38950D01*
X71823Y-38916D01*
X71861Y-38883D01*
X71957Y-38883D01*
X71995Y-38916D01*
X72014Y-38950D01*
X72033Y-39016D01*
X72033Y-39183D01*
X72014Y-39250D01*
X71995Y-39283D01*
X71957Y-39316D01*
X71861Y-39316D01*
X71823Y-39283D01*
X71804Y-39250D01*
X72204Y-39316D02*
X72204Y-38616D01*
X72204Y-38950D02*
X72433Y-38950D01*
X72433Y-39316D02*
X72433Y-38616D01*
X72604Y-39283D02*
X72661Y-39316D01*
X72757Y-39316D01*
X72795Y-39283D01*
X72814Y-39250D01*
X72833Y-39183D01*
X72833Y-39116D01*
X72814Y-39050D01*
X72795Y-39016D01*
X72757Y-38983D01*
X72680Y-38950D01*
X72642Y-38916D01*
X72623Y-38883D01*
X72604Y-38816D01*
X72604Y-38750D01*
X72623Y-38683D01*
X72642Y-38650D01*
X72680Y-38616D01*
X72776Y-38616D01*
X72833Y-38650D01*
G54D19*
G54D16*
X62195Y-57171D02*
X62195Y-57657D01*
X62214Y-57714D01*
X62233Y-57742D01*
X62271Y-57771D01*
X62347Y-57771D01*
X62385Y-57742D01*
X62404Y-57714D01*
X62423Y-57657D01*
X62423Y-57171D01*
X62785Y-57171D02*
X62709Y-57171D01*
X62671Y-57200D01*
X62652Y-57228D01*
X62614Y-57314D01*
X62595Y-57428D01*
X62595Y-57657D01*
X62614Y-57714D01*
X62633Y-57742D01*
X62671Y-57771D01*
X62747Y-57771D01*
X62785Y-57742D01*
X62804Y-57714D01*
X62823Y-57657D01*
X62823Y-57514D01*
X62804Y-57457D01*
X62785Y-57428D01*
X62747Y-57400D01*
X62671Y-57400D01*
X62633Y-57428D01*
X62614Y-57457D01*
X62595Y-57514D01*
X64295Y-57171D02*
X64561Y-57171D01*
X64390Y-57771D01*
X64771Y-57428D02*
X64733Y-57400D01*
X64714Y-57371D01*
X64695Y-57314D01*
X64695Y-57285D01*
X64714Y-57228D01*
X64733Y-57200D01*
X64771Y-57171D01*
X64847Y-57171D01*
X64885Y-57200D01*
X64904Y-57228D01*
X64923Y-57285D01*
X64923Y-57314D01*
X64904Y-57371D01*
X64885Y-57400D01*
X64847Y-57428D01*
X64771Y-57428D01*
X64733Y-57457D01*
X64714Y-57485D01*
X64695Y-57542D01*
X64695Y-57657D01*
X64714Y-57714D01*
X64733Y-57742D01*
X64771Y-57771D01*
X64847Y-57771D01*
X64885Y-57742D01*
X64904Y-57714D01*
X64923Y-57657D01*
X64923Y-57542D01*
X64904Y-57485D01*
X64885Y-57457D01*
X64847Y-57428D01*
X65171Y-57171D02*
X65209Y-57171D01*
X65247Y-57200D01*
X65266Y-57228D01*
X65285Y-57285D01*
X65304Y-57400D01*
X65304Y-57542D01*
X65285Y-57657D01*
X65266Y-57714D01*
X65247Y-57742D01*
X65209Y-57771D01*
X65171Y-57771D01*
X65133Y-57742D01*
X65114Y-57714D01*
X65095Y-57657D01*
X65076Y-57542D01*
X65076Y-57400D01*
X65095Y-57285D01*
X65114Y-57228D01*
X65133Y-57200D01*
X65171Y-57171D01*
X65666Y-57171D02*
X65476Y-57171D01*
X65457Y-57457D01*
X65476Y-57428D01*
X65514Y-57400D01*
X65609Y-57400D01*
X65647Y-57428D01*
X65666Y-57457D01*
X65685Y-57514D01*
X65685Y-57657D01*
X65666Y-57714D01*
X65647Y-57742D01*
X65609Y-57771D01*
X65514Y-57771D01*
X65476Y-57742D01*
X65457Y-57714D01*
G54D20*
X59157Y-46171D02*
X59157Y-46657D01*
X59178Y-46714D01*
X59200Y-46742D01*
X59242Y-46771D01*
X59328Y-46771D01*
X59371Y-46742D01*
X59392Y-46714D01*
X59414Y-46657D01*
X59414Y-46171D01*
X59585Y-46171D02*
X59885Y-46171D01*
X59692Y-46771D01*
G54D19*
G54D20*
X60942Y-44871D02*
X60942Y-45271D01*
X60835Y-44642D02*
X60728Y-45071D01*
X61007Y-45071D01*
X61264Y-44671D02*
X61307Y-44671D01*
X61350Y-44700D01*
X61371Y-44728D01*
X61392Y-44785D01*
X61414Y-44900D01*
X61414Y-45042D01*
X61392Y-45157D01*
X61371Y-45214D01*
X61350Y-45242D01*
X61307Y-45271D01*
X61264Y-45271D01*
X61221Y-45242D01*
X61200Y-45214D01*
X61178Y-45157D01*
X61157Y-45042D01*
X61157Y-44900D01*
X61178Y-44785D01*
X61200Y-44728D01*
X61221Y-44700D01*
X61264Y-44671D01*
X61842Y-45271D02*
X61585Y-45271D01*
X61714Y-45271D02*
X61714Y-44671D01*
X61671Y-44757D01*
X61628Y-44814D01*
X61585Y-44842D01*
X62014Y-44728D02*
X62035Y-44700D01*
X62078Y-44671D01*
X62185Y-44671D01*
X62228Y-44700D01*
X62250Y-44728D01*
X62271Y-44785D01*
X62271Y-44842D01*
X62250Y-44928D01*
X61992Y-45271D01*
X62271Y-45271D01*
G54D19*
G54D20*
X59157Y-52671D02*
X59157Y-53157D01*
X59178Y-53214D01*
X59200Y-53242D01*
X59242Y-53271D01*
X59328Y-53271D01*
X59371Y-53242D01*
X59392Y-53214D01*
X59414Y-53157D01*
X59414Y-52671D01*
X59692Y-52928D02*
X59650Y-52900D01*
X59628Y-52871D01*
X59607Y-52814D01*
X59607Y-52785D01*
X59628Y-52728D01*
X59650Y-52700D01*
X59692Y-52671D01*
X59778Y-52671D01*
X59821Y-52700D01*
X59842Y-52728D01*
X59864Y-52785D01*
X59864Y-52814D01*
X59842Y-52871D01*
X59821Y-52900D01*
X59778Y-52928D01*
X59692Y-52928D01*
X59650Y-52957D01*
X59628Y-52985D01*
X59607Y-53042D01*
X59607Y-53157D01*
X59628Y-53214D01*
X59650Y-53242D01*
X59692Y-53271D01*
X59778Y-53271D01*
X59821Y-53242D01*
X59842Y-53214D01*
X59864Y-53157D01*
X59864Y-53042D01*
X59842Y-52985D01*
X59821Y-52957D01*
X59778Y-52928D01*
G54D19*
G54D20*
X60942Y-51371D02*
X60942Y-51771D01*
X60835Y-51142D02*
X60728Y-51571D01*
X61007Y-51571D01*
X61264Y-51171D02*
X61307Y-51171D01*
X61350Y-51200D01*
X61371Y-51228D01*
X61392Y-51285D01*
X61414Y-51400D01*
X61414Y-51542D01*
X61392Y-51657D01*
X61371Y-51714D01*
X61350Y-51742D01*
X61307Y-51771D01*
X61264Y-51771D01*
X61221Y-51742D01*
X61200Y-51714D01*
X61178Y-51657D01*
X61157Y-51542D01*
X61157Y-51400D01*
X61178Y-51285D01*
X61200Y-51228D01*
X61221Y-51200D01*
X61264Y-51171D01*
X61842Y-51771D02*
X61585Y-51771D01*
X61714Y-51771D02*
X61714Y-51171D01*
X61671Y-51257D01*
X61628Y-51314D01*
X61585Y-51342D01*
X62014Y-51228D02*
X62035Y-51200D01*
X62078Y-51171D01*
X62185Y-51171D01*
X62228Y-51200D01*
X62250Y-51228D01*
X62271Y-51285D01*
X62271Y-51342D01*
X62250Y-51428D01*
X61992Y-51771D01*
X62271Y-51771D01*
G54D19*
G54D20*
X59157Y-34171D02*
X59157Y-34657D01*
X59178Y-34714D01*
X59200Y-34742D01*
X59242Y-34771D01*
X59328Y-34771D01*
X59371Y-34742D01*
X59392Y-34714D01*
X59414Y-34657D01*
X59414Y-34171D01*
X59650Y-34771D02*
X59735Y-34771D01*
X59778Y-34742D01*
X59800Y-34714D01*
X59842Y-34628D01*
X59864Y-34514D01*
X59864Y-34285D01*
X59842Y-34228D01*
X59821Y-34200D01*
X59778Y-34171D01*
X59692Y-34171D01*
X59650Y-34200D01*
X59628Y-34228D01*
X59607Y-34285D01*
X59607Y-34428D01*
X59628Y-34485D01*
X59650Y-34514D01*
X59692Y-34542D01*
X59778Y-34542D01*
X59821Y-34514D01*
X59842Y-34485D01*
X59864Y-34428D01*
G54D19*
G54D20*
X60532Y-32671D02*
X60832Y-32671D01*
X60639Y-33271D01*
X61196Y-32871D02*
X61196Y-33271D01*
X61089Y-32642D02*
X60982Y-33071D01*
X61260Y-33071D01*
X61432Y-33271D02*
X61432Y-32671D01*
X61432Y-32957D02*
X61689Y-32957D01*
X61689Y-33271D02*
X61689Y-32671D01*
X62160Y-33214D02*
X62139Y-33242D01*
X62075Y-33271D01*
X62032Y-33271D01*
X61967Y-33242D01*
X61925Y-33185D01*
X61903Y-33128D01*
X61882Y-33014D01*
X61882Y-32928D01*
X61903Y-32814D01*
X61925Y-32757D01*
X61967Y-32700D01*
X62032Y-32671D01*
X62075Y-32671D01*
X62139Y-32700D01*
X62160Y-32728D01*
X62589Y-33271D02*
X62332Y-33271D01*
X62460Y-33271D02*
X62460Y-32671D01*
X62417Y-32757D01*
X62375Y-32814D01*
X62332Y-32842D01*
X62739Y-32671D02*
X63017Y-32671D01*
X62867Y-32900D01*
X62932Y-32900D01*
X62975Y-32928D01*
X62996Y-32957D01*
X63017Y-33014D01*
X63017Y-33157D01*
X62996Y-33214D01*
X62975Y-33242D01*
X62932Y-33271D01*
X62803Y-33271D01*
X62760Y-33242D01*
X62739Y-33214D01*
X63275Y-32928D02*
X63232Y-32900D01*
X63210Y-32871D01*
X63189Y-32814D01*
X63189Y-32785D01*
X63210Y-32728D01*
X63232Y-32700D01*
X63275Y-32671D01*
X63360Y-32671D01*
X63403Y-32700D01*
X63425Y-32728D01*
X63446Y-32785D01*
X63446Y-32814D01*
X63425Y-32871D01*
X63403Y-32900D01*
X63360Y-32928D01*
X63275Y-32928D01*
X63232Y-32957D01*
X63210Y-32985D01*
X63189Y-33042D01*
X63189Y-33157D01*
X63210Y-33214D01*
X63232Y-33242D01*
X63275Y-33271D01*
X63360Y-33271D01*
X63403Y-33242D01*
X63425Y-33214D01*
X63446Y-33157D01*
X63446Y-33042D01*
X63425Y-32985D01*
X63403Y-32957D01*
X63360Y-32928D01*
G54D19*
G54D21*
X71135Y-44692D02*
X71135Y-44835D01*
X70835Y-44835D01*
X70978Y-44592D02*
X70978Y-44492D01*
X71135Y-44450D02*
X71135Y-44592D01*
X70835Y-44592D01*
X70835Y-44450D01*
X71135Y-44321D02*
X70835Y-44321D01*
X70835Y-44250D01*
X70850Y-44207D01*
X70878Y-44178D01*
X70907Y-44164D01*
X70964Y-44150D01*
X71007Y-44150D01*
X71064Y-44164D01*
X71092Y-44178D01*
X71121Y-44207D01*
X71135Y-44250D01*
X71135Y-44321D01*
G54D19*
X70900Y-42771D02*
X70700Y-42485D01*
X70557Y-42771D02*
X70557Y-42171D01*
X70785Y-42171D01*
X70842Y-42200D01*
X70871Y-42228D01*
X70900Y-42285D01*
X70900Y-42371D01*
X70871Y-42428D01*
X70842Y-42457D01*
X70785Y-42485D01*
X70557Y-42485D01*
X71242Y-42428D02*
X71185Y-42400D01*
X71157Y-42371D01*
X71128Y-42314D01*
X71128Y-42285D01*
X71157Y-42228D01*
X71185Y-42200D01*
X71242Y-42171D01*
X71357Y-42171D01*
X71414Y-42200D01*
X71442Y-42228D01*
X71471Y-42285D01*
X71471Y-42314D01*
X71442Y-42371D01*
X71414Y-42400D01*
X71357Y-42428D01*
X71242Y-42428D01*
X71185Y-42457D01*
X71157Y-42485D01*
X71128Y-42542D01*
X71128Y-42657D01*
X71157Y-42714D01*
X71185Y-42742D01*
X71242Y-42771D01*
X71357Y-42771D01*
X71414Y-42742D01*
X71442Y-42714D01*
X71471Y-42657D01*
X71471Y-42542D01*
X71442Y-42485D01*
X71414Y-42457D01*
X71357Y-42428D01*
X57614Y-53214D02*
X57585Y-53242D01*
X57500Y-53271D01*
X57442Y-53271D01*
X57357Y-53242D01*
X57300Y-53185D01*
X57271Y-53128D01*
X57242Y-53014D01*
X57242Y-52928D01*
X57271Y-52814D01*
X57300Y-52757D01*
X57357Y-52700D01*
X57442Y-52671D01*
X57500Y-52671D01*
X57585Y-52700D01*
X57614Y-52728D01*
X58185Y-53271D02*
X57842Y-53271D01*
X58014Y-53271D02*
X58014Y-52671D01*
X57957Y-52757D01*
X57900Y-52814D01*
X57842Y-52842D01*
X58385Y-52671D02*
X58757Y-52671D01*
X58557Y-52900D01*
X58642Y-52900D01*
X58700Y-52928D01*
X58728Y-52957D01*
X58757Y-53014D01*
X58757Y-53157D01*
X58728Y-53214D01*
X58700Y-53242D01*
X58642Y-53271D01*
X58471Y-53271D01*
X58414Y-53242D01*
X58385Y-53214D01*
%LPC*%
G54D22*
X56500Y-52500D03*
X56500Y-51500D03*
X39500Y-46000D03*
X39500Y-47000D03*
X58500Y-38500D03*
X58500Y-39500D03*
X56500Y-33500D03*
X56500Y-32500D03*
X68500Y-38500D03*
X68500Y-39500D03*
G54D23*
X60000Y-56106D03*
X60000Y-56894D03*
X68000Y-56106D03*
X68000Y-56894D03*
G54D22*
X70000Y-56000D03*
X70000Y-57000D03*
X58500Y-44500D03*
X58500Y-45500D03*
X58500Y-32500D03*
X58500Y-33500D03*
G54D24*
X73000Y-54500D03*
G54D25*
X69000Y-54500D03*
G54D26*
X56500Y-47500D03*
G54D27*
X56500Y-48500D03*
X56500Y-49500D03*
G54D28*
X38000Y-34969D03*
X38000Y-30969D03*
X38000Y-48531D03*
X38000Y-52531D03*
X39500Y-34969D03*
X39500Y-30969D03*
X39500Y-48531D03*
X39500Y-52531D03*
X65031Y-29000D03*
X69031Y-29000D03*
X57031Y-29000D03*
X61031Y-29000D03*
X57031Y-27500D03*
X61031Y-27500D03*
X72780Y-31614D03*
X70220Y-31614D03*
X70220Y-33386D03*
X72780Y-33386D03*
G54D22*
X58000Y-56000D03*
X58000Y-57000D03*
G54D23*
X63000Y-28894D03*
X63000Y-28106D03*
G54D28*
X69000Y-27500D03*
G54D29*
X65000Y-27500D03*
G54D30*
X39000Y-28500D03*
G54D31*
X40000Y-28500D03*
X41000Y-28500D03*
X42000Y-28500D03*
X43000Y-28500D03*
X44000Y-28500D03*
X45000Y-28500D03*
X46000Y-28500D03*
G54D32*
X68559Y-48000D03*
X70921Y-48000D03*
X69740Y-46150D03*
G54D26*
X36500Y-48500D03*
G54D27*
X36500Y-49500D03*
X36500Y-50500D03*
X36500Y-51500D03*
X36500Y-52500D03*
X36500Y-53500D03*
G54D26*
X36500Y-31000D03*
G54D27*
X36500Y-32000D03*
X36500Y-33000D03*
X36500Y-34000D03*
X36500Y-35000D03*
X36500Y-36000D03*
G54D30*
X48000Y-28500D03*
G54D31*
X49000Y-28500D03*
X50000Y-28500D03*
X51000Y-28500D03*
X52000Y-28500D03*
X53000Y-28500D03*
X54000Y-28500D03*
X55000Y-28500D03*
G54D30*
X39000Y-56000D03*
G54D31*
X40000Y-56000D03*
X41000Y-56000D03*
X42000Y-56000D03*
X43000Y-56000D03*
X44000Y-56000D03*
X45000Y-56000D03*
X46000Y-56000D03*
G54D30*
X48000Y-56000D03*
G54D31*
X49000Y-56000D03*
X50000Y-56000D03*
X51000Y-56000D03*
X52000Y-56000D03*
X53000Y-56000D03*
X54000Y-56000D03*
X55000Y-56000D03*
G54D33*
X36500Y-44500D03*
G54D34*
X37500Y-44500D03*
X38500Y-44500D03*
X39500Y-44500D03*
X40500Y-44500D03*
X41500Y-44500D03*
X42500Y-44500D03*
X43500Y-44500D03*
X44500Y-44500D03*
X45500Y-44500D03*
X46500Y-44500D03*
X47500Y-44500D03*
X48500Y-44500D03*
X49500Y-44500D03*
X50500Y-44500D03*
X51500Y-44500D03*
X52500Y-44500D03*
X53500Y-44500D03*
X54500Y-44500D03*
X55500Y-44500D03*
X55500Y-38500D03*
X54500Y-38500D03*
X53500Y-38500D03*
X52500Y-38500D03*
X51500Y-38500D03*
X50500Y-38500D03*
X49500Y-38500D03*
X48500Y-38500D03*
X47500Y-38500D03*
X46500Y-38500D03*
X45500Y-38500D03*
X44500Y-38500D03*
X43500Y-38500D03*
X42500Y-38500D03*
X41500Y-38500D03*
X40500Y-38500D03*
X39500Y-38500D03*
X38500Y-38500D03*
X37500Y-38500D03*
X36500Y-38500D03*
G54D33*
X54500Y-47000D03*
G54D34*
X53500Y-47000D03*
X52500Y-47000D03*
X51500Y-47000D03*
X50500Y-47000D03*
X49500Y-47000D03*
X48500Y-47000D03*
X47500Y-47000D03*
X46500Y-47000D03*
X45500Y-47000D03*
X44500Y-47000D03*
X43500Y-47000D03*
X42500Y-47000D03*
X41500Y-47000D03*
X41500Y-53000D03*
X42500Y-53000D03*
X43500Y-53000D03*
X44500Y-53000D03*
X45500Y-53000D03*
X46500Y-53000D03*
X47500Y-53000D03*
X48500Y-53000D03*
X49500Y-53000D03*
X50500Y-53000D03*
X51500Y-53000D03*
X52500Y-53000D03*
X53500Y-53000D03*
X54500Y-53000D03*
G54D33*
X60500Y-40500D03*
G54D34*
X61500Y-40500D03*
X62500Y-40500D03*
X63500Y-40500D03*
X64500Y-40500D03*
X65500Y-40500D03*
X66500Y-40500D03*
X66500Y-37500D03*
X65500Y-37500D03*
X64500Y-37500D03*
X63500Y-37500D03*
X62500Y-37500D03*
X61500Y-37500D03*
X60500Y-37500D03*
X53500Y-31500D03*
X52500Y-31500D03*
X51500Y-31500D03*
X50500Y-31500D03*
X49500Y-31500D03*
X48500Y-31500D03*
X47500Y-31500D03*
X46500Y-31500D03*
X45500Y-31500D03*
X44500Y-31500D03*
X43500Y-31500D03*
X42500Y-31500D03*
X41500Y-31500D03*
G54D33*
X54500Y-31500D03*
G54D34*
X41500Y-34500D03*
X42500Y-34500D03*
X43500Y-34500D03*
X44500Y-34500D03*
X45500Y-34500D03*
X46500Y-34500D03*
X47500Y-34500D03*
X48500Y-34500D03*
X49500Y-34500D03*
X50500Y-34500D03*
X51500Y-34500D03*
X52500Y-34500D03*
X53500Y-34500D03*
X54500Y-34500D03*
G54D33*
X70000Y-40500D03*
G54D34*
X71000Y-40500D03*
X72000Y-40500D03*
X73000Y-40500D03*
X73000Y-37500D03*
X72000Y-37500D03*
X71000Y-37500D03*
X70000Y-37500D03*
G54D35*
X65000Y-56000D03*
G54D36*
X64000Y-56000D03*
G54D35*
X63000Y-56000D03*
G54D33*
X60500Y-46500D03*
G54D34*
X61500Y-46500D03*
X62500Y-46500D03*
X63500Y-46500D03*
X64500Y-46500D03*
X65500Y-46500D03*
X66500Y-46500D03*
X66500Y-43500D03*
X65500Y-43500D03*
X64500Y-43500D03*
X63500Y-43500D03*
X62500Y-43500D03*
X61500Y-43500D03*
X60500Y-43500D03*
G54D33*
X60500Y-53000D03*
G54D34*
X61500Y-53000D03*
X62500Y-53000D03*
X63500Y-53000D03*
X64500Y-53000D03*
X65500Y-53000D03*
X66500Y-53000D03*
X66500Y-50000D03*
X65500Y-50000D03*
X64500Y-50000D03*
X63500Y-50000D03*
X62500Y-50000D03*
X61500Y-50000D03*
X60500Y-50000D03*
G54D33*
X60500Y-34500D03*
G54D34*
X61500Y-34500D03*
X62500Y-34500D03*
X63500Y-34500D03*
X64500Y-34500D03*
X65500Y-34500D03*
X66500Y-34500D03*
X67500Y-34500D03*
X67500Y-31500D03*
X66500Y-31500D03*
X65500Y-31500D03*
X64500Y-31500D03*
X63500Y-31500D03*
X62500Y-31500D03*
X61500Y-31500D03*
X60500Y-31500D03*
G54D37*
X73000Y-44500D03*
X72000Y-44500D03*
G54D28*
X69031Y-42500D03*
X73031Y-42500D03*
G54D38*
X72680Y-52980D03*
X72680Y-52000D03*
X72680Y-51020D03*
X70320Y-52980D03*
X70320Y-52000D03*
X70320Y-51020D03*
G54D39*
X36469Y-56031D03*
X36469Y-28472D03*
X71902Y-28472D03*
X71902Y-56031D03*
G54D22*
X58500Y-51000D03*
X58500Y-52000D03*
M02*
