%FSLAX34Y34*%
G04 Gerber Fmt 3.4, Leading zero omitted, Abs format*
G04 (created by PCBNEW (2014-jan-25)-product) date Wed 15 Apr 2015 09:56:20 BST*
%MOIN*%
G01*
G70*
G90*
G04 APERTURE LIST*
%ADD10C,0.005906*%
%ADD11C,0.015000*%
%ADD12C,0.059100*%
%ADD13C,0.058300*%
%ADD14C,0.066900*%
%ADD15R,0.066900X0.066900*%
%ADD16R,0.080000X0.068000*%
%ADD17O,0.080000X0.068000*%
%ADD18C,0.078700*%
%ADD19R,0.078700X0.078700*%
%ADD20R,0.068000X0.080000*%
%ADD21O,0.068000X0.080000*%
%ADD22R,0.137800X0.137800*%
%ADD23R,0.062000X0.090000*%
%ADD24O,0.062000X0.090000*%
%ADD25C,0.070000*%
%ADD26R,0.070000X0.070000*%
%ADD27C,0.066000*%
%ADD28O,0.052000X0.052000*%
%ADD29C,0.039370*%
%ADD30C,0.020000*%
%ADD31C,0.010000*%
G04 APERTURE END LIST*
G54D10*
G54D11*
X34500Y-58000D02*
X34500Y-26504D01*
X34500Y-26504D02*
X73870Y-26504D01*
X73870Y-26504D02*
X73870Y-58000D01*
X73870Y-58000D02*
X34500Y-58000D01*
G54D12*
X56500Y-52500D03*
X56500Y-51500D03*
X39500Y-46000D03*
X39500Y-47000D03*
X58500Y-38500D03*
X58500Y-39500D03*
X56500Y-33500D03*
X56500Y-32500D03*
X68500Y-38500D03*
X68500Y-39500D03*
G54D13*
X60000Y-56106D03*
X60000Y-56894D03*
X68000Y-56106D03*
X68000Y-56894D03*
G54D12*
X70000Y-56000D03*
X70000Y-57000D03*
X58500Y-44500D03*
X58500Y-45500D03*
X58500Y-32500D03*
X58500Y-33500D03*
G54D14*
X73000Y-54500D03*
G54D15*
X69000Y-54500D03*
G54D16*
X56500Y-47500D03*
G54D17*
X56500Y-48500D03*
X56500Y-49500D03*
G54D18*
X38000Y-34969D03*
X38000Y-30969D03*
X38000Y-48531D03*
X38000Y-52531D03*
X39500Y-34969D03*
X39500Y-30969D03*
X39500Y-48531D03*
X39500Y-52531D03*
X65031Y-29000D03*
X69031Y-29000D03*
X57031Y-29000D03*
X61031Y-29000D03*
X57031Y-27500D03*
X61031Y-27500D03*
X72780Y-31614D03*
X70220Y-31614D03*
X70220Y-33386D03*
X72780Y-33386D03*
G54D12*
X58000Y-56000D03*
X58000Y-57000D03*
G54D13*
X63000Y-28894D03*
X63000Y-28106D03*
G54D18*
X69000Y-27500D03*
G54D19*
X65000Y-27500D03*
G54D20*
X39000Y-28500D03*
G54D21*
X40000Y-28500D03*
X41000Y-28500D03*
X42000Y-28500D03*
X43000Y-28500D03*
X44000Y-28500D03*
X45000Y-28500D03*
X46000Y-28500D03*
G54D22*
X68559Y-48000D03*
X70921Y-48000D03*
X69740Y-46150D03*
G54D16*
X36500Y-48500D03*
G54D17*
X36500Y-49500D03*
X36500Y-50500D03*
X36500Y-51500D03*
X36500Y-52500D03*
X36500Y-53500D03*
G54D16*
X36500Y-31000D03*
G54D17*
X36500Y-32000D03*
X36500Y-33000D03*
X36500Y-34000D03*
X36500Y-35000D03*
X36500Y-36000D03*
G54D20*
X48000Y-28500D03*
G54D21*
X49000Y-28500D03*
X50000Y-28500D03*
X51000Y-28500D03*
X52000Y-28500D03*
X53000Y-28500D03*
X54000Y-28500D03*
X55000Y-28500D03*
G54D20*
X39000Y-56000D03*
G54D21*
X40000Y-56000D03*
X41000Y-56000D03*
X42000Y-56000D03*
X43000Y-56000D03*
X44000Y-56000D03*
X45000Y-56000D03*
X46000Y-56000D03*
G54D20*
X48000Y-56000D03*
G54D21*
X49000Y-56000D03*
X50000Y-56000D03*
X51000Y-56000D03*
X52000Y-56000D03*
X53000Y-56000D03*
X54000Y-56000D03*
X55000Y-56000D03*
G54D23*
X36500Y-44500D03*
G54D24*
X37500Y-44500D03*
X38500Y-44500D03*
X39500Y-44500D03*
X40500Y-44500D03*
X41500Y-44500D03*
X42500Y-44500D03*
X43500Y-44500D03*
X44500Y-44500D03*
X45500Y-44500D03*
X46500Y-44500D03*
X47500Y-44500D03*
X48500Y-44500D03*
X49500Y-44500D03*
X50500Y-44500D03*
X51500Y-44500D03*
X52500Y-44500D03*
X53500Y-44500D03*
X54500Y-44500D03*
X55500Y-44500D03*
X55500Y-38500D03*
X54500Y-38500D03*
X53500Y-38500D03*
X52500Y-38500D03*
X51500Y-38500D03*
X50500Y-38500D03*
X49500Y-38500D03*
X48500Y-38500D03*
X47500Y-38500D03*
X46500Y-38500D03*
X45500Y-38500D03*
X44500Y-38500D03*
X43500Y-38500D03*
X42500Y-38500D03*
X41500Y-38500D03*
X40500Y-38500D03*
X39500Y-38500D03*
X38500Y-38500D03*
X37500Y-38500D03*
X36500Y-38500D03*
G54D23*
X54500Y-47000D03*
G54D24*
X53500Y-47000D03*
X52500Y-47000D03*
X51500Y-47000D03*
X50500Y-47000D03*
X49500Y-47000D03*
X48500Y-47000D03*
X47500Y-47000D03*
X46500Y-47000D03*
X45500Y-47000D03*
X44500Y-47000D03*
X43500Y-47000D03*
X42500Y-47000D03*
X41500Y-47000D03*
X41500Y-53000D03*
X42500Y-53000D03*
X43500Y-53000D03*
X44500Y-53000D03*
X45500Y-53000D03*
X46500Y-53000D03*
X47500Y-53000D03*
X48500Y-53000D03*
X49500Y-53000D03*
X50500Y-53000D03*
X51500Y-53000D03*
X52500Y-53000D03*
X53500Y-53000D03*
X54500Y-53000D03*
G54D23*
X60500Y-40500D03*
G54D24*
X61500Y-40500D03*
X62500Y-40500D03*
X63500Y-40500D03*
X64500Y-40500D03*
X65500Y-40500D03*
X66500Y-40500D03*
X66500Y-37500D03*
X65500Y-37500D03*
X64500Y-37500D03*
X63500Y-37500D03*
X62500Y-37500D03*
X61500Y-37500D03*
X60500Y-37500D03*
X53500Y-31500D03*
X52500Y-31500D03*
X51500Y-31500D03*
X50500Y-31500D03*
X49500Y-31500D03*
X48500Y-31500D03*
X47500Y-31500D03*
X46500Y-31500D03*
X45500Y-31500D03*
X44500Y-31500D03*
X43500Y-31500D03*
X42500Y-31500D03*
X41500Y-31500D03*
G54D23*
X54500Y-31500D03*
G54D24*
X41500Y-34500D03*
X42500Y-34500D03*
X43500Y-34500D03*
X44500Y-34500D03*
X45500Y-34500D03*
X46500Y-34500D03*
X47500Y-34500D03*
X48500Y-34500D03*
X49500Y-34500D03*
X50500Y-34500D03*
X51500Y-34500D03*
X52500Y-34500D03*
X53500Y-34500D03*
X54500Y-34500D03*
G54D23*
X70000Y-40500D03*
G54D24*
X71000Y-40500D03*
X72000Y-40500D03*
X73000Y-40500D03*
X73000Y-37500D03*
X72000Y-37500D03*
X71000Y-37500D03*
X70000Y-37500D03*
G54D25*
X65000Y-56000D03*
G54D26*
X64000Y-56000D03*
G54D25*
X63000Y-56000D03*
G54D23*
X60500Y-46500D03*
G54D24*
X61500Y-46500D03*
X62500Y-46500D03*
X63500Y-46500D03*
X64500Y-46500D03*
X65500Y-46500D03*
X66500Y-46500D03*
X66500Y-43500D03*
X65500Y-43500D03*
X64500Y-43500D03*
X63500Y-43500D03*
X62500Y-43500D03*
X61500Y-43500D03*
X60500Y-43500D03*
G54D23*
X60500Y-53000D03*
G54D24*
X61500Y-53000D03*
X62500Y-53000D03*
X63500Y-53000D03*
X64500Y-53000D03*
X65500Y-53000D03*
X66500Y-53000D03*
X66500Y-50000D03*
X65500Y-50000D03*
X64500Y-50000D03*
X63500Y-50000D03*
X62500Y-50000D03*
X61500Y-50000D03*
X60500Y-50000D03*
G54D23*
X60500Y-34500D03*
G54D24*
X61500Y-34500D03*
X62500Y-34500D03*
X63500Y-34500D03*
X64500Y-34500D03*
X65500Y-34500D03*
X66500Y-34500D03*
X67500Y-34500D03*
X67500Y-31500D03*
X66500Y-31500D03*
X65500Y-31500D03*
X64500Y-31500D03*
X63500Y-31500D03*
X62500Y-31500D03*
X61500Y-31500D03*
X60500Y-31500D03*
G54D27*
X73000Y-44500D03*
X72000Y-44500D03*
G54D18*
X69031Y-42500D03*
X73031Y-42500D03*
G54D28*
X72680Y-52980D03*
X72680Y-52000D03*
X72680Y-51020D03*
X70320Y-52980D03*
X70320Y-52000D03*
X70320Y-51020D03*
G54D12*
X58500Y-51000D03*
X58500Y-52000D03*
G54D29*
X50101Y-35551D03*
X51147Y-35862D03*
X54224Y-41929D03*
X62047Y-49310D03*
X58249Y-43653D03*
X50781Y-37452D03*
X52881Y-39672D03*
X54500Y-39607D03*
X55514Y-48254D03*
X49775Y-36021D03*
X55218Y-39607D03*
X53532Y-41632D03*
X61681Y-41903D03*
X62187Y-39803D03*
X44960Y-45758D03*
X45371Y-42800D03*
X48442Y-41955D03*
X62234Y-30734D03*
X65470Y-44512D03*
G54D30*
X73000Y-42469D02*
X73030Y-42500D01*
X73000Y-40500D02*
X73000Y-42469D01*
X69030Y-27530D02*
X69030Y-29000D01*
X69000Y-27500D02*
X69030Y-27530D01*
X69030Y-32969D02*
X67500Y-34500D01*
X69030Y-29000D02*
X69030Y-32969D01*
X66500Y-40500D02*
X67015Y-40500D01*
X68000Y-39500D02*
X68500Y-39500D01*
X68000Y-39515D02*
X68000Y-39500D01*
X67015Y-40500D02*
X68000Y-39515D01*
X68000Y-35000D02*
X67500Y-34500D01*
X68000Y-39500D02*
X68000Y-35000D01*
X57832Y-44832D02*
X58500Y-45500D01*
X57832Y-40167D02*
X57832Y-44832D01*
X58500Y-39500D02*
X57832Y-40167D01*
X67015Y-45984D02*
X66500Y-46500D01*
X67015Y-40500D02*
X67015Y-45984D01*
X64605Y-55394D02*
X64000Y-56000D01*
X66500Y-55394D02*
X64605Y-55394D01*
X66500Y-53000D02*
X66500Y-55394D01*
X66500Y-55394D02*
X68000Y-56894D01*
X54500Y-49500D02*
X56500Y-51500D01*
X54500Y-47000D02*
X54500Y-49500D01*
X57000Y-52000D02*
X56500Y-51500D01*
X58500Y-52000D02*
X57000Y-52000D01*
X58500Y-56619D02*
X58500Y-52000D01*
X59725Y-56619D02*
X58500Y-56619D01*
X60000Y-56894D02*
X59725Y-56619D01*
X58380Y-56619D02*
X58000Y-57000D01*
X58500Y-56619D02*
X58380Y-56619D01*
X55500Y-38500D02*
X57406Y-38500D01*
X57500Y-38500D02*
X58500Y-39500D01*
X57406Y-38500D02*
X57500Y-38500D01*
X57406Y-33500D02*
X58500Y-33500D01*
X57406Y-33406D02*
X57406Y-33500D01*
X56500Y-32500D02*
X57406Y-33406D01*
X57406Y-33500D02*
X57406Y-38500D01*
G54D31*
X60500Y-51500D02*
X56500Y-47500D01*
X60500Y-53000D02*
X60500Y-51500D01*
X45500Y-47353D02*
X45500Y-47000D01*
X39000Y-53853D02*
X45500Y-47353D01*
X39000Y-56000D02*
X39000Y-53853D01*
X44500Y-46000D02*
X44500Y-44500D01*
X45500Y-47000D02*
X44500Y-46000D01*
X42000Y-54000D02*
X40000Y-56000D01*
X42000Y-52075D02*
X42000Y-54000D01*
X46500Y-47575D02*
X42000Y-52075D01*
X46500Y-47000D02*
X46500Y-47575D01*
X43000Y-51500D02*
X47500Y-47000D01*
X43000Y-54000D02*
X43000Y-51500D01*
X41000Y-56000D02*
X43000Y-54000D01*
X46500Y-46000D02*
X46500Y-44500D01*
X47500Y-47000D02*
X46500Y-46000D01*
X46964Y-44035D02*
X46500Y-44500D01*
X46964Y-32035D02*
X46964Y-44035D01*
X47500Y-31500D02*
X46964Y-32035D01*
X47860Y-44500D02*
X47500Y-44500D01*
X47979Y-32020D02*
X48500Y-31500D01*
X47979Y-44380D02*
X47979Y-32020D01*
X47860Y-44500D02*
X47979Y-44380D01*
X47860Y-46360D02*
X48500Y-47000D01*
X47860Y-44500D02*
X47860Y-46360D01*
X44000Y-54000D02*
X42000Y-56000D01*
X44000Y-51500D02*
X44000Y-54000D01*
X48500Y-47000D02*
X44000Y-51500D01*
X48500Y-42709D02*
X48500Y-44500D01*
X49039Y-42169D02*
X48500Y-42709D01*
X49039Y-31960D02*
X49039Y-42169D01*
X49500Y-31500D02*
X49039Y-31960D01*
X45000Y-54000D02*
X43000Y-56000D01*
X45000Y-52403D02*
X45000Y-54000D01*
X49500Y-47903D02*
X45000Y-52403D01*
X49500Y-47000D02*
X49500Y-47903D01*
X50500Y-47915D02*
X50500Y-47000D01*
X46000Y-52415D02*
X50500Y-47915D01*
X46000Y-54000D02*
X46000Y-52415D01*
X44000Y-56000D02*
X46000Y-54000D01*
X50033Y-31966D02*
X50500Y-31500D01*
X50033Y-35483D02*
X50033Y-31966D01*
X50101Y-35551D02*
X50033Y-35483D01*
X49500Y-42669D02*
X49500Y-44500D01*
X50033Y-42136D02*
X49500Y-42669D01*
X50033Y-36359D02*
X50033Y-42136D01*
X50127Y-36264D02*
X50033Y-36359D01*
X50127Y-35578D02*
X50127Y-36264D01*
X50101Y-35551D02*
X50127Y-35578D01*
X51500Y-45500D02*
X50500Y-44500D01*
X51500Y-47000D02*
X51500Y-45500D01*
X51500Y-47198D02*
X51500Y-47000D01*
X47000Y-51698D02*
X51500Y-47198D01*
X47000Y-54000D02*
X47000Y-51698D01*
X45000Y-56000D02*
X47000Y-54000D01*
X51147Y-37578D02*
X51147Y-35862D01*
X51027Y-37697D02*
X51147Y-37578D01*
X51027Y-43972D02*
X51027Y-37697D01*
X50500Y-44500D02*
X51027Y-43972D01*
X51027Y-35743D02*
X51147Y-35862D01*
X51027Y-31972D02*
X51027Y-35743D01*
X51500Y-31500D02*
X51027Y-31972D01*
X48000Y-54000D02*
X46000Y-56000D01*
X48000Y-51500D02*
X48000Y-54000D01*
X52500Y-47000D02*
X48000Y-51500D01*
X52500Y-31398D02*
X52500Y-31500D01*
X53212Y-30686D02*
X52500Y-31398D01*
X54773Y-30686D02*
X53212Y-30686D01*
X55000Y-30912D02*
X54773Y-30686D01*
X55019Y-30892D02*
X55000Y-30912D01*
X60708Y-30892D02*
X55019Y-30892D01*
X61000Y-31184D02*
X60708Y-30892D01*
X61000Y-31810D02*
X61000Y-31184D01*
X61438Y-32249D02*
X61000Y-31810D01*
X63155Y-32249D02*
X61438Y-32249D01*
X65406Y-34500D02*
X63155Y-32249D01*
X65500Y-34500D02*
X65406Y-34500D01*
X54153Y-41858D02*
X54224Y-41929D01*
X54153Y-39456D02*
X54153Y-41858D01*
X54417Y-39192D02*
X54153Y-39456D01*
X54623Y-39192D02*
X54417Y-39192D01*
X55000Y-38815D02*
X54623Y-39192D01*
X55000Y-30912D02*
X55000Y-38815D01*
X61500Y-48762D02*
X62047Y-49310D01*
X61500Y-46500D02*
X61500Y-48762D01*
X50000Y-54000D02*
X48000Y-56000D01*
X50000Y-52705D02*
X50000Y-54000D01*
X50306Y-52398D02*
X50000Y-52705D01*
X50898Y-52398D02*
X50306Y-52398D01*
X51500Y-53000D02*
X50898Y-52398D01*
X51960Y-43960D02*
X52500Y-44500D01*
X51960Y-36726D02*
X51960Y-43960D01*
X51500Y-36266D02*
X51960Y-36726D01*
X51500Y-34500D02*
X51500Y-36266D01*
X51108Y-53608D02*
X50500Y-53000D01*
X49000Y-55716D02*
X49000Y-56000D01*
X51108Y-53608D02*
X49000Y-55716D01*
X52881Y-43881D02*
X53500Y-44500D01*
X52881Y-39672D02*
X52881Y-43881D01*
X51702Y-53608D02*
X51108Y-53608D01*
X52000Y-53310D02*
X51702Y-53608D01*
X52000Y-51958D02*
X52000Y-53310D01*
X53000Y-50958D02*
X52000Y-51958D01*
X53000Y-45000D02*
X53000Y-50958D01*
X53500Y-44500D02*
X53000Y-45000D01*
X50500Y-37170D02*
X50781Y-37452D01*
X50500Y-34500D02*
X50500Y-37170D01*
X59653Y-43653D02*
X58249Y-43653D01*
X62500Y-46500D02*
X59653Y-43653D01*
X55514Y-45514D02*
X55514Y-48254D01*
X54500Y-44500D02*
X55514Y-45514D01*
X54571Y-39679D02*
X54500Y-39607D01*
X54571Y-44428D02*
X54571Y-39679D01*
X54500Y-44500D02*
X54571Y-44428D01*
X49500Y-35746D02*
X49775Y-36021D01*
X49500Y-34500D02*
X49500Y-35746D01*
X55500Y-39889D02*
X55218Y-39607D01*
X55500Y-44500D02*
X55500Y-39889D01*
X54254Y-38500D02*
X54500Y-38500D01*
X53960Y-38205D02*
X54254Y-38500D01*
X53960Y-31960D02*
X53960Y-38205D01*
X53500Y-31500D02*
X53960Y-31960D01*
X53000Y-55000D02*
X52000Y-56000D01*
X53000Y-51275D02*
X53000Y-55000D01*
X53500Y-50775D02*
X53000Y-51275D01*
X53500Y-47000D02*
X53500Y-50775D01*
X54254Y-38725D02*
X54254Y-38500D01*
X53878Y-39101D02*
X54254Y-38725D01*
X53878Y-41776D02*
X53878Y-39101D01*
X53867Y-41787D02*
X53878Y-41776D01*
X53867Y-42163D02*
X53867Y-41787D01*
X53960Y-42256D02*
X53867Y-42163D01*
X53960Y-46539D02*
X53960Y-42256D01*
X53500Y-47000D02*
X53960Y-46539D01*
X53500Y-35500D02*
X53500Y-38500D01*
X52500Y-34500D02*
X53500Y-35500D01*
X62968Y-52531D02*
X62500Y-53000D01*
X62968Y-45378D02*
X62968Y-52531D01*
X62000Y-44410D02*
X62968Y-45378D01*
X62000Y-42221D02*
X62000Y-44410D01*
X61681Y-41903D02*
X62000Y-42221D01*
X53500Y-41600D02*
X53532Y-41632D01*
X53500Y-38500D02*
X53500Y-41600D01*
X64108Y-53608D02*
X63500Y-53000D01*
X64702Y-53608D02*
X64108Y-53608D01*
X64968Y-53342D02*
X64702Y-53608D01*
X64968Y-43968D02*
X64968Y-53342D01*
X64500Y-43500D02*
X64968Y-43968D01*
X64500Y-42529D02*
X64500Y-43500D01*
X63000Y-41029D02*
X64500Y-42529D01*
X63000Y-40202D02*
X63000Y-41029D01*
X62600Y-39803D02*
X63000Y-40202D01*
X62187Y-39803D02*
X62600Y-39803D01*
X52500Y-35439D02*
X52500Y-38500D01*
X52020Y-34959D02*
X52500Y-35439D01*
X52020Y-33390D02*
X52020Y-34959D01*
X53000Y-32410D02*
X52020Y-33390D01*
X53000Y-31185D02*
X53000Y-32410D01*
X53299Y-30886D02*
X53000Y-31185D01*
X53886Y-30886D02*
X53299Y-30886D01*
X54500Y-31500D02*
X53886Y-30886D01*
X64000Y-52500D02*
X64500Y-53000D01*
X64000Y-44000D02*
X64000Y-52500D01*
X63500Y-43500D02*
X64000Y-44000D01*
X63500Y-42500D02*
X63500Y-43500D01*
X61500Y-40500D02*
X63500Y-42500D01*
X36500Y-53253D02*
X36500Y-53500D01*
X40307Y-49445D02*
X36500Y-53253D01*
X40307Y-46692D02*
X40307Y-49445D01*
X42500Y-44500D02*
X40307Y-46692D01*
X37444Y-46555D02*
X39500Y-44500D01*
X37444Y-50555D02*
X37444Y-46555D01*
X36500Y-51500D02*
X37444Y-50555D01*
X37218Y-49781D02*
X36500Y-50500D01*
X37218Y-44781D02*
X37218Y-49781D01*
X37500Y-44500D02*
X37218Y-44781D01*
X35945Y-37945D02*
X36500Y-38500D01*
X35945Y-31554D02*
X35945Y-37945D01*
X36500Y-31000D02*
X35945Y-31554D01*
X38000Y-28547D02*
X38000Y-30969D01*
X38803Y-27743D02*
X38000Y-28547D01*
X46041Y-27743D02*
X38803Y-27743D01*
X48684Y-30387D02*
X46041Y-27743D01*
X63192Y-30387D02*
X48684Y-30387D01*
X64000Y-31195D02*
X63192Y-30387D01*
X64000Y-31815D02*
X64000Y-31195D01*
X64443Y-32259D02*
X64000Y-31815D01*
X65074Y-32259D02*
X64443Y-32259D01*
X66968Y-34153D02*
X65074Y-32259D01*
X66968Y-37031D02*
X66968Y-34153D01*
X66500Y-37500D02*
X66968Y-37031D01*
X38750Y-34250D02*
X36500Y-32000D01*
X38750Y-35365D02*
X38750Y-34250D01*
X39500Y-36115D02*
X38750Y-35365D01*
X39500Y-38500D02*
X39500Y-36115D01*
X40299Y-38299D02*
X40500Y-38500D01*
X40299Y-31768D02*
X40299Y-38299D01*
X39500Y-30969D02*
X40299Y-31768D01*
X53500Y-56265D02*
X53500Y-53000D01*
X53206Y-56558D02*
X53500Y-56265D01*
X38577Y-56558D02*
X53206Y-56558D01*
X35923Y-53904D02*
X38577Y-56558D01*
X35923Y-42205D02*
X35923Y-53904D01*
X37000Y-41128D02*
X35923Y-42205D01*
X37000Y-36253D02*
X37000Y-41128D01*
X37065Y-36187D02*
X37000Y-36253D01*
X37065Y-34565D02*
X37065Y-36187D01*
X36500Y-34000D02*
X37065Y-34565D01*
X58530Y-27500D02*
X61030Y-27500D01*
X57030Y-29000D02*
X58530Y-27500D01*
X73000Y-53300D02*
X73000Y-54500D01*
X72680Y-52980D02*
X73000Y-53300D01*
X43960Y-46460D02*
X44500Y-47000D01*
X43960Y-38960D02*
X43960Y-46460D01*
X43500Y-38500D02*
X43960Y-38960D01*
X40500Y-35500D02*
X43500Y-38500D01*
X40500Y-30000D02*
X40500Y-35500D01*
X39000Y-28500D02*
X40500Y-30000D01*
X44960Y-38960D02*
X44960Y-45758D01*
X44500Y-38500D02*
X44960Y-38960D01*
X44413Y-38500D02*
X44500Y-38500D01*
X40700Y-34786D02*
X44413Y-38500D01*
X40700Y-29200D02*
X40700Y-34786D01*
X40000Y-28500D02*
X40700Y-29200D01*
X41552Y-27947D02*
X41000Y-28500D01*
X42218Y-27947D02*
X41552Y-27947D01*
X42500Y-28229D02*
X42218Y-27947D01*
X42500Y-31500D02*
X42500Y-28229D01*
X45371Y-38500D02*
X45500Y-38500D01*
X44157Y-37286D02*
X45371Y-38500D01*
X43490Y-37286D02*
X44157Y-37286D01*
X41000Y-34796D02*
X43490Y-37286D01*
X41000Y-28500D02*
X41000Y-34796D01*
X45371Y-38500D02*
X45371Y-42800D01*
X45978Y-39021D02*
X46395Y-38604D01*
X45978Y-47379D02*
X45978Y-39021D01*
X41500Y-51858D02*
X45978Y-47379D01*
X41500Y-53000D02*
X41500Y-51858D01*
X46395Y-38604D02*
X46500Y-38500D01*
X42000Y-34500D02*
X41500Y-34500D01*
X42000Y-34812D02*
X42000Y-34500D01*
X42479Y-35291D02*
X42000Y-34812D01*
X43082Y-35291D02*
X42479Y-35291D01*
X46395Y-38604D02*
X43082Y-35291D01*
X42000Y-34500D02*
X42000Y-28500D01*
X43000Y-34000D02*
X43000Y-28500D01*
X42500Y-34500D02*
X43000Y-34000D01*
X44000Y-34000D02*
X43500Y-34500D01*
X44000Y-28500D02*
X44000Y-34000D01*
X48500Y-41897D02*
X48442Y-41955D01*
X48500Y-38500D02*
X48500Y-41897D01*
X45000Y-34000D02*
X44500Y-34500D01*
X45000Y-28500D02*
X45000Y-34000D01*
X44500Y-52617D02*
X44500Y-53000D01*
X49039Y-48077D02*
X44500Y-52617D01*
X49039Y-42552D02*
X49039Y-48077D01*
X49500Y-42092D02*
X49039Y-42552D01*
X49500Y-38500D02*
X49500Y-42092D01*
X46000Y-34000D02*
X46000Y-28500D01*
X45500Y-34500D02*
X46000Y-34000D01*
X45500Y-52326D02*
X45500Y-53000D01*
X50000Y-47826D02*
X45500Y-52326D01*
X50000Y-42735D02*
X50000Y-47826D01*
X50500Y-42235D02*
X50000Y-42735D01*
X50500Y-38500D02*
X50500Y-42235D01*
X52687Y-30187D02*
X51000Y-28500D01*
X63275Y-30187D02*
X52687Y-30187D01*
X64500Y-31411D02*
X63275Y-30187D01*
X64500Y-31500D02*
X64500Y-31411D01*
X53487Y-29987D02*
X52000Y-28500D01*
X63987Y-29987D02*
X53487Y-29987D01*
X65500Y-31500D02*
X63987Y-29987D01*
X54271Y-29771D02*
X53000Y-28500D01*
X64771Y-29771D02*
X54271Y-29771D01*
X66500Y-31500D02*
X64771Y-29771D01*
X55043Y-29543D02*
X54000Y-28500D01*
X65543Y-29543D02*
X55043Y-29543D01*
X67500Y-31500D02*
X65543Y-29543D01*
X62540Y-30734D02*
X62234Y-30734D01*
X63000Y-31193D02*
X62540Y-30734D01*
X63000Y-31790D02*
X63000Y-31193D01*
X64863Y-33654D02*
X63000Y-31790D01*
X65654Y-33654D02*
X64863Y-33654D01*
X66500Y-34500D02*
X65654Y-33654D01*
X65960Y-44022D02*
X65470Y-44512D01*
X65960Y-35960D02*
X65960Y-44022D01*
X64500Y-34500D02*
X65960Y-35960D01*
X61027Y-43027D02*
X61500Y-43500D01*
X61027Y-36972D02*
X61027Y-43027D01*
X63500Y-34500D02*
X61027Y-36972D01*
G54D30*
X69626Y-32792D02*
X70220Y-33385D01*
X69626Y-27244D02*
X69626Y-32792D01*
X69284Y-26902D02*
X69626Y-27244D01*
X67645Y-26902D02*
X69284Y-26902D01*
X66454Y-28093D02*
X67645Y-26902D01*
X63800Y-28093D02*
X66454Y-28093D01*
X63000Y-28894D02*
X63800Y-28093D01*
X55995Y-32995D02*
X56500Y-33500D01*
X55995Y-32277D02*
X55995Y-32995D01*
X56272Y-32001D02*
X55995Y-32277D01*
X58001Y-32001D02*
X56272Y-32001D01*
X58500Y-32500D02*
X58001Y-32001D01*
X39654Y-46154D02*
X39500Y-46000D01*
X39845Y-46154D02*
X39654Y-46154D01*
X41500Y-44500D02*
X39845Y-46154D01*
X40004Y-48026D02*
X39500Y-48530D01*
X40004Y-46313D02*
X40004Y-48026D01*
X39845Y-46154D02*
X40004Y-46313D01*
X59143Y-48643D02*
X60500Y-50000D01*
X59143Y-45143D02*
X59143Y-48643D01*
X58500Y-44500D02*
X59143Y-45143D01*
X61500Y-51000D02*
X61500Y-53000D01*
X60500Y-50000D02*
X61500Y-51000D01*
X70000Y-33605D02*
X70000Y-37500D01*
X70220Y-33385D02*
X70000Y-33605D01*
X69004Y-38500D02*
X68500Y-38500D01*
X69004Y-40572D02*
X69004Y-38500D01*
X72932Y-44500D02*
X69004Y-40572D01*
X73000Y-44500D02*
X72932Y-44500D01*
X69004Y-38495D02*
X70000Y-37500D01*
X69004Y-38500D02*
X69004Y-38495D01*
X38500Y-35469D02*
X38500Y-38500D01*
X38000Y-34969D02*
X38500Y-35469D01*
X42849Y-43849D02*
X41500Y-43849D01*
X43500Y-44500D02*
X42849Y-43849D01*
X41500Y-41500D02*
X41500Y-43849D01*
X38500Y-38500D02*
X41500Y-41500D01*
X41500Y-43849D02*
X41500Y-44500D01*
X58000Y-51000D02*
X56500Y-49500D01*
X58500Y-51000D02*
X58000Y-51000D01*
X61500Y-55250D02*
X61500Y-53000D01*
X62250Y-55250D02*
X61500Y-55250D01*
X63000Y-56000D02*
X62250Y-55250D01*
X60855Y-55250D02*
X60000Y-56105D01*
X61500Y-55250D02*
X60855Y-55250D01*
X60500Y-43500D02*
X60500Y-40500D01*
X60500Y-40500D02*
X58500Y-38500D01*
X60500Y-37500D02*
X59640Y-37500D01*
X59500Y-37500D02*
X58500Y-38500D01*
X59640Y-37500D02*
X59500Y-37500D01*
X59640Y-32500D02*
X59640Y-37500D01*
X58500Y-32500D02*
X59640Y-32500D01*
X60500Y-31640D02*
X60500Y-31500D01*
X59640Y-32500D02*
X60500Y-31640D01*
G54D10*
G36*
X36557Y-49550D02*
X36550Y-49550D01*
X36550Y-49557D01*
X36450Y-49557D01*
X36450Y-49550D01*
X36442Y-49550D01*
X36442Y-49450D01*
X36450Y-49450D01*
X36450Y-49442D01*
X36550Y-49442D01*
X36550Y-49450D01*
X36557Y-49450D01*
X36557Y-49550D01*
X36557Y-49550D01*
G37*
G54D31*
X36557Y-49550D02*
X36550Y-49550D01*
X36550Y-49557D01*
X36450Y-49557D01*
X36450Y-49550D01*
X36442Y-49550D01*
X36442Y-49450D01*
X36450Y-49450D01*
X36450Y-49442D01*
X36550Y-49442D01*
X36550Y-49450D01*
X36557Y-49450D01*
X36557Y-49550D01*
G54D10*
G36*
X40325Y-45179D02*
X39888Y-45616D01*
X39809Y-45537D01*
X39608Y-45454D01*
X39391Y-45454D01*
X39191Y-45537D01*
X39037Y-45690D01*
X38954Y-45891D01*
X38954Y-46108D01*
X39037Y-46308D01*
X39190Y-46462D01*
X39275Y-46497D01*
X39214Y-46522D01*
X39188Y-46617D01*
X39500Y-46929D01*
X39505Y-46923D01*
X39576Y-46994D01*
X39570Y-47000D01*
X39576Y-47005D01*
X39505Y-47076D01*
X39500Y-47070D01*
X39429Y-47141D01*
X39429Y-47000D01*
X39117Y-46688D01*
X39022Y-46714D01*
X38949Y-46919D01*
X38960Y-47136D01*
X39022Y-47285D01*
X39117Y-47311D01*
X39429Y-47000D01*
X39429Y-47141D01*
X39188Y-47382D01*
X39214Y-47477D01*
X39419Y-47550D01*
X39636Y-47539D01*
X39654Y-47531D01*
X39654Y-47881D01*
X39642Y-47893D01*
X39628Y-47887D01*
X39372Y-47887D01*
X39135Y-47985D01*
X38954Y-48166D01*
X38856Y-48402D01*
X38856Y-48658D01*
X38954Y-48895D01*
X39135Y-49076D01*
X39371Y-49174D01*
X39627Y-49174D01*
X39864Y-49076D01*
X40007Y-48933D01*
X40007Y-49321D01*
X37092Y-52236D01*
X36989Y-52082D01*
X36865Y-52000D01*
X36989Y-51917D01*
X37117Y-51725D01*
X37162Y-51500D01*
X37123Y-51301D01*
X37657Y-50767D01*
X37657Y-50767D01*
X37722Y-50669D01*
X37744Y-50555D01*
X37744Y-50555D01*
X37744Y-49121D01*
X37871Y-49174D01*
X38127Y-49174D01*
X38364Y-49076D01*
X38545Y-48895D01*
X38643Y-48659D01*
X38643Y-48403D01*
X38545Y-48166D01*
X38364Y-47985D01*
X38128Y-47887D01*
X37872Y-47887D01*
X37744Y-47940D01*
X37744Y-46679D01*
X39266Y-45158D01*
X39285Y-45171D01*
X39500Y-45213D01*
X39714Y-45171D01*
X39895Y-45049D01*
X40000Y-44894D01*
X40104Y-45049D01*
X40285Y-45171D01*
X40325Y-45179D01*
X40325Y-45179D01*
G37*
G54D31*
X40325Y-45179D02*
X39888Y-45616D01*
X39809Y-45537D01*
X39608Y-45454D01*
X39391Y-45454D01*
X39191Y-45537D01*
X39037Y-45690D01*
X38954Y-45891D01*
X38954Y-46108D01*
X39037Y-46308D01*
X39190Y-46462D01*
X39275Y-46497D01*
X39214Y-46522D01*
X39188Y-46617D01*
X39500Y-46929D01*
X39505Y-46923D01*
X39576Y-46994D01*
X39570Y-47000D01*
X39576Y-47005D01*
X39505Y-47076D01*
X39500Y-47070D01*
X39429Y-47141D01*
X39429Y-47000D01*
X39117Y-46688D01*
X39022Y-46714D01*
X38949Y-46919D01*
X38960Y-47136D01*
X39022Y-47285D01*
X39117Y-47311D01*
X39429Y-47000D01*
X39429Y-47141D01*
X39188Y-47382D01*
X39214Y-47477D01*
X39419Y-47550D01*
X39636Y-47539D01*
X39654Y-47531D01*
X39654Y-47881D01*
X39642Y-47893D01*
X39628Y-47887D01*
X39372Y-47887D01*
X39135Y-47985D01*
X38954Y-48166D01*
X38856Y-48402D01*
X38856Y-48658D01*
X38954Y-48895D01*
X39135Y-49076D01*
X39371Y-49174D01*
X39627Y-49174D01*
X39864Y-49076D01*
X40007Y-48933D01*
X40007Y-49321D01*
X37092Y-52236D01*
X36989Y-52082D01*
X36865Y-52000D01*
X36989Y-51917D01*
X37117Y-51725D01*
X37162Y-51500D01*
X37123Y-51301D01*
X37657Y-50767D01*
X37657Y-50767D01*
X37722Y-50669D01*
X37744Y-50555D01*
X37744Y-50555D01*
X37744Y-49121D01*
X37871Y-49174D01*
X38127Y-49174D01*
X38364Y-49076D01*
X38545Y-48895D01*
X38643Y-48659D01*
X38643Y-48403D01*
X38545Y-48166D01*
X38364Y-47985D01*
X38128Y-47887D01*
X37872Y-47887D01*
X37744Y-47940D01*
X37744Y-46679D01*
X39266Y-45158D01*
X39285Y-45171D01*
X39500Y-45213D01*
X39714Y-45171D01*
X39895Y-45049D01*
X40000Y-44894D01*
X40104Y-45049D01*
X40285Y-45171D01*
X40325Y-45179D01*
G54D10*
G36*
X41700Y-33826D02*
X41500Y-33786D01*
X41300Y-33826D01*
X41300Y-32159D01*
X41331Y-32176D01*
X41363Y-32183D01*
X41450Y-32134D01*
X41450Y-31550D01*
X41442Y-31550D01*
X41442Y-31450D01*
X41450Y-31450D01*
X41450Y-30865D01*
X41363Y-30816D01*
X41331Y-30823D01*
X41300Y-30840D01*
X41300Y-29068D01*
X41417Y-28989D01*
X41500Y-28865D01*
X41582Y-28989D01*
X41700Y-29068D01*
X41700Y-30840D01*
X41668Y-30823D01*
X41636Y-30816D01*
X41550Y-30865D01*
X41550Y-31450D01*
X41557Y-31450D01*
X41557Y-31550D01*
X41550Y-31550D01*
X41550Y-32134D01*
X41636Y-32183D01*
X41668Y-32176D01*
X41700Y-32159D01*
X41700Y-33826D01*
X41700Y-33826D01*
G37*
G54D31*
X41700Y-33826D02*
X41500Y-33786D01*
X41300Y-33826D01*
X41300Y-32159D01*
X41331Y-32176D01*
X41363Y-32183D01*
X41450Y-32134D01*
X41450Y-31550D01*
X41442Y-31550D01*
X41442Y-31450D01*
X41450Y-31450D01*
X41450Y-30865D01*
X41363Y-30816D01*
X41331Y-30823D01*
X41300Y-30840D01*
X41300Y-29068D01*
X41417Y-28989D01*
X41500Y-28865D01*
X41582Y-28989D01*
X41700Y-29068D01*
X41700Y-30840D01*
X41668Y-30823D01*
X41636Y-30816D01*
X41550Y-30865D01*
X41550Y-31450D01*
X41557Y-31450D01*
X41557Y-31550D01*
X41550Y-31550D01*
X41550Y-32134D01*
X41636Y-32183D01*
X41668Y-32176D01*
X41700Y-32159D01*
X41700Y-33826D01*
G54D10*
G36*
X44847Y-47581D02*
X41450Y-50979D01*
X41450Y-47634D01*
X41450Y-47050D01*
X41450Y-46950D01*
X41450Y-46365D01*
X41363Y-46316D01*
X41331Y-46323D01*
X41139Y-46428D01*
X41001Y-46599D01*
X40940Y-46810D01*
X40940Y-46950D01*
X41450Y-46950D01*
X41450Y-47050D01*
X40940Y-47050D01*
X40940Y-47190D01*
X41001Y-47400D01*
X41139Y-47571D01*
X41331Y-47676D01*
X41363Y-47683D01*
X41450Y-47634D01*
X41450Y-50979D01*
X40109Y-52320D01*
X40045Y-52166D01*
X39864Y-51985D01*
X39628Y-51887D01*
X39372Y-51887D01*
X39135Y-51985D01*
X38954Y-52166D01*
X38856Y-52402D01*
X38856Y-52658D01*
X38954Y-52895D01*
X39135Y-53076D01*
X39289Y-53140D01*
X38787Y-53641D01*
X38722Y-53739D01*
X38700Y-53853D01*
X38700Y-55350D01*
X38610Y-55350D01*
X38518Y-55388D01*
X38448Y-55458D01*
X38410Y-55550D01*
X38410Y-55649D01*
X38410Y-55967D01*
X36532Y-54090D01*
X36572Y-54090D01*
X36798Y-54045D01*
X36989Y-53917D01*
X37117Y-53725D01*
X37162Y-53500D01*
X37117Y-53274D01*
X37031Y-53145D01*
X37403Y-52773D01*
X37454Y-52895D01*
X37635Y-53076D01*
X37871Y-53174D01*
X38127Y-53174D01*
X38364Y-53076D01*
X38545Y-52895D01*
X38643Y-52659D01*
X38643Y-52403D01*
X38545Y-52166D01*
X38364Y-51985D01*
X38242Y-51934D01*
X40519Y-49657D01*
X40519Y-49657D01*
X40584Y-49560D01*
X40607Y-49445D01*
X40607Y-49445D01*
X40607Y-46816D01*
X42266Y-45158D01*
X42285Y-45171D01*
X42500Y-45213D01*
X42714Y-45171D01*
X42895Y-45049D01*
X43000Y-44894D01*
X43104Y-45049D01*
X43285Y-45171D01*
X43500Y-45213D01*
X43660Y-45181D01*
X43660Y-46318D01*
X43500Y-46286D01*
X43285Y-46328D01*
X43104Y-46450D01*
X42999Y-46605D01*
X42895Y-46450D01*
X42714Y-46328D01*
X42500Y-46286D01*
X42285Y-46328D01*
X42104Y-46450D01*
X42000Y-46605D01*
X41998Y-46599D01*
X41860Y-46428D01*
X41668Y-46323D01*
X41636Y-46316D01*
X41550Y-46365D01*
X41550Y-46950D01*
X41557Y-46950D01*
X41557Y-47050D01*
X41550Y-47050D01*
X41550Y-47634D01*
X41636Y-47683D01*
X41668Y-47676D01*
X41860Y-47571D01*
X41998Y-47400D01*
X42000Y-47394D01*
X42104Y-47549D01*
X42285Y-47671D01*
X42500Y-47713D01*
X42714Y-47671D01*
X42895Y-47549D01*
X43000Y-47394D01*
X43104Y-47549D01*
X43285Y-47671D01*
X43500Y-47713D01*
X43714Y-47671D01*
X43895Y-47549D01*
X44000Y-47394D01*
X44104Y-47549D01*
X44285Y-47671D01*
X44500Y-47713D01*
X44714Y-47671D01*
X44847Y-47581D01*
X44847Y-47581D01*
G37*
G54D31*
X44847Y-47581D02*
X41450Y-50979D01*
X41450Y-47634D01*
X41450Y-47050D01*
X41450Y-46950D01*
X41450Y-46365D01*
X41363Y-46316D01*
X41331Y-46323D01*
X41139Y-46428D01*
X41001Y-46599D01*
X40940Y-46810D01*
X40940Y-46950D01*
X41450Y-46950D01*
X41450Y-47050D01*
X40940Y-47050D01*
X40940Y-47190D01*
X41001Y-47400D01*
X41139Y-47571D01*
X41331Y-47676D01*
X41363Y-47683D01*
X41450Y-47634D01*
X41450Y-50979D01*
X40109Y-52320D01*
X40045Y-52166D01*
X39864Y-51985D01*
X39628Y-51887D01*
X39372Y-51887D01*
X39135Y-51985D01*
X38954Y-52166D01*
X38856Y-52402D01*
X38856Y-52658D01*
X38954Y-52895D01*
X39135Y-53076D01*
X39289Y-53140D01*
X38787Y-53641D01*
X38722Y-53739D01*
X38700Y-53853D01*
X38700Y-55350D01*
X38610Y-55350D01*
X38518Y-55388D01*
X38448Y-55458D01*
X38410Y-55550D01*
X38410Y-55649D01*
X38410Y-55967D01*
X36532Y-54090D01*
X36572Y-54090D01*
X36798Y-54045D01*
X36989Y-53917D01*
X37117Y-53725D01*
X37162Y-53500D01*
X37117Y-53274D01*
X37031Y-53145D01*
X37403Y-52773D01*
X37454Y-52895D01*
X37635Y-53076D01*
X37871Y-53174D01*
X38127Y-53174D01*
X38364Y-53076D01*
X38545Y-52895D01*
X38643Y-52659D01*
X38643Y-52403D01*
X38545Y-52166D01*
X38364Y-51985D01*
X38242Y-51934D01*
X40519Y-49657D01*
X40519Y-49657D01*
X40584Y-49560D01*
X40607Y-49445D01*
X40607Y-49445D01*
X40607Y-46816D01*
X42266Y-45158D01*
X42285Y-45171D01*
X42500Y-45213D01*
X42714Y-45171D01*
X42895Y-45049D01*
X43000Y-44894D01*
X43104Y-45049D01*
X43285Y-45171D01*
X43500Y-45213D01*
X43660Y-45181D01*
X43660Y-46318D01*
X43500Y-46286D01*
X43285Y-46328D01*
X43104Y-46450D01*
X42999Y-46605D01*
X42895Y-46450D01*
X42714Y-46328D01*
X42500Y-46286D01*
X42285Y-46328D01*
X42104Y-46450D01*
X42000Y-46605D01*
X41998Y-46599D01*
X41860Y-46428D01*
X41668Y-46323D01*
X41636Y-46316D01*
X41550Y-46365D01*
X41550Y-46950D01*
X41557Y-46950D01*
X41557Y-47050D01*
X41550Y-47050D01*
X41550Y-47634D01*
X41636Y-47683D01*
X41668Y-47676D01*
X41860Y-47571D01*
X41998Y-47400D01*
X42000Y-47394D01*
X42104Y-47549D01*
X42285Y-47671D01*
X42500Y-47713D01*
X42714Y-47671D01*
X42895Y-47549D01*
X43000Y-47394D01*
X43104Y-47549D01*
X43285Y-47671D01*
X43500Y-47713D01*
X43714Y-47671D01*
X43895Y-47549D01*
X44000Y-47394D01*
X44104Y-47549D01*
X44285Y-47671D01*
X44500Y-47713D01*
X44714Y-47671D01*
X44847Y-47581D01*
G54D10*
G36*
X61150Y-52419D02*
X61104Y-52450D01*
X61060Y-52516D01*
X61060Y-52500D01*
X61021Y-52408D01*
X60951Y-52338D01*
X60859Y-52300D01*
X60800Y-52300D01*
X60800Y-51500D01*
X60777Y-51385D01*
X60777Y-51385D01*
X60751Y-51346D01*
X60712Y-51287D01*
X57150Y-47725D01*
X57150Y-47110D01*
X57111Y-47018D01*
X57041Y-46948D01*
X56949Y-46910D01*
X56850Y-46910D01*
X56050Y-46910D01*
X55958Y-46948D01*
X55888Y-47018D01*
X55850Y-47110D01*
X55850Y-47209D01*
X55850Y-47889D01*
X55888Y-47981D01*
X55958Y-48051D01*
X56018Y-48076D01*
X56010Y-48082D01*
X55958Y-48159D01*
X55893Y-48002D01*
X55814Y-47922D01*
X55814Y-45514D01*
X55791Y-45399D01*
X55791Y-45399D01*
X55726Y-45302D01*
X55615Y-45190D01*
X55714Y-45171D01*
X55895Y-45049D01*
X56017Y-44868D01*
X56060Y-44653D01*
X56060Y-44346D01*
X56060Y-38690D01*
X56060Y-38550D01*
X56060Y-38450D01*
X56060Y-38310D01*
X55998Y-38099D01*
X55860Y-37928D01*
X55668Y-37823D01*
X55636Y-37816D01*
X55550Y-37865D01*
X55550Y-38450D01*
X56060Y-38450D01*
X56060Y-38550D01*
X55550Y-38550D01*
X55550Y-39134D01*
X55636Y-39183D01*
X55668Y-39176D01*
X55860Y-39071D01*
X55998Y-38900D01*
X56060Y-38690D01*
X56060Y-44346D01*
X56017Y-44131D01*
X55895Y-43950D01*
X55800Y-43886D01*
X55800Y-39889D01*
X55777Y-39774D01*
X55712Y-39677D01*
X55712Y-39677D01*
X55664Y-39630D01*
X55664Y-39519D01*
X55597Y-39355D01*
X55471Y-39229D01*
X55357Y-39181D01*
X55363Y-39183D01*
X55450Y-39134D01*
X55450Y-38550D01*
X55442Y-38550D01*
X55442Y-38450D01*
X55450Y-38450D01*
X55450Y-37865D01*
X55363Y-37816D01*
X55331Y-37823D01*
X55300Y-37840D01*
X55300Y-31192D01*
X59970Y-31192D01*
X59940Y-31346D01*
X59940Y-31653D01*
X59948Y-31696D01*
X59495Y-32150D01*
X58921Y-32150D01*
X58809Y-32037D01*
X58608Y-31954D01*
X58449Y-31954D01*
X58248Y-31753D01*
X58135Y-31677D01*
X58001Y-31651D01*
X56272Y-31651D01*
X56138Y-31677D01*
X56024Y-31753D01*
X55748Y-32029D01*
X55672Y-32143D01*
X55645Y-32277D01*
X55645Y-32995D01*
X55672Y-33129D01*
X55748Y-33243D01*
X55954Y-33449D01*
X55954Y-33608D01*
X56037Y-33808D01*
X56190Y-33962D01*
X56391Y-34045D01*
X56608Y-34045D01*
X56808Y-33962D01*
X56962Y-33809D01*
X57045Y-33608D01*
X57045Y-33391D01*
X56962Y-33191D01*
X56809Y-33037D01*
X56724Y-33002D01*
X56785Y-32977D01*
X56811Y-32882D01*
X56500Y-32570D01*
X56494Y-32576D01*
X56423Y-32505D01*
X56429Y-32500D01*
X56423Y-32494D01*
X56494Y-32423D01*
X56500Y-32429D01*
X56505Y-32423D01*
X56576Y-32494D01*
X56570Y-32500D01*
X56882Y-32811D01*
X56977Y-32785D01*
X57050Y-32580D01*
X57039Y-32363D01*
X57033Y-32351D01*
X57856Y-32351D01*
X57954Y-32449D01*
X57954Y-32608D01*
X58037Y-32808D01*
X58190Y-32962D01*
X58275Y-32997D01*
X58214Y-33022D01*
X58188Y-33117D01*
X58500Y-33429D01*
X58811Y-33117D01*
X58785Y-33022D01*
X58720Y-32999D01*
X58808Y-32962D01*
X58921Y-32850D01*
X59290Y-32850D01*
X59290Y-37227D01*
X59252Y-37252D01*
X59050Y-37454D01*
X59050Y-33580D01*
X59039Y-33363D01*
X58977Y-33214D01*
X58882Y-33188D01*
X58570Y-33500D01*
X58882Y-33811D01*
X58977Y-33785D01*
X59050Y-33580D01*
X59050Y-37454D01*
X58811Y-37693D01*
X58811Y-33882D01*
X58500Y-33570D01*
X58429Y-33641D01*
X58429Y-33500D01*
X58117Y-33188D01*
X58022Y-33214D01*
X57949Y-33419D01*
X57960Y-33636D01*
X58022Y-33785D01*
X58117Y-33811D01*
X58429Y-33500D01*
X58429Y-33641D01*
X58188Y-33882D01*
X58214Y-33977D01*
X58419Y-34050D01*
X58636Y-34039D01*
X58785Y-33977D01*
X58811Y-33882D01*
X58811Y-37693D01*
X58550Y-37954D01*
X58391Y-37954D01*
X58191Y-38037D01*
X58037Y-38190D01*
X57954Y-38391D01*
X57954Y-38608D01*
X58037Y-38808D01*
X58190Y-38962D01*
X58275Y-38997D01*
X58214Y-39022D01*
X58188Y-39117D01*
X58500Y-39429D01*
X58505Y-39423D01*
X58576Y-39494D01*
X58570Y-39500D01*
X58882Y-39811D01*
X58977Y-39785D01*
X59050Y-39580D01*
X59048Y-39543D01*
X59940Y-40434D01*
X59940Y-40999D01*
X59978Y-41091D01*
X60048Y-41161D01*
X60140Y-41200D01*
X60150Y-41200D01*
X60150Y-42919D01*
X60104Y-42950D01*
X59982Y-43131D01*
X59940Y-43346D01*
X59940Y-43515D01*
X59865Y-43440D01*
X59767Y-43375D01*
X59653Y-43353D01*
X58811Y-43353D01*
X58811Y-39882D01*
X58500Y-39570D01*
X58429Y-39641D01*
X58429Y-39500D01*
X58117Y-39188D01*
X58022Y-39214D01*
X57949Y-39419D01*
X57960Y-39636D01*
X58022Y-39785D01*
X58117Y-39811D01*
X58429Y-39500D01*
X58429Y-39641D01*
X58188Y-39882D01*
X58214Y-39977D01*
X58419Y-40050D01*
X58636Y-40039D01*
X58785Y-39977D01*
X58811Y-39882D01*
X58811Y-43353D01*
X58581Y-43353D01*
X58503Y-43274D01*
X58339Y-43206D01*
X58161Y-43206D01*
X57997Y-43274D01*
X57871Y-43399D01*
X57803Y-43563D01*
X57802Y-43741D01*
X57870Y-43905D01*
X57996Y-44031D01*
X58138Y-44090D01*
X58037Y-44190D01*
X57954Y-44391D01*
X57954Y-44608D01*
X58037Y-44808D01*
X58190Y-44962D01*
X58275Y-44997D01*
X58214Y-45022D01*
X58188Y-45117D01*
X58500Y-45429D01*
X58505Y-45423D01*
X58576Y-45494D01*
X58570Y-45500D01*
X58576Y-45505D01*
X58505Y-45576D01*
X58500Y-45570D01*
X58429Y-45641D01*
X58429Y-45500D01*
X58117Y-45188D01*
X58022Y-45214D01*
X57949Y-45419D01*
X57960Y-45636D01*
X58022Y-45785D01*
X58117Y-45811D01*
X58429Y-45500D01*
X58429Y-45641D01*
X58188Y-45882D01*
X58214Y-45977D01*
X58419Y-46050D01*
X58636Y-46039D01*
X58785Y-45977D01*
X58793Y-45948D01*
X58793Y-48643D01*
X58819Y-48777D01*
X58895Y-48890D01*
X59940Y-49934D01*
X59940Y-50153D01*
X59982Y-50368D01*
X60104Y-50549D01*
X60285Y-50671D01*
X60500Y-50713D01*
X60682Y-50677D01*
X61150Y-51144D01*
X61150Y-52419D01*
X61150Y-52419D01*
G37*
G54D31*
X61150Y-52419D02*
X61104Y-52450D01*
X61060Y-52516D01*
X61060Y-52500D01*
X61021Y-52408D01*
X60951Y-52338D01*
X60859Y-52300D01*
X60800Y-52300D01*
X60800Y-51500D01*
X60777Y-51385D01*
X60777Y-51385D01*
X60751Y-51346D01*
X60712Y-51287D01*
X57150Y-47725D01*
X57150Y-47110D01*
X57111Y-47018D01*
X57041Y-46948D01*
X56949Y-46910D01*
X56850Y-46910D01*
X56050Y-46910D01*
X55958Y-46948D01*
X55888Y-47018D01*
X55850Y-47110D01*
X55850Y-47209D01*
X55850Y-47889D01*
X55888Y-47981D01*
X55958Y-48051D01*
X56018Y-48076D01*
X56010Y-48082D01*
X55958Y-48159D01*
X55893Y-48002D01*
X55814Y-47922D01*
X55814Y-45514D01*
X55791Y-45399D01*
X55791Y-45399D01*
X55726Y-45302D01*
X55615Y-45190D01*
X55714Y-45171D01*
X55895Y-45049D01*
X56017Y-44868D01*
X56060Y-44653D01*
X56060Y-44346D01*
X56060Y-38690D01*
X56060Y-38550D01*
X56060Y-38450D01*
X56060Y-38310D01*
X55998Y-38099D01*
X55860Y-37928D01*
X55668Y-37823D01*
X55636Y-37816D01*
X55550Y-37865D01*
X55550Y-38450D01*
X56060Y-38450D01*
X56060Y-38550D01*
X55550Y-38550D01*
X55550Y-39134D01*
X55636Y-39183D01*
X55668Y-39176D01*
X55860Y-39071D01*
X55998Y-38900D01*
X56060Y-38690D01*
X56060Y-44346D01*
X56017Y-44131D01*
X55895Y-43950D01*
X55800Y-43886D01*
X55800Y-39889D01*
X55777Y-39774D01*
X55712Y-39677D01*
X55712Y-39677D01*
X55664Y-39630D01*
X55664Y-39519D01*
X55597Y-39355D01*
X55471Y-39229D01*
X55357Y-39181D01*
X55363Y-39183D01*
X55450Y-39134D01*
X55450Y-38550D01*
X55442Y-38550D01*
X55442Y-38450D01*
X55450Y-38450D01*
X55450Y-37865D01*
X55363Y-37816D01*
X55331Y-37823D01*
X55300Y-37840D01*
X55300Y-31192D01*
X59970Y-31192D01*
X59940Y-31346D01*
X59940Y-31653D01*
X59948Y-31696D01*
X59495Y-32150D01*
X58921Y-32150D01*
X58809Y-32037D01*
X58608Y-31954D01*
X58449Y-31954D01*
X58248Y-31753D01*
X58135Y-31677D01*
X58001Y-31651D01*
X56272Y-31651D01*
X56138Y-31677D01*
X56024Y-31753D01*
X55748Y-32029D01*
X55672Y-32143D01*
X55645Y-32277D01*
X55645Y-32995D01*
X55672Y-33129D01*
X55748Y-33243D01*
X55954Y-33449D01*
X55954Y-33608D01*
X56037Y-33808D01*
X56190Y-33962D01*
X56391Y-34045D01*
X56608Y-34045D01*
X56808Y-33962D01*
X56962Y-33809D01*
X57045Y-33608D01*
X57045Y-33391D01*
X56962Y-33191D01*
X56809Y-33037D01*
X56724Y-33002D01*
X56785Y-32977D01*
X56811Y-32882D01*
X56500Y-32570D01*
X56494Y-32576D01*
X56423Y-32505D01*
X56429Y-32500D01*
X56423Y-32494D01*
X56494Y-32423D01*
X56500Y-32429D01*
X56505Y-32423D01*
X56576Y-32494D01*
X56570Y-32500D01*
X56882Y-32811D01*
X56977Y-32785D01*
X57050Y-32580D01*
X57039Y-32363D01*
X57033Y-32351D01*
X57856Y-32351D01*
X57954Y-32449D01*
X57954Y-32608D01*
X58037Y-32808D01*
X58190Y-32962D01*
X58275Y-32997D01*
X58214Y-33022D01*
X58188Y-33117D01*
X58500Y-33429D01*
X58811Y-33117D01*
X58785Y-33022D01*
X58720Y-32999D01*
X58808Y-32962D01*
X58921Y-32850D01*
X59290Y-32850D01*
X59290Y-37227D01*
X59252Y-37252D01*
X59050Y-37454D01*
X59050Y-33580D01*
X59039Y-33363D01*
X58977Y-33214D01*
X58882Y-33188D01*
X58570Y-33500D01*
X58882Y-33811D01*
X58977Y-33785D01*
X59050Y-33580D01*
X59050Y-37454D01*
X58811Y-37693D01*
X58811Y-33882D01*
X58500Y-33570D01*
X58429Y-33641D01*
X58429Y-33500D01*
X58117Y-33188D01*
X58022Y-33214D01*
X57949Y-33419D01*
X57960Y-33636D01*
X58022Y-33785D01*
X58117Y-33811D01*
X58429Y-33500D01*
X58429Y-33641D01*
X58188Y-33882D01*
X58214Y-33977D01*
X58419Y-34050D01*
X58636Y-34039D01*
X58785Y-33977D01*
X58811Y-33882D01*
X58811Y-37693D01*
X58550Y-37954D01*
X58391Y-37954D01*
X58191Y-38037D01*
X58037Y-38190D01*
X57954Y-38391D01*
X57954Y-38608D01*
X58037Y-38808D01*
X58190Y-38962D01*
X58275Y-38997D01*
X58214Y-39022D01*
X58188Y-39117D01*
X58500Y-39429D01*
X58505Y-39423D01*
X58576Y-39494D01*
X58570Y-39500D01*
X58882Y-39811D01*
X58977Y-39785D01*
X59050Y-39580D01*
X59048Y-39543D01*
X59940Y-40434D01*
X59940Y-40999D01*
X59978Y-41091D01*
X60048Y-41161D01*
X60140Y-41200D01*
X60150Y-41200D01*
X60150Y-42919D01*
X60104Y-42950D01*
X59982Y-43131D01*
X59940Y-43346D01*
X59940Y-43515D01*
X59865Y-43440D01*
X59767Y-43375D01*
X59653Y-43353D01*
X58811Y-43353D01*
X58811Y-39882D01*
X58500Y-39570D01*
X58429Y-39641D01*
X58429Y-39500D01*
X58117Y-39188D01*
X58022Y-39214D01*
X57949Y-39419D01*
X57960Y-39636D01*
X58022Y-39785D01*
X58117Y-39811D01*
X58429Y-39500D01*
X58429Y-39641D01*
X58188Y-39882D01*
X58214Y-39977D01*
X58419Y-40050D01*
X58636Y-40039D01*
X58785Y-39977D01*
X58811Y-39882D01*
X58811Y-43353D01*
X58581Y-43353D01*
X58503Y-43274D01*
X58339Y-43206D01*
X58161Y-43206D01*
X57997Y-43274D01*
X57871Y-43399D01*
X57803Y-43563D01*
X57802Y-43741D01*
X57870Y-43905D01*
X57996Y-44031D01*
X58138Y-44090D01*
X58037Y-44190D01*
X57954Y-44391D01*
X57954Y-44608D01*
X58037Y-44808D01*
X58190Y-44962D01*
X58275Y-44997D01*
X58214Y-45022D01*
X58188Y-45117D01*
X58500Y-45429D01*
X58505Y-45423D01*
X58576Y-45494D01*
X58570Y-45500D01*
X58576Y-45505D01*
X58505Y-45576D01*
X58500Y-45570D01*
X58429Y-45641D01*
X58429Y-45500D01*
X58117Y-45188D01*
X58022Y-45214D01*
X57949Y-45419D01*
X57960Y-45636D01*
X58022Y-45785D01*
X58117Y-45811D01*
X58429Y-45500D01*
X58429Y-45641D01*
X58188Y-45882D01*
X58214Y-45977D01*
X58419Y-46050D01*
X58636Y-46039D01*
X58785Y-45977D01*
X58793Y-45948D01*
X58793Y-48643D01*
X58819Y-48777D01*
X58895Y-48890D01*
X59940Y-49934D01*
X59940Y-50153D01*
X59982Y-50368D01*
X60104Y-50549D01*
X60285Y-50671D01*
X60500Y-50713D01*
X60682Y-50677D01*
X61150Y-51144D01*
X61150Y-52419D01*
G54D10*
G36*
X73850Y-57950D02*
X73678Y-57950D01*
X73678Y-42604D01*
X73669Y-42348D01*
X73589Y-42155D01*
X73560Y-42144D01*
X73560Y-40690D01*
X73560Y-40550D01*
X73560Y-40450D01*
X73560Y-40310D01*
X73498Y-40099D01*
X73360Y-39928D01*
X73168Y-39823D01*
X73136Y-39816D01*
X73050Y-39865D01*
X73050Y-40450D01*
X73560Y-40450D01*
X73560Y-40550D01*
X73050Y-40550D01*
X73050Y-41134D01*
X73136Y-41183D01*
X73168Y-41176D01*
X73360Y-41071D01*
X73498Y-40900D01*
X73560Y-40690D01*
X73560Y-42144D01*
X73484Y-42117D01*
X73413Y-42187D01*
X73413Y-42046D01*
X73375Y-41941D01*
X73135Y-41852D01*
X72879Y-41861D01*
X72686Y-41941D01*
X72648Y-42046D01*
X73031Y-42429D01*
X73413Y-42046D01*
X73413Y-42187D01*
X73101Y-42500D01*
X73484Y-42882D01*
X73589Y-42844D01*
X73678Y-42604D01*
X73678Y-57950D01*
X73584Y-57950D01*
X73584Y-54384D01*
X73580Y-54373D01*
X73580Y-44385D01*
X73491Y-44171D01*
X73413Y-44093D01*
X73413Y-42953D01*
X73031Y-42570D01*
X72960Y-42641D01*
X72960Y-42500D01*
X72577Y-42117D01*
X72472Y-42155D01*
X72383Y-42395D01*
X72392Y-42651D01*
X72472Y-42844D01*
X72577Y-42882D01*
X72960Y-42500D01*
X72960Y-42641D01*
X72648Y-42953D01*
X72686Y-43058D01*
X72926Y-43147D01*
X73182Y-43138D01*
X73375Y-43058D01*
X73413Y-42953D01*
X73413Y-44093D01*
X73328Y-44008D01*
X73115Y-43920D01*
X72885Y-43919D01*
X72858Y-43930D01*
X70127Y-41200D01*
X70359Y-41200D01*
X70451Y-41161D01*
X70521Y-41091D01*
X70560Y-40999D01*
X70560Y-40983D01*
X70604Y-41049D01*
X70785Y-41171D01*
X71000Y-41213D01*
X71214Y-41171D01*
X71395Y-41049D01*
X71500Y-40894D01*
X71604Y-41049D01*
X71785Y-41171D01*
X72000Y-41213D01*
X72214Y-41171D01*
X72395Y-41049D01*
X72499Y-40894D01*
X72501Y-40900D01*
X72639Y-41071D01*
X72831Y-41176D01*
X72863Y-41183D01*
X72950Y-41134D01*
X72950Y-40550D01*
X72942Y-40550D01*
X72942Y-40450D01*
X72950Y-40450D01*
X72950Y-39865D01*
X72863Y-39816D01*
X72831Y-39823D01*
X72639Y-39928D01*
X72501Y-40099D01*
X72499Y-40105D01*
X72395Y-39950D01*
X72214Y-39828D01*
X72000Y-39786D01*
X71785Y-39828D01*
X71604Y-39950D01*
X71500Y-40105D01*
X71395Y-39950D01*
X71214Y-39828D01*
X71000Y-39786D01*
X70785Y-39828D01*
X70604Y-39950D01*
X70560Y-40016D01*
X70560Y-40000D01*
X70521Y-39908D01*
X70451Y-39838D01*
X70359Y-39800D01*
X70260Y-39800D01*
X69640Y-39800D01*
X69548Y-39838D01*
X69478Y-39908D01*
X69440Y-40000D01*
X69440Y-40099D01*
X69440Y-40512D01*
X69354Y-40427D01*
X69354Y-38640D01*
X69817Y-38177D01*
X70000Y-38213D01*
X70214Y-38171D01*
X70395Y-38049D01*
X70500Y-37894D01*
X70604Y-38049D01*
X70785Y-38171D01*
X71000Y-38213D01*
X71214Y-38171D01*
X71395Y-38049D01*
X71500Y-37894D01*
X71604Y-38049D01*
X71785Y-38171D01*
X72000Y-38213D01*
X72214Y-38171D01*
X72395Y-38049D01*
X72500Y-37894D01*
X72604Y-38049D01*
X72785Y-38171D01*
X73000Y-38213D01*
X73214Y-38171D01*
X73395Y-38049D01*
X73517Y-37868D01*
X73560Y-37653D01*
X73560Y-37346D01*
X73517Y-37131D01*
X73423Y-36991D01*
X73423Y-33258D01*
X73423Y-31486D01*
X73325Y-31249D01*
X73144Y-31068D01*
X72908Y-30970D01*
X72841Y-30970D01*
X72841Y-28286D01*
X72698Y-27940D01*
X72434Y-27676D01*
X72089Y-27533D01*
X71716Y-27532D01*
X71370Y-27675D01*
X71106Y-27939D01*
X70963Y-28284D01*
X70962Y-28657D01*
X71105Y-29003D01*
X71369Y-29267D01*
X71714Y-29410D01*
X72087Y-29411D01*
X72433Y-29268D01*
X72697Y-29004D01*
X72840Y-28659D01*
X72841Y-28286D01*
X72841Y-30970D01*
X72652Y-30970D01*
X72415Y-31068D01*
X72234Y-31249D01*
X72136Y-31485D01*
X72136Y-31741D01*
X72234Y-31978D01*
X72415Y-32159D01*
X72651Y-32257D01*
X72907Y-32257D01*
X73144Y-32159D01*
X73325Y-31978D01*
X73423Y-31742D01*
X73423Y-31486D01*
X73423Y-33258D01*
X73325Y-33021D01*
X73144Y-32840D01*
X72908Y-32742D01*
X72652Y-32742D01*
X72415Y-32840D01*
X72234Y-33021D01*
X72136Y-33257D01*
X72136Y-33513D01*
X72234Y-33750D01*
X72415Y-33931D01*
X72651Y-34029D01*
X72907Y-34029D01*
X73144Y-33931D01*
X73325Y-33750D01*
X73423Y-33514D01*
X73423Y-33258D01*
X73423Y-36991D01*
X73395Y-36950D01*
X73214Y-36828D01*
X73000Y-36786D01*
X72785Y-36828D01*
X72604Y-36950D01*
X72500Y-37105D01*
X72395Y-36950D01*
X72214Y-36828D01*
X72000Y-36786D01*
X71785Y-36828D01*
X71604Y-36950D01*
X71500Y-37105D01*
X71395Y-36950D01*
X71214Y-36828D01*
X71000Y-36786D01*
X70785Y-36828D01*
X70604Y-36950D01*
X70500Y-37105D01*
X70395Y-36950D01*
X70350Y-36919D01*
X70350Y-34028D01*
X70584Y-33931D01*
X70765Y-33750D01*
X70863Y-33514D01*
X70863Y-33258D01*
X70765Y-33021D01*
X70584Y-32840D01*
X70348Y-32742D01*
X70092Y-32742D01*
X70077Y-32748D01*
X69976Y-32647D01*
X69976Y-32209D01*
X70091Y-32257D01*
X70347Y-32257D01*
X70584Y-32159D01*
X70765Y-31978D01*
X70863Y-31742D01*
X70863Y-31486D01*
X70765Y-31249D01*
X70584Y-31068D01*
X70348Y-30970D01*
X70092Y-30970D01*
X69976Y-31018D01*
X69976Y-27244D01*
X69949Y-27110D01*
X69949Y-27110D01*
X69873Y-26997D01*
X69531Y-26655D01*
X69418Y-26579D01*
X69284Y-26552D01*
X67645Y-26552D01*
X67511Y-26579D01*
X67398Y-26655D01*
X66309Y-27743D01*
X65643Y-27743D01*
X65643Y-27056D01*
X65605Y-26964D01*
X65535Y-26894D01*
X65443Y-26856D01*
X65343Y-26856D01*
X64556Y-26856D01*
X64464Y-26894D01*
X64394Y-26964D01*
X64356Y-27056D01*
X64356Y-27156D01*
X64356Y-27743D01*
X63800Y-27743D01*
X63666Y-27770D01*
X63552Y-27846D01*
X63500Y-27898D01*
X63459Y-27799D01*
X63307Y-27647D01*
X63108Y-27564D01*
X62892Y-27564D01*
X62693Y-27646D01*
X62541Y-27798D01*
X62458Y-27997D01*
X62458Y-28213D01*
X62540Y-28412D01*
X62628Y-28500D01*
X62541Y-28586D01*
X62458Y-28785D01*
X62458Y-29001D01*
X62540Y-29200D01*
X62583Y-29243D01*
X61626Y-29243D01*
X61674Y-29128D01*
X61674Y-28872D01*
X61576Y-28635D01*
X61395Y-28454D01*
X61159Y-28356D01*
X60903Y-28356D01*
X60666Y-28454D01*
X60485Y-28635D01*
X60387Y-28871D01*
X60387Y-29127D01*
X60435Y-29243D01*
X57626Y-29243D01*
X57674Y-29128D01*
X57674Y-28872D01*
X57647Y-28807D01*
X58655Y-27800D01*
X60458Y-27800D01*
X60485Y-27864D01*
X60666Y-28045D01*
X60902Y-28143D01*
X61158Y-28143D01*
X61395Y-28045D01*
X61576Y-27864D01*
X61674Y-27628D01*
X61674Y-27372D01*
X61576Y-27135D01*
X61395Y-26954D01*
X61159Y-26856D01*
X60903Y-26856D01*
X60666Y-26954D01*
X60485Y-27135D01*
X60458Y-27200D01*
X58530Y-27200D01*
X58416Y-27222D01*
X58377Y-27248D01*
X58318Y-27287D01*
X57674Y-27932D01*
X57674Y-27372D01*
X57576Y-27135D01*
X57395Y-26954D01*
X57159Y-26856D01*
X56903Y-26856D01*
X56666Y-26954D01*
X56485Y-27135D01*
X56387Y-27371D01*
X56387Y-27627D01*
X56485Y-27864D01*
X56666Y-28045D01*
X56902Y-28143D01*
X57158Y-28143D01*
X57395Y-28045D01*
X57576Y-27864D01*
X57674Y-27628D01*
X57674Y-27372D01*
X57674Y-27932D01*
X57223Y-28383D01*
X57159Y-28356D01*
X56903Y-28356D01*
X56666Y-28454D01*
X56485Y-28635D01*
X56387Y-28871D01*
X56387Y-29127D01*
X56435Y-29243D01*
X55167Y-29243D01*
X55072Y-29148D01*
X55225Y-29117D01*
X55417Y-28989D01*
X55545Y-28798D01*
X55590Y-28572D01*
X55590Y-28427D01*
X55545Y-28201D01*
X55417Y-28010D01*
X55225Y-27882D01*
X55000Y-27837D01*
X54774Y-27882D01*
X54582Y-28010D01*
X54500Y-28134D01*
X54417Y-28010D01*
X54225Y-27882D01*
X54000Y-27837D01*
X53774Y-27882D01*
X53582Y-28010D01*
X53500Y-28134D01*
X53417Y-28010D01*
X53225Y-27882D01*
X53000Y-27837D01*
X52774Y-27882D01*
X52582Y-28010D01*
X52500Y-28134D01*
X52417Y-28010D01*
X52225Y-27882D01*
X52000Y-27837D01*
X51774Y-27882D01*
X51582Y-28010D01*
X51500Y-28134D01*
X51417Y-28010D01*
X51225Y-27882D01*
X51000Y-27837D01*
X50774Y-27882D01*
X50582Y-28010D01*
X50500Y-28134D01*
X50417Y-28010D01*
X50225Y-27882D01*
X50000Y-27837D01*
X49774Y-27882D01*
X49582Y-28010D01*
X49500Y-28134D01*
X49417Y-28010D01*
X49225Y-27882D01*
X49000Y-27837D01*
X48774Y-27882D01*
X48582Y-28010D01*
X48576Y-28018D01*
X48551Y-27958D01*
X48481Y-27888D01*
X48389Y-27850D01*
X48290Y-27850D01*
X47610Y-27850D01*
X47518Y-27888D01*
X47448Y-27958D01*
X47410Y-28050D01*
X47410Y-28149D01*
X47410Y-28688D01*
X46253Y-27531D01*
X46155Y-27466D01*
X46041Y-27443D01*
X38803Y-27443D01*
X38688Y-27466D01*
X38591Y-27531D01*
X37787Y-28335D01*
X37722Y-28432D01*
X37700Y-28547D01*
X37700Y-30396D01*
X37635Y-30423D01*
X37454Y-30604D01*
X37408Y-30716D01*
X37408Y-28286D01*
X37265Y-27940D01*
X37001Y-27676D01*
X36656Y-27533D01*
X36283Y-27532D01*
X35937Y-27675D01*
X35673Y-27939D01*
X35530Y-28284D01*
X35529Y-28657D01*
X35672Y-29003D01*
X35936Y-29267D01*
X36281Y-29410D01*
X36654Y-29411D01*
X37000Y-29268D01*
X37264Y-29004D01*
X37407Y-28659D01*
X37408Y-28286D01*
X37408Y-30716D01*
X37356Y-30840D01*
X37356Y-31096D01*
X37454Y-31333D01*
X37635Y-31514D01*
X37871Y-31612D01*
X38127Y-31612D01*
X38364Y-31514D01*
X38545Y-31333D01*
X38643Y-31097D01*
X38643Y-30841D01*
X38545Y-30604D01*
X38364Y-30423D01*
X38300Y-30396D01*
X38300Y-28671D01*
X38410Y-28561D01*
X38410Y-28949D01*
X38448Y-29041D01*
X38518Y-29111D01*
X38610Y-29150D01*
X38709Y-29150D01*
X39225Y-29150D01*
X40200Y-30124D01*
X40200Y-31244D01*
X40116Y-31161D01*
X40143Y-31097D01*
X40143Y-30841D01*
X40045Y-30604D01*
X39864Y-30423D01*
X39628Y-30325D01*
X39372Y-30325D01*
X39135Y-30423D01*
X38954Y-30604D01*
X38856Y-30840D01*
X38856Y-31096D01*
X38954Y-31333D01*
X39135Y-31514D01*
X39371Y-31612D01*
X39627Y-31612D01*
X39692Y-31585D01*
X39999Y-31893D01*
X39999Y-34558D01*
X39864Y-34423D01*
X39628Y-34325D01*
X39372Y-34325D01*
X39135Y-34423D01*
X39050Y-34508D01*
X39050Y-34250D01*
X39027Y-34135D01*
X39027Y-34135D01*
X38962Y-34037D01*
X37123Y-32198D01*
X37162Y-32000D01*
X37117Y-31774D01*
X36989Y-31582D01*
X36981Y-31576D01*
X37041Y-31551D01*
X37111Y-31481D01*
X37150Y-31389D01*
X37150Y-31290D01*
X37150Y-30610D01*
X37111Y-30518D01*
X37041Y-30448D01*
X36949Y-30410D01*
X36850Y-30410D01*
X36050Y-30410D01*
X35958Y-30448D01*
X35888Y-30518D01*
X35850Y-30610D01*
X35850Y-30709D01*
X35850Y-31225D01*
X35733Y-31342D01*
X35668Y-31439D01*
X35645Y-31554D01*
X35645Y-37945D01*
X35668Y-38060D01*
X35733Y-38157D01*
X35940Y-38364D01*
X35940Y-38653D01*
X35982Y-38868D01*
X36104Y-39049D01*
X36285Y-39171D01*
X36500Y-39213D01*
X36700Y-39173D01*
X36700Y-41004D01*
X35711Y-41993D01*
X35646Y-42090D01*
X35623Y-42205D01*
X35623Y-53904D01*
X35646Y-54019D01*
X35711Y-54117D01*
X36707Y-55113D01*
X36656Y-55092D01*
X36283Y-55091D01*
X35937Y-55234D01*
X35673Y-55498D01*
X35530Y-55843D01*
X35529Y-56216D01*
X35672Y-56562D01*
X35936Y-56826D01*
X36281Y-56969D01*
X36654Y-56970D01*
X37000Y-56827D01*
X37264Y-56563D01*
X37407Y-56218D01*
X37408Y-55845D01*
X37386Y-55792D01*
X38365Y-56770D01*
X38423Y-56809D01*
X38462Y-56835D01*
X38462Y-56835D01*
X38577Y-56858D01*
X53206Y-56858D01*
X53206Y-56858D01*
X53321Y-56835D01*
X53321Y-56835D01*
X53419Y-56770D01*
X53653Y-56536D01*
X53774Y-56617D01*
X54000Y-56662D01*
X54225Y-56617D01*
X54417Y-56489D01*
X54500Y-56365D01*
X54582Y-56489D01*
X54774Y-56617D01*
X55000Y-56662D01*
X55225Y-56617D01*
X55417Y-56489D01*
X55545Y-56298D01*
X55590Y-56072D01*
X55590Y-55927D01*
X55545Y-55701D01*
X55417Y-55510D01*
X55225Y-55382D01*
X55000Y-55337D01*
X54774Y-55382D01*
X54582Y-55510D01*
X54500Y-55634D01*
X54417Y-55510D01*
X54225Y-55382D01*
X54000Y-55337D01*
X53800Y-55377D01*
X53800Y-53613D01*
X53895Y-53549D01*
X54000Y-53394D01*
X54104Y-53549D01*
X54285Y-53671D01*
X54500Y-53713D01*
X54714Y-53671D01*
X54895Y-53549D01*
X55017Y-53368D01*
X55060Y-53153D01*
X55060Y-52846D01*
X55060Y-47499D01*
X55060Y-47400D01*
X55060Y-47112D01*
X55060Y-46887D01*
X55060Y-46599D01*
X55060Y-46500D01*
X55021Y-46408D01*
X54951Y-46338D01*
X54859Y-46300D01*
X54612Y-46300D01*
X54550Y-46362D01*
X54550Y-46950D01*
X54997Y-46950D01*
X55060Y-46887D01*
X55060Y-47112D01*
X54997Y-47050D01*
X54550Y-47050D01*
X54550Y-47637D01*
X54612Y-47700D01*
X54859Y-47700D01*
X54951Y-47661D01*
X55021Y-47591D01*
X55060Y-47499D01*
X55060Y-52846D01*
X55017Y-52631D01*
X54895Y-52450D01*
X54714Y-52328D01*
X54500Y-52286D01*
X54285Y-52328D01*
X54104Y-52450D01*
X54000Y-52605D01*
X53895Y-52450D01*
X53714Y-52328D01*
X53500Y-52286D01*
X53300Y-52326D01*
X53300Y-51399D01*
X53712Y-50987D01*
X53712Y-50987D01*
X53777Y-50890D01*
X53799Y-50775D01*
X53800Y-50775D01*
X53800Y-47613D01*
X53895Y-47549D01*
X53940Y-47483D01*
X53940Y-47499D01*
X53978Y-47591D01*
X54048Y-47661D01*
X54140Y-47700D01*
X54387Y-47700D01*
X54450Y-47637D01*
X54450Y-47050D01*
X54442Y-47050D01*
X54442Y-46950D01*
X54450Y-46950D01*
X54450Y-46362D01*
X54387Y-46300D01*
X54260Y-46300D01*
X54260Y-45154D01*
X54285Y-45171D01*
X54500Y-45213D01*
X54714Y-45171D01*
X54733Y-45158D01*
X55214Y-45638D01*
X55214Y-47923D01*
X55135Y-48001D01*
X55067Y-48165D01*
X55067Y-48343D01*
X55135Y-48507D01*
X55260Y-48633D01*
X55425Y-48701D01*
X55602Y-48701D01*
X55767Y-48633D01*
X55847Y-48553D01*
X55882Y-48725D01*
X56010Y-48917D01*
X56134Y-49000D01*
X56010Y-49082D01*
X55882Y-49274D01*
X55837Y-49500D01*
X55882Y-49725D01*
X56010Y-49917D01*
X56201Y-50045D01*
X56427Y-50090D01*
X56572Y-50090D01*
X56591Y-50086D01*
X57752Y-51247D01*
X57866Y-51323D01*
X57866Y-51323D01*
X58000Y-51350D01*
X58078Y-51350D01*
X58190Y-51462D01*
X58275Y-51497D01*
X58214Y-51522D01*
X58188Y-51617D01*
X58500Y-51929D01*
X58811Y-51617D01*
X58785Y-51522D01*
X58720Y-51499D01*
X58808Y-51462D01*
X58962Y-51309D01*
X59045Y-51108D01*
X59045Y-50891D01*
X58962Y-50691D01*
X58809Y-50537D01*
X58608Y-50454D01*
X58391Y-50454D01*
X58191Y-50537D01*
X58111Y-50616D01*
X57134Y-49639D01*
X57162Y-49500D01*
X57117Y-49274D01*
X56989Y-49082D01*
X56865Y-49000D01*
X56989Y-48917D01*
X57117Y-48725D01*
X57148Y-48572D01*
X60200Y-51624D01*
X60200Y-52300D01*
X60140Y-52300D01*
X60048Y-52338D01*
X59978Y-52408D01*
X59940Y-52500D01*
X59940Y-52599D01*
X59940Y-53499D01*
X59978Y-53591D01*
X60048Y-53661D01*
X60140Y-53700D01*
X60239Y-53700D01*
X60859Y-53700D01*
X60951Y-53661D01*
X61021Y-53591D01*
X61060Y-53499D01*
X61060Y-53483D01*
X61104Y-53549D01*
X61150Y-53580D01*
X61150Y-54900D01*
X60855Y-54900D01*
X60722Y-54926D01*
X60608Y-55002D01*
X60046Y-55564D01*
X59892Y-55564D01*
X59693Y-55646D01*
X59541Y-55798D01*
X59458Y-55997D01*
X59458Y-56213D01*
X59540Y-56412D01*
X59692Y-56564D01*
X59776Y-56599D01*
X60000Y-56823D01*
X60223Y-56599D01*
X60306Y-56565D01*
X60458Y-56413D01*
X60541Y-56214D01*
X60541Y-56059D01*
X61000Y-55600D01*
X61500Y-55600D01*
X62105Y-55600D01*
X62400Y-55895D01*
X62399Y-56118D01*
X62491Y-56339D01*
X62659Y-56508D01*
X62880Y-56599D01*
X63118Y-56600D01*
X63339Y-56508D01*
X63414Y-56434D01*
X63438Y-56491D01*
X63508Y-56561D01*
X63600Y-56600D01*
X63699Y-56600D01*
X63887Y-56600D01*
X63950Y-56537D01*
X63950Y-56050D01*
X63942Y-56050D01*
X63942Y-55950D01*
X63950Y-55950D01*
X63950Y-55462D01*
X63887Y-55400D01*
X63699Y-55400D01*
X63600Y-55400D01*
X63508Y-55438D01*
X63438Y-55508D01*
X63414Y-55565D01*
X63340Y-55491D01*
X63119Y-55400D01*
X62894Y-55399D01*
X62497Y-55002D01*
X62383Y-54926D01*
X62250Y-54900D01*
X61850Y-54900D01*
X61850Y-53580D01*
X61895Y-53549D01*
X62000Y-53394D01*
X62104Y-53549D01*
X62285Y-53671D01*
X62500Y-53713D01*
X62714Y-53671D01*
X62895Y-53549D01*
X63000Y-53394D01*
X63104Y-53549D01*
X63285Y-53671D01*
X63500Y-53713D01*
X63714Y-53671D01*
X63733Y-53658D01*
X63895Y-53820D01*
X63895Y-53820D01*
X63993Y-53885D01*
X64108Y-53908D01*
X64702Y-53908D01*
X64702Y-53908D01*
X64817Y-53885D01*
X64817Y-53885D01*
X64914Y-53820D01*
X65152Y-53582D01*
X65285Y-53671D01*
X65500Y-53713D01*
X65714Y-53671D01*
X65895Y-53549D01*
X65999Y-53394D01*
X66001Y-53400D01*
X66139Y-53571D01*
X66331Y-53676D01*
X66363Y-53683D01*
X66450Y-53634D01*
X66450Y-53050D01*
X66442Y-53050D01*
X66442Y-52950D01*
X66450Y-52950D01*
X66450Y-52365D01*
X66363Y-52316D01*
X66331Y-52323D01*
X66139Y-52428D01*
X66001Y-52599D01*
X65999Y-52605D01*
X65895Y-52450D01*
X65714Y-52328D01*
X65500Y-52286D01*
X65285Y-52328D01*
X65268Y-52340D01*
X65268Y-50659D01*
X65285Y-50671D01*
X65500Y-50713D01*
X65714Y-50671D01*
X65895Y-50549D01*
X66000Y-50394D01*
X66104Y-50549D01*
X66285Y-50671D01*
X66500Y-50713D01*
X66714Y-50671D01*
X66895Y-50549D01*
X67017Y-50368D01*
X67060Y-50153D01*
X67060Y-49846D01*
X67060Y-46690D01*
X67060Y-46550D01*
X67060Y-46450D01*
X67060Y-46310D01*
X66998Y-46099D01*
X66860Y-45928D01*
X66668Y-45823D01*
X66636Y-45816D01*
X66550Y-45865D01*
X66550Y-46450D01*
X67060Y-46450D01*
X67060Y-46550D01*
X66550Y-46550D01*
X66550Y-47134D01*
X66636Y-47183D01*
X66668Y-47176D01*
X66860Y-47071D01*
X66998Y-46900D01*
X67060Y-46690D01*
X67060Y-49846D01*
X67017Y-49631D01*
X66895Y-49450D01*
X66714Y-49328D01*
X66500Y-49286D01*
X66285Y-49328D01*
X66104Y-49450D01*
X66000Y-49605D01*
X65895Y-49450D01*
X65714Y-49328D01*
X65500Y-49286D01*
X65285Y-49328D01*
X65268Y-49340D01*
X65268Y-47159D01*
X65285Y-47171D01*
X65500Y-47213D01*
X65714Y-47171D01*
X65895Y-47049D01*
X65999Y-46894D01*
X66001Y-46900D01*
X66139Y-47071D01*
X66331Y-47176D01*
X66363Y-47183D01*
X66450Y-47134D01*
X66450Y-46550D01*
X66442Y-46550D01*
X66442Y-46450D01*
X66450Y-46450D01*
X66450Y-45865D01*
X66363Y-45816D01*
X66331Y-45823D01*
X66139Y-45928D01*
X66001Y-46099D01*
X65999Y-46105D01*
X65895Y-45950D01*
X65714Y-45828D01*
X65500Y-45786D01*
X65285Y-45828D01*
X65268Y-45840D01*
X65268Y-44912D01*
X65381Y-44959D01*
X65558Y-44959D01*
X65723Y-44891D01*
X65849Y-44766D01*
X65917Y-44601D01*
X65917Y-44489D01*
X66172Y-44235D01*
X66236Y-44138D01*
X66285Y-44171D01*
X66500Y-44213D01*
X66714Y-44171D01*
X66895Y-44049D01*
X67017Y-43868D01*
X67060Y-43653D01*
X67060Y-43346D01*
X67060Y-40690D01*
X67060Y-40550D01*
X67060Y-40450D01*
X67060Y-40310D01*
X66998Y-40099D01*
X66860Y-39928D01*
X66668Y-39823D01*
X66636Y-39816D01*
X66550Y-39865D01*
X66550Y-40450D01*
X67060Y-40450D01*
X67060Y-40550D01*
X66550Y-40550D01*
X66550Y-41134D01*
X66636Y-41183D01*
X66668Y-41176D01*
X66860Y-41071D01*
X66998Y-40900D01*
X67060Y-40690D01*
X67060Y-43346D01*
X67017Y-43131D01*
X66895Y-42950D01*
X66714Y-42828D01*
X66500Y-42786D01*
X66285Y-42828D01*
X66260Y-42845D01*
X66260Y-41137D01*
X66331Y-41176D01*
X66363Y-41183D01*
X66450Y-41134D01*
X66450Y-40550D01*
X66442Y-40550D01*
X66442Y-40450D01*
X66450Y-40450D01*
X66450Y-39865D01*
X66363Y-39816D01*
X66331Y-39823D01*
X66260Y-39862D01*
X66260Y-38154D01*
X66285Y-38171D01*
X66500Y-38213D01*
X66714Y-38171D01*
X66895Y-38049D01*
X67017Y-37868D01*
X67060Y-37653D01*
X67060Y-37364D01*
X67180Y-37243D01*
X67180Y-37243D01*
X67219Y-37185D01*
X67245Y-37146D01*
X67245Y-37146D01*
X67268Y-37031D01*
X67268Y-35142D01*
X67331Y-35176D01*
X67363Y-35183D01*
X67450Y-35134D01*
X67450Y-34550D01*
X67442Y-34550D01*
X67442Y-34450D01*
X67450Y-34450D01*
X67450Y-33865D01*
X67363Y-33816D01*
X67331Y-33823D01*
X67158Y-33918D01*
X65441Y-32202D01*
X65500Y-32213D01*
X65714Y-32171D01*
X65895Y-32049D01*
X66000Y-31894D01*
X66104Y-32049D01*
X66285Y-32171D01*
X66500Y-32213D01*
X66714Y-32171D01*
X66895Y-32049D01*
X67000Y-31894D01*
X67104Y-32049D01*
X67285Y-32171D01*
X67500Y-32213D01*
X67714Y-32171D01*
X67895Y-32049D01*
X68017Y-31868D01*
X68060Y-31653D01*
X68060Y-31346D01*
X68017Y-31131D01*
X67895Y-30950D01*
X67714Y-30828D01*
X67500Y-30786D01*
X67285Y-30828D01*
X67266Y-30841D01*
X65755Y-29331D01*
X65658Y-29266D01*
X65620Y-29258D01*
X65674Y-29128D01*
X65674Y-28872D01*
X65576Y-28635D01*
X65395Y-28454D01*
X65369Y-28443D01*
X66454Y-28443D01*
X66588Y-28416D01*
X66588Y-28416D01*
X66702Y-28341D01*
X67790Y-27252D01*
X68405Y-27252D01*
X68352Y-27395D01*
X68361Y-27651D01*
X68441Y-27844D01*
X68546Y-27882D01*
X68929Y-27500D01*
X68923Y-27494D01*
X68994Y-27423D01*
X69000Y-27429D01*
X69005Y-27423D01*
X69076Y-27494D01*
X69070Y-27500D01*
X69076Y-27505D01*
X69005Y-27576D01*
X69000Y-27570D01*
X68617Y-27953D01*
X68655Y-28058D01*
X68895Y-28147D01*
X69151Y-28138D01*
X69276Y-28086D01*
X69276Y-28404D01*
X69135Y-28352D01*
X68879Y-28361D01*
X68686Y-28441D01*
X68648Y-28546D01*
X69031Y-28929D01*
X69036Y-28923D01*
X69107Y-28994D01*
X69101Y-29000D01*
X69107Y-29005D01*
X69036Y-29076D01*
X69031Y-29070D01*
X68960Y-29141D01*
X68960Y-29000D01*
X68577Y-28617D01*
X68472Y-28655D01*
X68383Y-28895D01*
X68392Y-29151D01*
X68472Y-29344D01*
X68577Y-29382D01*
X68960Y-29000D01*
X68960Y-29141D01*
X68648Y-29453D01*
X68686Y-29558D01*
X68926Y-29647D01*
X69182Y-29638D01*
X69276Y-29599D01*
X69276Y-32792D01*
X69302Y-32926D01*
X69378Y-33039D01*
X69582Y-33243D01*
X69576Y-33257D01*
X69576Y-33513D01*
X69650Y-33691D01*
X69650Y-36919D01*
X69604Y-36950D01*
X69482Y-37131D01*
X69440Y-37346D01*
X69440Y-37565D01*
X68888Y-38116D01*
X68809Y-38037D01*
X68608Y-37954D01*
X68391Y-37954D01*
X68191Y-38037D01*
X68060Y-38168D01*
X68060Y-34690D01*
X68060Y-34550D01*
X68060Y-34450D01*
X68060Y-34310D01*
X67998Y-34099D01*
X67860Y-33928D01*
X67668Y-33823D01*
X67636Y-33816D01*
X67550Y-33865D01*
X67550Y-34450D01*
X68060Y-34450D01*
X68060Y-34550D01*
X67550Y-34550D01*
X67550Y-35134D01*
X67636Y-35183D01*
X67668Y-35176D01*
X67860Y-35071D01*
X67998Y-34900D01*
X68060Y-34690D01*
X68060Y-38168D01*
X68037Y-38190D01*
X67954Y-38391D01*
X67954Y-38608D01*
X68037Y-38808D01*
X68190Y-38962D01*
X68275Y-38997D01*
X68214Y-39022D01*
X68188Y-39117D01*
X68500Y-39429D01*
X68505Y-39423D01*
X68576Y-39494D01*
X68570Y-39500D01*
X68576Y-39505D01*
X68505Y-39576D01*
X68500Y-39570D01*
X68429Y-39641D01*
X68429Y-39500D01*
X68117Y-39188D01*
X68022Y-39214D01*
X67949Y-39419D01*
X67960Y-39636D01*
X68022Y-39785D01*
X68117Y-39811D01*
X68429Y-39500D01*
X68429Y-39641D01*
X68188Y-39882D01*
X68214Y-39977D01*
X68419Y-40050D01*
X68636Y-40039D01*
X68654Y-40031D01*
X68654Y-40572D01*
X68680Y-40705D01*
X68756Y-40819D01*
X71865Y-43928D01*
X71671Y-44008D01*
X71508Y-44171D01*
X71420Y-44384D01*
X71419Y-44614D01*
X71508Y-44828D01*
X71671Y-44991D01*
X71884Y-45079D01*
X72114Y-45080D01*
X72328Y-44991D01*
X72491Y-44828D01*
X72499Y-44808D01*
X72508Y-44828D01*
X72671Y-44991D01*
X72884Y-45079D01*
X73114Y-45080D01*
X73328Y-44991D01*
X73491Y-44828D01*
X73579Y-44615D01*
X73580Y-44385D01*
X73580Y-54373D01*
X73495Y-54169D01*
X73331Y-54004D01*
X73300Y-53991D01*
X73300Y-53300D01*
X73277Y-53185D01*
X73277Y-53185D01*
X73251Y-53146D01*
X73212Y-53087D01*
X73184Y-53059D01*
X73199Y-52980D01*
X73161Y-52784D01*
X73050Y-52619D01*
X72885Y-52508D01*
X72790Y-52490D01*
X72885Y-52471D01*
X73050Y-52360D01*
X73161Y-52195D01*
X73199Y-52000D01*
X73161Y-51804D01*
X73050Y-51639D01*
X72885Y-51528D01*
X72790Y-51510D01*
X72885Y-51491D01*
X73050Y-51380D01*
X73161Y-51215D01*
X73199Y-51020D01*
X73161Y-50824D01*
X73050Y-50659D01*
X72885Y-50548D01*
X72689Y-50510D01*
X72670Y-50510D01*
X72474Y-50548D01*
X72309Y-50659D01*
X72198Y-50824D01*
X72160Y-51020D01*
X72198Y-51215D01*
X72309Y-51380D01*
X72474Y-51491D01*
X72569Y-51510D01*
X72474Y-51528D01*
X72309Y-51639D01*
X72198Y-51804D01*
X72160Y-52000D01*
X72198Y-52195D01*
X72309Y-52360D01*
X72474Y-52471D01*
X72569Y-52490D01*
X72474Y-52508D01*
X72309Y-52619D01*
X72198Y-52784D01*
X72160Y-52980D01*
X72198Y-53175D01*
X72309Y-53340D01*
X72474Y-53451D01*
X72670Y-53490D01*
X72689Y-53490D01*
X72700Y-53488D01*
X72700Y-53991D01*
X72669Y-54004D01*
X72504Y-54168D01*
X72415Y-54383D01*
X72415Y-54615D01*
X72504Y-54830D01*
X72668Y-54995D01*
X72883Y-55084D01*
X73115Y-55084D01*
X73330Y-54995D01*
X73495Y-54831D01*
X73584Y-54616D01*
X73584Y-54384D01*
X73584Y-57950D01*
X72841Y-57950D01*
X72841Y-55845D01*
X72698Y-55499D01*
X72434Y-55235D01*
X72089Y-55092D01*
X71860Y-55091D01*
X71860Y-48738D01*
X71860Y-48639D01*
X71860Y-48112D01*
X71860Y-47887D01*
X71860Y-47360D01*
X71860Y-47261D01*
X71821Y-47169D01*
X71751Y-47099D01*
X71659Y-47061D01*
X71033Y-47061D01*
X70971Y-47123D01*
X70971Y-47950D01*
X71797Y-47950D01*
X71860Y-47887D01*
X71860Y-48112D01*
X71797Y-48050D01*
X70971Y-48050D01*
X70971Y-48876D01*
X71033Y-48939D01*
X71659Y-48939D01*
X71751Y-48900D01*
X71821Y-48830D01*
X71860Y-48738D01*
X71860Y-55091D01*
X71716Y-55091D01*
X71370Y-55234D01*
X71106Y-55498D01*
X70963Y-55843D01*
X70962Y-56216D01*
X71105Y-56562D01*
X71369Y-56826D01*
X71714Y-56969D01*
X72087Y-56970D01*
X72433Y-56827D01*
X72697Y-56563D01*
X72840Y-56218D01*
X72841Y-55845D01*
X72841Y-57950D01*
X70871Y-57950D01*
X70871Y-48876D01*
X70871Y-48050D01*
X70871Y-47950D01*
X70871Y-47123D01*
X70808Y-47061D01*
X70546Y-47061D01*
X70570Y-47050D01*
X70640Y-46980D01*
X70679Y-46888D01*
X70679Y-46789D01*
X70679Y-45411D01*
X70640Y-45319D01*
X70570Y-45249D01*
X70478Y-45211D01*
X70379Y-45211D01*
X69674Y-45211D01*
X69674Y-42372D01*
X69576Y-42135D01*
X69395Y-41954D01*
X69159Y-41856D01*
X68903Y-41856D01*
X68666Y-41954D01*
X68485Y-42135D01*
X68387Y-42371D01*
X68387Y-42627D01*
X68485Y-42864D01*
X68666Y-43045D01*
X68902Y-43143D01*
X69158Y-43143D01*
X69395Y-43045D01*
X69576Y-42864D01*
X69674Y-42628D01*
X69674Y-42372D01*
X69674Y-45211D01*
X69001Y-45211D01*
X68909Y-45249D01*
X68839Y-45319D01*
X68801Y-45411D01*
X68801Y-45510D01*
X68801Y-46888D01*
X68839Y-46980D01*
X68909Y-47050D01*
X68933Y-47061D01*
X67820Y-47061D01*
X67728Y-47099D01*
X67658Y-47169D01*
X67620Y-47261D01*
X67620Y-47360D01*
X67620Y-48738D01*
X67658Y-48830D01*
X67728Y-48900D01*
X67820Y-48939D01*
X67919Y-48939D01*
X69297Y-48939D01*
X69389Y-48900D01*
X69459Y-48830D01*
X69498Y-48738D01*
X69498Y-48639D01*
X69498Y-47261D01*
X69459Y-47169D01*
X69389Y-47099D01*
X69365Y-47089D01*
X70114Y-47089D01*
X70090Y-47099D01*
X70020Y-47169D01*
X69982Y-47261D01*
X69982Y-47360D01*
X69982Y-47887D01*
X70044Y-47950D01*
X70871Y-47950D01*
X70871Y-48050D01*
X70044Y-48050D01*
X69982Y-48112D01*
X69982Y-48639D01*
X69982Y-48738D01*
X70020Y-48830D01*
X70090Y-48900D01*
X70182Y-48939D01*
X70808Y-48939D01*
X70871Y-48876D01*
X70871Y-57950D01*
X70839Y-57950D01*
X70839Y-52980D01*
X70801Y-52784D01*
X70690Y-52619D01*
X70525Y-52508D01*
X70430Y-52490D01*
X70525Y-52471D01*
X70690Y-52360D01*
X70801Y-52195D01*
X70839Y-52000D01*
X70801Y-51804D01*
X70690Y-51639D01*
X70525Y-51528D01*
X70430Y-51510D01*
X70525Y-51491D01*
X70690Y-51380D01*
X70801Y-51215D01*
X70839Y-51020D01*
X70801Y-50824D01*
X70690Y-50659D01*
X70525Y-50548D01*
X70329Y-50510D01*
X70310Y-50510D01*
X70114Y-50548D01*
X69949Y-50659D01*
X69838Y-50824D01*
X69800Y-51020D01*
X69838Y-51215D01*
X69949Y-51380D01*
X70114Y-51491D01*
X70209Y-51510D01*
X70114Y-51528D01*
X69949Y-51639D01*
X69838Y-51804D01*
X69800Y-52000D01*
X69838Y-52195D01*
X69949Y-52360D01*
X70114Y-52471D01*
X70209Y-52490D01*
X70114Y-52508D01*
X69949Y-52619D01*
X69838Y-52784D01*
X69800Y-52980D01*
X69838Y-53175D01*
X69949Y-53340D01*
X70114Y-53451D01*
X70310Y-53490D01*
X70329Y-53490D01*
X70525Y-53451D01*
X70690Y-53340D01*
X70801Y-53175D01*
X70839Y-52980D01*
X70839Y-57950D01*
X70550Y-57950D01*
X70550Y-57080D01*
X70545Y-56988D01*
X70545Y-55891D01*
X70462Y-55691D01*
X70309Y-55537D01*
X70108Y-55454D01*
X69891Y-55454D01*
X69691Y-55537D01*
X69584Y-55643D01*
X69584Y-54884D01*
X69584Y-54784D01*
X69584Y-54115D01*
X69546Y-54023D01*
X69476Y-53953D01*
X69384Y-53915D01*
X69284Y-53915D01*
X68615Y-53915D01*
X68523Y-53953D01*
X68453Y-54023D01*
X68415Y-54115D01*
X68415Y-54215D01*
X68415Y-54884D01*
X68453Y-54976D01*
X68523Y-55046D01*
X68615Y-55084D01*
X68715Y-55084D01*
X69384Y-55084D01*
X69476Y-55046D01*
X69546Y-54976D01*
X69584Y-54884D01*
X69584Y-55643D01*
X69537Y-55690D01*
X69454Y-55891D01*
X69454Y-56108D01*
X69537Y-56308D01*
X69690Y-56462D01*
X69775Y-56497D01*
X69714Y-56522D01*
X69688Y-56617D01*
X70000Y-56929D01*
X70311Y-56617D01*
X70285Y-56522D01*
X70220Y-56499D01*
X70308Y-56462D01*
X70462Y-56309D01*
X70545Y-56108D01*
X70545Y-55891D01*
X70545Y-56988D01*
X70539Y-56863D01*
X70477Y-56714D01*
X70382Y-56688D01*
X70070Y-57000D01*
X70382Y-57311D01*
X70477Y-57285D01*
X70550Y-57080D01*
X70550Y-57950D01*
X70311Y-57950D01*
X70311Y-57382D01*
X70000Y-57070D01*
X69929Y-57141D01*
X69929Y-57000D01*
X69617Y-56688D01*
X69522Y-56714D01*
X69449Y-56919D01*
X69460Y-57136D01*
X69522Y-57285D01*
X69617Y-57311D01*
X69929Y-57000D01*
X69929Y-57141D01*
X69688Y-57382D01*
X69714Y-57477D01*
X69919Y-57550D01*
X70136Y-57539D01*
X70285Y-57477D01*
X70311Y-57382D01*
X70311Y-57950D01*
X68546Y-57950D01*
X68546Y-56973D01*
X68541Y-56881D01*
X68541Y-55998D01*
X68459Y-55799D01*
X68307Y-55647D01*
X68108Y-55564D01*
X67892Y-55564D01*
X67693Y-55646D01*
X67541Y-55798D01*
X67458Y-55997D01*
X67458Y-56213D01*
X67540Y-56412D01*
X67692Y-56564D01*
X67776Y-56599D01*
X68000Y-56823D01*
X68223Y-56599D01*
X68306Y-56565D01*
X68458Y-56413D01*
X68541Y-56214D01*
X68541Y-55998D01*
X68541Y-56881D01*
X68535Y-56758D01*
X68474Y-56611D01*
X68379Y-56584D01*
X68070Y-56894D01*
X68379Y-57203D01*
X68474Y-57176D01*
X68546Y-56973D01*
X68546Y-57950D01*
X68309Y-57950D01*
X68309Y-57273D01*
X68000Y-56964D01*
X67929Y-57035D01*
X67929Y-56894D01*
X67620Y-56584D01*
X67525Y-56611D01*
X67453Y-56814D01*
X67464Y-57029D01*
X67525Y-57176D01*
X67620Y-57203D01*
X67929Y-56894D01*
X67929Y-57035D01*
X67690Y-57273D01*
X67717Y-57368D01*
X67920Y-57440D01*
X68135Y-57429D01*
X68282Y-57368D01*
X68309Y-57273D01*
X68309Y-57950D01*
X67060Y-57950D01*
X67060Y-53190D01*
X67060Y-53050D01*
X67060Y-52950D01*
X67060Y-52810D01*
X66998Y-52599D01*
X66860Y-52428D01*
X66668Y-52323D01*
X66636Y-52316D01*
X66550Y-52365D01*
X66550Y-52950D01*
X67060Y-52950D01*
X67060Y-53050D01*
X66550Y-53050D01*
X66550Y-53634D01*
X66636Y-53683D01*
X66668Y-53676D01*
X66860Y-53571D01*
X66998Y-53400D01*
X67060Y-53190D01*
X67060Y-57950D01*
X65600Y-57950D01*
X65600Y-55881D01*
X65508Y-55660D01*
X65340Y-55491D01*
X65119Y-55400D01*
X64881Y-55399D01*
X64660Y-55491D01*
X64585Y-55565D01*
X64561Y-55508D01*
X64491Y-55438D01*
X64399Y-55400D01*
X64300Y-55400D01*
X64112Y-55400D01*
X64050Y-55462D01*
X64050Y-55950D01*
X64057Y-55950D01*
X64057Y-56050D01*
X64050Y-56050D01*
X64050Y-56537D01*
X64112Y-56600D01*
X64300Y-56600D01*
X64399Y-56600D01*
X64491Y-56561D01*
X64561Y-56491D01*
X64585Y-56434D01*
X64659Y-56508D01*
X64880Y-56599D01*
X65118Y-56600D01*
X65339Y-56508D01*
X65508Y-56340D01*
X65599Y-56119D01*
X65600Y-55881D01*
X65600Y-57950D01*
X60546Y-57950D01*
X60546Y-56973D01*
X60535Y-56758D01*
X60474Y-56611D01*
X60379Y-56584D01*
X60070Y-56894D01*
X60379Y-57203D01*
X60474Y-57176D01*
X60546Y-56973D01*
X60546Y-57950D01*
X60309Y-57950D01*
X60309Y-57273D01*
X60000Y-56964D01*
X59929Y-57035D01*
X59929Y-56894D01*
X59620Y-56584D01*
X59525Y-56611D01*
X59453Y-56814D01*
X59464Y-57029D01*
X59525Y-57176D01*
X59620Y-57203D01*
X59929Y-56894D01*
X59929Y-57035D01*
X59690Y-57273D01*
X59717Y-57368D01*
X59920Y-57440D01*
X60135Y-57429D01*
X60282Y-57368D01*
X60309Y-57273D01*
X60309Y-57950D01*
X59050Y-57950D01*
X59050Y-52080D01*
X59039Y-51863D01*
X58977Y-51714D01*
X58882Y-51688D01*
X58570Y-52000D01*
X58882Y-52311D01*
X58977Y-52285D01*
X59050Y-52080D01*
X59050Y-57950D01*
X58811Y-57950D01*
X58811Y-52382D01*
X58500Y-52070D01*
X58429Y-52141D01*
X58429Y-52000D01*
X58117Y-51688D01*
X58022Y-51714D01*
X57949Y-51919D01*
X57960Y-52136D01*
X58022Y-52285D01*
X58117Y-52311D01*
X58429Y-52000D01*
X58429Y-52141D01*
X58188Y-52382D01*
X58214Y-52477D01*
X58419Y-52550D01*
X58636Y-52539D01*
X58785Y-52477D01*
X58811Y-52382D01*
X58811Y-57950D01*
X58550Y-57950D01*
X58550Y-57080D01*
X58545Y-56988D01*
X58545Y-55891D01*
X58462Y-55691D01*
X58309Y-55537D01*
X58108Y-55454D01*
X57891Y-55454D01*
X57691Y-55537D01*
X57537Y-55690D01*
X57454Y-55891D01*
X57454Y-56108D01*
X57537Y-56308D01*
X57690Y-56462D01*
X57775Y-56497D01*
X57714Y-56522D01*
X57688Y-56617D01*
X58000Y-56929D01*
X58311Y-56617D01*
X58285Y-56522D01*
X58220Y-56499D01*
X58308Y-56462D01*
X58462Y-56309D01*
X58545Y-56108D01*
X58545Y-55891D01*
X58545Y-56988D01*
X58539Y-56863D01*
X58477Y-56714D01*
X58382Y-56688D01*
X58070Y-57000D01*
X58382Y-57311D01*
X58477Y-57285D01*
X58550Y-57080D01*
X58550Y-57950D01*
X58311Y-57950D01*
X58311Y-57382D01*
X58000Y-57070D01*
X57929Y-57141D01*
X57929Y-57000D01*
X57617Y-56688D01*
X57522Y-56714D01*
X57449Y-56919D01*
X57460Y-57136D01*
X57522Y-57285D01*
X57617Y-57311D01*
X57929Y-57000D01*
X57929Y-57141D01*
X57688Y-57382D01*
X57714Y-57477D01*
X57919Y-57550D01*
X58136Y-57539D01*
X58285Y-57477D01*
X58311Y-57382D01*
X58311Y-57950D01*
X57050Y-57950D01*
X57050Y-51580D01*
X57039Y-51363D01*
X56977Y-51214D01*
X56882Y-51188D01*
X56811Y-51258D01*
X56811Y-51117D01*
X56785Y-51022D01*
X56580Y-50949D01*
X56363Y-50960D01*
X56214Y-51022D01*
X56188Y-51117D01*
X56500Y-51429D01*
X56811Y-51117D01*
X56811Y-51258D01*
X56570Y-51500D01*
X56882Y-51811D01*
X56977Y-51785D01*
X57050Y-51580D01*
X57050Y-57950D01*
X57045Y-57950D01*
X57045Y-52391D01*
X56962Y-52191D01*
X56809Y-52037D01*
X56724Y-52002D01*
X56785Y-51977D01*
X56811Y-51882D01*
X56500Y-51570D01*
X56429Y-51641D01*
X56429Y-51500D01*
X56117Y-51188D01*
X56022Y-51214D01*
X55949Y-51419D01*
X55960Y-51636D01*
X56022Y-51785D01*
X56117Y-51811D01*
X56429Y-51500D01*
X56429Y-51641D01*
X56188Y-51882D01*
X56214Y-51977D01*
X56279Y-52000D01*
X56191Y-52037D01*
X56037Y-52190D01*
X55954Y-52391D01*
X55954Y-52608D01*
X56037Y-52808D01*
X56190Y-52962D01*
X56391Y-53045D01*
X56608Y-53045D01*
X56808Y-52962D01*
X56962Y-52809D01*
X57045Y-52608D01*
X57045Y-52391D01*
X57045Y-57950D01*
X34550Y-57950D01*
X34550Y-26550D01*
X73850Y-26550D01*
X73850Y-57950D01*
X73850Y-57950D01*
G37*
G54D31*
X73850Y-57950D02*
X73678Y-57950D01*
X73678Y-42604D01*
X73669Y-42348D01*
X73589Y-42155D01*
X73560Y-42144D01*
X73560Y-40690D01*
X73560Y-40550D01*
X73560Y-40450D01*
X73560Y-40310D01*
X73498Y-40099D01*
X73360Y-39928D01*
X73168Y-39823D01*
X73136Y-39816D01*
X73050Y-39865D01*
X73050Y-40450D01*
X73560Y-40450D01*
X73560Y-40550D01*
X73050Y-40550D01*
X73050Y-41134D01*
X73136Y-41183D01*
X73168Y-41176D01*
X73360Y-41071D01*
X73498Y-40900D01*
X73560Y-40690D01*
X73560Y-42144D01*
X73484Y-42117D01*
X73413Y-42187D01*
X73413Y-42046D01*
X73375Y-41941D01*
X73135Y-41852D01*
X72879Y-41861D01*
X72686Y-41941D01*
X72648Y-42046D01*
X73031Y-42429D01*
X73413Y-42046D01*
X73413Y-42187D01*
X73101Y-42500D01*
X73484Y-42882D01*
X73589Y-42844D01*
X73678Y-42604D01*
X73678Y-57950D01*
X73584Y-57950D01*
X73584Y-54384D01*
X73580Y-54373D01*
X73580Y-44385D01*
X73491Y-44171D01*
X73413Y-44093D01*
X73413Y-42953D01*
X73031Y-42570D01*
X72960Y-42641D01*
X72960Y-42500D01*
X72577Y-42117D01*
X72472Y-42155D01*
X72383Y-42395D01*
X72392Y-42651D01*
X72472Y-42844D01*
X72577Y-42882D01*
X72960Y-42500D01*
X72960Y-42641D01*
X72648Y-42953D01*
X72686Y-43058D01*
X72926Y-43147D01*
X73182Y-43138D01*
X73375Y-43058D01*
X73413Y-42953D01*
X73413Y-44093D01*
X73328Y-44008D01*
X73115Y-43920D01*
X72885Y-43919D01*
X72858Y-43930D01*
X70127Y-41200D01*
X70359Y-41200D01*
X70451Y-41161D01*
X70521Y-41091D01*
X70560Y-40999D01*
X70560Y-40983D01*
X70604Y-41049D01*
X70785Y-41171D01*
X71000Y-41213D01*
X71214Y-41171D01*
X71395Y-41049D01*
X71500Y-40894D01*
X71604Y-41049D01*
X71785Y-41171D01*
X72000Y-41213D01*
X72214Y-41171D01*
X72395Y-41049D01*
X72499Y-40894D01*
X72501Y-40900D01*
X72639Y-41071D01*
X72831Y-41176D01*
X72863Y-41183D01*
X72950Y-41134D01*
X72950Y-40550D01*
X72942Y-40550D01*
X72942Y-40450D01*
X72950Y-40450D01*
X72950Y-39865D01*
X72863Y-39816D01*
X72831Y-39823D01*
X72639Y-39928D01*
X72501Y-40099D01*
X72499Y-40105D01*
X72395Y-39950D01*
X72214Y-39828D01*
X72000Y-39786D01*
X71785Y-39828D01*
X71604Y-39950D01*
X71500Y-40105D01*
X71395Y-39950D01*
X71214Y-39828D01*
X71000Y-39786D01*
X70785Y-39828D01*
X70604Y-39950D01*
X70560Y-40016D01*
X70560Y-40000D01*
X70521Y-39908D01*
X70451Y-39838D01*
X70359Y-39800D01*
X70260Y-39800D01*
X69640Y-39800D01*
X69548Y-39838D01*
X69478Y-39908D01*
X69440Y-40000D01*
X69440Y-40099D01*
X69440Y-40512D01*
X69354Y-40427D01*
X69354Y-38640D01*
X69817Y-38177D01*
X70000Y-38213D01*
X70214Y-38171D01*
X70395Y-38049D01*
X70500Y-37894D01*
X70604Y-38049D01*
X70785Y-38171D01*
X71000Y-38213D01*
X71214Y-38171D01*
X71395Y-38049D01*
X71500Y-37894D01*
X71604Y-38049D01*
X71785Y-38171D01*
X72000Y-38213D01*
X72214Y-38171D01*
X72395Y-38049D01*
X72500Y-37894D01*
X72604Y-38049D01*
X72785Y-38171D01*
X73000Y-38213D01*
X73214Y-38171D01*
X73395Y-38049D01*
X73517Y-37868D01*
X73560Y-37653D01*
X73560Y-37346D01*
X73517Y-37131D01*
X73423Y-36991D01*
X73423Y-33258D01*
X73423Y-31486D01*
X73325Y-31249D01*
X73144Y-31068D01*
X72908Y-30970D01*
X72841Y-30970D01*
X72841Y-28286D01*
X72698Y-27940D01*
X72434Y-27676D01*
X72089Y-27533D01*
X71716Y-27532D01*
X71370Y-27675D01*
X71106Y-27939D01*
X70963Y-28284D01*
X70962Y-28657D01*
X71105Y-29003D01*
X71369Y-29267D01*
X71714Y-29410D01*
X72087Y-29411D01*
X72433Y-29268D01*
X72697Y-29004D01*
X72840Y-28659D01*
X72841Y-28286D01*
X72841Y-30970D01*
X72652Y-30970D01*
X72415Y-31068D01*
X72234Y-31249D01*
X72136Y-31485D01*
X72136Y-31741D01*
X72234Y-31978D01*
X72415Y-32159D01*
X72651Y-32257D01*
X72907Y-32257D01*
X73144Y-32159D01*
X73325Y-31978D01*
X73423Y-31742D01*
X73423Y-31486D01*
X73423Y-33258D01*
X73325Y-33021D01*
X73144Y-32840D01*
X72908Y-32742D01*
X72652Y-32742D01*
X72415Y-32840D01*
X72234Y-33021D01*
X72136Y-33257D01*
X72136Y-33513D01*
X72234Y-33750D01*
X72415Y-33931D01*
X72651Y-34029D01*
X72907Y-34029D01*
X73144Y-33931D01*
X73325Y-33750D01*
X73423Y-33514D01*
X73423Y-33258D01*
X73423Y-36991D01*
X73395Y-36950D01*
X73214Y-36828D01*
X73000Y-36786D01*
X72785Y-36828D01*
X72604Y-36950D01*
X72500Y-37105D01*
X72395Y-36950D01*
X72214Y-36828D01*
X72000Y-36786D01*
X71785Y-36828D01*
X71604Y-36950D01*
X71500Y-37105D01*
X71395Y-36950D01*
X71214Y-36828D01*
X71000Y-36786D01*
X70785Y-36828D01*
X70604Y-36950D01*
X70500Y-37105D01*
X70395Y-36950D01*
X70350Y-36919D01*
X70350Y-34028D01*
X70584Y-33931D01*
X70765Y-33750D01*
X70863Y-33514D01*
X70863Y-33258D01*
X70765Y-33021D01*
X70584Y-32840D01*
X70348Y-32742D01*
X70092Y-32742D01*
X70077Y-32748D01*
X69976Y-32647D01*
X69976Y-32209D01*
X70091Y-32257D01*
X70347Y-32257D01*
X70584Y-32159D01*
X70765Y-31978D01*
X70863Y-31742D01*
X70863Y-31486D01*
X70765Y-31249D01*
X70584Y-31068D01*
X70348Y-30970D01*
X70092Y-30970D01*
X69976Y-31018D01*
X69976Y-27244D01*
X69949Y-27110D01*
X69949Y-27110D01*
X69873Y-26997D01*
X69531Y-26655D01*
X69418Y-26579D01*
X69284Y-26552D01*
X67645Y-26552D01*
X67511Y-26579D01*
X67398Y-26655D01*
X66309Y-27743D01*
X65643Y-27743D01*
X65643Y-27056D01*
X65605Y-26964D01*
X65535Y-26894D01*
X65443Y-26856D01*
X65343Y-26856D01*
X64556Y-26856D01*
X64464Y-26894D01*
X64394Y-26964D01*
X64356Y-27056D01*
X64356Y-27156D01*
X64356Y-27743D01*
X63800Y-27743D01*
X63666Y-27770D01*
X63552Y-27846D01*
X63500Y-27898D01*
X63459Y-27799D01*
X63307Y-27647D01*
X63108Y-27564D01*
X62892Y-27564D01*
X62693Y-27646D01*
X62541Y-27798D01*
X62458Y-27997D01*
X62458Y-28213D01*
X62540Y-28412D01*
X62628Y-28500D01*
X62541Y-28586D01*
X62458Y-28785D01*
X62458Y-29001D01*
X62540Y-29200D01*
X62583Y-29243D01*
X61626Y-29243D01*
X61674Y-29128D01*
X61674Y-28872D01*
X61576Y-28635D01*
X61395Y-28454D01*
X61159Y-28356D01*
X60903Y-28356D01*
X60666Y-28454D01*
X60485Y-28635D01*
X60387Y-28871D01*
X60387Y-29127D01*
X60435Y-29243D01*
X57626Y-29243D01*
X57674Y-29128D01*
X57674Y-28872D01*
X57647Y-28807D01*
X58655Y-27800D01*
X60458Y-27800D01*
X60485Y-27864D01*
X60666Y-28045D01*
X60902Y-28143D01*
X61158Y-28143D01*
X61395Y-28045D01*
X61576Y-27864D01*
X61674Y-27628D01*
X61674Y-27372D01*
X61576Y-27135D01*
X61395Y-26954D01*
X61159Y-26856D01*
X60903Y-26856D01*
X60666Y-26954D01*
X60485Y-27135D01*
X60458Y-27200D01*
X58530Y-27200D01*
X58416Y-27222D01*
X58377Y-27248D01*
X58318Y-27287D01*
X57674Y-27932D01*
X57674Y-27372D01*
X57576Y-27135D01*
X57395Y-26954D01*
X57159Y-26856D01*
X56903Y-26856D01*
X56666Y-26954D01*
X56485Y-27135D01*
X56387Y-27371D01*
X56387Y-27627D01*
X56485Y-27864D01*
X56666Y-28045D01*
X56902Y-28143D01*
X57158Y-28143D01*
X57395Y-28045D01*
X57576Y-27864D01*
X57674Y-27628D01*
X57674Y-27372D01*
X57674Y-27932D01*
X57223Y-28383D01*
X57159Y-28356D01*
X56903Y-28356D01*
X56666Y-28454D01*
X56485Y-28635D01*
X56387Y-28871D01*
X56387Y-29127D01*
X56435Y-29243D01*
X55167Y-29243D01*
X55072Y-29148D01*
X55225Y-29117D01*
X55417Y-28989D01*
X55545Y-28798D01*
X55590Y-28572D01*
X55590Y-28427D01*
X55545Y-28201D01*
X55417Y-28010D01*
X55225Y-27882D01*
X55000Y-27837D01*
X54774Y-27882D01*
X54582Y-28010D01*
X54500Y-28134D01*
X54417Y-28010D01*
X54225Y-27882D01*
X54000Y-27837D01*
X53774Y-27882D01*
X53582Y-28010D01*
X53500Y-28134D01*
X53417Y-28010D01*
X53225Y-27882D01*
X53000Y-27837D01*
X52774Y-27882D01*
X52582Y-28010D01*
X52500Y-28134D01*
X52417Y-28010D01*
X52225Y-27882D01*
X52000Y-27837D01*
X51774Y-27882D01*
X51582Y-28010D01*
X51500Y-28134D01*
X51417Y-28010D01*
X51225Y-27882D01*
X51000Y-27837D01*
X50774Y-27882D01*
X50582Y-28010D01*
X50500Y-28134D01*
X50417Y-28010D01*
X50225Y-27882D01*
X50000Y-27837D01*
X49774Y-27882D01*
X49582Y-28010D01*
X49500Y-28134D01*
X49417Y-28010D01*
X49225Y-27882D01*
X49000Y-27837D01*
X48774Y-27882D01*
X48582Y-28010D01*
X48576Y-28018D01*
X48551Y-27958D01*
X48481Y-27888D01*
X48389Y-27850D01*
X48290Y-27850D01*
X47610Y-27850D01*
X47518Y-27888D01*
X47448Y-27958D01*
X47410Y-28050D01*
X47410Y-28149D01*
X47410Y-28688D01*
X46253Y-27531D01*
X46155Y-27466D01*
X46041Y-27443D01*
X38803Y-27443D01*
X38688Y-27466D01*
X38591Y-27531D01*
X37787Y-28335D01*
X37722Y-28432D01*
X37700Y-28547D01*
X37700Y-30396D01*
X37635Y-30423D01*
X37454Y-30604D01*
X37408Y-30716D01*
X37408Y-28286D01*
X37265Y-27940D01*
X37001Y-27676D01*
X36656Y-27533D01*
X36283Y-27532D01*
X35937Y-27675D01*
X35673Y-27939D01*
X35530Y-28284D01*
X35529Y-28657D01*
X35672Y-29003D01*
X35936Y-29267D01*
X36281Y-29410D01*
X36654Y-29411D01*
X37000Y-29268D01*
X37264Y-29004D01*
X37407Y-28659D01*
X37408Y-28286D01*
X37408Y-30716D01*
X37356Y-30840D01*
X37356Y-31096D01*
X37454Y-31333D01*
X37635Y-31514D01*
X37871Y-31612D01*
X38127Y-31612D01*
X38364Y-31514D01*
X38545Y-31333D01*
X38643Y-31097D01*
X38643Y-30841D01*
X38545Y-30604D01*
X38364Y-30423D01*
X38300Y-30396D01*
X38300Y-28671D01*
X38410Y-28561D01*
X38410Y-28949D01*
X38448Y-29041D01*
X38518Y-29111D01*
X38610Y-29150D01*
X38709Y-29150D01*
X39225Y-29150D01*
X40200Y-30124D01*
X40200Y-31244D01*
X40116Y-31161D01*
X40143Y-31097D01*
X40143Y-30841D01*
X40045Y-30604D01*
X39864Y-30423D01*
X39628Y-30325D01*
X39372Y-30325D01*
X39135Y-30423D01*
X38954Y-30604D01*
X38856Y-30840D01*
X38856Y-31096D01*
X38954Y-31333D01*
X39135Y-31514D01*
X39371Y-31612D01*
X39627Y-31612D01*
X39692Y-31585D01*
X39999Y-31893D01*
X39999Y-34558D01*
X39864Y-34423D01*
X39628Y-34325D01*
X39372Y-34325D01*
X39135Y-34423D01*
X39050Y-34508D01*
X39050Y-34250D01*
X39027Y-34135D01*
X39027Y-34135D01*
X38962Y-34037D01*
X37123Y-32198D01*
X37162Y-32000D01*
X37117Y-31774D01*
X36989Y-31582D01*
X36981Y-31576D01*
X37041Y-31551D01*
X37111Y-31481D01*
X37150Y-31389D01*
X37150Y-31290D01*
X37150Y-30610D01*
X37111Y-30518D01*
X37041Y-30448D01*
X36949Y-30410D01*
X36850Y-30410D01*
X36050Y-30410D01*
X35958Y-30448D01*
X35888Y-30518D01*
X35850Y-30610D01*
X35850Y-30709D01*
X35850Y-31225D01*
X35733Y-31342D01*
X35668Y-31439D01*
X35645Y-31554D01*
X35645Y-37945D01*
X35668Y-38060D01*
X35733Y-38157D01*
X35940Y-38364D01*
X35940Y-38653D01*
X35982Y-38868D01*
X36104Y-39049D01*
X36285Y-39171D01*
X36500Y-39213D01*
X36700Y-39173D01*
X36700Y-41004D01*
X35711Y-41993D01*
X35646Y-42090D01*
X35623Y-42205D01*
X35623Y-53904D01*
X35646Y-54019D01*
X35711Y-54117D01*
X36707Y-55113D01*
X36656Y-55092D01*
X36283Y-55091D01*
X35937Y-55234D01*
X35673Y-55498D01*
X35530Y-55843D01*
X35529Y-56216D01*
X35672Y-56562D01*
X35936Y-56826D01*
X36281Y-56969D01*
X36654Y-56970D01*
X37000Y-56827D01*
X37264Y-56563D01*
X37407Y-56218D01*
X37408Y-55845D01*
X37386Y-55792D01*
X38365Y-56770D01*
X38423Y-56809D01*
X38462Y-56835D01*
X38462Y-56835D01*
X38577Y-56858D01*
X53206Y-56858D01*
X53206Y-56858D01*
X53321Y-56835D01*
X53321Y-56835D01*
X53419Y-56770D01*
X53653Y-56536D01*
X53774Y-56617D01*
X54000Y-56662D01*
X54225Y-56617D01*
X54417Y-56489D01*
X54500Y-56365D01*
X54582Y-56489D01*
X54774Y-56617D01*
X55000Y-56662D01*
X55225Y-56617D01*
X55417Y-56489D01*
X55545Y-56298D01*
X55590Y-56072D01*
X55590Y-55927D01*
X55545Y-55701D01*
X55417Y-55510D01*
X55225Y-55382D01*
X55000Y-55337D01*
X54774Y-55382D01*
X54582Y-55510D01*
X54500Y-55634D01*
X54417Y-55510D01*
X54225Y-55382D01*
X54000Y-55337D01*
X53800Y-55377D01*
X53800Y-53613D01*
X53895Y-53549D01*
X54000Y-53394D01*
X54104Y-53549D01*
X54285Y-53671D01*
X54500Y-53713D01*
X54714Y-53671D01*
X54895Y-53549D01*
X55017Y-53368D01*
X55060Y-53153D01*
X55060Y-52846D01*
X55060Y-47499D01*
X55060Y-47400D01*
X55060Y-47112D01*
X55060Y-46887D01*
X55060Y-46599D01*
X55060Y-46500D01*
X55021Y-46408D01*
X54951Y-46338D01*
X54859Y-46300D01*
X54612Y-46300D01*
X54550Y-46362D01*
X54550Y-46950D01*
X54997Y-46950D01*
X55060Y-46887D01*
X55060Y-47112D01*
X54997Y-47050D01*
X54550Y-47050D01*
X54550Y-47637D01*
X54612Y-47700D01*
X54859Y-47700D01*
X54951Y-47661D01*
X55021Y-47591D01*
X55060Y-47499D01*
X55060Y-52846D01*
X55017Y-52631D01*
X54895Y-52450D01*
X54714Y-52328D01*
X54500Y-52286D01*
X54285Y-52328D01*
X54104Y-52450D01*
X54000Y-52605D01*
X53895Y-52450D01*
X53714Y-52328D01*
X53500Y-52286D01*
X53300Y-52326D01*
X53300Y-51399D01*
X53712Y-50987D01*
X53712Y-50987D01*
X53777Y-50890D01*
X53799Y-50775D01*
X53800Y-50775D01*
X53800Y-47613D01*
X53895Y-47549D01*
X53940Y-47483D01*
X53940Y-47499D01*
X53978Y-47591D01*
X54048Y-47661D01*
X54140Y-47700D01*
X54387Y-47700D01*
X54450Y-47637D01*
X54450Y-47050D01*
X54442Y-47050D01*
X54442Y-46950D01*
X54450Y-46950D01*
X54450Y-46362D01*
X54387Y-46300D01*
X54260Y-46300D01*
X54260Y-45154D01*
X54285Y-45171D01*
X54500Y-45213D01*
X54714Y-45171D01*
X54733Y-45158D01*
X55214Y-45638D01*
X55214Y-47923D01*
X55135Y-48001D01*
X55067Y-48165D01*
X55067Y-48343D01*
X55135Y-48507D01*
X55260Y-48633D01*
X55425Y-48701D01*
X55602Y-48701D01*
X55767Y-48633D01*
X55847Y-48553D01*
X55882Y-48725D01*
X56010Y-48917D01*
X56134Y-49000D01*
X56010Y-49082D01*
X55882Y-49274D01*
X55837Y-49500D01*
X55882Y-49725D01*
X56010Y-49917D01*
X56201Y-50045D01*
X56427Y-50090D01*
X56572Y-50090D01*
X56591Y-50086D01*
X57752Y-51247D01*
X57866Y-51323D01*
X57866Y-51323D01*
X58000Y-51350D01*
X58078Y-51350D01*
X58190Y-51462D01*
X58275Y-51497D01*
X58214Y-51522D01*
X58188Y-51617D01*
X58500Y-51929D01*
X58811Y-51617D01*
X58785Y-51522D01*
X58720Y-51499D01*
X58808Y-51462D01*
X58962Y-51309D01*
X59045Y-51108D01*
X59045Y-50891D01*
X58962Y-50691D01*
X58809Y-50537D01*
X58608Y-50454D01*
X58391Y-50454D01*
X58191Y-50537D01*
X58111Y-50616D01*
X57134Y-49639D01*
X57162Y-49500D01*
X57117Y-49274D01*
X56989Y-49082D01*
X56865Y-49000D01*
X56989Y-48917D01*
X57117Y-48725D01*
X57148Y-48572D01*
X60200Y-51624D01*
X60200Y-52300D01*
X60140Y-52300D01*
X60048Y-52338D01*
X59978Y-52408D01*
X59940Y-52500D01*
X59940Y-52599D01*
X59940Y-53499D01*
X59978Y-53591D01*
X60048Y-53661D01*
X60140Y-53700D01*
X60239Y-53700D01*
X60859Y-53700D01*
X60951Y-53661D01*
X61021Y-53591D01*
X61060Y-53499D01*
X61060Y-53483D01*
X61104Y-53549D01*
X61150Y-53580D01*
X61150Y-54900D01*
X60855Y-54900D01*
X60722Y-54926D01*
X60608Y-55002D01*
X60046Y-55564D01*
X59892Y-55564D01*
X59693Y-55646D01*
X59541Y-55798D01*
X59458Y-55997D01*
X59458Y-56213D01*
X59540Y-56412D01*
X59692Y-56564D01*
X59776Y-56599D01*
X60000Y-56823D01*
X60223Y-56599D01*
X60306Y-56565D01*
X60458Y-56413D01*
X60541Y-56214D01*
X60541Y-56059D01*
X61000Y-55600D01*
X61500Y-55600D01*
X62105Y-55600D01*
X62400Y-55895D01*
X62399Y-56118D01*
X62491Y-56339D01*
X62659Y-56508D01*
X62880Y-56599D01*
X63118Y-56600D01*
X63339Y-56508D01*
X63414Y-56434D01*
X63438Y-56491D01*
X63508Y-56561D01*
X63600Y-56600D01*
X63699Y-56600D01*
X63887Y-56600D01*
X63950Y-56537D01*
X63950Y-56050D01*
X63942Y-56050D01*
X63942Y-55950D01*
X63950Y-55950D01*
X63950Y-55462D01*
X63887Y-55400D01*
X63699Y-55400D01*
X63600Y-55400D01*
X63508Y-55438D01*
X63438Y-55508D01*
X63414Y-55565D01*
X63340Y-55491D01*
X63119Y-55400D01*
X62894Y-55399D01*
X62497Y-55002D01*
X62383Y-54926D01*
X62250Y-54900D01*
X61850Y-54900D01*
X61850Y-53580D01*
X61895Y-53549D01*
X62000Y-53394D01*
X62104Y-53549D01*
X62285Y-53671D01*
X62500Y-53713D01*
X62714Y-53671D01*
X62895Y-53549D01*
X63000Y-53394D01*
X63104Y-53549D01*
X63285Y-53671D01*
X63500Y-53713D01*
X63714Y-53671D01*
X63733Y-53658D01*
X63895Y-53820D01*
X63895Y-53820D01*
X63993Y-53885D01*
X64108Y-53908D01*
X64702Y-53908D01*
X64702Y-53908D01*
X64817Y-53885D01*
X64817Y-53885D01*
X64914Y-53820D01*
X65152Y-53582D01*
X65285Y-53671D01*
X65500Y-53713D01*
X65714Y-53671D01*
X65895Y-53549D01*
X65999Y-53394D01*
X66001Y-53400D01*
X66139Y-53571D01*
X66331Y-53676D01*
X66363Y-53683D01*
X66450Y-53634D01*
X66450Y-53050D01*
X66442Y-53050D01*
X66442Y-52950D01*
X66450Y-52950D01*
X66450Y-52365D01*
X66363Y-52316D01*
X66331Y-52323D01*
X66139Y-52428D01*
X66001Y-52599D01*
X65999Y-52605D01*
X65895Y-52450D01*
X65714Y-52328D01*
X65500Y-52286D01*
X65285Y-52328D01*
X65268Y-52340D01*
X65268Y-50659D01*
X65285Y-50671D01*
X65500Y-50713D01*
X65714Y-50671D01*
X65895Y-50549D01*
X66000Y-50394D01*
X66104Y-50549D01*
X66285Y-50671D01*
X66500Y-50713D01*
X66714Y-50671D01*
X66895Y-50549D01*
X67017Y-50368D01*
X67060Y-50153D01*
X67060Y-49846D01*
X67060Y-46690D01*
X67060Y-46550D01*
X67060Y-46450D01*
X67060Y-46310D01*
X66998Y-46099D01*
X66860Y-45928D01*
X66668Y-45823D01*
X66636Y-45816D01*
X66550Y-45865D01*
X66550Y-46450D01*
X67060Y-46450D01*
X67060Y-46550D01*
X66550Y-46550D01*
X66550Y-47134D01*
X66636Y-47183D01*
X66668Y-47176D01*
X66860Y-47071D01*
X66998Y-46900D01*
X67060Y-46690D01*
X67060Y-49846D01*
X67017Y-49631D01*
X66895Y-49450D01*
X66714Y-49328D01*
X66500Y-49286D01*
X66285Y-49328D01*
X66104Y-49450D01*
X66000Y-49605D01*
X65895Y-49450D01*
X65714Y-49328D01*
X65500Y-49286D01*
X65285Y-49328D01*
X65268Y-49340D01*
X65268Y-47159D01*
X65285Y-47171D01*
X65500Y-47213D01*
X65714Y-47171D01*
X65895Y-47049D01*
X65999Y-46894D01*
X66001Y-46900D01*
X66139Y-47071D01*
X66331Y-47176D01*
X66363Y-47183D01*
X66450Y-47134D01*
X66450Y-46550D01*
X66442Y-46550D01*
X66442Y-46450D01*
X66450Y-46450D01*
X66450Y-45865D01*
X66363Y-45816D01*
X66331Y-45823D01*
X66139Y-45928D01*
X66001Y-46099D01*
X65999Y-46105D01*
X65895Y-45950D01*
X65714Y-45828D01*
X65500Y-45786D01*
X65285Y-45828D01*
X65268Y-45840D01*
X65268Y-44912D01*
X65381Y-44959D01*
X65558Y-44959D01*
X65723Y-44891D01*
X65849Y-44766D01*
X65917Y-44601D01*
X65917Y-44489D01*
X66172Y-44235D01*
X66236Y-44138D01*
X66285Y-44171D01*
X66500Y-44213D01*
X66714Y-44171D01*
X66895Y-44049D01*
X67017Y-43868D01*
X67060Y-43653D01*
X67060Y-43346D01*
X67060Y-40690D01*
X67060Y-40550D01*
X67060Y-40450D01*
X67060Y-40310D01*
X66998Y-40099D01*
X66860Y-39928D01*
X66668Y-39823D01*
X66636Y-39816D01*
X66550Y-39865D01*
X66550Y-40450D01*
X67060Y-40450D01*
X67060Y-40550D01*
X66550Y-40550D01*
X66550Y-41134D01*
X66636Y-41183D01*
X66668Y-41176D01*
X66860Y-41071D01*
X66998Y-40900D01*
X67060Y-40690D01*
X67060Y-43346D01*
X67017Y-43131D01*
X66895Y-42950D01*
X66714Y-42828D01*
X66500Y-42786D01*
X66285Y-42828D01*
X66260Y-42845D01*
X66260Y-41137D01*
X66331Y-41176D01*
X66363Y-41183D01*
X66450Y-41134D01*
X66450Y-40550D01*
X66442Y-40550D01*
X66442Y-40450D01*
X66450Y-40450D01*
X66450Y-39865D01*
X66363Y-39816D01*
X66331Y-39823D01*
X66260Y-39862D01*
X66260Y-38154D01*
X66285Y-38171D01*
X66500Y-38213D01*
X66714Y-38171D01*
X66895Y-38049D01*
X67017Y-37868D01*
X67060Y-37653D01*
X67060Y-37364D01*
X67180Y-37243D01*
X67180Y-37243D01*
X67219Y-37185D01*
X67245Y-37146D01*
X67245Y-37146D01*
X67268Y-37031D01*
X67268Y-35142D01*
X67331Y-35176D01*
X67363Y-35183D01*
X67450Y-35134D01*
X67450Y-34550D01*
X67442Y-34550D01*
X67442Y-34450D01*
X67450Y-34450D01*
X67450Y-33865D01*
X67363Y-33816D01*
X67331Y-33823D01*
X67158Y-33918D01*
X65441Y-32202D01*
X65500Y-32213D01*
X65714Y-32171D01*
X65895Y-32049D01*
X66000Y-31894D01*
X66104Y-32049D01*
X66285Y-32171D01*
X66500Y-32213D01*
X66714Y-32171D01*
X66895Y-32049D01*
X67000Y-31894D01*
X67104Y-32049D01*
X67285Y-32171D01*
X67500Y-32213D01*
X67714Y-32171D01*
X67895Y-32049D01*
X68017Y-31868D01*
X68060Y-31653D01*
X68060Y-31346D01*
X68017Y-31131D01*
X67895Y-30950D01*
X67714Y-30828D01*
X67500Y-30786D01*
X67285Y-30828D01*
X67266Y-30841D01*
X65755Y-29331D01*
X65658Y-29266D01*
X65620Y-29258D01*
X65674Y-29128D01*
X65674Y-28872D01*
X65576Y-28635D01*
X65395Y-28454D01*
X65369Y-28443D01*
X66454Y-28443D01*
X66588Y-28416D01*
X66588Y-28416D01*
X66702Y-28341D01*
X67790Y-27252D01*
X68405Y-27252D01*
X68352Y-27395D01*
X68361Y-27651D01*
X68441Y-27844D01*
X68546Y-27882D01*
X68929Y-27500D01*
X68923Y-27494D01*
X68994Y-27423D01*
X69000Y-27429D01*
X69005Y-27423D01*
X69076Y-27494D01*
X69070Y-27500D01*
X69076Y-27505D01*
X69005Y-27576D01*
X69000Y-27570D01*
X68617Y-27953D01*
X68655Y-28058D01*
X68895Y-28147D01*
X69151Y-28138D01*
X69276Y-28086D01*
X69276Y-28404D01*
X69135Y-28352D01*
X68879Y-28361D01*
X68686Y-28441D01*
X68648Y-28546D01*
X69031Y-28929D01*
X69036Y-28923D01*
X69107Y-28994D01*
X69101Y-29000D01*
X69107Y-29005D01*
X69036Y-29076D01*
X69031Y-29070D01*
X68960Y-29141D01*
X68960Y-29000D01*
X68577Y-28617D01*
X68472Y-28655D01*
X68383Y-28895D01*
X68392Y-29151D01*
X68472Y-29344D01*
X68577Y-29382D01*
X68960Y-29000D01*
X68960Y-29141D01*
X68648Y-29453D01*
X68686Y-29558D01*
X68926Y-29647D01*
X69182Y-29638D01*
X69276Y-29599D01*
X69276Y-32792D01*
X69302Y-32926D01*
X69378Y-33039D01*
X69582Y-33243D01*
X69576Y-33257D01*
X69576Y-33513D01*
X69650Y-33691D01*
X69650Y-36919D01*
X69604Y-36950D01*
X69482Y-37131D01*
X69440Y-37346D01*
X69440Y-37565D01*
X68888Y-38116D01*
X68809Y-38037D01*
X68608Y-37954D01*
X68391Y-37954D01*
X68191Y-38037D01*
X68060Y-38168D01*
X68060Y-34690D01*
X68060Y-34550D01*
X68060Y-34450D01*
X68060Y-34310D01*
X67998Y-34099D01*
X67860Y-33928D01*
X67668Y-33823D01*
X67636Y-33816D01*
X67550Y-33865D01*
X67550Y-34450D01*
X68060Y-34450D01*
X68060Y-34550D01*
X67550Y-34550D01*
X67550Y-35134D01*
X67636Y-35183D01*
X67668Y-35176D01*
X67860Y-35071D01*
X67998Y-34900D01*
X68060Y-34690D01*
X68060Y-38168D01*
X68037Y-38190D01*
X67954Y-38391D01*
X67954Y-38608D01*
X68037Y-38808D01*
X68190Y-38962D01*
X68275Y-38997D01*
X68214Y-39022D01*
X68188Y-39117D01*
X68500Y-39429D01*
X68505Y-39423D01*
X68576Y-39494D01*
X68570Y-39500D01*
X68576Y-39505D01*
X68505Y-39576D01*
X68500Y-39570D01*
X68429Y-39641D01*
X68429Y-39500D01*
X68117Y-39188D01*
X68022Y-39214D01*
X67949Y-39419D01*
X67960Y-39636D01*
X68022Y-39785D01*
X68117Y-39811D01*
X68429Y-39500D01*
X68429Y-39641D01*
X68188Y-39882D01*
X68214Y-39977D01*
X68419Y-40050D01*
X68636Y-40039D01*
X68654Y-40031D01*
X68654Y-40572D01*
X68680Y-40705D01*
X68756Y-40819D01*
X71865Y-43928D01*
X71671Y-44008D01*
X71508Y-44171D01*
X71420Y-44384D01*
X71419Y-44614D01*
X71508Y-44828D01*
X71671Y-44991D01*
X71884Y-45079D01*
X72114Y-45080D01*
X72328Y-44991D01*
X72491Y-44828D01*
X72499Y-44808D01*
X72508Y-44828D01*
X72671Y-44991D01*
X72884Y-45079D01*
X73114Y-45080D01*
X73328Y-44991D01*
X73491Y-44828D01*
X73579Y-44615D01*
X73580Y-44385D01*
X73580Y-54373D01*
X73495Y-54169D01*
X73331Y-54004D01*
X73300Y-53991D01*
X73300Y-53300D01*
X73277Y-53185D01*
X73277Y-53185D01*
X73251Y-53146D01*
X73212Y-53087D01*
X73184Y-53059D01*
X73199Y-52980D01*
X73161Y-52784D01*
X73050Y-52619D01*
X72885Y-52508D01*
X72790Y-52490D01*
X72885Y-52471D01*
X73050Y-52360D01*
X73161Y-52195D01*
X73199Y-52000D01*
X73161Y-51804D01*
X73050Y-51639D01*
X72885Y-51528D01*
X72790Y-51510D01*
X72885Y-51491D01*
X73050Y-51380D01*
X73161Y-51215D01*
X73199Y-51020D01*
X73161Y-50824D01*
X73050Y-50659D01*
X72885Y-50548D01*
X72689Y-50510D01*
X72670Y-50510D01*
X72474Y-50548D01*
X72309Y-50659D01*
X72198Y-50824D01*
X72160Y-51020D01*
X72198Y-51215D01*
X72309Y-51380D01*
X72474Y-51491D01*
X72569Y-51510D01*
X72474Y-51528D01*
X72309Y-51639D01*
X72198Y-51804D01*
X72160Y-52000D01*
X72198Y-52195D01*
X72309Y-52360D01*
X72474Y-52471D01*
X72569Y-52490D01*
X72474Y-52508D01*
X72309Y-52619D01*
X72198Y-52784D01*
X72160Y-52980D01*
X72198Y-53175D01*
X72309Y-53340D01*
X72474Y-53451D01*
X72670Y-53490D01*
X72689Y-53490D01*
X72700Y-53488D01*
X72700Y-53991D01*
X72669Y-54004D01*
X72504Y-54168D01*
X72415Y-54383D01*
X72415Y-54615D01*
X72504Y-54830D01*
X72668Y-54995D01*
X72883Y-55084D01*
X73115Y-55084D01*
X73330Y-54995D01*
X73495Y-54831D01*
X73584Y-54616D01*
X73584Y-54384D01*
X73584Y-57950D01*
X72841Y-57950D01*
X72841Y-55845D01*
X72698Y-55499D01*
X72434Y-55235D01*
X72089Y-55092D01*
X71860Y-55091D01*
X71860Y-48738D01*
X71860Y-48639D01*
X71860Y-48112D01*
X71860Y-47887D01*
X71860Y-47360D01*
X71860Y-47261D01*
X71821Y-47169D01*
X71751Y-47099D01*
X71659Y-47061D01*
X71033Y-47061D01*
X70971Y-47123D01*
X70971Y-47950D01*
X71797Y-47950D01*
X71860Y-47887D01*
X71860Y-48112D01*
X71797Y-48050D01*
X70971Y-48050D01*
X70971Y-48876D01*
X71033Y-48939D01*
X71659Y-48939D01*
X71751Y-48900D01*
X71821Y-48830D01*
X71860Y-48738D01*
X71860Y-55091D01*
X71716Y-55091D01*
X71370Y-55234D01*
X71106Y-55498D01*
X70963Y-55843D01*
X70962Y-56216D01*
X71105Y-56562D01*
X71369Y-56826D01*
X71714Y-56969D01*
X72087Y-56970D01*
X72433Y-56827D01*
X72697Y-56563D01*
X72840Y-56218D01*
X72841Y-55845D01*
X72841Y-57950D01*
X70871Y-57950D01*
X70871Y-48876D01*
X70871Y-48050D01*
X70871Y-47950D01*
X70871Y-47123D01*
X70808Y-47061D01*
X70546Y-47061D01*
X70570Y-47050D01*
X70640Y-46980D01*
X70679Y-46888D01*
X70679Y-46789D01*
X70679Y-45411D01*
X70640Y-45319D01*
X70570Y-45249D01*
X70478Y-45211D01*
X70379Y-45211D01*
X69674Y-45211D01*
X69674Y-42372D01*
X69576Y-42135D01*
X69395Y-41954D01*
X69159Y-41856D01*
X68903Y-41856D01*
X68666Y-41954D01*
X68485Y-42135D01*
X68387Y-42371D01*
X68387Y-42627D01*
X68485Y-42864D01*
X68666Y-43045D01*
X68902Y-43143D01*
X69158Y-43143D01*
X69395Y-43045D01*
X69576Y-42864D01*
X69674Y-42628D01*
X69674Y-42372D01*
X69674Y-45211D01*
X69001Y-45211D01*
X68909Y-45249D01*
X68839Y-45319D01*
X68801Y-45411D01*
X68801Y-45510D01*
X68801Y-46888D01*
X68839Y-46980D01*
X68909Y-47050D01*
X68933Y-47061D01*
X67820Y-47061D01*
X67728Y-47099D01*
X67658Y-47169D01*
X67620Y-47261D01*
X67620Y-47360D01*
X67620Y-48738D01*
X67658Y-48830D01*
X67728Y-48900D01*
X67820Y-48939D01*
X67919Y-48939D01*
X69297Y-48939D01*
X69389Y-48900D01*
X69459Y-48830D01*
X69498Y-48738D01*
X69498Y-48639D01*
X69498Y-47261D01*
X69459Y-47169D01*
X69389Y-47099D01*
X69365Y-47089D01*
X70114Y-47089D01*
X70090Y-47099D01*
X70020Y-47169D01*
X69982Y-47261D01*
X69982Y-47360D01*
X69982Y-47887D01*
X70044Y-47950D01*
X70871Y-47950D01*
X70871Y-48050D01*
X70044Y-48050D01*
X69982Y-48112D01*
X69982Y-48639D01*
X69982Y-48738D01*
X70020Y-48830D01*
X70090Y-48900D01*
X70182Y-48939D01*
X70808Y-48939D01*
X70871Y-48876D01*
X70871Y-57950D01*
X70839Y-57950D01*
X70839Y-52980D01*
X70801Y-52784D01*
X70690Y-52619D01*
X70525Y-52508D01*
X70430Y-52490D01*
X70525Y-52471D01*
X70690Y-52360D01*
X70801Y-52195D01*
X70839Y-52000D01*
X70801Y-51804D01*
X70690Y-51639D01*
X70525Y-51528D01*
X70430Y-51510D01*
X70525Y-51491D01*
X70690Y-51380D01*
X70801Y-51215D01*
X70839Y-51020D01*
X70801Y-50824D01*
X70690Y-50659D01*
X70525Y-50548D01*
X70329Y-50510D01*
X70310Y-50510D01*
X70114Y-50548D01*
X69949Y-50659D01*
X69838Y-50824D01*
X69800Y-51020D01*
X69838Y-51215D01*
X69949Y-51380D01*
X70114Y-51491D01*
X70209Y-51510D01*
X70114Y-51528D01*
X69949Y-51639D01*
X69838Y-51804D01*
X69800Y-52000D01*
X69838Y-52195D01*
X69949Y-52360D01*
X70114Y-52471D01*
X70209Y-52490D01*
X70114Y-52508D01*
X69949Y-52619D01*
X69838Y-52784D01*
X69800Y-52980D01*
X69838Y-53175D01*
X69949Y-53340D01*
X70114Y-53451D01*
X70310Y-53490D01*
X70329Y-53490D01*
X70525Y-53451D01*
X70690Y-53340D01*
X70801Y-53175D01*
X70839Y-52980D01*
X70839Y-57950D01*
X70550Y-57950D01*
X70550Y-57080D01*
X70545Y-56988D01*
X70545Y-55891D01*
X70462Y-55691D01*
X70309Y-55537D01*
X70108Y-55454D01*
X69891Y-55454D01*
X69691Y-55537D01*
X69584Y-55643D01*
X69584Y-54884D01*
X69584Y-54784D01*
X69584Y-54115D01*
X69546Y-54023D01*
X69476Y-53953D01*
X69384Y-53915D01*
X69284Y-53915D01*
X68615Y-53915D01*
X68523Y-53953D01*
X68453Y-54023D01*
X68415Y-54115D01*
X68415Y-54215D01*
X68415Y-54884D01*
X68453Y-54976D01*
X68523Y-55046D01*
X68615Y-55084D01*
X68715Y-55084D01*
X69384Y-55084D01*
X69476Y-55046D01*
X69546Y-54976D01*
X69584Y-54884D01*
X69584Y-55643D01*
X69537Y-55690D01*
X69454Y-55891D01*
X69454Y-56108D01*
X69537Y-56308D01*
X69690Y-56462D01*
X69775Y-56497D01*
X69714Y-56522D01*
X69688Y-56617D01*
X70000Y-56929D01*
X70311Y-56617D01*
X70285Y-56522D01*
X70220Y-56499D01*
X70308Y-56462D01*
X70462Y-56309D01*
X70545Y-56108D01*
X70545Y-55891D01*
X70545Y-56988D01*
X70539Y-56863D01*
X70477Y-56714D01*
X70382Y-56688D01*
X70070Y-57000D01*
X70382Y-57311D01*
X70477Y-57285D01*
X70550Y-57080D01*
X70550Y-57950D01*
X70311Y-57950D01*
X70311Y-57382D01*
X70000Y-57070D01*
X69929Y-57141D01*
X69929Y-57000D01*
X69617Y-56688D01*
X69522Y-56714D01*
X69449Y-56919D01*
X69460Y-57136D01*
X69522Y-57285D01*
X69617Y-57311D01*
X69929Y-57000D01*
X69929Y-57141D01*
X69688Y-57382D01*
X69714Y-57477D01*
X69919Y-57550D01*
X70136Y-57539D01*
X70285Y-57477D01*
X70311Y-57382D01*
X70311Y-57950D01*
X68546Y-57950D01*
X68546Y-56973D01*
X68541Y-56881D01*
X68541Y-55998D01*
X68459Y-55799D01*
X68307Y-55647D01*
X68108Y-55564D01*
X67892Y-55564D01*
X67693Y-55646D01*
X67541Y-55798D01*
X67458Y-55997D01*
X67458Y-56213D01*
X67540Y-56412D01*
X67692Y-56564D01*
X67776Y-56599D01*
X68000Y-56823D01*
X68223Y-56599D01*
X68306Y-56565D01*
X68458Y-56413D01*
X68541Y-56214D01*
X68541Y-55998D01*
X68541Y-56881D01*
X68535Y-56758D01*
X68474Y-56611D01*
X68379Y-56584D01*
X68070Y-56894D01*
X68379Y-57203D01*
X68474Y-57176D01*
X68546Y-56973D01*
X68546Y-57950D01*
X68309Y-57950D01*
X68309Y-57273D01*
X68000Y-56964D01*
X67929Y-57035D01*
X67929Y-56894D01*
X67620Y-56584D01*
X67525Y-56611D01*
X67453Y-56814D01*
X67464Y-57029D01*
X67525Y-57176D01*
X67620Y-57203D01*
X67929Y-56894D01*
X67929Y-57035D01*
X67690Y-57273D01*
X67717Y-57368D01*
X67920Y-57440D01*
X68135Y-57429D01*
X68282Y-57368D01*
X68309Y-57273D01*
X68309Y-57950D01*
X67060Y-57950D01*
X67060Y-53190D01*
X67060Y-53050D01*
X67060Y-52950D01*
X67060Y-52810D01*
X66998Y-52599D01*
X66860Y-52428D01*
X66668Y-52323D01*
X66636Y-52316D01*
X66550Y-52365D01*
X66550Y-52950D01*
X67060Y-52950D01*
X67060Y-53050D01*
X66550Y-53050D01*
X66550Y-53634D01*
X66636Y-53683D01*
X66668Y-53676D01*
X66860Y-53571D01*
X66998Y-53400D01*
X67060Y-53190D01*
X67060Y-57950D01*
X65600Y-57950D01*
X65600Y-55881D01*
X65508Y-55660D01*
X65340Y-55491D01*
X65119Y-55400D01*
X64881Y-55399D01*
X64660Y-55491D01*
X64585Y-55565D01*
X64561Y-55508D01*
X64491Y-55438D01*
X64399Y-55400D01*
X64300Y-55400D01*
X64112Y-55400D01*
X64050Y-55462D01*
X64050Y-55950D01*
X64057Y-55950D01*
X64057Y-56050D01*
X64050Y-56050D01*
X64050Y-56537D01*
X64112Y-56600D01*
X64300Y-56600D01*
X64399Y-56600D01*
X64491Y-56561D01*
X64561Y-56491D01*
X64585Y-56434D01*
X64659Y-56508D01*
X64880Y-56599D01*
X65118Y-56600D01*
X65339Y-56508D01*
X65508Y-56340D01*
X65599Y-56119D01*
X65600Y-55881D01*
X65600Y-57950D01*
X60546Y-57950D01*
X60546Y-56973D01*
X60535Y-56758D01*
X60474Y-56611D01*
X60379Y-56584D01*
X60070Y-56894D01*
X60379Y-57203D01*
X60474Y-57176D01*
X60546Y-56973D01*
X60546Y-57950D01*
X60309Y-57950D01*
X60309Y-57273D01*
X60000Y-56964D01*
X59929Y-57035D01*
X59929Y-56894D01*
X59620Y-56584D01*
X59525Y-56611D01*
X59453Y-56814D01*
X59464Y-57029D01*
X59525Y-57176D01*
X59620Y-57203D01*
X59929Y-56894D01*
X59929Y-57035D01*
X59690Y-57273D01*
X59717Y-57368D01*
X59920Y-57440D01*
X60135Y-57429D01*
X60282Y-57368D01*
X60309Y-57273D01*
X60309Y-57950D01*
X59050Y-57950D01*
X59050Y-52080D01*
X59039Y-51863D01*
X58977Y-51714D01*
X58882Y-51688D01*
X58570Y-52000D01*
X58882Y-52311D01*
X58977Y-52285D01*
X59050Y-52080D01*
X59050Y-57950D01*
X58811Y-57950D01*
X58811Y-52382D01*
X58500Y-52070D01*
X58429Y-52141D01*
X58429Y-52000D01*
X58117Y-51688D01*
X58022Y-51714D01*
X57949Y-51919D01*
X57960Y-52136D01*
X58022Y-52285D01*
X58117Y-52311D01*
X58429Y-52000D01*
X58429Y-52141D01*
X58188Y-52382D01*
X58214Y-52477D01*
X58419Y-52550D01*
X58636Y-52539D01*
X58785Y-52477D01*
X58811Y-52382D01*
X58811Y-57950D01*
X58550Y-57950D01*
X58550Y-57080D01*
X58545Y-56988D01*
X58545Y-55891D01*
X58462Y-55691D01*
X58309Y-55537D01*
X58108Y-55454D01*
X57891Y-55454D01*
X57691Y-55537D01*
X57537Y-55690D01*
X57454Y-55891D01*
X57454Y-56108D01*
X57537Y-56308D01*
X57690Y-56462D01*
X57775Y-56497D01*
X57714Y-56522D01*
X57688Y-56617D01*
X58000Y-56929D01*
X58311Y-56617D01*
X58285Y-56522D01*
X58220Y-56499D01*
X58308Y-56462D01*
X58462Y-56309D01*
X58545Y-56108D01*
X58545Y-55891D01*
X58545Y-56988D01*
X58539Y-56863D01*
X58477Y-56714D01*
X58382Y-56688D01*
X58070Y-57000D01*
X58382Y-57311D01*
X58477Y-57285D01*
X58550Y-57080D01*
X58550Y-57950D01*
X58311Y-57950D01*
X58311Y-57382D01*
X58000Y-57070D01*
X57929Y-57141D01*
X57929Y-57000D01*
X57617Y-56688D01*
X57522Y-56714D01*
X57449Y-56919D01*
X57460Y-57136D01*
X57522Y-57285D01*
X57617Y-57311D01*
X57929Y-57000D01*
X57929Y-57141D01*
X57688Y-57382D01*
X57714Y-57477D01*
X57919Y-57550D01*
X58136Y-57539D01*
X58285Y-57477D01*
X58311Y-57382D01*
X58311Y-57950D01*
X57050Y-57950D01*
X57050Y-51580D01*
X57039Y-51363D01*
X56977Y-51214D01*
X56882Y-51188D01*
X56811Y-51258D01*
X56811Y-51117D01*
X56785Y-51022D01*
X56580Y-50949D01*
X56363Y-50960D01*
X56214Y-51022D01*
X56188Y-51117D01*
X56500Y-51429D01*
X56811Y-51117D01*
X56811Y-51258D01*
X56570Y-51500D01*
X56882Y-51811D01*
X56977Y-51785D01*
X57050Y-51580D01*
X57050Y-57950D01*
X57045Y-57950D01*
X57045Y-52391D01*
X56962Y-52191D01*
X56809Y-52037D01*
X56724Y-52002D01*
X56785Y-51977D01*
X56811Y-51882D01*
X56500Y-51570D01*
X56429Y-51641D01*
X56429Y-51500D01*
X56117Y-51188D01*
X56022Y-51214D01*
X55949Y-51419D01*
X55960Y-51636D01*
X56022Y-51785D01*
X56117Y-51811D01*
X56429Y-51500D01*
X56429Y-51641D01*
X56188Y-51882D01*
X56214Y-51977D01*
X56279Y-52000D01*
X56191Y-52037D01*
X56037Y-52190D01*
X55954Y-52391D01*
X55954Y-52608D01*
X56037Y-52808D01*
X56190Y-52962D01*
X56391Y-53045D01*
X56608Y-53045D01*
X56808Y-52962D01*
X56962Y-52809D01*
X57045Y-52608D01*
X57045Y-52391D01*
X57045Y-57950D01*
X34550Y-57950D01*
X34550Y-26550D01*
X73850Y-26550D01*
X73850Y-57950D01*
M02*
