<?xml version="1.0" encoding="UTF-8" standalone="no"?>
<!-- Created with Inkscape (http://www.inkscape.org/) -->

<svg
   xmlns:dc="http://purl.org/dc/elements/1.1/"
   xmlns:cc="http://creativecommons.org/ns#"
   xmlns:rdf="http://www.w3.org/1999/02/22-rdf-syntax-ns#"
   xmlns:svg="http://www.w3.org/2000/svg"
   xmlns="http://www.w3.org/2000/svg"
   xmlns:sodipodi="http://sodipodi.sourceforge.net/DTD/sodipodi-0.dtd"
   xmlns:inkscape="http://www.inkscape.org/namespaces/inkscape"
   width="744.09448819"
   height="1052.3622047"
   id="svg2"
   version="1.1"
   inkscape:version="0.48.5 r10040"
   sodipodi:docname="New document 1">
  <defs
     id="defs4" />
  <sodipodi:namedview
     id="base"
     pagecolor="#ffffff"
     bordercolor="#666666"
     borderopacity="1.0"
     inkscape:pageopacity="0.0"
     inkscape:pageshadow="2"
     inkscape:zoom="1.979899"
     inkscape:cx="334.08882"
     inkscape:cy="765.97214"
     inkscape:document-units="px"
     inkscape:current-layer="layer1"
     showgrid="false"
     inkscape:window-width="1920"
     inkscape:window-height="1056"
     inkscape:window-x="1280"
     inkscape:window-y="24"
     inkscape:window-maximized="1">
    <inkscape:grid
       type="xygrid"
       id="grid3044" />
  </sodipodi:namedview>
  <metadata
     id="metadata7">
    <rdf:RDF>
      <cc:Work
         rdf:about="">
        <dc:format>image/svg+xml</dc:format>
        <dc:type
           rdf:resource="http://purl.org/dc/dcmitype/StillImage" />
        <dc:title></dc:title>
      </cc:Work>
    </rdf:RDF>
  </metadata>
  <g
     inkscape:label="Layer 1"
     inkscape:groupmode="layer"
     id="layer1">
    <g
       transform="translate(-43.575136,-132.06174)"
       inkscape:label="Layer 1"
       id="layer1-5">
      <g
         transform="matrix(0.50133,0,0,0.44785,86.74,220.79)"
         style="stroke:#000000;stroke-width:2.11039996"
         id="g3070">
        <path
           sodipodi:start="0"
           sodipodi:end="3.1415927"
           sodipodi:cx="305"
           sodipodi:cy="527.36218"
           transform="matrix(0,-1.1419,0.99807,0,-238.81,891.14)"
           sodipodi:open="true"
           d="m 340,527.36218 c 0,19.32997 -15.67003,35 -35,35 -19.32997,0 -35,-15.67003 -35,-35 0,0 0,0 0,0"
           sodipodi:type="arc"
           style="fill:none;stroke:#000000;stroke-width:1.97689998"
           sodipodi:ry="35"
           sodipodi:rx="35"
           id="path3072" />
        <path
           d="m 290,502.36 h -60 v 80 h 60"
           inkscape:connector-curvature="0"
           style="fill:none;stroke:#000000;stroke-width:2.11039996"
           id="path3074" />
      </g>
      <path
         d="m 258.1,463.05 h 29.278"
         inkscape:connector-curvature="0"
         style="fill:none;stroke:#000000;stroke-width:0.85553998px"
         id="path3076" />
      <path
         sodipodi:cx="305"
         sodipodi:cy="467.36218"
         transform="translate(-51.765,-4.3139)"
         d="m 310,467.36218 c 0,2.76143 -2.23858,5 -5,5 -2.76142,0 -5,-2.23857 -5,-5 0,-2.76142 2.23858,-5 5,-5 2.76142,0 5,2.23858 5,5 z"
         sodipodi:type="arc"
         style="fill:none;stroke:#000000"
         sodipodi:ry="5"
         sodipodi:rx="5"
         id="path3078" />
      <g
         transform="translate(-73.705,-19.915)"
         id="g3080">
        <path
           d="M 274.91,475.71 H 248.017"
           inkscape:connector-curvature="0"
           style="fill:none;stroke:#000000"
           id="path3082" />
        <path
           inkscape:connector-curvature="0"
           style="fill:none;stroke:#000000"
           d="M 274.91,491.71 H 248.017"
           id="path3084" />
      </g>
    </g>
    <g
       id="g3046"
       inkscape:label="Layer 1"
       transform="translate(-43.575136,-83.574426)">
      <g
         id="g3048"
         style="stroke:#000000;stroke-width:2.11039996"
         transform="matrix(0.50133,0,0,0.44785,86.74,220.79)">
        <path
           id="path3050"
           sodipodi:rx="35"
           sodipodi:ry="35"
           style="fill:none;stroke:#000000;stroke-width:1.97689998"
           sodipodi:type="arc"
           d="m 340,527.36218 c 0,19.32997 -15.67003,35 -35,35 -19.32997,0 -35,-15.67003 -35,-35 0,0 0,0 0,0"
           sodipodi:open="true"
           transform="matrix(0,-1.1419,0.99807,0,-238.81,891.14)"
           sodipodi:cy="527.36218"
           sodipodi:cx="305"
           sodipodi:end="3.1415927"
           sodipodi:start="0" />
        <path
           id="path3052"
           style="fill:none;stroke:#000000;stroke-width:2.11039996"
           inkscape:connector-curvature="0"
           d="m 290,502.36 h -60 v 80 h 60" />
      </g>
      <path
         id="path3054"
         style="fill:none;stroke:#000000;stroke-width:0.85553998px"
         inkscape:connector-curvature="0"
         d="m 258.1,463.05 h 29.278" />
      <path
         id="path3056"
         sodipodi:rx="5"
         sodipodi:ry="5"
         style="fill:none;stroke:#000000"
         sodipodi:type="arc"
         d="m 310,467.36218 c 0,2.76143 -2.23858,5 -5,5 -2.76142,0 -5,-2.23857 -5,-5 0,-2.76142 2.23858,-5 5,-5 2.76142,0 5,2.23858 5,5 z"
         transform="translate(-51.765,-4.3139)"
         sodipodi:cy="467.36218"
         sodipodi:cx="305" />
      <g
         id="g3058"
         transform="translate(-73.705,-19.915)">
        <path
           id="path3060"
           style="fill:none;stroke:#000000"
           inkscape:connector-curvature="0"
           d="M 274.91,475.71 H 248.017" />
        <path
           id="path3062"
           d="M 274.91,491.71 H 248.017"
           style="fill:none;stroke:#000000"
           inkscape:connector-curvature="0" />
      </g>
    </g>
    <g
       transform="translate(69.561948,-107.81808)"
       inkscape:label="Layer 1"
       id="g3064">
      <g
         transform="matrix(0.50133,0,0,0.44785,86.74,220.79)"
         style="stroke:#000000;stroke-width:2.11039996"
         id="g3066">
        <path
           sodipodi:start="0"
           sodipodi:end="3.1415927"
           sodipodi:cx="305"
           sodipodi:cy="527.36218"
           transform="matrix(0,-1.1419,0.99807,0,-238.81,891.14)"
           sodipodi:open="true"
           d="m 340,527.36218 c 0,19.32997 -15.67003,35 -35,35 -19.32997,0 -35,-15.67003 -35,-35 0,0 0,0 0,0"
           sodipodi:type="arc"
           style="fill:none;stroke:#000000;stroke-width:1.97689998"
           sodipodi:ry="35"
           sodipodi:rx="35"
           id="path3068" />
        <path
           d="m 290,502.36 h -60 v 80 h 60"
           inkscape:connector-curvature="0"
           style="fill:none;stroke:#000000;stroke-width:2.11039996"
           id="path3070" />
      </g>
      <path
         d="m 258.1,463.05 h 29.278"
         inkscape:connector-curvature="0"
         style="fill:none;stroke:#000000;stroke-width:0.85553998px"
         id="path3073" />
      <path
         sodipodi:cx="305"
         sodipodi:cy="467.36218"
         transform="translate(-51.765,-4.3139)"
         d="m 310,467.36218 c 0,2.76143 -2.23858,5 -5,5 -2.76142,0 -5,-2.23857 -5,-5 0,-2.76142 2.23858,-5 5,-5 2.76142,0 5,2.23858 5,5 z"
         sodipodi:type="arc"
         style="fill:none;stroke:#000000"
         sodipodi:ry="5"
         sodipodi:rx="5"
         id="path3075" />
      <g
         transform="translate(-73.705,-19.915)"
         id="g3077">
        <path
           d="M 274.91,475.71 H 248.017"
           inkscape:connector-curvature="0"
           style="fill:none;stroke:#000000"
           id="path3079" />
        <path
           inkscape:connector-curvature="0"
           style="fill:none;stroke:#000000"
           d="M 274.91,491.71 H 248.017"
           id="path3081" />
      </g>
    </g>
    <path
       style="fill:none;stroke:#000000;stroke-width:1;stroke-linecap:round;stroke-miterlimit:4;stroke-dasharray:none"
       d="m 243.44677,331.11327 0,17.1726"
       id="path3083"
       inkscape:connector-curvature="0" />
    <path
       style="fill:none;stroke:#000000;stroke-width:1;stroke-linecap:round;stroke-miterlimit:4;stroke-dasharray:none"
       d="m 243.95184,362.93308 0,16.66751"
       id="path3853"
       inkscape:connector-curvature="0" />
    <path
       style="fill:none;stroke:#000000;stroke-width:1;stroke-linecap:round;stroke-miterlimit:4;stroke-dasharray:none"
       d="m 130.81476,323.03205 0,16.16244"
       id="path3855"
       inkscape:connector-curvature="0" />
    <path
       style="fill:none;stroke:#000000;stroke-width:1;stroke-linecap:round;stroke-miterlimit:4;stroke-dasharray:none"
       d="m 130.81476,372.02445 0,15.65736"
       id="path3857"
       inkscape:connector-curvature="0" />
    <path
       style="fill:none;stroke:#000000;stroke-width:1;stroke-linecap:round;stroke-miterlimit:4;stroke-dasharray:none"
       d="m 129.8046,332.12342 -13.63706,0"
       id="path3859"
       inkscape:connector-curvature="0" />
    <path
       style="fill:none;stroke:#000000;stroke-width:1;stroke-linecap:round;stroke-miterlimit:4;stroke-dasharray:none"
       d="m 130.30968,381.11582 -15.15229,0"
       id="path3861"
       inkscape:connector-curvature="0" />
    <text
       xml:space="preserve"
       style="font-size:12px;font-style:normal;font-weight:normal;text-align:end;line-height:125%;letter-spacing:0px;word-spacing:0px;text-anchor:end;fill:#000000;fill-opacity:1;stroke:none;font-family:Sans"
       x="64.342812"
       y="328.58786"
       id="text3863"
       sodipodi:linespacing="125%"><tspan
         sodipodi:role="line"
         id="tspan3865"
         x="64.342812"
         y="328.58786">~ME</tspan></text>
    <text
       sodipodi:linespacing="125%"
       id="text3867"
       y="375.55994"
       x="57.804913"
       style="font-size:12px;font-style:normal;font-weight:normal;text-align:end;line-height:125%;letter-spacing:0px;word-spacing:0px;text-anchor:end;fill:#000000;fill-opacity:1;stroke:none;font-family:Sans"
       xml:space="preserve"><tspan
         y="375.55994"
         x="57.804913"
         id="tspan3869"
         sodipodi:role="line">BE</tspan></text>
    <text
       xml:space="preserve"
       style="font-size:12px;font-style:normal;font-weight:normal;text-align:start;line-height:125%;letter-spacing:0px;word-spacing:0px;text-anchor:start;fill:#000000;fill-opacity:1;stroke:none;font-family:Sans"
       x="331.47632"
       y="350.30609"
       id="text3871"
       sodipodi:linespacing="125%"><tspan
         sodipodi:role="line"
         id="tspan3873"
         x="331.47632"
         y="350.30609">~ME or BE</tspan></text>
    <g
       id="g3875"
       inkscape:label="Layer 1"
       transform="translate(68.046718,-188.63029)">
      <g
         id="g3877"
         style="stroke:#000000;stroke-width:2.11039996"
         transform="matrix(0.50133,0,0,0.44785,86.74,220.79)">
        <path
           id="path3879"
           sodipodi:rx="35"
           sodipodi:ry="35"
           style="fill:none;stroke:#000000;stroke-width:1.97689998"
           sodipodi:type="arc"
           d="m 340,527.36218 c 0,19.32997 -15.67003,35 -35,35 -19.32997,0 -35,-15.67003 -35,-35 0,0 0,0 0,0"
           sodipodi:open="true"
           transform="matrix(0,-1.1419,0.99807,0,-238.81,891.14)"
           sodipodi:cy="527.36218"
           sodipodi:cx="305"
           sodipodi:end="3.1415927"
           sodipodi:start="0" />
        <path
           id="path3881"
           style="fill:none;stroke:#000000;stroke-width:2.11039996"
           inkscape:connector-curvature="0"
           d="m 290,502.36 h -60 v 80 h 60" />
      </g>
      <path
         id="path3883"
         style="fill:none;stroke:#000000;stroke-width:0.85553998px"
         inkscape:connector-curvature="0"
         d="m 258.1,463.05 h 29.278" />
      <path
         id="path3885"
         sodipodi:rx="5"
         sodipodi:ry="5"
         style="fill:none;stroke:#000000"
         sodipodi:type="arc"
         d="m 310,467.36218 c 0,2.76143 -2.23858,5 -5,5 -2.76142,0 -5,-2.23857 -5,-5 0,-2.76142 2.23858,-5 5,-5 2.76142,0 5,2.23858 5,5 z"
         transform="translate(-51.765,-4.3139)"
         sodipodi:cy="467.36218"
         sodipodi:cx="305" />
      <g
         id="g3887"
         transform="translate(-73.705,-19.915)">
        <path
           id="path3889"
           style="fill:none;stroke:#000000"
           inkscape:connector-curvature="0"
           d="M 274.91,475.71 H 248.017" />
        <path
           id="path3891"
           d="M 274.91,491.71 H 248.017"
           style="fill:none;stroke:#000000"
           inkscape:connector-curvature="0" />
      </g>
    </g>
    <path
       style="fill:none;stroke:#000000;stroke-width:1;stroke-linecap:round;stroke-miterlimit:4;stroke-dasharray:none"
       d="m 242.43661,331.11327 0,-46.97209"
       id="path3893"
       inkscape:connector-curvature="0" />
    <path
       style="fill:none;stroke:#000000;stroke-width:1;stroke-linecap:round;stroke-miterlimit:4;stroke-dasharray:none"
       d="m 115.66247,381.11582 -76.771602,0"
       id="path3895"
       inkscape:connector-curvature="0" />
    <path
       style="fill:none;stroke:#000000;stroke-width:1;stroke-linecap:round;stroke-miterlimit:4;stroke-dasharray:none"
       d="m 117.1777,331.11327 -80.307133,0"
       id="path3897"
       inkscape:connector-curvature="0" />
    <path
       style="fill:none;stroke:#000000;stroke-width:1;stroke-linecap:round;stroke-miterlimit:4;stroke-dasharray:none"
       d="m 94.954338,381.11582 0,-115.17769 147.987352,0"
       id="path3899"
       inkscape:connector-curvature="0"
       sodipodi:nodetypes="ccc" />
    <path
       sodipodi:type="arc"
       style="fill:#000000;stroke:#000000;stroke-width:1;stroke-linecap:round;stroke-miterlimit:4;stroke-dasharray:none"
       id="path3901"
       sodipodi:cx="157.33125"
       sodipodi:cy="379.85312"
       sodipodi:rx="1.767767"
       sodipodi:ry="1.767767"
       d="m 159.09902,379.85312 a 1.767767,1.767767 0 1 1 -3.53553,0 1.767767,1.767767 0 1 1 3.53553,0 z"
       transform="translate(-62.124382,1.0101525)" />
    <g
       id="g3903"
       inkscape:label="Layer 1"
       transform="translate(181.68888,-189.13536)">
      <g
         id="g3905"
         style="stroke:#000000;stroke-width:2.11039996"
         transform="matrix(0.50133,0,0,0.44785,86.74,220.79)">
        <path
           id="path3907"
           sodipodi:rx="35"
           sodipodi:ry="35"
           style="fill:none;stroke:#000000;stroke-width:1.97689998"
           sodipodi:type="arc"
           d="m 340,527.36218 c 0,19.32997 -15.67003,35 -35,35 -19.32997,0 -35,-15.67003 -35,-35 0,0 0,0 0,0"
           sodipodi:open="true"
           transform="matrix(0,-1.1419,0.99807,0,-238.81,891.14)"
           sodipodi:cy="527.36218"
           sodipodi:cx="305"
           sodipodi:end="3.1415927"
           sodipodi:start="0" />
        <path
           id="path3909"
           style="fill:none;stroke:#000000;stroke-width:2.11039996"
           inkscape:connector-curvature="0"
           d="m 290,502.36 h -60 v 80 h 60" />
      </g>
      <path
         id="path3911"
         style="fill:none;stroke:#000000;stroke-width:0.85553998px"
         inkscape:connector-curvature="0"
         d="m 258.1,463.05 h 29.278" />
      <path
         id="path3913"
         sodipodi:rx="5"
         sodipodi:ry="5"
         style="fill:none;stroke:#000000"
         sodipodi:type="arc"
         d="m 310,467.36218 c 0,2.76143 -2.23858,5 -5,5 -2.76142,0 -5,-2.23857 -5,-5 0,-2.76142 2.23858,-5 5,-5 2.76142,0 5,2.23858 5,5 z"
         transform="translate(-51.765,-4.3139)"
         sodipodi:cy="467.36218"
         sodipodi:cx="305" />
      <g
         id="g3915"
         transform="translate(-73.705,-19.915)">
        <path
           id="path3917"
           style="fill:none;stroke:#000000"
           inkscape:connector-curvature="0"
           d="M 274.91,475.71 H 248.017" />
        <path
           id="path3919"
           d="M 274.91,491.71 H 248.017"
           style="fill:none;stroke:#000000"
           inkscape:connector-curvature="0" />
      </g>
    </g>
    <path
       style="fill:#000000;stroke:#000000;stroke-width:1;stroke-linecap:round;stroke-miterlimit:4;stroke-dasharray:none"
       d="m 355.5737,267.47366 0,15.15229"
       id="path3921"
       inkscape:connector-curvature="0" />
    <text
       sodipodi:linespacing="125%"
       id="text3923"
       y="267.97867"
       x="443.60324"
       style="font-size:12px;font-style:normal;font-weight:normal;text-align:start;line-height:125%;letter-spacing:0px;word-spacing:0px;text-anchor:start;fill:#000000;fill-opacity:1;stroke:none;font-family:Sans"
       xml:space="preserve"><tspan
         y="267.97867"
         x="443.60324"
         id="tspan3925"
         sodipodi:role="line">ME and BE</tspan></text>
    <text
       sodipodi:linespacing="125%"
       id="text3927"
       y="202.31883"
       x="68.888512"
       style="font-size:12px;font-style:normal;font-weight:normal;text-align:end;line-height:125%;letter-spacing:0px;word-spacing:0px;text-anchor:end;fill:#000000;fill-opacity:1;stroke:none;font-family:Sans"
       xml:space="preserve"><tspan
         y="202.31883"
         x="68.888512"
         id="tspan3929"
         sodipodi:role="line">R/~W</tspan></text>
    <g
       transform="translate(68.551798,-247.21914)"
       inkscape:label="Layer 1"
       id="g3931">
      <g
         transform="matrix(0.50133,0,0,0.44785,86.74,220.79)"
         style="stroke:#000000;stroke-width:2.11039996"
         id="g3933">
        <path
           sodipodi:start="0"
           sodipodi:end="3.1415927"
           sodipodi:cx="305"
           sodipodi:cy="527.36218"
           transform="matrix(0,-1.1419,0.99807,0,-238.81,891.14)"
           sodipodi:open="true"
           d="m 340,527.36218 c 0,19.32997 -15.67003,35 -35,35 -19.32997,0 -35,-15.67003 -35,-35 0,0 0,0 0,0"
           sodipodi:type="arc"
           style="fill:none;stroke:#000000;stroke-width:1.97689998"
           sodipodi:ry="35"
           sodipodi:rx="35"
           id="path3935" />
        <path
           d="m 290,502.36 h -60 v 80 h 60"
           inkscape:connector-curvature="0"
           style="fill:none;stroke:#000000;stroke-width:2.11039996"
           id="path3937" />
      </g>
      <path
         d="m 258.1,463.05 h 29.278"
         inkscape:connector-curvature="0"
         style="fill:none;stroke:#000000;stroke-width:0.85553998px"
         id="path3939" />
      <path
         sodipodi:cx="305"
         sodipodi:cy="467.36218"
         transform="translate(-51.765,-4.3139)"
         d="m 310,467.36218 c 0,2.76143 -2.23858,5 -5,5 -2.76142,0 -5,-2.23857 -5,-5 0,-2.76142 2.23858,-5 5,-5 2.76142,0 5,2.23858 5,5 z"
         sodipodi:type="arc"
         style="fill:none;stroke:#000000"
         sodipodi:ry="5"
         sodipodi:rx="5"
         id="path3941" />
      <g
         transform="translate(-73.705,-19.915)"
         id="g3943">
        <path
           d="M 274.91,475.71 H 248.017"
           inkscape:connector-curvature="0"
           style="fill:none;stroke:#000000"
           id="path3945" />
        <path
           inkscape:connector-curvature="0"
           style="fill:none;stroke:#000000"
           d="M 274.91,491.71 H 248.017"
           id="path3947" />
      </g>
    </g>
    <path
       style="fill:none;stroke:#000000;stroke-width:1;stroke-linecap:round;stroke-miterlimit:4;stroke-dasharray:none"
       d="m 225.26402,331.11327 0,-107.07617 22.72843,0"
       id="path3973"
       inkscape:connector-curvature="0" />
    <path
       d="m 159.09902,379.85312 a 1.767767,1.767767 0 1 1 -3.53553,0 1.767767,1.767767 0 1 1 3.53553,0 z"
       sodipodi:ry="1.767767"
       sodipodi:rx="1.767767"
       sodipodi:cy="379.85312"
       sodipodi:cx="157.33125"
       id="path3975"
       style="fill:#000000;stroke:#000000;stroke-width:1;stroke-linecap:round;stroke-miterlimit:4;stroke-dasharray:none"
       sodipodi:type="arc"
       transform="translate(67.680218,-48.992399)" />
    <path
       style="fill:none;stroke:#000000;stroke-width:1;stroke-linecap:round;stroke-miterlimit:4;stroke-dasharray:none"
       d="m 242.94169,208.37974 -209.606656,0"
       id="path3977"
       inkscape:connector-curvature="0" />
    <path
       style="fill:none;stroke:#000000;stroke-width:1;stroke-linecap:round;stroke-miterlimit:4;stroke-dasharray:none"
       d="m 354.56355,355.35693 188.89852,0"
       id="path3979"
       inkscape:connector-curvature="0" />
    <path
       style="fill:none;stroke:#000000;stroke-width:1;stroke-linecap:round;stroke-miterlimit:4;stroke-dasharray:none"
       d="m 468.71078,274.03965 73.23606,0"
       id="path3981"
       inkscape:connector-curvature="0" />
    <g
       id="g3985"
       inkscape:label="Layer 1"
       transform="translate(180.17366,-240.14807)">
      <g
         id="g3987"
         style="stroke:#000000;stroke-width:2.11039996"
         transform="matrix(0.50133,0,0,0.44785,86.74,220.79)">
        <path
           id="path3989"
           sodipodi:rx="35"
           sodipodi:ry="35"
           style="fill:none;stroke:#000000;stroke-width:1.97689998"
           sodipodi:type="arc"
           d="m 340,527.36218 c 0,19.32997 -15.67003,35 -35,35 -19.32997,0 -35,-15.67003 -35,-35 0,0 0,0 0,0"
           sodipodi:open="true"
           transform="matrix(0,-1.1419,0.99807,0,-238.81,891.14)"
           sodipodi:cy="527.36218"
           sodipodi:cx="305"
           sodipodi:end="3.1415927"
           sodipodi:start="0" />
        <path
           id="path3991"
           style="fill:none;stroke:#000000;stroke-width:2.11039996"
           inkscape:connector-curvature="0"
           d="m 290,502.36 h -60 v 80 h 60" />
      </g>
      <path
         id="path3993"
         style="fill:none;stroke:#000000;stroke-width:0.85553998px"
         inkscape:connector-curvature="0"
         d="m 258.1,463.05 h 29.278" />
      <path
         id="path3995"
         sodipodi:rx="5"
         sodipodi:ry="5"
         style="fill:none;stroke:#000000"
         sodipodi:type="arc"
         d="m 310,467.36218 c 0,2.76143 -2.23858,5 -5,5 -2.76142,0 -5,-2.23857 -5,-5 0,-2.76142 2.23858,-5 5,-5 2.76142,0 5,2.23858 5,5 z"
         transform="translate(-51.765,-4.3139)"
         sodipodi:cy="467.36218"
         sodipodi:cx="305" />
      <g
         id="g3997"
         transform="translate(-73.705,-19.915)">
        <path
           id="path3999"
           style="fill:none;stroke:#000000"
           inkscape:connector-curvature="0"
           d="M 274.91,475.71 H 248.017" />
        <path
           id="path4001"
           d="M 274.91,491.71 H 248.017"
           style="fill:none;stroke:#000000"
           inkscape:connector-curvature="0" />
      </g>
    </g>
    <path
       style="fill:none;stroke:#000000;stroke-width:1;stroke-linecap:round;stroke-miterlimit:4;stroke-dasharray:none"
       d="m 335.87572,274.03965 0,-42.93148 24.74874,0"
       id="path4005"
       inkscape:connector-curvature="0"
       sodipodi:nodetypes="ccc" />
    <path
       transform="translate(177.78685,-105.56093)"
       sodipodi:type="arc"
       style="fill:#000000;stroke:#000000;stroke-width:1;stroke-linecap:round;stroke-miterlimit:4;stroke-dasharray:none"
       id="path4007"
       sodipodi:cx="157.33125"
       sodipodi:cy="379.85312"
       sodipodi:rx="1.767767"
       sodipodi:ry="1.767767"
       d="m 159.09902,379.85312 a 1.767767,1.767767 0 1 1 -3.53553,0 1.767767,1.767767 0 1 1 3.53553,0 z" />
    <text
       sodipodi:linespacing="125%"
       id="text4011"
       y="215.45078"
       x="444.61337"
       style="font-size:12px;font-style:normal;font-weight:normal;text-align:start;line-height:125%;letter-spacing:0px;word-spacing:0px;text-anchor:start;fill:#000000;fill-opacity:1;stroke:none;font-family:Sans"
       xml:space="preserve"><tspan
         y="215.45078"
         x="444.61337"
         id="tspan4013"
         sodipodi:role="line">(ME and R/~W) or (ME and BE)</tspan></text>
    <g
       id="g4015"
       inkscape:label="Layer 1"
       transform="translate(182.69904,-68.927214)">
      <g
         id="g4017"
         style="stroke:#000000;stroke-width:2.11039996"
         transform="matrix(0.50133,0,0,0.44785,86.74,220.79)">
        <path
           id="path4019"
           sodipodi:rx="35"
           sodipodi:ry="35"
           style="fill:none;stroke:#000000;stroke-width:1.97689998"
           sodipodi:type="arc"
           d="m 340,527.36218 c 0,19.32997 -15.67003,35 -35,35 -19.32997,0 -35,-15.67003 -35,-35 0,0 0,0 0,0"
           sodipodi:open="true"
           transform="matrix(0,-1.1419,0.99807,0,-238.81,891.14)"
           sodipodi:cy="527.36218"
           sodipodi:cx="305"
           sodipodi:end="3.1415927"
           sodipodi:start="0" />
        <path
           id="path4021"
           style="fill:none;stroke:#000000;stroke-width:2.11039996"
           inkscape:connector-curvature="0"
           d="m 290,502.36 h -60 v 80 h 60" />
      </g>
      <path
         id="path4023"
         style="fill:none;stroke:#000000;stroke-width:0.85553998px"
         inkscape:connector-curvature="0"
         d="m 258.1,463.05 h 29.278" />
      <path
         id="path4025"
         sodipodi:rx="5"
         sodipodi:ry="5"
         style="fill:none;stroke:#000000"
         sodipodi:type="arc"
         d="m 310,467.36218 c 0,2.76143 -2.23858,5 -5,5 -2.76142,0 -5,-2.23857 -5,-5 0,-2.76142 2.23858,-5 5,-5 2.76142,0 5,2.23858 5,5 z"
         transform="translate(-51.765,-4.3139)"
         sodipodi:cy="467.36218"
         sodipodi:cx="305" />
      <g
         id="g4027"
         transform="translate(-73.705,-19.915)">
        <path
           id="path4029"
           style="fill:none;stroke:#000000"
           inkscape:connector-curvature="0"
           d="M 274.91,475.71 H 248.017" />
        <path
           id="path4031"
           d="M 274.91,491.71 H 248.017"
           style="fill:none;stroke:#000000"
           inkscape:connector-curvature="0" />
      </g>
    </g>
    <g
       transform="translate(183.20411,-19.429739)"
       inkscape:label="Layer 1"
       id="g4033">
      <g
         transform="matrix(0.50133,0,0,0.44785,86.74,220.79)"
         style="stroke:#000000;stroke-width:2.11039996"
         id="g4035">
        <path
           sodipodi:start="0"
           sodipodi:end="3.1415927"
           sodipodi:cx="305"
           sodipodi:cy="527.36218"
           transform="matrix(0,-1.1419,0.99807,0,-238.81,891.14)"
           sodipodi:open="true"
           d="m 340,527.36218 c 0,19.32997 -15.67003,35 -35,35 -19.32997,0 -35,-15.67003 -35,-35 0,0 0,0 0,0"
           sodipodi:type="arc"
           style="fill:none;stroke:#000000;stroke-width:1.97689998"
           sodipodi:ry="35"
           sodipodi:rx="35"
           id="path4037" />
        <path
           d="m 290,502.36 h -60 v 80 h 60"
           inkscape:connector-curvature="0"
           style="fill:none;stroke:#000000;stroke-width:2.11039996"
           id="path4039" />
      </g>
      <path
         d="m 258.1,463.05 h 29.278"
         inkscape:connector-curvature="0"
         style="fill:none;stroke:#000000;stroke-width:0.85553998px"
         id="path4041" />
      <path
         sodipodi:cx="305"
         sodipodi:cy="467.36218"
         transform="translate(-51.765,-4.3139)"
         d="m 310,467.36218 c 0,2.76143 -2.23858,5 -5,5 -2.76142,0 -5,-2.23857 -5,-5 0,-2.76142 2.23858,-5 5,-5 2.76142,0 5,2.23858 5,5 z"
         sodipodi:type="arc"
         style="fill:none;stroke:#000000"
         sodipodi:ry="5"
         sodipodi:rx="5"
         id="path4043" />
      <g
         transform="translate(-73.705,-19.915)"
         id="g4045">
        <path
           d="M 274.91,475.71 H 248.017"
           inkscape:connector-curvature="0"
           style="fill:none;stroke:#000000"
           id="path4047" />
        <path
           inkscape:connector-curvature="0"
           style="fill:none;stroke:#000000"
           d="M 274.91,491.71 H 248.017"
           id="path4049" />
      </g>
    </g>
    <path
       style="fill:none;stroke:#000000;stroke-width:1;stroke-linecap:round;stroke-miterlimit:4;stroke-dasharray:none"
       d="m 356.58385,386.16659 0,16.16244"
       id="path4051"
       inkscape:connector-curvature="0" />
    <path
       style="fill:none;stroke:#000000;stroke-width:1;stroke-linecap:round;stroke-miterlimit:4;stroke-dasharray:none"
       d="m 357.594,435.15898 0,19.1929"
       id="path4053"
       inkscape:connector-curvature="0" />
    <path
       style="fill:none;stroke:#000000;stroke-width:1;stroke-linecap:round;stroke-miterlimit:4;stroke-dasharray:none"
       d="m 338.90618,355.35693 0,37.37565 16.66752,0"
       id="path4055"
       inkscape:connector-curvature="0" />
    <path
       style="fill:none;stroke:#000000;stroke-width:1;stroke-linecap:round;stroke-miterlimit:4;stroke-dasharray:none"
       d="m 80.307128,208.37974 0,237.89092 278.802102,0"
       id="path4057"
       inkscape:connector-curvature="0" />
    <path
       d="m 159.09902,379.85312 a 1.767767,1.767767 0 1 1 -3.53553,0 1.767767,1.767767 0 1 1 3.53553,0 z"
       sodipodi:ry="1.767767"
       sodipodi:rx="1.767767"
       sodipodi:cy="379.85312"
       sodipodi:cx="157.33125"
       id="path4059"
       style="fill:#000000;stroke:#000000;stroke-width:1;stroke-linecap:round;stroke-miterlimit:4;stroke-dasharray:none"
       sodipodi:type="arc"
       transform="translate(-77.27667,-171.72593)" />
    <path
       transform="translate(181.82746,-24.748743)"
       sodipodi:type="arc"
       style="fill:#000000;stroke:#000000;stroke-width:1;stroke-linecap:round;stroke-miterlimit:4;stroke-dasharray:none"
       id="path4061"
       sodipodi:cx="157.33125"
       sodipodi:cy="379.85312"
       sodipodi:rx="1.767767"
       sodipodi:ry="1.767767"
       d="m 159.09902,379.85312 a 1.767767,1.767767 0 1 1 -3.53553,0 1.767767,1.767767 0 1 1 3.53553,0 z" />
    <g
       id="g4063"
       inkscape:label="Layer 1"
       transform="translate(296.3412,-45.693715)">
      <g
         id="g4065"
         style="stroke:#000000;stroke-width:2.11039996"
         transform="matrix(0.50133,0,0,0.44785,86.74,220.79)">
        <path
           id="path4067"
           sodipodi:rx="35"
           sodipodi:ry="35"
           style="fill:none;stroke:#000000;stroke-width:1.97689998"
           sodipodi:type="arc"
           d="m 340,527.36218 c 0,19.32997 -15.67003,35 -35,35 -19.32997,0 -35,-15.67003 -35,-35 0,0 0,0 0,0"
           sodipodi:open="true"
           transform="matrix(0,-1.1419,0.99807,0,-238.81,891.14)"
           sodipodi:cy="527.36218"
           sodipodi:cx="305"
           sodipodi:end="3.1415927"
           sodipodi:start="0" />
        <path
           id="path4069"
           style="fill:none;stroke:#000000;stroke-width:2.11039996"
           inkscape:connector-curvature="0"
           d="m 290,502.36 h -60 v 80 h 60" />
      </g>
      <path
         id="path4071"
         style="fill:none;stroke:#000000;stroke-width:0.85553998px"
         inkscape:connector-curvature="0"
         d="m 258.1,463.05 h 29.278" />
      <path
         id="path4073"
         sodipodi:rx="5"
         sodipodi:ry="5"
         style="fill:none;stroke:#000000"
         sodipodi:type="arc"
         d="m 310,467.36218 c 0,2.76143 -2.23858,5 -5,5 -2.76142,0 -5,-2.23857 -5,-5 0,-2.76142 2.23858,-5 5,-5 2.76142,0 5,2.23858 5,5 z"
         transform="translate(-51.765,-4.3139)"
         sodipodi:cy="467.36218"
         sodipodi:cx="305" />
      <g
         id="g4075"
         transform="translate(-73.705,-19.915)">
        <path
           id="path4077"
           style="fill:none;stroke:#000000"
           inkscape:connector-curvature="0"
           d="M 274.91,475.71 H 248.017" />
        <path
           id="path4079"
           d="M 274.91,491.71 H 248.017"
           style="fill:none;stroke:#000000"
           inkscape:connector-curvature="0" />
      </g>
    </g>
    <path
       style="fill:none;stroke:#000000;stroke-width:1;stroke-linecap:round;stroke-miterlimit:4;stroke-dasharray:none"
       d="m 470.22601,393.74273 0,16.66752"
       id="path4081"
       inkscape:connector-curvature="0" />
    <path
       style="fill:none;stroke:#000000;stroke-width:1;stroke-linecap:round;stroke-miterlimit:4;stroke-dasharray:none"
       d="m 471.23616,425.56254 0,16.16244"
       id="path4083"
       inkscape:connector-curvature="0" />
    <path
       style="fill:none;stroke:#000000;stroke-width:1;stroke-linecap:round;stroke-miterlimit:4;stroke-dasharray:none"
       d="m 467.19556,223.53203 226.27417,0"
       id="path4085"
       inkscape:connector-curvature="0"
       sodipodi:nodetypes="cc" />
    <path
       style="fill:none;stroke:#000000;stroke-width:1;stroke-linecap:round;stroke-miterlimit:4;stroke-dasharray:none"
       d="m 541.44177,273.53458 153.03811,0"
       id="path4089"
       inkscape:connector-curvature="0"
       sodipodi:nodetypes="cc" />
    <path
       style="fill:none;stroke:#000000;stroke-width:1;stroke-linecap:round;stroke-miterlimit:4;stroke-dasharray:none"
       d="m 543.46207,355.86201 155.05842,0"
       id="path4091"
       inkscape:connector-curvature="0"
       sodipodi:nodetypes="cc" />
    <path
       style="fill:none;stroke:#000000;stroke-width:1;stroke-linecap:round;stroke-miterlimit:4;stroke-dasharray:none"
       d="m 582.35294,416.97624 117.1777,0"
       id="path4093"
       inkscape:connector-curvature="0"
       sodipodi:nodetypes="cc" />
    <text
       sodipodi:linespacing="125%"
       id="text4095"
       y="433.64368"
       x="549.66925"
       style="font-size:12px;font-style:normal;font-weight:normal;text-align:start;line-height:125%;letter-spacing:0px;word-spacing:0px;text-anchor:start;fill:#000000;fill-opacity:1;stroke:none;font-family:Sans"
       xml:space="preserve"><tspan
         y="433.64368"
         x="549.66925"
         id="tspan4097"
         sodipodi:role="line">~ME or BE or R/~W</tspan></text>
    <text
       sodipodi:linespacing="125%"
       id="text4099"
       y="215.95586"
       x="670.88757"
       style="font-size:12px;font-style:normal;font-weight:normal;text-align:start;line-height:125%;letter-spacing:0px;word-spacing:0px;text-anchor:start;fill:#000000;fill-opacity:1;stroke:none;font-family:Sans"
       xml:space="preserve"><tspan
         y="215.95586"
         x="670.88757"
         id="tspan4101"
         sodipodi:role="line">DS0</tspan></text>
    <text
       xml:space="preserve"
       style="font-size:12px;font-style:normal;font-weight:normal;text-align:start;line-height:125%;letter-spacing:0px;word-spacing:0px;text-anchor:start;fill:#000000;fill-opacity:1;stroke:none;font-family:Sans"
       x="673.41296"
       y="411.92542"
       id="text4103"
       sodipodi:linespacing="125%"><tspan
         sodipodi:role="line"
         id="tspan4105"
         x="673.41296"
         y="411.92542">DS1</tspan></text>
    <text
       sodipodi:linespacing="125%"
       id="text4107"
       y="349.80103"
       x="672.9079"
       style="font-size:12px;font-style:normal;font-weight:normal;text-align:start;line-height:125%;letter-spacing:0px;word-spacing:0px;text-anchor:start;fill:#000000;fill-opacity:1;stroke:none;font-family:Sans"
       xml:space="preserve"><tspan
         y="349.80103"
         x="672.9079"
         id="tspan4109"
         sodipodi:role="line">AS1</tspan></text>
    <text
       xml:space="preserve"
       style="font-size:12px;font-style:normal;font-weight:normal;text-align:start;line-height:125%;letter-spacing:0px;word-spacing:0px;text-anchor:start;fill:#000000;fill-opacity:1;stroke:none;font-family:Sans"
       x="672.40283"
       y="268.98883"
       id="text4111"
       sodipodi:linespacing="125%"><tspan
         sodipodi:role="line"
         id="tspan4113"
         x="672.40283"
         y="268.98883">AS0</tspan></text>
  </g>
</svg>
