G04 #@! TF.FileFunction,Legend,Top*
%FSLAX46Y46*%
G04 Gerber Fmt 4.6, Leading zero omitted, Abs format (unit mm)*
G04 Created by KiCad (PCBNEW 4.0.3-1.fc24-product) date Thu Dec  8 13:22:35 2016*
%MOMM*%
%LPD*%
G01*
G04 APERTURE LIST*
%ADD10C,0.100000*%
%ADD11C,0.300000*%
%ADD12C,0.200000*%
%ADD13C,0.150000*%
%ADD14C,0.381000*%
%ADD15C,0.152400*%
%ADD16C,0.076200*%
%ADD17C,0.304800*%
%ADD18O,2.300000X1.600000*%
%ADD19R,1.727200X2.032000*%
%ADD20O,1.727200X2.032000*%
%ADD21R,1.500000X0.600000*%
%ADD22R,1.950000X0.600000*%
%ADD23R,1.200000X0.900000*%
%ADD24R,1.200000X0.750000*%
%ADD25R,0.750000X1.200000*%
%ADD26C,6.300000*%
%ADD27C,0.600000*%
%ADD28R,0.797560X0.797560*%
%ADD29R,1.300000X1.300000*%
%ADD30C,1.300000*%
%ADD31R,3.500120X3.500120*%
%ADD32C,1.998980*%
%ADD33R,1.550000X0.600000*%
%ADD34O,1.699260X3.500120*%
%ADD35R,0.900000X1.200000*%
%ADD36C,1.501140*%
%ADD37R,2.032000X2.032000*%
%ADD38O,2.032000X2.032000*%
%ADD39C,1.320800*%
G04 APERTURE END LIST*
D10*
D11*
X188952143Y-140148571D02*
X188952143Y-141362857D01*
X189023571Y-141505714D01*
X189095000Y-141577143D01*
X189237857Y-141648571D01*
X189523571Y-141648571D01*
X189666429Y-141577143D01*
X189737857Y-141505714D01*
X189809286Y-141362857D01*
X189809286Y-140148571D01*
X190452143Y-141220000D02*
X191166429Y-141220000D01*
X190309286Y-141648571D02*
X190809286Y-140148571D01*
X191309286Y-141648571D01*
X192666429Y-141648571D02*
X192166429Y-140934286D01*
X191809286Y-141648571D02*
X191809286Y-140148571D01*
X192380714Y-140148571D01*
X192523572Y-140220000D01*
X192595000Y-140291429D01*
X192666429Y-140434286D01*
X192666429Y-140648571D01*
X192595000Y-140791429D01*
X192523572Y-140862857D01*
X192380714Y-140934286D01*
X191809286Y-140934286D01*
X193095000Y-140148571D02*
X193952143Y-140148571D01*
X193523572Y-141648571D02*
X193523572Y-140148571D01*
D12*
X181427381Y-138255476D02*
X180951190Y-138588810D01*
X181427381Y-138826905D02*
X180427381Y-138826905D01*
X180427381Y-138445952D01*
X180475000Y-138350714D01*
X180522619Y-138303095D01*
X180617857Y-138255476D01*
X180760714Y-138255476D01*
X180855952Y-138303095D01*
X180903571Y-138350714D01*
X180951190Y-138445952D01*
X180951190Y-138826905D01*
X180427381Y-137922143D02*
X181427381Y-137255476D01*
X180427381Y-137255476D02*
X181427381Y-137922143D01*
X182967381Y-138969762D02*
X182967381Y-138398333D01*
X183967381Y-138684048D02*
X182967381Y-138684048D01*
X182967381Y-138160238D02*
X183967381Y-137493571D01*
X182967381Y-137493571D02*
X183967381Y-138160238D01*
X177935000Y-138303095D02*
X177887381Y-138398333D01*
X177887381Y-138541190D01*
X177935000Y-138684048D01*
X178030238Y-138779286D01*
X178125476Y-138826905D01*
X178315952Y-138874524D01*
X178458810Y-138874524D01*
X178649286Y-138826905D01*
X178744524Y-138779286D01*
X178839762Y-138684048D01*
X178887381Y-138541190D01*
X178887381Y-138445952D01*
X178839762Y-138303095D01*
X178792143Y-138255476D01*
X178458810Y-138255476D01*
X178458810Y-138445952D01*
X178887381Y-137826905D02*
X177887381Y-137826905D01*
X178887381Y-137255476D01*
X177887381Y-137255476D01*
X178887381Y-136779286D02*
X177887381Y-136779286D01*
X177887381Y-136541191D01*
X177935000Y-136398333D01*
X178030238Y-136303095D01*
X178125476Y-136255476D01*
X178315952Y-136207857D01*
X178458810Y-136207857D01*
X178649286Y-136255476D01*
X178744524Y-136303095D01*
X178839762Y-136398333D01*
X178887381Y-136541191D01*
X178887381Y-136779286D01*
X186126429Y-138826905D02*
X186126429Y-138065000D01*
X186507381Y-138445952D02*
X185745476Y-138445952D01*
X185507381Y-137112619D02*
X185507381Y-137588810D01*
X185983571Y-137636429D01*
X185935952Y-137588810D01*
X185888333Y-137493572D01*
X185888333Y-137255476D01*
X185935952Y-137160238D01*
X185983571Y-137112619D01*
X186078810Y-137065000D01*
X186316905Y-137065000D01*
X186412143Y-137112619D01*
X186459762Y-137160238D01*
X186507381Y-137255476D01*
X186507381Y-137493572D01*
X186459762Y-137588810D01*
X186412143Y-137636429D01*
X185507381Y-136779286D02*
X186507381Y-136445953D01*
X185507381Y-136112619D01*
X173426429Y-150764524D02*
X173426429Y-150002619D01*
X173807381Y-150383571D02*
X173045476Y-150383571D01*
X172807381Y-149050238D02*
X172807381Y-149526429D01*
X173283571Y-149574048D01*
X173235952Y-149526429D01*
X173188333Y-149431191D01*
X173188333Y-149193095D01*
X173235952Y-149097857D01*
X173283571Y-149050238D01*
X173378810Y-149002619D01*
X173616905Y-149002619D01*
X173712143Y-149050238D01*
X173759762Y-149097857D01*
X173807381Y-149193095D01*
X173807381Y-149431191D01*
X173759762Y-149526429D01*
X173712143Y-149574048D01*
X172807381Y-148716905D02*
X173807381Y-148383572D01*
X172807381Y-148050238D01*
X160155000Y-150240714D02*
X160107381Y-150335952D01*
X160107381Y-150478809D01*
X160155000Y-150621667D01*
X160250238Y-150716905D01*
X160345476Y-150764524D01*
X160535952Y-150812143D01*
X160678810Y-150812143D01*
X160869286Y-150764524D01*
X160964524Y-150716905D01*
X161059762Y-150621667D01*
X161107381Y-150478809D01*
X161107381Y-150383571D01*
X161059762Y-150240714D01*
X161012143Y-150193095D01*
X160678810Y-150193095D01*
X160678810Y-150383571D01*
X161107381Y-149764524D02*
X160107381Y-149764524D01*
X161107381Y-149193095D01*
X160107381Y-149193095D01*
X161107381Y-148716905D02*
X160107381Y-148716905D01*
X160107381Y-148478810D01*
X160155000Y-148335952D01*
X160250238Y-148240714D01*
X160345476Y-148193095D01*
X160535952Y-148145476D01*
X160678810Y-148145476D01*
X160869286Y-148193095D01*
X160964524Y-148240714D01*
X161059762Y-148335952D01*
X161107381Y-148478810D01*
X161107381Y-148716905D01*
X157615000Y-150240714D02*
X157567381Y-150335952D01*
X157567381Y-150478809D01*
X157615000Y-150621667D01*
X157710238Y-150716905D01*
X157805476Y-150764524D01*
X157995952Y-150812143D01*
X158138810Y-150812143D01*
X158329286Y-150764524D01*
X158424524Y-150716905D01*
X158519762Y-150621667D01*
X158567381Y-150478809D01*
X158567381Y-150383571D01*
X158519762Y-150240714D01*
X158472143Y-150193095D01*
X158138810Y-150193095D01*
X158138810Y-150383571D01*
X158567381Y-149764524D02*
X157567381Y-149764524D01*
X158567381Y-149193095D01*
X157567381Y-149193095D01*
X158567381Y-148716905D02*
X157567381Y-148716905D01*
X157567381Y-148478810D01*
X157615000Y-148335952D01*
X157710238Y-148240714D01*
X157805476Y-148193095D01*
X157995952Y-148145476D01*
X158138810Y-148145476D01*
X158329286Y-148193095D01*
X158424524Y-148240714D01*
X158519762Y-148335952D01*
X158567381Y-148478810D01*
X158567381Y-148716905D01*
X150947381Y-150002619D02*
X150471190Y-150335953D01*
X150947381Y-150574048D02*
X149947381Y-150574048D01*
X149947381Y-150193095D01*
X149995000Y-150097857D01*
X150042619Y-150050238D01*
X150137857Y-150002619D01*
X150280714Y-150002619D01*
X150375952Y-150050238D01*
X150423571Y-150097857D01*
X150471190Y-150193095D01*
X150471190Y-150574048D01*
X150947381Y-149574048D02*
X149947381Y-149574048D01*
X149947381Y-149335953D01*
X149995000Y-149193095D01*
X150090238Y-149097857D01*
X150185476Y-149050238D01*
X150375952Y-149002619D01*
X150518810Y-149002619D01*
X150709286Y-149050238D01*
X150804524Y-149097857D01*
X150899762Y-149193095D01*
X150947381Y-149335953D01*
X150947381Y-149574048D01*
X150471190Y-148383572D02*
X150947381Y-148383572D01*
X149947381Y-148716905D02*
X150471190Y-148383572D01*
X149947381Y-148050238D01*
X147883571Y-149288333D02*
X147931190Y-149145476D01*
X147978810Y-149097857D01*
X148074048Y-149050238D01*
X148216905Y-149050238D01*
X148312143Y-149097857D01*
X148359762Y-149145476D01*
X148407381Y-149240714D01*
X148407381Y-149621667D01*
X147407381Y-149621667D01*
X147407381Y-149288333D01*
X147455000Y-149193095D01*
X147502619Y-149145476D01*
X147597857Y-149097857D01*
X147693095Y-149097857D01*
X147788333Y-149145476D01*
X147835952Y-149193095D01*
X147883571Y-149288333D01*
X147883571Y-149621667D01*
X147883571Y-148621667D02*
X147883571Y-148288333D01*
X148407381Y-148145476D02*
X148407381Y-148621667D01*
X147407381Y-148621667D01*
X147407381Y-148145476D01*
X144867381Y-149716905D02*
X145867381Y-149383572D01*
X144867381Y-149050238D01*
X145867381Y-148716905D02*
X144867381Y-148716905D01*
X144867381Y-148335952D01*
X144915000Y-148240714D01*
X144962619Y-148193095D01*
X145057857Y-148145476D01*
X145200714Y-148145476D01*
X145295952Y-148193095D01*
X145343571Y-148240714D01*
X145391190Y-148335952D01*
X145391190Y-148716905D01*
X144695000Y-149812143D02*
X144695000Y-147955000D01*
X143327381Y-149669286D02*
X142327381Y-149669286D01*
X143041667Y-149335952D01*
X142327381Y-149002619D01*
X143327381Y-149002619D01*
X143327381Y-148050238D02*
X143327381Y-148526429D01*
X142327381Y-148526429D01*
X142155000Y-149907381D02*
X142155000Y-147955000D01*
X140739762Y-150764524D02*
X140787381Y-150621667D01*
X140787381Y-150383571D01*
X140739762Y-150288333D01*
X140692143Y-150240714D01*
X140596905Y-150193095D01*
X140501667Y-150193095D01*
X140406429Y-150240714D01*
X140358810Y-150288333D01*
X140311190Y-150383571D01*
X140263571Y-150574048D01*
X140215952Y-150669286D01*
X140168333Y-150716905D01*
X140073095Y-150764524D01*
X139977857Y-150764524D01*
X139882619Y-150716905D01*
X139835000Y-150669286D01*
X139787381Y-150574048D01*
X139787381Y-150335952D01*
X139835000Y-150193095D01*
X140787381Y-149764524D02*
X139787381Y-149764524D01*
X140787381Y-149193095D01*
X139787381Y-149193095D01*
X140692143Y-148145476D02*
X140739762Y-148193095D01*
X140787381Y-148335952D01*
X140787381Y-148431190D01*
X140739762Y-148574048D01*
X140644524Y-148669286D01*
X140549286Y-148716905D01*
X140358810Y-148764524D01*
X140215952Y-148764524D01*
X140025476Y-148716905D01*
X139930238Y-148669286D01*
X139835000Y-148574048D01*
X139787381Y-148431190D01*
X139787381Y-148335952D01*
X139835000Y-148193095D01*
X139882619Y-148145476D01*
X138247381Y-150383571D02*
X137247381Y-150383571D01*
X138247381Y-149812142D01*
X137247381Y-149812142D01*
X138247381Y-149335952D02*
X137247381Y-149335952D01*
X137961667Y-149002618D01*
X137247381Y-148669285D01*
X138247381Y-148669285D01*
X138247381Y-148193095D02*
X137247381Y-148193095D01*
X137075000Y-150621666D02*
X137075000Y-147955000D01*
X135707381Y-150240714D02*
X134707381Y-150240714D01*
X135707381Y-149193095D02*
X135231190Y-149526429D01*
X135707381Y-149764524D02*
X134707381Y-149764524D01*
X134707381Y-149383571D01*
X134755000Y-149288333D01*
X134802619Y-149240714D01*
X134897857Y-149193095D01*
X135040714Y-149193095D01*
X135135952Y-149240714D01*
X135183571Y-149288333D01*
X135231190Y-149383571D01*
X135231190Y-149764524D01*
X135802619Y-148097857D02*
X135755000Y-148193095D01*
X135659762Y-148288333D01*
X135516905Y-148431190D01*
X135469286Y-148526429D01*
X135469286Y-148621667D01*
X135707381Y-148574048D02*
X135659762Y-148669286D01*
X135564524Y-148764524D01*
X135374048Y-148812143D01*
X135040714Y-148812143D01*
X134850238Y-148764524D01*
X134755000Y-148669286D01*
X134707381Y-148574048D01*
X134707381Y-148383571D01*
X134755000Y-148288333D01*
X134850238Y-148193095D01*
X135040714Y-148145476D01*
X135374048Y-148145476D01*
X135564524Y-148193095D01*
X135659762Y-148288333D01*
X135707381Y-148383571D01*
X135707381Y-148574048D01*
X134535000Y-150478809D02*
X134535000Y-147955000D01*
X133167381Y-149288333D02*
X132691190Y-149621667D01*
X133167381Y-149859762D02*
X132167381Y-149859762D01*
X132167381Y-149478809D01*
X132215000Y-149383571D01*
X132262619Y-149335952D01*
X132357857Y-149288333D01*
X132500714Y-149288333D01*
X132595952Y-149335952D01*
X132643571Y-149383571D01*
X132691190Y-149478809D01*
X132691190Y-149859762D01*
X132167381Y-148955000D02*
X133167381Y-148716905D01*
X132453095Y-148526428D01*
X133167381Y-148335952D01*
X132167381Y-148097857D01*
X131995000Y-149097857D02*
X131995000Y-147955000D01*
X127801667Y-150526429D02*
X127801667Y-150050238D01*
X128087381Y-150621667D02*
X127087381Y-150288334D01*
X128087381Y-149955000D01*
X128087381Y-149097857D02*
X128087381Y-149669286D01*
X128087381Y-149383572D02*
X127087381Y-149383572D01*
X127230238Y-149478810D01*
X127325476Y-149574048D01*
X127373095Y-149669286D01*
X127087381Y-148240714D02*
X127087381Y-148431191D01*
X127135000Y-148526429D01*
X127182619Y-148574048D01*
X127325476Y-148669286D01*
X127515952Y-148716905D01*
X127896905Y-148716905D01*
X127992143Y-148669286D01*
X128039762Y-148621667D01*
X128087381Y-148526429D01*
X128087381Y-148335952D01*
X128039762Y-148240714D01*
X127992143Y-148193095D01*
X127896905Y-148145476D01*
X127658810Y-148145476D01*
X127563571Y-148193095D01*
X127515952Y-148240714D01*
X127468333Y-148335952D01*
X127468333Y-148526429D01*
X127515952Y-148621667D01*
X127563571Y-148669286D01*
X127658810Y-148716905D01*
X125261667Y-150526429D02*
X125261667Y-150050238D01*
X125547381Y-150621667D02*
X124547381Y-150288334D01*
X125547381Y-149955000D01*
X125547381Y-149097857D02*
X125547381Y-149669286D01*
X125547381Y-149383572D02*
X124547381Y-149383572D01*
X124690238Y-149478810D01*
X124785476Y-149574048D01*
X124833095Y-149669286D01*
X124547381Y-148764524D02*
X124547381Y-148097857D01*
X125547381Y-148526429D01*
X122721667Y-150526429D02*
X122721667Y-150050238D01*
X123007381Y-150621667D02*
X122007381Y-150288334D01*
X123007381Y-149955000D01*
X123007381Y-149097857D02*
X123007381Y-149669286D01*
X123007381Y-149383572D02*
X122007381Y-149383572D01*
X122150238Y-149478810D01*
X122245476Y-149574048D01*
X122293095Y-149669286D01*
X122435952Y-148526429D02*
X122388333Y-148621667D01*
X122340714Y-148669286D01*
X122245476Y-148716905D01*
X122197857Y-148716905D01*
X122102619Y-148669286D01*
X122055000Y-148621667D01*
X122007381Y-148526429D01*
X122007381Y-148335952D01*
X122055000Y-148240714D01*
X122102619Y-148193095D01*
X122197857Y-148145476D01*
X122245476Y-148145476D01*
X122340714Y-148193095D01*
X122388333Y-148240714D01*
X122435952Y-148335952D01*
X122435952Y-148526429D01*
X122483571Y-148621667D01*
X122531190Y-148669286D01*
X122626429Y-148716905D01*
X122816905Y-148716905D01*
X122912143Y-148669286D01*
X122959762Y-148621667D01*
X123007381Y-148526429D01*
X123007381Y-148335952D01*
X122959762Y-148240714D01*
X122912143Y-148193095D01*
X122816905Y-148145476D01*
X122626429Y-148145476D01*
X122531190Y-148193095D01*
X122483571Y-148240714D01*
X122435952Y-148335952D01*
X120181667Y-150526429D02*
X120181667Y-150050238D01*
X120467381Y-150621667D02*
X119467381Y-150288334D01*
X120467381Y-149955000D01*
X120467381Y-149097857D02*
X120467381Y-149669286D01*
X120467381Y-149383572D02*
X119467381Y-149383572D01*
X119610238Y-149478810D01*
X119705476Y-149574048D01*
X119753095Y-149669286D01*
X120467381Y-148621667D02*
X120467381Y-148431191D01*
X120419762Y-148335952D01*
X120372143Y-148288333D01*
X120229286Y-148193095D01*
X120038810Y-148145476D01*
X119657857Y-148145476D01*
X119562619Y-148193095D01*
X119515000Y-148240714D01*
X119467381Y-148335952D01*
X119467381Y-148526429D01*
X119515000Y-148621667D01*
X119562619Y-148669286D01*
X119657857Y-148716905D01*
X119895952Y-148716905D01*
X119991190Y-148669286D01*
X120038810Y-148621667D01*
X120086429Y-148526429D01*
X120086429Y-148335952D01*
X120038810Y-148240714D01*
X119991190Y-148193095D01*
X119895952Y-148145476D01*
X117641667Y-150526429D02*
X117641667Y-150050238D01*
X117927381Y-150621667D02*
X116927381Y-150288334D01*
X117927381Y-149955000D01*
X117022619Y-149669286D02*
X116975000Y-149621667D01*
X116927381Y-149526429D01*
X116927381Y-149288333D01*
X116975000Y-149193095D01*
X117022619Y-149145476D01*
X117117857Y-149097857D01*
X117213095Y-149097857D01*
X117355952Y-149145476D01*
X117927381Y-149716905D01*
X117927381Y-149097857D01*
X116927381Y-148478810D02*
X116927381Y-148383571D01*
X116975000Y-148288333D01*
X117022619Y-148240714D01*
X117117857Y-148193095D01*
X117308333Y-148145476D01*
X117546429Y-148145476D01*
X117736905Y-148193095D01*
X117832143Y-148240714D01*
X117879762Y-148288333D01*
X117927381Y-148383571D01*
X117927381Y-148478810D01*
X117879762Y-148574048D01*
X117832143Y-148621667D01*
X117736905Y-148669286D01*
X117546429Y-148716905D01*
X117308333Y-148716905D01*
X117117857Y-148669286D01*
X117022619Y-148621667D01*
X116975000Y-148574048D01*
X116927381Y-148478810D01*
X115101667Y-150526429D02*
X115101667Y-150050238D01*
X115387381Y-150621667D02*
X114387381Y-150288334D01*
X115387381Y-149955000D01*
X114482619Y-149669286D02*
X114435000Y-149621667D01*
X114387381Y-149526429D01*
X114387381Y-149288333D01*
X114435000Y-149193095D01*
X114482619Y-149145476D01*
X114577857Y-149097857D01*
X114673095Y-149097857D01*
X114815952Y-149145476D01*
X115387381Y-149716905D01*
X115387381Y-149097857D01*
X115387381Y-148145476D02*
X115387381Y-148716905D01*
X115387381Y-148431191D02*
X114387381Y-148431191D01*
X114530238Y-148526429D01*
X114625476Y-148621667D01*
X114673095Y-148716905D01*
X112561667Y-150526429D02*
X112561667Y-150050238D01*
X112847381Y-150621667D02*
X111847381Y-150288334D01*
X112847381Y-149955000D01*
X111942619Y-149669286D02*
X111895000Y-149621667D01*
X111847381Y-149526429D01*
X111847381Y-149288333D01*
X111895000Y-149193095D01*
X111942619Y-149145476D01*
X112037857Y-149097857D01*
X112133095Y-149097857D01*
X112275952Y-149145476D01*
X112847381Y-149716905D01*
X112847381Y-149097857D01*
X111942619Y-148716905D02*
X111895000Y-148669286D01*
X111847381Y-148574048D01*
X111847381Y-148335952D01*
X111895000Y-148240714D01*
X111942619Y-148193095D01*
X112037857Y-148145476D01*
X112133095Y-148145476D01*
X112275952Y-148193095D01*
X112847381Y-148764524D01*
X112847381Y-148145476D01*
X110021667Y-150526429D02*
X110021667Y-150050238D01*
X110307381Y-150621667D02*
X109307381Y-150288334D01*
X110307381Y-149955000D01*
X109402619Y-149669286D02*
X109355000Y-149621667D01*
X109307381Y-149526429D01*
X109307381Y-149288333D01*
X109355000Y-149193095D01*
X109402619Y-149145476D01*
X109497857Y-149097857D01*
X109593095Y-149097857D01*
X109735952Y-149145476D01*
X110307381Y-149716905D01*
X110307381Y-149097857D01*
X109307381Y-148764524D02*
X109307381Y-148145476D01*
X109688333Y-148478810D01*
X109688333Y-148335952D01*
X109735952Y-148240714D01*
X109783571Y-148193095D01*
X109878810Y-148145476D01*
X110116905Y-148145476D01*
X110212143Y-148193095D01*
X110259762Y-148240714D01*
X110307381Y-148335952D01*
X110307381Y-148621667D01*
X110259762Y-148716905D01*
X110212143Y-148764524D01*
X163647381Y-149859762D02*
X163171190Y-150193096D01*
X163647381Y-150431191D02*
X162647381Y-150431191D01*
X162647381Y-150050238D01*
X162695000Y-149955000D01*
X162742619Y-149907381D01*
X162837857Y-149859762D01*
X162980714Y-149859762D01*
X163075952Y-149907381D01*
X163123571Y-149955000D01*
X163171190Y-150050238D01*
X163171190Y-150431191D01*
X163599762Y-149478810D02*
X163647381Y-149335953D01*
X163647381Y-149097857D01*
X163599762Y-149002619D01*
X163552143Y-148955000D01*
X163456905Y-148907381D01*
X163361667Y-148907381D01*
X163266429Y-148955000D01*
X163218810Y-149002619D01*
X163171190Y-149097857D01*
X163123571Y-149288334D01*
X163075952Y-149383572D01*
X163028333Y-149431191D01*
X162933095Y-149478810D01*
X162837857Y-149478810D01*
X162742619Y-149431191D01*
X162695000Y-149383572D01*
X162647381Y-149288334D01*
X162647381Y-149050238D01*
X162695000Y-148907381D01*
X162647381Y-148621667D02*
X162647381Y-148050238D01*
X163647381Y-148335953D02*
X162647381Y-148335953D01*
X162475000Y-150669286D02*
X162475000Y-147955000D01*
X165520714Y-149050238D02*
X166187381Y-149669286D01*
X166187381Y-149431191D02*
X166139762Y-149526429D01*
X166092143Y-149574048D01*
X165996905Y-149621667D01*
X165711190Y-149621667D01*
X165615952Y-149574048D01*
X165568333Y-149526429D01*
X165520714Y-149431191D01*
X165520714Y-149288333D01*
X165568333Y-149193095D01*
X165615952Y-149145476D01*
X165711190Y-149097857D01*
X165996905Y-149097857D01*
X166092143Y-149145476D01*
X166139762Y-149193095D01*
X166187381Y-149288333D01*
X166187381Y-149431191D01*
X165282619Y-148716905D02*
X165235000Y-148669286D01*
X165187381Y-148574048D01*
X165187381Y-148335952D01*
X165235000Y-148240714D01*
X165282619Y-148193095D01*
X165377857Y-148145476D01*
X165473095Y-148145476D01*
X165615952Y-148193095D01*
X166187381Y-148764524D01*
X166187381Y-148145476D01*
X168727381Y-150193095D02*
X167727381Y-150193095D01*
X167727381Y-149526429D02*
X167727381Y-149335952D01*
X167775000Y-149240714D01*
X167870238Y-149145476D01*
X168060714Y-149097857D01*
X168394048Y-149097857D01*
X168584524Y-149145476D01*
X168679762Y-149240714D01*
X168727381Y-149335952D01*
X168727381Y-149526429D01*
X168679762Y-149621667D01*
X168584524Y-149716905D01*
X168394048Y-149764524D01*
X168060714Y-149764524D01*
X167870238Y-149716905D01*
X167775000Y-149621667D01*
X167727381Y-149526429D01*
X168679762Y-148716905D02*
X168727381Y-148574048D01*
X168727381Y-148335952D01*
X168679762Y-148240714D01*
X168632143Y-148193095D01*
X168536905Y-148145476D01*
X168441667Y-148145476D01*
X168346429Y-148193095D01*
X168298810Y-148240714D01*
X168251190Y-148335952D01*
X168203571Y-148526429D01*
X168155952Y-148621667D01*
X168108333Y-148669286D01*
X168013095Y-148716905D01*
X167917857Y-148716905D01*
X167822619Y-148669286D01*
X167775000Y-148621667D01*
X167727381Y-148526429D01*
X167727381Y-148288333D01*
X167775000Y-148145476D01*
X167555000Y-150431190D02*
X167555000Y-147955000D01*
X155075000Y-150240714D02*
X155027381Y-150335952D01*
X155027381Y-150478809D01*
X155075000Y-150621667D01*
X155170238Y-150716905D01*
X155265476Y-150764524D01*
X155455952Y-150812143D01*
X155598810Y-150812143D01*
X155789286Y-150764524D01*
X155884524Y-150716905D01*
X155979762Y-150621667D01*
X156027381Y-150478809D01*
X156027381Y-150383571D01*
X155979762Y-150240714D01*
X155932143Y-150193095D01*
X155598810Y-150193095D01*
X155598810Y-150383571D01*
X156027381Y-149764524D02*
X155027381Y-149764524D01*
X156027381Y-149193095D01*
X155027381Y-149193095D01*
X156027381Y-148716905D02*
X155027381Y-148716905D01*
X155027381Y-148478810D01*
X155075000Y-148335952D01*
X155170238Y-148240714D01*
X155265476Y-148193095D01*
X155455952Y-148145476D01*
X155598810Y-148145476D01*
X155789286Y-148193095D01*
X155884524Y-148240714D01*
X155979762Y-148335952D01*
X156027381Y-148478810D01*
X156027381Y-148716905D01*
X170886429Y-150764524D02*
X170886429Y-150002619D01*
X171267381Y-150383571D02*
X170505476Y-150383571D01*
X170267381Y-149050238D02*
X170267381Y-149526429D01*
X170743571Y-149574048D01*
X170695952Y-149526429D01*
X170648333Y-149431191D01*
X170648333Y-149193095D01*
X170695952Y-149097857D01*
X170743571Y-149050238D01*
X170838810Y-149002619D01*
X171076905Y-149002619D01*
X171172143Y-149050238D01*
X171219762Y-149097857D01*
X171267381Y-149193095D01*
X171267381Y-149431191D01*
X171219762Y-149526429D01*
X171172143Y-149574048D01*
X170267381Y-148716905D02*
X171267381Y-148383572D01*
X170267381Y-148050238D01*
X110021667Y-138874524D02*
X110021667Y-138398333D01*
X110307381Y-138969762D02*
X109307381Y-138636429D01*
X110307381Y-138303095D01*
X110307381Y-137445952D02*
X110307381Y-138017381D01*
X110307381Y-137731667D02*
X109307381Y-137731667D01*
X109450238Y-137826905D01*
X109545476Y-137922143D01*
X109593095Y-138017381D01*
X109307381Y-136541190D02*
X109307381Y-137017381D01*
X109783571Y-137065000D01*
X109735952Y-137017381D01*
X109688333Y-136922143D01*
X109688333Y-136684047D01*
X109735952Y-136588809D01*
X109783571Y-136541190D01*
X109878810Y-136493571D01*
X110116905Y-136493571D01*
X110212143Y-136541190D01*
X110259762Y-136588809D01*
X110307381Y-136684047D01*
X110307381Y-136922143D01*
X110259762Y-137017381D01*
X110212143Y-137065000D01*
X112561667Y-138874524D02*
X112561667Y-138398333D01*
X112847381Y-138969762D02*
X111847381Y-138636429D01*
X112847381Y-138303095D01*
X112847381Y-137445952D02*
X112847381Y-138017381D01*
X112847381Y-137731667D02*
X111847381Y-137731667D01*
X111990238Y-137826905D01*
X112085476Y-137922143D01*
X112133095Y-138017381D01*
X112180714Y-136588809D02*
X112847381Y-136588809D01*
X111799762Y-136826905D02*
X112514048Y-137065000D01*
X112514048Y-136445952D01*
X115101667Y-138874524D02*
X115101667Y-138398333D01*
X115387381Y-138969762D02*
X114387381Y-138636429D01*
X115387381Y-138303095D01*
X115387381Y-137445952D02*
X115387381Y-138017381D01*
X115387381Y-137731667D02*
X114387381Y-137731667D01*
X114530238Y-137826905D01*
X114625476Y-137922143D01*
X114673095Y-138017381D01*
X114387381Y-137112619D02*
X114387381Y-136493571D01*
X114768333Y-136826905D01*
X114768333Y-136684047D01*
X114815952Y-136588809D01*
X114863571Y-136541190D01*
X114958810Y-136493571D01*
X115196905Y-136493571D01*
X115292143Y-136541190D01*
X115339762Y-136588809D01*
X115387381Y-136684047D01*
X115387381Y-136969762D01*
X115339762Y-137065000D01*
X115292143Y-137112619D01*
X117641667Y-138874524D02*
X117641667Y-138398333D01*
X117927381Y-138969762D02*
X116927381Y-138636429D01*
X117927381Y-138303095D01*
X117927381Y-137445952D02*
X117927381Y-138017381D01*
X117927381Y-137731667D02*
X116927381Y-137731667D01*
X117070238Y-137826905D01*
X117165476Y-137922143D01*
X117213095Y-138017381D01*
X117022619Y-137065000D02*
X116975000Y-137017381D01*
X116927381Y-136922143D01*
X116927381Y-136684047D01*
X116975000Y-136588809D01*
X117022619Y-136541190D01*
X117117857Y-136493571D01*
X117213095Y-136493571D01*
X117355952Y-136541190D01*
X117927381Y-137112619D01*
X117927381Y-136493571D01*
X120181667Y-138874524D02*
X120181667Y-138398333D01*
X120467381Y-138969762D02*
X119467381Y-138636429D01*
X120467381Y-138303095D01*
X120467381Y-137445952D02*
X120467381Y-138017381D01*
X120467381Y-137731667D02*
X119467381Y-137731667D01*
X119610238Y-137826905D01*
X119705476Y-137922143D01*
X119753095Y-138017381D01*
X120467381Y-136493571D02*
X120467381Y-137065000D01*
X120467381Y-136779286D02*
X119467381Y-136779286D01*
X119610238Y-136874524D01*
X119705476Y-136969762D01*
X119753095Y-137065000D01*
X122721667Y-138874524D02*
X122721667Y-138398333D01*
X123007381Y-138969762D02*
X122007381Y-138636429D01*
X123007381Y-138303095D01*
X123007381Y-137445952D02*
X123007381Y-138017381D01*
X123007381Y-137731667D02*
X122007381Y-137731667D01*
X122150238Y-137826905D01*
X122245476Y-137922143D01*
X122293095Y-138017381D01*
X122007381Y-136826905D02*
X122007381Y-136731666D01*
X122055000Y-136636428D01*
X122102619Y-136588809D01*
X122197857Y-136541190D01*
X122388333Y-136493571D01*
X122626429Y-136493571D01*
X122816905Y-136541190D01*
X122912143Y-136588809D01*
X122959762Y-136636428D01*
X123007381Y-136731666D01*
X123007381Y-136826905D01*
X122959762Y-136922143D01*
X122912143Y-136969762D01*
X122816905Y-137017381D01*
X122626429Y-137065000D01*
X122388333Y-137065000D01*
X122197857Y-137017381D01*
X122102619Y-136969762D01*
X122055000Y-136922143D01*
X122007381Y-136826905D01*
X125261667Y-138874524D02*
X125261667Y-138398333D01*
X125547381Y-138969762D02*
X124547381Y-138636429D01*
X125547381Y-138303095D01*
X125547381Y-137922143D02*
X125547381Y-137731667D01*
X125499762Y-137636428D01*
X125452143Y-137588809D01*
X125309286Y-137493571D01*
X125118810Y-137445952D01*
X124737857Y-137445952D01*
X124642619Y-137493571D01*
X124595000Y-137541190D01*
X124547381Y-137636428D01*
X124547381Y-137826905D01*
X124595000Y-137922143D01*
X124642619Y-137969762D01*
X124737857Y-138017381D01*
X124975952Y-138017381D01*
X125071190Y-137969762D01*
X125118810Y-137922143D01*
X125166429Y-137826905D01*
X125166429Y-137636428D01*
X125118810Y-137541190D01*
X125071190Y-137493571D01*
X124975952Y-137445952D01*
X127801667Y-138874524D02*
X127801667Y-138398333D01*
X128087381Y-138969762D02*
X127087381Y-138636429D01*
X128087381Y-138303095D01*
X127515952Y-137826905D02*
X127468333Y-137922143D01*
X127420714Y-137969762D01*
X127325476Y-138017381D01*
X127277857Y-138017381D01*
X127182619Y-137969762D01*
X127135000Y-137922143D01*
X127087381Y-137826905D01*
X127087381Y-137636428D01*
X127135000Y-137541190D01*
X127182619Y-137493571D01*
X127277857Y-137445952D01*
X127325476Y-137445952D01*
X127420714Y-137493571D01*
X127468333Y-137541190D01*
X127515952Y-137636428D01*
X127515952Y-137826905D01*
X127563571Y-137922143D01*
X127611190Y-137969762D01*
X127706429Y-138017381D01*
X127896905Y-138017381D01*
X127992143Y-137969762D01*
X128039762Y-137922143D01*
X128087381Y-137826905D01*
X128087381Y-137636428D01*
X128039762Y-137541190D01*
X127992143Y-137493571D01*
X127896905Y-137445952D01*
X127706429Y-137445952D01*
X127611190Y-137493571D01*
X127563571Y-137541190D01*
X127515952Y-137636428D01*
X156027381Y-138826905D02*
X155027381Y-138826905D01*
X155027381Y-138588810D01*
X155075000Y-138445952D01*
X155170238Y-138350714D01*
X155265476Y-138303095D01*
X155455952Y-138255476D01*
X155598810Y-138255476D01*
X155789286Y-138303095D01*
X155884524Y-138350714D01*
X155979762Y-138445952D01*
X156027381Y-138588810D01*
X156027381Y-138826905D01*
X155027381Y-137922143D02*
X155027381Y-137255476D01*
X156027381Y-137684048D01*
X158567381Y-138826905D02*
X157567381Y-138826905D01*
X157567381Y-138588810D01*
X157615000Y-138445952D01*
X157710238Y-138350714D01*
X157805476Y-138303095D01*
X157995952Y-138255476D01*
X158138810Y-138255476D01*
X158329286Y-138303095D01*
X158424524Y-138350714D01*
X158519762Y-138445952D01*
X158567381Y-138588810D01*
X158567381Y-138826905D01*
X157567381Y-137398333D02*
X157567381Y-137588810D01*
X157615000Y-137684048D01*
X157662619Y-137731667D01*
X157805476Y-137826905D01*
X157995952Y-137874524D01*
X158376905Y-137874524D01*
X158472143Y-137826905D01*
X158519762Y-137779286D01*
X158567381Y-137684048D01*
X158567381Y-137493571D01*
X158519762Y-137398333D01*
X158472143Y-137350714D01*
X158376905Y-137303095D01*
X158138810Y-137303095D01*
X158043571Y-137350714D01*
X157995952Y-137398333D01*
X157948333Y-137493571D01*
X157948333Y-137684048D01*
X157995952Y-137779286D01*
X158043571Y-137826905D01*
X158138810Y-137874524D01*
X161107381Y-138826905D02*
X160107381Y-138826905D01*
X160107381Y-138588810D01*
X160155000Y-138445952D01*
X160250238Y-138350714D01*
X160345476Y-138303095D01*
X160535952Y-138255476D01*
X160678810Y-138255476D01*
X160869286Y-138303095D01*
X160964524Y-138350714D01*
X161059762Y-138445952D01*
X161107381Y-138588810D01*
X161107381Y-138826905D01*
X160107381Y-137350714D02*
X160107381Y-137826905D01*
X160583571Y-137874524D01*
X160535952Y-137826905D01*
X160488333Y-137731667D01*
X160488333Y-137493571D01*
X160535952Y-137398333D01*
X160583571Y-137350714D01*
X160678810Y-137303095D01*
X160916905Y-137303095D01*
X161012143Y-137350714D01*
X161059762Y-137398333D01*
X161107381Y-137493571D01*
X161107381Y-137731667D01*
X161059762Y-137826905D01*
X161012143Y-137874524D01*
X163647381Y-138826905D02*
X162647381Y-138826905D01*
X162647381Y-138588810D01*
X162695000Y-138445952D01*
X162790238Y-138350714D01*
X162885476Y-138303095D01*
X163075952Y-138255476D01*
X163218810Y-138255476D01*
X163409286Y-138303095D01*
X163504524Y-138350714D01*
X163599762Y-138445952D01*
X163647381Y-138588810D01*
X163647381Y-138826905D01*
X162980714Y-137398333D02*
X163647381Y-137398333D01*
X162599762Y-137636429D02*
X163314048Y-137874524D01*
X163314048Y-137255476D01*
X166187381Y-138826905D02*
X165187381Y-138826905D01*
X165187381Y-138588810D01*
X165235000Y-138445952D01*
X165330238Y-138350714D01*
X165425476Y-138303095D01*
X165615952Y-138255476D01*
X165758810Y-138255476D01*
X165949286Y-138303095D01*
X166044524Y-138350714D01*
X166139762Y-138445952D01*
X166187381Y-138588810D01*
X166187381Y-138826905D01*
X165187381Y-137922143D02*
X165187381Y-137303095D01*
X165568333Y-137636429D01*
X165568333Y-137493571D01*
X165615952Y-137398333D01*
X165663571Y-137350714D01*
X165758810Y-137303095D01*
X165996905Y-137303095D01*
X166092143Y-137350714D01*
X166139762Y-137398333D01*
X166187381Y-137493571D01*
X166187381Y-137779286D01*
X166139762Y-137874524D01*
X166092143Y-137922143D01*
X168727381Y-138826905D02*
X167727381Y-138826905D01*
X167727381Y-138588810D01*
X167775000Y-138445952D01*
X167870238Y-138350714D01*
X167965476Y-138303095D01*
X168155952Y-138255476D01*
X168298810Y-138255476D01*
X168489286Y-138303095D01*
X168584524Y-138350714D01*
X168679762Y-138445952D01*
X168727381Y-138588810D01*
X168727381Y-138826905D01*
X167822619Y-137874524D02*
X167775000Y-137826905D01*
X167727381Y-137731667D01*
X167727381Y-137493571D01*
X167775000Y-137398333D01*
X167822619Y-137350714D01*
X167917857Y-137303095D01*
X168013095Y-137303095D01*
X168155952Y-137350714D01*
X168727381Y-137922143D01*
X168727381Y-137303095D01*
X171267381Y-138826905D02*
X170267381Y-138826905D01*
X170267381Y-138588810D01*
X170315000Y-138445952D01*
X170410238Y-138350714D01*
X170505476Y-138303095D01*
X170695952Y-138255476D01*
X170838810Y-138255476D01*
X171029286Y-138303095D01*
X171124524Y-138350714D01*
X171219762Y-138445952D01*
X171267381Y-138588810D01*
X171267381Y-138826905D01*
X171267381Y-137303095D02*
X171267381Y-137874524D01*
X171267381Y-137588810D02*
X170267381Y-137588810D01*
X170410238Y-137684048D01*
X170505476Y-137779286D01*
X170553095Y-137874524D01*
X173807381Y-138826905D02*
X172807381Y-138826905D01*
X172807381Y-138588810D01*
X172855000Y-138445952D01*
X172950238Y-138350714D01*
X173045476Y-138303095D01*
X173235952Y-138255476D01*
X173378810Y-138255476D01*
X173569286Y-138303095D01*
X173664524Y-138350714D01*
X173759762Y-138445952D01*
X173807381Y-138588810D01*
X173807381Y-138826905D01*
X172807381Y-137636429D02*
X172807381Y-137541190D01*
X172855000Y-137445952D01*
X172902619Y-137398333D01*
X172997857Y-137350714D01*
X173188333Y-137303095D01*
X173426429Y-137303095D01*
X173616905Y-137350714D01*
X173712143Y-137398333D01*
X173759762Y-137445952D01*
X173807381Y-137541190D01*
X173807381Y-137636429D01*
X173759762Y-137731667D01*
X173712143Y-137779286D01*
X173616905Y-137826905D01*
X173426429Y-137874524D01*
X173188333Y-137874524D01*
X172997857Y-137826905D01*
X172902619Y-137779286D01*
X172855000Y-137731667D01*
X172807381Y-137636429D01*
X132881667Y-138874524D02*
X132881667Y-138398333D01*
X133167381Y-138969762D02*
X132167381Y-138636429D01*
X133167381Y-138303095D01*
X132167381Y-138065000D02*
X132167381Y-137398333D01*
X133167381Y-137826905D01*
X135421667Y-138874524D02*
X135421667Y-138398333D01*
X135707381Y-138969762D02*
X134707381Y-138636429D01*
X135707381Y-138303095D01*
X134707381Y-137541190D02*
X134707381Y-137731667D01*
X134755000Y-137826905D01*
X134802619Y-137874524D01*
X134945476Y-137969762D01*
X135135952Y-138017381D01*
X135516905Y-138017381D01*
X135612143Y-137969762D01*
X135659762Y-137922143D01*
X135707381Y-137826905D01*
X135707381Y-137636428D01*
X135659762Y-137541190D01*
X135612143Y-137493571D01*
X135516905Y-137445952D01*
X135278810Y-137445952D01*
X135183571Y-137493571D01*
X135135952Y-137541190D01*
X135088333Y-137636428D01*
X135088333Y-137826905D01*
X135135952Y-137922143D01*
X135183571Y-137969762D01*
X135278810Y-138017381D01*
X137961667Y-138874524D02*
X137961667Y-138398333D01*
X138247381Y-138969762D02*
X137247381Y-138636429D01*
X138247381Y-138303095D01*
X137247381Y-137493571D02*
X137247381Y-137969762D01*
X137723571Y-138017381D01*
X137675952Y-137969762D01*
X137628333Y-137874524D01*
X137628333Y-137636428D01*
X137675952Y-137541190D01*
X137723571Y-137493571D01*
X137818810Y-137445952D01*
X138056905Y-137445952D01*
X138152143Y-137493571D01*
X138199762Y-137541190D01*
X138247381Y-137636428D01*
X138247381Y-137874524D01*
X138199762Y-137969762D01*
X138152143Y-138017381D01*
X140501667Y-138874524D02*
X140501667Y-138398333D01*
X140787381Y-138969762D02*
X139787381Y-138636429D01*
X140787381Y-138303095D01*
X140120714Y-137541190D02*
X140787381Y-137541190D01*
X139739762Y-137779286D02*
X140454048Y-138017381D01*
X140454048Y-137398333D01*
X143041667Y-138874524D02*
X143041667Y-138398333D01*
X143327381Y-138969762D02*
X142327381Y-138636429D01*
X143327381Y-138303095D01*
X142327381Y-138065000D02*
X142327381Y-137445952D01*
X142708333Y-137779286D01*
X142708333Y-137636428D01*
X142755952Y-137541190D01*
X142803571Y-137493571D01*
X142898810Y-137445952D01*
X143136905Y-137445952D01*
X143232143Y-137493571D01*
X143279762Y-137541190D01*
X143327381Y-137636428D01*
X143327381Y-137922143D01*
X143279762Y-138017381D01*
X143232143Y-138065000D01*
X145581667Y-138874524D02*
X145581667Y-138398333D01*
X145867381Y-138969762D02*
X144867381Y-138636429D01*
X145867381Y-138303095D01*
X144962619Y-138017381D02*
X144915000Y-137969762D01*
X144867381Y-137874524D01*
X144867381Y-137636428D01*
X144915000Y-137541190D01*
X144962619Y-137493571D01*
X145057857Y-137445952D01*
X145153095Y-137445952D01*
X145295952Y-137493571D01*
X145867381Y-138065000D01*
X145867381Y-137445952D01*
X148121667Y-138874524D02*
X148121667Y-138398333D01*
X148407381Y-138969762D02*
X147407381Y-138636429D01*
X148407381Y-138303095D01*
X148407381Y-137445952D02*
X148407381Y-138017381D01*
X148407381Y-137731667D02*
X147407381Y-137731667D01*
X147550238Y-137826905D01*
X147645476Y-137922143D01*
X147693095Y-138017381D01*
X150661667Y-138874524D02*
X150661667Y-138398333D01*
X150947381Y-138969762D02*
X149947381Y-138636429D01*
X150947381Y-138303095D01*
X149947381Y-137779286D02*
X149947381Y-137684047D01*
X149995000Y-137588809D01*
X150042619Y-137541190D01*
X150137857Y-137493571D01*
X150328333Y-137445952D01*
X150566429Y-137445952D01*
X150756905Y-137493571D01*
X150852143Y-137541190D01*
X150899762Y-137588809D01*
X150947381Y-137684047D01*
X150947381Y-137779286D01*
X150899762Y-137874524D01*
X150852143Y-137922143D01*
X150756905Y-137969762D01*
X150566429Y-138017381D01*
X150328333Y-138017381D01*
X150137857Y-137969762D01*
X150042619Y-137922143D01*
X149995000Y-137874524D01*
X149947381Y-137779286D01*
D11*
X118332143Y-58942857D02*
X118546429Y-59014286D01*
X118617857Y-59085714D01*
X118689286Y-59228571D01*
X118689286Y-59442857D01*
X118617857Y-59585714D01*
X118546429Y-59657143D01*
X118403571Y-59728571D01*
X117832143Y-59728571D01*
X117832143Y-58228571D01*
X118332143Y-58228571D01*
X118475000Y-58300000D01*
X118546429Y-58371429D01*
X118617857Y-58514286D01*
X118617857Y-58657143D01*
X118546429Y-58800000D01*
X118475000Y-58871429D01*
X118332143Y-58942857D01*
X117832143Y-58942857D01*
X119975000Y-58728571D02*
X119975000Y-59728571D01*
X119332143Y-58728571D02*
X119332143Y-59514286D01*
X119403571Y-59657143D01*
X119546429Y-59728571D01*
X119760714Y-59728571D01*
X119903571Y-59657143D01*
X119975000Y-59585714D01*
X119832143Y-58157143D02*
X119617857Y-58371429D01*
X120689286Y-59728571D02*
X120689286Y-58728571D01*
X120689286Y-59014286D02*
X120760714Y-58871429D01*
X120832143Y-58800000D01*
X120975000Y-58728571D01*
X121117857Y-58728571D01*
X121617857Y-59728571D02*
X121617857Y-58728571D01*
X121617857Y-58228571D02*
X121546428Y-58300000D01*
X121617857Y-58371429D01*
X121689285Y-58300000D01*
X121617857Y-58228571D01*
X121617857Y-58371429D01*
X123475000Y-59728571D02*
X123475000Y-58228571D01*
X123975000Y-59300000D01*
X124475000Y-58228571D01*
X124475000Y-59728571D01*
X125189286Y-59728571D02*
X125189286Y-58728571D01*
X125189286Y-58228571D02*
X125117857Y-58300000D01*
X125189286Y-58371429D01*
X125260714Y-58300000D01*
X125189286Y-58228571D01*
X125189286Y-58371429D01*
X126546429Y-59657143D02*
X126403572Y-59728571D01*
X126117858Y-59728571D01*
X125975000Y-59657143D01*
X125903572Y-59585714D01*
X125832143Y-59442857D01*
X125832143Y-59014286D01*
X125903572Y-58871429D01*
X125975000Y-58800000D01*
X126117858Y-58728571D01*
X126403572Y-58728571D01*
X126546429Y-58800000D01*
X127189286Y-59728571D02*
X127189286Y-58728571D01*
X127189286Y-59014286D02*
X127260714Y-58871429D01*
X127332143Y-58800000D01*
X127475000Y-58728571D01*
X127617857Y-58728571D01*
X128332143Y-59728571D02*
X128189285Y-59657143D01*
X128117857Y-59585714D01*
X128046428Y-59442857D01*
X128046428Y-59014286D01*
X128117857Y-58871429D01*
X128189285Y-58800000D01*
X128332143Y-58728571D01*
X128546428Y-58728571D01*
X128689285Y-58800000D01*
X128760714Y-58871429D01*
X128832143Y-59014286D01*
X128832143Y-59442857D01*
X128760714Y-59585714D01*
X128689285Y-59657143D01*
X128546428Y-59728571D01*
X128332143Y-59728571D01*
X130117857Y-59657143D02*
X129975000Y-59728571D01*
X129689286Y-59728571D01*
X129546428Y-59657143D01*
X129475000Y-59585714D01*
X129403571Y-59442857D01*
X129403571Y-59014286D01*
X129475000Y-58871429D01*
X129546428Y-58800000D01*
X129689286Y-58728571D01*
X129975000Y-58728571D01*
X130117857Y-58800000D01*
X130975000Y-59728571D02*
X130832142Y-59657143D01*
X130760714Y-59585714D01*
X130689285Y-59442857D01*
X130689285Y-59014286D01*
X130760714Y-58871429D01*
X130832142Y-58800000D01*
X130975000Y-58728571D01*
X131189285Y-58728571D01*
X131332142Y-58800000D01*
X131403571Y-58871429D01*
X131475000Y-59014286D01*
X131475000Y-59442857D01*
X131403571Y-59585714D01*
X131332142Y-59657143D01*
X131189285Y-59728571D01*
X130975000Y-59728571D01*
X132117857Y-59728571D02*
X132117857Y-58728571D01*
X132117857Y-58871429D02*
X132189285Y-58800000D01*
X132332143Y-58728571D01*
X132546428Y-58728571D01*
X132689285Y-58800000D01*
X132760714Y-58942857D01*
X132760714Y-59728571D01*
X132760714Y-58942857D02*
X132832143Y-58800000D01*
X132975000Y-58728571D01*
X133189285Y-58728571D01*
X133332143Y-58800000D01*
X133403571Y-58942857D01*
X133403571Y-59728571D01*
X134117857Y-58728571D02*
X134117857Y-60228571D01*
X134117857Y-58800000D02*
X134260714Y-58728571D01*
X134546428Y-58728571D01*
X134689285Y-58800000D01*
X134760714Y-58871429D01*
X134832143Y-59014286D01*
X134832143Y-59442857D01*
X134760714Y-59585714D01*
X134689285Y-59657143D01*
X134546428Y-59728571D01*
X134260714Y-59728571D01*
X134117857Y-59657143D01*
X136117857Y-58728571D02*
X136117857Y-59728571D01*
X135475000Y-58728571D02*
X135475000Y-59514286D01*
X135546428Y-59657143D01*
X135689286Y-59728571D01*
X135903571Y-59728571D01*
X136046428Y-59657143D01*
X136117857Y-59585714D01*
X136617857Y-58728571D02*
X137189286Y-58728571D01*
X136832143Y-58228571D02*
X136832143Y-59514286D01*
X136903571Y-59657143D01*
X137046429Y-59728571D01*
X137189286Y-59728571D01*
X138260714Y-59657143D02*
X138117857Y-59728571D01*
X137832143Y-59728571D01*
X137689286Y-59657143D01*
X137617857Y-59514286D01*
X137617857Y-58942857D01*
X137689286Y-58800000D01*
X137832143Y-58728571D01*
X138117857Y-58728571D01*
X138260714Y-58800000D01*
X138332143Y-58942857D01*
X138332143Y-59085714D01*
X137617857Y-59228571D01*
X138975000Y-59728571D02*
X138975000Y-58728571D01*
X138975000Y-59014286D02*
X139046428Y-58871429D01*
X139117857Y-58800000D01*
X139260714Y-58728571D01*
X139403571Y-58728571D01*
X117832143Y-62278571D02*
X117832143Y-60778571D01*
X118332143Y-61850000D01*
X118832143Y-60778571D01*
X118832143Y-62278571D01*
X120189286Y-62278571D02*
X120189286Y-61492857D01*
X120117857Y-61350000D01*
X119975000Y-61278571D01*
X119689286Y-61278571D01*
X119546429Y-61350000D01*
X120189286Y-62207143D02*
X120046429Y-62278571D01*
X119689286Y-62278571D01*
X119546429Y-62207143D01*
X119475000Y-62064286D01*
X119475000Y-61921429D01*
X119546429Y-61778571D01*
X119689286Y-61707143D01*
X120046429Y-61707143D01*
X120189286Y-61635714D01*
X120903572Y-62278571D02*
X120903572Y-61278571D01*
X120903572Y-60778571D02*
X120832143Y-60850000D01*
X120903572Y-60921429D01*
X120975000Y-60850000D01*
X120903572Y-60778571D01*
X120903572Y-60921429D01*
X121617858Y-61278571D02*
X121617858Y-62278571D01*
X121617858Y-61421429D02*
X121689286Y-61350000D01*
X121832144Y-61278571D01*
X122046429Y-61278571D01*
X122189286Y-61350000D01*
X122260715Y-61492857D01*
X122260715Y-62278571D01*
X124117858Y-62278571D02*
X124117858Y-60778571D01*
X124689286Y-60778571D01*
X124832144Y-60850000D01*
X124903572Y-60921429D01*
X124975001Y-61064286D01*
X124975001Y-61278571D01*
X124903572Y-61421429D01*
X124832144Y-61492857D01*
X124689286Y-61564286D01*
X124117858Y-61564286D01*
X125617858Y-62278571D02*
X125617858Y-61278571D01*
X125617858Y-61564286D02*
X125689286Y-61421429D01*
X125760715Y-61350000D01*
X125903572Y-61278571D01*
X126046429Y-61278571D01*
X126760715Y-62278571D02*
X126617857Y-62207143D01*
X126546429Y-62135714D01*
X126475000Y-61992857D01*
X126475000Y-61564286D01*
X126546429Y-61421429D01*
X126617857Y-61350000D01*
X126760715Y-61278571D01*
X126975000Y-61278571D01*
X127117857Y-61350000D01*
X127189286Y-61421429D01*
X127260715Y-61564286D01*
X127260715Y-61992857D01*
X127189286Y-62135714D01*
X127117857Y-62207143D01*
X126975000Y-62278571D01*
X126760715Y-62278571D01*
X128546429Y-62207143D02*
X128403572Y-62278571D01*
X128117858Y-62278571D01*
X127975000Y-62207143D01*
X127903572Y-62135714D01*
X127832143Y-61992857D01*
X127832143Y-61564286D01*
X127903572Y-61421429D01*
X127975000Y-61350000D01*
X128117858Y-61278571D01*
X128403572Y-61278571D01*
X128546429Y-61350000D01*
X129760714Y-62207143D02*
X129617857Y-62278571D01*
X129332143Y-62278571D01*
X129189286Y-62207143D01*
X129117857Y-62064286D01*
X129117857Y-61492857D01*
X129189286Y-61350000D01*
X129332143Y-61278571D01*
X129617857Y-61278571D01*
X129760714Y-61350000D01*
X129832143Y-61492857D01*
X129832143Y-61635714D01*
X129117857Y-61778571D01*
X130403571Y-62207143D02*
X130546428Y-62278571D01*
X130832143Y-62278571D01*
X130975000Y-62207143D01*
X131046428Y-62064286D01*
X131046428Y-61992857D01*
X130975000Y-61850000D01*
X130832143Y-61778571D01*
X130617857Y-61778571D01*
X130475000Y-61707143D01*
X130403571Y-61564286D01*
X130403571Y-61492857D01*
X130475000Y-61350000D01*
X130617857Y-61278571D01*
X130832143Y-61278571D01*
X130975000Y-61350000D01*
X131617857Y-62207143D02*
X131760714Y-62278571D01*
X132046429Y-62278571D01*
X132189286Y-62207143D01*
X132260714Y-62064286D01*
X132260714Y-61992857D01*
X132189286Y-61850000D01*
X132046429Y-61778571D01*
X131832143Y-61778571D01*
X131689286Y-61707143D01*
X131617857Y-61564286D01*
X131617857Y-61492857D01*
X131689286Y-61350000D01*
X131832143Y-61278571D01*
X132046429Y-61278571D01*
X132189286Y-61350000D01*
X133117858Y-62278571D02*
X132975000Y-62207143D01*
X132903572Y-62135714D01*
X132832143Y-61992857D01*
X132832143Y-61564286D01*
X132903572Y-61421429D01*
X132975000Y-61350000D01*
X133117858Y-61278571D01*
X133332143Y-61278571D01*
X133475000Y-61350000D01*
X133546429Y-61421429D01*
X133617858Y-61564286D01*
X133617858Y-61992857D01*
X133546429Y-62135714D01*
X133475000Y-62207143D01*
X133332143Y-62278571D01*
X133117858Y-62278571D01*
X134260715Y-62278571D02*
X134260715Y-61278571D01*
X134260715Y-61564286D02*
X134332143Y-61421429D01*
X134403572Y-61350000D01*
X134546429Y-61278571D01*
X134689286Y-61278571D01*
X136832143Y-61492857D02*
X137046429Y-61564286D01*
X137117857Y-61635714D01*
X137189286Y-61778571D01*
X137189286Y-61992857D01*
X137117857Y-62135714D01*
X137046429Y-62207143D01*
X136903571Y-62278571D01*
X136332143Y-62278571D01*
X136332143Y-60778571D01*
X136832143Y-60778571D01*
X136975000Y-60850000D01*
X137046429Y-60921429D01*
X137117857Y-61064286D01*
X137117857Y-61207143D01*
X137046429Y-61350000D01*
X136975000Y-61421429D01*
X136832143Y-61492857D01*
X136332143Y-61492857D01*
X138046429Y-62278571D02*
X137903571Y-62207143D01*
X137832143Y-62135714D01*
X137760714Y-61992857D01*
X137760714Y-61564286D01*
X137832143Y-61421429D01*
X137903571Y-61350000D01*
X138046429Y-61278571D01*
X138260714Y-61278571D01*
X138403571Y-61350000D01*
X138475000Y-61421429D01*
X138546429Y-61564286D01*
X138546429Y-61992857D01*
X138475000Y-62135714D01*
X138403571Y-62207143D01*
X138260714Y-62278571D01*
X138046429Y-62278571D01*
X139832143Y-62278571D02*
X139832143Y-61492857D01*
X139760714Y-61350000D01*
X139617857Y-61278571D01*
X139332143Y-61278571D01*
X139189286Y-61350000D01*
X139832143Y-62207143D02*
X139689286Y-62278571D01*
X139332143Y-62278571D01*
X139189286Y-62207143D01*
X139117857Y-62064286D01*
X139117857Y-61921429D01*
X139189286Y-61778571D01*
X139332143Y-61707143D01*
X139689286Y-61707143D01*
X139832143Y-61635714D01*
X140546429Y-62278571D02*
X140546429Y-61278571D01*
X140546429Y-61564286D02*
X140617857Y-61421429D01*
X140689286Y-61350000D01*
X140832143Y-61278571D01*
X140975000Y-61278571D01*
X142117857Y-62278571D02*
X142117857Y-60778571D01*
X142117857Y-62207143D02*
X141975000Y-62278571D01*
X141689286Y-62278571D01*
X141546428Y-62207143D01*
X141475000Y-62135714D01*
X141403571Y-61992857D01*
X141403571Y-61564286D01*
X141475000Y-61421429D01*
X141546428Y-61350000D01*
X141689286Y-61278571D01*
X141975000Y-61278571D01*
X142117857Y-61350000D01*
X143832143Y-61278571D02*
X144189286Y-62278571D01*
X144546428Y-61278571D01*
X144975000Y-60778571D02*
X145903571Y-60778571D01*
X145403571Y-61350000D01*
X145617857Y-61350000D01*
X145760714Y-61421429D01*
X145832143Y-61492857D01*
X145903571Y-61635714D01*
X145903571Y-61992857D01*
X145832143Y-62135714D01*
X145760714Y-62207143D01*
X145617857Y-62278571D01*
X145189285Y-62278571D01*
X145046428Y-62207143D01*
X144975000Y-62135714D01*
X146546428Y-62135714D02*
X146617856Y-62207143D01*
X146546428Y-62278571D01*
X146474999Y-62207143D01*
X146546428Y-62135714D01*
X146546428Y-62278571D01*
X148046428Y-62278571D02*
X147189285Y-62278571D01*
X147617857Y-62278571D02*
X147617857Y-60778571D01*
X147475000Y-60992857D01*
X147332142Y-61135714D01*
X147189285Y-61207143D01*
D13*
X173926905Y-63745714D02*
X173888810Y-63783810D01*
X173774524Y-63821905D01*
X173698334Y-63821905D01*
X173584048Y-63783810D01*
X173507857Y-63707619D01*
X173469762Y-63631429D01*
X173431667Y-63479048D01*
X173431667Y-63364762D01*
X173469762Y-63212381D01*
X173507857Y-63136190D01*
X173584048Y-63060000D01*
X173698334Y-63021905D01*
X173774524Y-63021905D01*
X173888810Y-63060000D01*
X173926905Y-63098095D01*
X174650715Y-63821905D02*
X174269762Y-63821905D01*
X174269762Y-63021905D01*
X175069762Y-63021905D02*
X175222143Y-63021905D01*
X175298334Y-63060000D01*
X175374524Y-63136190D01*
X175412619Y-63288571D01*
X175412619Y-63555238D01*
X175374524Y-63707619D01*
X175298334Y-63783810D01*
X175222143Y-63821905D01*
X175069762Y-63821905D01*
X174993572Y-63783810D01*
X174917381Y-63707619D01*
X174879286Y-63555238D01*
X174879286Y-63288571D01*
X174917381Y-63136190D01*
X174993572Y-63060000D01*
X175069762Y-63021905D01*
X176212619Y-63745714D02*
X176174524Y-63783810D01*
X176060238Y-63821905D01*
X175984048Y-63821905D01*
X175869762Y-63783810D01*
X175793571Y-63707619D01*
X175755476Y-63631429D01*
X175717381Y-63479048D01*
X175717381Y-63364762D01*
X175755476Y-63212381D01*
X175793571Y-63136190D01*
X175869762Y-63060000D01*
X175984048Y-63021905D01*
X176060238Y-63021905D01*
X176174524Y-63060000D01*
X176212619Y-63098095D01*
X176555476Y-63821905D02*
X176555476Y-63021905D01*
X177012619Y-63821905D02*
X176669762Y-63364762D01*
X177012619Y-63021905D02*
X176555476Y-63479048D01*
X172936428Y-64752857D02*
X173203095Y-64752857D01*
X173317381Y-65171905D02*
X172936428Y-65171905D01*
X172936428Y-64371905D01*
X173317381Y-64371905D01*
X173660238Y-65171905D02*
X173660238Y-64371905D01*
X174117381Y-65171905D01*
X174117381Y-64371905D01*
X174460238Y-64943333D02*
X174841190Y-64943333D01*
X174384047Y-65171905D02*
X174650714Y-64371905D01*
X174917381Y-65171905D01*
X175450714Y-64752857D02*
X175565000Y-64790952D01*
X175603095Y-64829048D01*
X175641190Y-64905238D01*
X175641190Y-65019524D01*
X175603095Y-65095714D01*
X175565000Y-65133810D01*
X175488809Y-65171905D01*
X175184047Y-65171905D01*
X175184047Y-64371905D01*
X175450714Y-64371905D01*
X175526904Y-64410000D01*
X175565000Y-64448095D01*
X175603095Y-64524286D01*
X175603095Y-64600476D01*
X175565000Y-64676667D01*
X175526904Y-64714762D01*
X175450714Y-64752857D01*
X175184047Y-64752857D01*
X176365000Y-65171905D02*
X175984047Y-65171905D01*
X175984047Y-64371905D01*
X176631666Y-64752857D02*
X176898333Y-64752857D01*
X177012619Y-65171905D02*
X176631666Y-65171905D01*
X176631666Y-64371905D01*
X177012619Y-64371905D01*
D11*
X168718571Y-135532857D02*
X169932857Y-135532857D01*
X170075714Y-135461429D01*
X170147143Y-135390000D01*
X170218571Y-135247143D01*
X170218571Y-134961429D01*
X170147143Y-134818571D01*
X170075714Y-134747143D01*
X169932857Y-134675714D01*
X168718571Y-134675714D01*
X169790000Y-134032857D02*
X169790000Y-133318571D01*
X170218571Y-134175714D02*
X168718571Y-133675714D01*
X170218571Y-133175714D01*
X170218571Y-131818571D02*
X169504286Y-132318571D01*
X170218571Y-132675714D02*
X168718571Y-132675714D01*
X168718571Y-132104286D01*
X168790000Y-131961428D01*
X168861429Y-131890000D01*
X169004286Y-131818571D01*
X169218571Y-131818571D01*
X169361429Y-131890000D01*
X169432857Y-131961428D01*
X169504286Y-132104286D01*
X169504286Y-132675714D01*
X168718571Y-131390000D02*
X168718571Y-130532857D01*
X170218571Y-130961428D02*
X168718571Y-130961428D01*
X170218571Y-128247143D02*
X169432857Y-128247143D01*
X169290000Y-128318572D01*
X169218571Y-128461429D01*
X169218571Y-128747143D01*
X169290000Y-128890000D01*
X170147143Y-128247143D02*
X170218571Y-128390000D01*
X170218571Y-128747143D01*
X170147143Y-128890000D01*
X170004286Y-128961429D01*
X169861429Y-128961429D01*
X169718571Y-128890000D01*
X169647143Y-128747143D01*
X169647143Y-128390000D01*
X169575714Y-128247143D01*
X169218571Y-127747143D02*
X169218571Y-127175714D01*
X168718571Y-127532857D02*
X170004286Y-127532857D01*
X170147143Y-127461429D01*
X170218571Y-127318571D01*
X170218571Y-127175714D01*
X172697143Y-135604286D02*
X172768571Y-135390000D01*
X172768571Y-135032857D01*
X172697143Y-134890000D01*
X172625714Y-134818571D01*
X172482857Y-134747143D01*
X172340000Y-134747143D01*
X172197143Y-134818571D01*
X172125714Y-134890000D01*
X172054286Y-135032857D01*
X171982857Y-135318571D01*
X171911429Y-135461429D01*
X171840000Y-135532857D01*
X171697143Y-135604286D01*
X171554286Y-135604286D01*
X171411429Y-135532857D01*
X171340000Y-135461429D01*
X171268571Y-135318571D01*
X171268571Y-134961429D01*
X171340000Y-134747143D01*
X171054286Y-135175714D02*
X172982857Y-135175714D01*
X171268571Y-133818572D02*
X171268571Y-133675715D01*
X171340000Y-133532858D01*
X171411429Y-133461429D01*
X171554286Y-133390000D01*
X171840000Y-133318572D01*
X172197143Y-133318572D01*
X172482857Y-133390000D01*
X172625714Y-133461429D01*
X172697143Y-133532858D01*
X172768571Y-133675715D01*
X172768571Y-133818572D01*
X172697143Y-133961429D01*
X172625714Y-134032858D01*
X172482857Y-134104286D01*
X172197143Y-134175715D01*
X171840000Y-134175715D01*
X171554286Y-134104286D01*
X171411429Y-134032858D01*
X171340000Y-133961429D01*
X171268571Y-133818572D01*
X171268571Y-132390001D02*
X171268571Y-132247144D01*
X171340000Y-132104287D01*
X171411429Y-132032858D01*
X171554286Y-131961429D01*
X171840000Y-131890001D01*
X172197143Y-131890001D01*
X172482857Y-131961429D01*
X172625714Y-132032858D01*
X172697143Y-132104287D01*
X172768571Y-132247144D01*
X172768571Y-132390001D01*
X172697143Y-132532858D01*
X172625714Y-132604287D01*
X172482857Y-132675715D01*
X172197143Y-132747144D01*
X171840000Y-132747144D01*
X171554286Y-132675715D01*
X171411429Y-132604287D01*
X171340000Y-132532858D01*
X171268571Y-132390001D01*
X172768571Y-131247144D02*
X171268571Y-131247144D01*
X171268571Y-130890001D01*
X171340000Y-130675716D01*
X171482857Y-130532858D01*
X171625714Y-130461430D01*
X171911429Y-130390001D01*
X172125714Y-130390001D01*
X172411429Y-130461430D01*
X172554286Y-130532858D01*
X172697143Y-130675716D01*
X172768571Y-130890001D01*
X172768571Y-131247144D01*
X171982857Y-129247144D02*
X171982857Y-129747144D01*
X172768571Y-129747144D02*
X171268571Y-129747144D01*
X171268571Y-129032858D01*
X171911429Y-128247144D02*
X171840000Y-128390002D01*
X171768571Y-128461430D01*
X171625714Y-128532859D01*
X171554286Y-128532859D01*
X171411429Y-128461430D01*
X171340000Y-128390002D01*
X171268571Y-128247144D01*
X171268571Y-127961430D01*
X171340000Y-127818573D01*
X171411429Y-127747144D01*
X171554286Y-127675716D01*
X171625714Y-127675716D01*
X171768571Y-127747144D01*
X171840000Y-127818573D01*
X171911429Y-127961430D01*
X171911429Y-128247144D01*
X171982857Y-128390002D01*
X172054286Y-128461430D01*
X172197143Y-128532859D01*
X172482857Y-128532859D01*
X172625714Y-128461430D01*
X172697143Y-128390002D01*
X172768571Y-128247144D01*
X172768571Y-127961430D01*
X172697143Y-127818573D01*
X172625714Y-127747144D01*
X172482857Y-127675716D01*
X172197143Y-127675716D01*
X172054286Y-127747144D01*
X171982857Y-127818573D01*
X171911429Y-127961430D01*
X171268571Y-126747145D02*
X171268571Y-126604288D01*
X171340000Y-126461431D01*
X171411429Y-126390002D01*
X171554286Y-126318573D01*
X171840000Y-126247145D01*
X172197143Y-126247145D01*
X172482857Y-126318573D01*
X172625714Y-126390002D01*
X172697143Y-126461431D01*
X172768571Y-126604288D01*
X172768571Y-126747145D01*
X172697143Y-126890002D01*
X172625714Y-126961431D01*
X172482857Y-127032859D01*
X172197143Y-127104288D01*
X171840000Y-127104288D01*
X171554286Y-127032859D01*
X171411429Y-126961431D01*
X171340000Y-126890002D01*
X171268571Y-126747145D01*
X172197143Y-125604288D02*
X172197143Y-124461431D01*
X171982857Y-123247145D02*
X171982857Y-123747145D01*
X172768571Y-123747145D02*
X171268571Y-123747145D01*
X171268571Y-123032859D01*
X171982857Y-121961431D02*
X171982857Y-122461431D01*
X172768571Y-122461431D02*
X171268571Y-122461431D01*
X171268571Y-121747145D01*
X124498571Y-135532857D02*
X122998571Y-135532857D01*
X122998571Y-134532857D02*
X122998571Y-134247143D01*
X123070000Y-134104285D01*
X123212857Y-133961428D01*
X123498571Y-133890000D01*
X123998571Y-133890000D01*
X124284286Y-133961428D01*
X124427143Y-134104285D01*
X124498571Y-134247143D01*
X124498571Y-134532857D01*
X124427143Y-134675714D01*
X124284286Y-134818571D01*
X123998571Y-134890000D01*
X123498571Y-134890000D01*
X123212857Y-134818571D01*
X123070000Y-134675714D01*
X122998571Y-134532857D01*
X124427143Y-133318571D02*
X124498571Y-133104285D01*
X124498571Y-132747142D01*
X124427143Y-132604285D01*
X124355714Y-132532856D01*
X124212857Y-132461428D01*
X124070000Y-132461428D01*
X123927143Y-132532856D01*
X123855714Y-132604285D01*
X123784286Y-132747142D01*
X123712857Y-133032856D01*
X123641429Y-133175714D01*
X123570000Y-133247142D01*
X123427143Y-133318571D01*
X123284286Y-133318571D01*
X123141429Y-133247142D01*
X123070000Y-133175714D01*
X122998571Y-133032856D01*
X122998571Y-132675714D01*
X123070000Y-132461428D01*
X122740000Y-135890000D02*
X122740000Y-132175714D01*
X123498571Y-130675714D02*
X124998571Y-130675714D01*
X123570000Y-130675714D02*
X123498571Y-130532857D01*
X123498571Y-130247143D01*
X123570000Y-130104286D01*
X123641429Y-130032857D01*
X123784286Y-129961428D01*
X124212857Y-129961428D01*
X124355714Y-130032857D01*
X124427143Y-130104286D01*
X124498571Y-130247143D01*
X124498571Y-130532857D01*
X124427143Y-130675714D01*
X124498571Y-128675714D02*
X123712857Y-128675714D01*
X123570000Y-128747143D01*
X123498571Y-128890000D01*
X123498571Y-129175714D01*
X123570000Y-129318571D01*
X124427143Y-128675714D02*
X124498571Y-128818571D01*
X124498571Y-129175714D01*
X124427143Y-129318571D01*
X124284286Y-129390000D01*
X124141429Y-129390000D01*
X123998571Y-129318571D01*
X123927143Y-129175714D01*
X123927143Y-128818571D01*
X123855714Y-128675714D01*
X123498571Y-127318571D02*
X124712857Y-127318571D01*
X124855714Y-127390000D01*
X124927143Y-127461428D01*
X124998571Y-127604285D01*
X124998571Y-127818571D01*
X124927143Y-127961428D01*
X124427143Y-127318571D02*
X124498571Y-127461428D01*
X124498571Y-127747142D01*
X124427143Y-127890000D01*
X124355714Y-127961428D01*
X124212857Y-128032857D01*
X123784286Y-128032857D01*
X123641429Y-127961428D01*
X123570000Y-127890000D01*
X123498571Y-127747142D01*
X123498571Y-127461428D01*
X123570000Y-127318571D01*
X124427143Y-126032857D02*
X124498571Y-126175714D01*
X124498571Y-126461428D01*
X124427143Y-126604285D01*
X124284286Y-126675714D01*
X123712857Y-126675714D01*
X123570000Y-126604285D01*
X123498571Y-126461428D01*
X123498571Y-126175714D01*
X123570000Y-126032857D01*
X123712857Y-125961428D01*
X123855714Y-125961428D01*
X123998571Y-126675714D01*
X124498571Y-123532857D02*
X123712857Y-123532857D01*
X123570000Y-123604286D01*
X123498571Y-123747143D01*
X123498571Y-124032857D01*
X123570000Y-124175714D01*
X124427143Y-123532857D02*
X124498571Y-123675714D01*
X124498571Y-124032857D01*
X124427143Y-124175714D01*
X124284286Y-124247143D01*
X124141429Y-124247143D01*
X123998571Y-124175714D01*
X123927143Y-124032857D01*
X123927143Y-123675714D01*
X123855714Y-123532857D01*
X123498571Y-123032857D02*
X123498571Y-122461428D01*
X122998571Y-122818571D02*
X124284286Y-122818571D01*
X124427143Y-122747143D01*
X124498571Y-122604285D01*
X124498571Y-122461428D01*
X126977143Y-135604286D02*
X127048571Y-135390000D01*
X127048571Y-135032857D01*
X126977143Y-134890000D01*
X126905714Y-134818571D01*
X126762857Y-134747143D01*
X126620000Y-134747143D01*
X126477143Y-134818571D01*
X126405714Y-134890000D01*
X126334286Y-135032857D01*
X126262857Y-135318571D01*
X126191429Y-135461429D01*
X126120000Y-135532857D01*
X125977143Y-135604286D01*
X125834286Y-135604286D01*
X125691429Y-135532857D01*
X125620000Y-135461429D01*
X125548571Y-135318571D01*
X125548571Y-134961429D01*
X125620000Y-134747143D01*
X125334286Y-135175714D02*
X127262857Y-135175714D01*
X125548571Y-133818572D02*
X125548571Y-133675715D01*
X125620000Y-133532858D01*
X125691429Y-133461429D01*
X125834286Y-133390000D01*
X126120000Y-133318572D01*
X126477143Y-133318572D01*
X126762857Y-133390000D01*
X126905714Y-133461429D01*
X126977143Y-133532858D01*
X127048571Y-133675715D01*
X127048571Y-133818572D01*
X126977143Y-133961429D01*
X126905714Y-134032858D01*
X126762857Y-134104286D01*
X126477143Y-134175715D01*
X126120000Y-134175715D01*
X125834286Y-134104286D01*
X125691429Y-134032858D01*
X125620000Y-133961429D01*
X125548571Y-133818572D01*
X125548571Y-132390001D02*
X125548571Y-132247144D01*
X125620000Y-132104287D01*
X125691429Y-132032858D01*
X125834286Y-131961429D01*
X126120000Y-131890001D01*
X126477143Y-131890001D01*
X126762857Y-131961429D01*
X126905714Y-132032858D01*
X126977143Y-132104287D01*
X127048571Y-132247144D01*
X127048571Y-132390001D01*
X126977143Y-132532858D01*
X126905714Y-132604287D01*
X126762857Y-132675715D01*
X126477143Y-132747144D01*
X126120000Y-132747144D01*
X125834286Y-132675715D01*
X125691429Y-132604287D01*
X125620000Y-132532858D01*
X125548571Y-132390001D01*
X127048571Y-131247144D02*
X125548571Y-131247144D01*
X125548571Y-130890001D01*
X125620000Y-130675716D01*
X125762857Y-130532858D01*
X125905714Y-130461430D01*
X126191429Y-130390001D01*
X126405714Y-130390001D01*
X126691429Y-130461430D01*
X126834286Y-130532858D01*
X126977143Y-130675716D01*
X127048571Y-130890001D01*
X127048571Y-131247144D01*
X126262857Y-129747144D02*
X126262857Y-129247144D01*
X127048571Y-129032858D02*
X127048571Y-129747144D01*
X125548571Y-129747144D01*
X125548571Y-129032858D01*
X125548571Y-128532858D02*
X127048571Y-127532858D01*
X125548571Y-127532858D02*
X127048571Y-128532858D01*
X125548571Y-127104287D02*
X127048571Y-126104287D01*
X125548571Y-126104287D02*
X127048571Y-127104287D01*
X150205714Y-58463571D02*
X150205714Y-56963571D01*
X150777142Y-56963571D01*
X150920000Y-57035000D01*
X150991428Y-57106429D01*
X151062857Y-57249286D01*
X151062857Y-57463571D01*
X150991428Y-57606429D01*
X150920000Y-57677857D01*
X150777142Y-57749286D01*
X150205714Y-57749286D01*
X151991428Y-56963571D02*
X152277142Y-56963571D01*
X152420000Y-57035000D01*
X152562857Y-57177857D01*
X152634285Y-57463571D01*
X152634285Y-57963571D01*
X152562857Y-58249286D01*
X152420000Y-58392143D01*
X152277142Y-58463571D01*
X151991428Y-58463571D01*
X151848571Y-58392143D01*
X151705714Y-58249286D01*
X151634285Y-57963571D01*
X151634285Y-57463571D01*
X151705714Y-57177857D01*
X151848571Y-57035000D01*
X151991428Y-56963571D01*
X153134286Y-56963571D02*
X153491429Y-58463571D01*
X153777143Y-57392143D01*
X154062857Y-58463571D01*
X154420000Y-56963571D01*
X154991429Y-57677857D02*
X155491429Y-57677857D01*
X155705715Y-58463571D02*
X154991429Y-58463571D01*
X154991429Y-56963571D01*
X155705715Y-56963571D01*
X157205715Y-58463571D02*
X156705715Y-57749286D01*
X156348572Y-58463571D02*
X156348572Y-56963571D01*
X156920000Y-56963571D01*
X157062858Y-57035000D01*
X157134286Y-57106429D01*
X157205715Y-57249286D01*
X157205715Y-57463571D01*
X157134286Y-57606429D01*
X157062858Y-57677857D01*
X156920000Y-57749286D01*
X156348572Y-57749286D01*
D13*
X166827143Y-97732857D02*
X166560476Y-97732857D01*
X166560476Y-98151905D02*
X166560476Y-97351905D01*
X166941429Y-97351905D01*
X167246190Y-97351905D02*
X167246190Y-97999524D01*
X167284285Y-98075714D01*
X167322381Y-98113810D01*
X167398571Y-98151905D01*
X167550952Y-98151905D01*
X167627143Y-98113810D01*
X167665238Y-98075714D01*
X167703333Y-97999524D01*
X167703333Y-97351905D01*
X168465238Y-98151905D02*
X168084285Y-98151905D01*
X168084285Y-97351905D01*
X169112857Y-98151905D02*
X168731904Y-98151905D01*
X168731904Y-97351905D01*
X169989047Y-97351905D02*
X169989047Y-97999524D01*
X170027142Y-98075714D01*
X170065238Y-98113810D01*
X170141428Y-98151905D01*
X170293809Y-98151905D01*
X170370000Y-98113810D01*
X170408095Y-98075714D01*
X170446190Y-97999524D01*
X170446190Y-97351905D01*
X170789047Y-97923333D02*
X171169999Y-97923333D01*
X170712856Y-98151905D02*
X170979523Y-97351905D01*
X171246190Y-98151905D01*
X171969999Y-98151905D02*
X171703332Y-97770952D01*
X171512856Y-98151905D02*
X171512856Y-97351905D01*
X171817618Y-97351905D01*
X171893809Y-97390000D01*
X171931904Y-97428095D01*
X171969999Y-97504286D01*
X171969999Y-97618571D01*
X171931904Y-97694762D01*
X171893809Y-97732857D01*
X171817618Y-97770952D01*
X171512856Y-97770952D01*
X172198570Y-97351905D02*
X172655713Y-97351905D01*
X172427142Y-98151905D02*
X172427142Y-97351905D01*
X183876905Y-93154524D02*
X183076905Y-93154524D01*
X183076905Y-92964048D01*
X183115000Y-92849762D01*
X183191190Y-92773571D01*
X183267381Y-92735476D01*
X183419762Y-92697381D01*
X183534048Y-92697381D01*
X183686429Y-92735476D01*
X183762619Y-92773571D01*
X183838810Y-92849762D01*
X183876905Y-92964048D01*
X183876905Y-93154524D01*
X183076905Y-92468810D02*
X183076905Y-92011667D01*
X183876905Y-92240238D02*
X183076905Y-92240238D01*
X183876905Y-91287857D02*
X183495952Y-91554524D01*
X183876905Y-91745000D02*
X183076905Y-91745000D01*
X183076905Y-91440238D01*
X183115000Y-91364047D01*
X183153095Y-91325952D01*
X183229286Y-91287857D01*
X183343571Y-91287857D01*
X183419762Y-91325952D01*
X183457857Y-91364047D01*
X183495952Y-91440238D01*
X183495952Y-91745000D01*
X182939000Y-93345000D02*
X182939000Y-91135476D01*
X181336905Y-92697381D02*
X180955952Y-92964048D01*
X181336905Y-93154524D02*
X180536905Y-93154524D01*
X180536905Y-92849762D01*
X180575000Y-92773571D01*
X180613095Y-92735476D01*
X180689286Y-92697381D01*
X180803571Y-92697381D01*
X180879762Y-92735476D01*
X180917857Y-92773571D01*
X180955952Y-92849762D01*
X180955952Y-93154524D01*
X180536905Y-92430714D02*
X181336905Y-91897381D01*
X180536905Y-91897381D02*
X181336905Y-92430714D01*
X177996905Y-93268810D02*
X177996905Y-92811667D01*
X178796905Y-93040238D02*
X177996905Y-93040238D01*
X177996905Y-92621190D02*
X178796905Y-92087857D01*
X177996905Y-92087857D02*
X178796905Y-92621190D01*
X176180714Y-92697381D02*
X176218810Y-92735476D01*
X176256905Y-92849762D01*
X176256905Y-92925952D01*
X176218810Y-93040238D01*
X176142619Y-93116429D01*
X176066429Y-93154524D01*
X175914048Y-93192619D01*
X175799762Y-93192619D01*
X175647381Y-93154524D01*
X175571190Y-93116429D01*
X175495000Y-93040238D01*
X175456905Y-92925952D01*
X175456905Y-92849762D01*
X175495000Y-92735476D01*
X175533095Y-92697381D01*
X175456905Y-92468810D02*
X175456905Y-92011667D01*
X176256905Y-92240238D02*
X175456905Y-92240238D01*
X176218810Y-91783095D02*
X176256905Y-91668809D01*
X176256905Y-91478333D01*
X176218810Y-91402143D01*
X176180714Y-91364047D01*
X176104524Y-91325952D01*
X176028333Y-91325952D01*
X175952143Y-91364047D01*
X175914048Y-91402143D01*
X175875952Y-91478333D01*
X175837857Y-91630714D01*
X175799762Y-91706905D01*
X175761667Y-91745000D01*
X175685476Y-91783095D01*
X175609286Y-91783095D01*
X175533095Y-91745000D01*
X175495000Y-91706905D01*
X175456905Y-91630714D01*
X175456905Y-91440238D01*
X175495000Y-91325952D01*
X175319000Y-93345000D02*
X175319000Y-91173571D01*
X173716905Y-92697381D02*
X173335952Y-92964048D01*
X173716905Y-93154524D02*
X172916905Y-93154524D01*
X172916905Y-92849762D01*
X172955000Y-92773571D01*
X172993095Y-92735476D01*
X173069286Y-92697381D01*
X173183571Y-92697381D01*
X173259762Y-92735476D01*
X173297857Y-92773571D01*
X173335952Y-92849762D01*
X173335952Y-93154524D01*
X172916905Y-92468810D02*
X172916905Y-92011667D01*
X173716905Y-92240238D02*
X172916905Y-92240238D01*
X173678810Y-91783095D02*
X173716905Y-91668809D01*
X173716905Y-91478333D01*
X173678810Y-91402143D01*
X173640714Y-91364047D01*
X173564524Y-91325952D01*
X173488333Y-91325952D01*
X173412143Y-91364047D01*
X173374048Y-91402143D01*
X173335952Y-91478333D01*
X173297857Y-91630714D01*
X173259762Y-91706905D01*
X173221667Y-91745000D01*
X173145476Y-91783095D01*
X173069286Y-91783095D01*
X172993095Y-91745000D01*
X172955000Y-91706905D01*
X172916905Y-91630714D01*
X172916905Y-91440238D01*
X172955000Y-91325952D01*
X172779000Y-93345000D02*
X172779000Y-91173571D01*
X170415000Y-92735476D02*
X170376905Y-92811667D01*
X170376905Y-92925952D01*
X170415000Y-93040238D01*
X170491190Y-93116429D01*
X170567381Y-93154524D01*
X170719762Y-93192619D01*
X170834048Y-93192619D01*
X170986429Y-93154524D01*
X171062619Y-93116429D01*
X171138810Y-93040238D01*
X171176905Y-92925952D01*
X171176905Y-92849762D01*
X171138810Y-92735476D01*
X171100714Y-92697381D01*
X170834048Y-92697381D01*
X170834048Y-92849762D01*
X171176905Y-92354524D02*
X170376905Y-92354524D01*
X171176905Y-91897381D01*
X170376905Y-91897381D01*
X171176905Y-91516429D02*
X170376905Y-91516429D01*
X170376905Y-91325953D01*
X170415000Y-91211667D01*
X170491190Y-91135476D01*
X170567381Y-91097381D01*
X170719762Y-91059286D01*
X170834048Y-91059286D01*
X170986429Y-91097381D01*
X171062619Y-91135476D01*
X171138810Y-91211667D01*
X171176905Y-91325953D01*
X171176905Y-91516429D01*
D11*
X168660001Y-109263571D02*
X168160001Y-108549286D01*
X167802858Y-109263571D02*
X167802858Y-107763571D01*
X168374286Y-107763571D01*
X168517144Y-107835000D01*
X168588572Y-107906429D01*
X168660001Y-108049286D01*
X168660001Y-108263571D01*
X168588572Y-108406429D01*
X168517144Y-108477857D01*
X168374286Y-108549286D01*
X167802858Y-108549286D01*
X169160001Y-107763571D02*
X170160001Y-109263571D01*
X170160001Y-107763571D02*
X169160001Y-109263571D01*
X171577143Y-107763571D02*
X172434286Y-107763571D01*
X172005715Y-109263571D02*
X172005715Y-107763571D01*
X172791429Y-107763571D02*
X173791429Y-109263571D01*
X173791429Y-107763571D02*
X172791429Y-109263571D01*
D12*
X153174619Y-93071905D02*
X152907952Y-92690952D01*
X152717476Y-93071905D02*
X152717476Y-92271905D01*
X153022238Y-92271905D01*
X153098429Y-92310000D01*
X153136524Y-92348095D01*
X153174619Y-92424286D01*
X153174619Y-92538571D01*
X153136524Y-92614762D01*
X153098429Y-92652857D01*
X153022238Y-92690952D01*
X152717476Y-92690952D01*
X153517476Y-93071905D02*
X153517476Y-92271905D01*
X153707952Y-92271905D01*
X153822238Y-92310000D01*
X153898429Y-92386190D01*
X153936524Y-92462381D01*
X153974619Y-92614762D01*
X153974619Y-92729048D01*
X153936524Y-92881429D01*
X153898429Y-92957619D01*
X153822238Y-93033810D01*
X153707952Y-93071905D01*
X153517476Y-93071905D01*
X154317476Y-92995714D02*
X154355571Y-93033810D01*
X154317476Y-93071905D01*
X154279381Y-93033810D01*
X154317476Y-92995714D01*
X154317476Y-93071905D01*
X155460333Y-92271905D02*
X155612714Y-92271905D01*
X155688905Y-92310000D01*
X155765095Y-92386190D01*
X155803190Y-92538571D01*
X155803190Y-92805238D01*
X155765095Y-92957619D01*
X155688905Y-93033810D01*
X155612714Y-93071905D01*
X155460333Y-93071905D01*
X155384143Y-93033810D01*
X155307952Y-92957619D01*
X155269857Y-92805238D01*
X155269857Y-92538571D01*
X155307952Y-92386190D01*
X155384143Y-92310000D01*
X155460333Y-92271905D01*
X156146047Y-93071905D02*
X156146047Y-92271905D01*
X156603190Y-93071905D01*
X156603190Y-92271905D01*
X157365095Y-93071905D02*
X156984142Y-93071905D01*
X156984142Y-92271905D01*
X157784142Y-92690952D02*
X157784142Y-93071905D01*
X157517475Y-92271905D02*
X157784142Y-92690952D01*
X158050809Y-92271905D01*
X152641286Y-90493905D02*
X152831762Y-91293905D01*
X152984143Y-90722476D01*
X153136524Y-91293905D01*
X153327000Y-90493905D01*
X154088905Y-91293905D02*
X153822238Y-90912952D01*
X153631762Y-91293905D02*
X153631762Y-90493905D01*
X153936524Y-90493905D01*
X154012715Y-90532000D01*
X154050810Y-90570095D01*
X154088905Y-90646286D01*
X154088905Y-90760571D01*
X154050810Y-90836762D01*
X154012715Y-90874857D01*
X153936524Y-90912952D01*
X153631762Y-90912952D01*
X154431762Y-91293905D02*
X154431762Y-90493905D01*
X154698428Y-90493905D02*
X155155571Y-90493905D01*
X154927000Y-91293905D02*
X154927000Y-90493905D01*
X155422238Y-90874857D02*
X155688905Y-90874857D01*
X155803191Y-91293905D02*
X155422238Y-91293905D01*
X155422238Y-90493905D01*
X155803191Y-90493905D01*
X152019000Y-91948000D02*
X149225000Y-91948000D01*
X151765000Y-92964000D02*
X151765000Y-92202000D01*
X150495000Y-92964000D02*
X151765000Y-92964000D01*
X151765000Y-92202000D02*
X150495000Y-92202000D01*
X150495000Y-92202000D02*
X150495000Y-92964000D01*
X152019000Y-93218000D02*
X152019000Y-91948000D01*
X149225000Y-93218000D02*
X152019000Y-93218000D01*
X149225000Y-91948000D02*
X149225000Y-93218000D01*
X150749000Y-90424000D02*
X149479000Y-90424000D01*
X150749000Y-91186000D02*
X150749000Y-90424000D01*
X149479000Y-91186000D02*
X150749000Y-91186000D01*
X149479000Y-90424000D02*
X149479000Y-91186000D01*
X152019000Y-90170000D02*
X149225000Y-90170000D01*
X152019000Y-91440000D02*
X152019000Y-90170000D01*
X149225000Y-91440000D02*
X152019000Y-91440000D01*
X149225000Y-90170000D02*
X149225000Y-91440000D01*
X144107475Y-90874857D02*
X144374142Y-90874857D01*
X144488428Y-91293905D02*
X144107475Y-91293905D01*
X144107475Y-90493905D01*
X144488428Y-90493905D01*
X144831285Y-90874857D02*
X145097952Y-90874857D01*
X145212238Y-91293905D02*
X144831285Y-91293905D01*
X144831285Y-90493905D01*
X145212238Y-90493905D01*
X145555095Y-91293905D02*
X145555095Y-90493905D01*
X145859857Y-90493905D01*
X145936048Y-90532000D01*
X145974143Y-90570095D01*
X146012238Y-90646286D01*
X146012238Y-90760571D01*
X145974143Y-90836762D01*
X145936048Y-90874857D01*
X145859857Y-90912952D01*
X145555095Y-90912952D01*
X146812238Y-91293905D02*
X146545571Y-90912952D01*
X146355095Y-91293905D02*
X146355095Y-90493905D01*
X146659857Y-90493905D01*
X146736048Y-90532000D01*
X146774143Y-90570095D01*
X146812238Y-90646286D01*
X146812238Y-90760571D01*
X146774143Y-90836762D01*
X146736048Y-90874857D01*
X146659857Y-90912952D01*
X146355095Y-90912952D01*
X147307476Y-90493905D02*
X147459857Y-90493905D01*
X147536048Y-90532000D01*
X147612238Y-90608190D01*
X147650333Y-90760571D01*
X147650333Y-91027238D01*
X147612238Y-91179619D01*
X147536048Y-91255810D01*
X147459857Y-91293905D01*
X147307476Y-91293905D01*
X147231286Y-91255810D01*
X147155095Y-91179619D01*
X147117000Y-91027238D01*
X147117000Y-90760571D01*
X147155095Y-90608190D01*
X147231286Y-90532000D01*
X147307476Y-90493905D01*
X147993190Y-91293905D02*
X147993190Y-90493905D01*
X148259857Y-91065333D01*
X148526524Y-90493905D01*
X148526524Y-91293905D01*
D11*
X130853571Y-87268571D02*
X130139286Y-87768571D01*
X130853571Y-88125714D02*
X129353571Y-88125714D01*
X129353571Y-87554286D01*
X129425000Y-87411428D01*
X129496429Y-87340000D01*
X129639286Y-87268571D01*
X129853571Y-87268571D01*
X129996429Y-87340000D01*
X130067857Y-87411428D01*
X130139286Y-87554286D01*
X130139286Y-88125714D01*
X130067857Y-86625714D02*
X130067857Y-86125714D01*
X130853571Y-85911428D02*
X130853571Y-86625714D01*
X129353571Y-86625714D01*
X129353571Y-85911428D01*
X130782143Y-85340000D02*
X130853571Y-85125714D01*
X130853571Y-84768571D01*
X130782143Y-84625714D01*
X130710714Y-84554285D01*
X130567857Y-84482857D01*
X130425000Y-84482857D01*
X130282143Y-84554285D01*
X130210714Y-84625714D01*
X130139286Y-84768571D01*
X130067857Y-85054285D01*
X129996429Y-85197143D01*
X129925000Y-85268571D01*
X129782143Y-85340000D01*
X129639286Y-85340000D01*
X129496429Y-85268571D01*
X129425000Y-85197143D01*
X129353571Y-85054285D01*
X129353571Y-84697143D01*
X129425000Y-84482857D01*
X130067857Y-83840000D02*
X130067857Y-83340000D01*
X130853571Y-83125714D02*
X130853571Y-83840000D01*
X129353571Y-83840000D01*
X129353571Y-83125714D01*
X129353571Y-82697143D02*
X129353571Y-81840000D01*
X130853571Y-82268571D02*
X129353571Y-82268571D01*
D13*
X160940714Y-67932381D02*
X160978810Y-67970476D01*
X161016905Y-68084762D01*
X161016905Y-68160952D01*
X160978810Y-68275238D01*
X160902619Y-68351429D01*
X160826429Y-68389524D01*
X160674048Y-68427619D01*
X160559762Y-68427619D01*
X160407381Y-68389524D01*
X160331190Y-68351429D01*
X160255000Y-68275238D01*
X160216905Y-68160952D01*
X160216905Y-68084762D01*
X160255000Y-67970476D01*
X160293095Y-67932381D01*
X161016905Y-67208571D02*
X161016905Y-67589524D01*
X160216905Y-67589524D01*
X160216905Y-66789524D02*
X160216905Y-66637143D01*
X160255000Y-66560952D01*
X160331190Y-66484762D01*
X160483571Y-66446667D01*
X160750238Y-66446667D01*
X160902619Y-66484762D01*
X160978810Y-66560952D01*
X161016905Y-66637143D01*
X161016905Y-66789524D01*
X160978810Y-66865714D01*
X160902619Y-66941905D01*
X160750238Y-66980000D01*
X160483571Y-66980000D01*
X160331190Y-66941905D01*
X160255000Y-66865714D01*
X160216905Y-66789524D01*
X160940714Y-65646667D02*
X160978810Y-65684762D01*
X161016905Y-65799048D01*
X161016905Y-65875238D01*
X160978810Y-65989524D01*
X160902619Y-66065715D01*
X160826429Y-66103810D01*
X160674048Y-66141905D01*
X160559762Y-66141905D01*
X160407381Y-66103810D01*
X160331190Y-66065715D01*
X160255000Y-65989524D01*
X160216905Y-65875238D01*
X160216905Y-65799048D01*
X160255000Y-65684762D01*
X160293095Y-65646667D01*
X161016905Y-65303810D02*
X160216905Y-65303810D01*
X161016905Y-64846667D02*
X160559762Y-65189524D01*
X160216905Y-64846667D02*
X160674048Y-65303810D01*
X160216905Y-63741905D02*
X160216905Y-63589524D01*
X160255000Y-63513333D01*
X160331190Y-63437143D01*
X160483571Y-63399048D01*
X160750238Y-63399048D01*
X160902619Y-63437143D01*
X160978810Y-63513333D01*
X161016905Y-63589524D01*
X161016905Y-63741905D01*
X160978810Y-63818095D01*
X160902619Y-63894286D01*
X160750238Y-63932381D01*
X160483571Y-63932381D01*
X160331190Y-63894286D01*
X160255000Y-63818095D01*
X160216905Y-63741905D01*
X160978810Y-63094286D02*
X161016905Y-62980000D01*
X161016905Y-62789524D01*
X160978810Y-62713334D01*
X160940714Y-62675238D01*
X160864524Y-62637143D01*
X160788333Y-62637143D01*
X160712143Y-62675238D01*
X160674048Y-62713334D01*
X160635952Y-62789524D01*
X160597857Y-62941905D01*
X160559762Y-63018096D01*
X160521667Y-63056191D01*
X160445476Y-63094286D01*
X160369286Y-63094286D01*
X160293095Y-63056191D01*
X160255000Y-63018096D01*
X160216905Y-62941905D01*
X160216905Y-62751429D01*
X160255000Y-62637143D01*
X160940714Y-61837143D02*
X160978810Y-61875238D01*
X161016905Y-61989524D01*
X161016905Y-62065714D01*
X160978810Y-62180000D01*
X160902619Y-62256191D01*
X160826429Y-62294286D01*
X160674048Y-62332381D01*
X160559762Y-62332381D01*
X160407381Y-62294286D01*
X160331190Y-62256191D01*
X160255000Y-62180000D01*
X160216905Y-62065714D01*
X160216905Y-61989524D01*
X160255000Y-61875238D01*
X160293095Y-61837143D01*
X160940714Y-61494286D02*
X160978810Y-61456191D01*
X161016905Y-61494286D01*
X160978810Y-61532381D01*
X160940714Y-61494286D01*
X161016905Y-61494286D01*
D11*
X164147857Y-54013571D02*
X164147857Y-52513571D01*
X164505000Y-52513571D01*
X164719285Y-52585000D01*
X164862143Y-52727857D01*
X164933571Y-52870714D01*
X165005000Y-53156429D01*
X165005000Y-53370714D01*
X164933571Y-53656429D01*
X164862143Y-53799286D01*
X164719285Y-53942143D01*
X164505000Y-54013571D01*
X164147857Y-54013571D01*
X166505000Y-53870714D02*
X166433571Y-53942143D01*
X166219285Y-54013571D01*
X166076428Y-54013571D01*
X165862143Y-53942143D01*
X165719285Y-53799286D01*
X165647857Y-53656429D01*
X165576428Y-53370714D01*
X165576428Y-53156429D01*
X165647857Y-52870714D01*
X165719285Y-52727857D01*
X165862143Y-52585000D01*
X166076428Y-52513571D01*
X166219285Y-52513571D01*
X166433571Y-52585000D01*
X166505000Y-52656429D01*
X168290714Y-54013571D02*
X168290714Y-52513571D01*
X169005000Y-54013571D02*
X169005000Y-52513571D01*
X169862143Y-54013571D01*
X169862143Y-52513571D01*
X163719286Y-56563571D02*
X164005001Y-56563571D01*
X164147858Y-56492143D01*
X164219286Y-56420714D01*
X164362144Y-56206429D01*
X164433572Y-55920714D01*
X164433572Y-55349286D01*
X164362144Y-55206429D01*
X164290715Y-55135000D01*
X164147858Y-55063571D01*
X163862144Y-55063571D01*
X163719286Y-55135000D01*
X163647858Y-55206429D01*
X163576429Y-55349286D01*
X163576429Y-55706429D01*
X163647858Y-55849286D01*
X163719286Y-55920714D01*
X163862144Y-55992143D01*
X164147858Y-55992143D01*
X164290715Y-55920714D01*
X164362144Y-55849286D01*
X164433572Y-55706429D01*
X165076429Y-55992143D02*
X166219286Y-55992143D01*
X167719286Y-56563571D02*
X166862143Y-56563571D01*
X167290715Y-56563571D02*
X167290715Y-55063571D01*
X167147858Y-55277857D01*
X167005000Y-55420714D01*
X166862143Y-55492143D01*
X168290714Y-55206429D02*
X168362143Y-55135000D01*
X168505000Y-55063571D01*
X168862143Y-55063571D01*
X169005000Y-55135000D01*
X169076429Y-55206429D01*
X169147857Y-55349286D01*
X169147857Y-55492143D01*
X169076429Y-55706429D01*
X168219286Y-56563571D01*
X169147857Y-56563571D01*
X169576428Y-55063571D02*
X170076428Y-56563571D01*
X170576428Y-55063571D01*
D13*
X150630000Y-98035000D02*
X150630000Y-99305000D01*
X165600000Y-98035000D02*
X165600000Y-99305000D01*
X165600000Y-135645000D02*
X165600000Y-134375000D01*
X150630000Y-135645000D02*
X150630000Y-134375000D01*
X150630000Y-98035000D02*
X165600000Y-98035000D01*
X150630000Y-135645000D02*
X165600000Y-135645000D01*
X150630000Y-99305000D02*
X149345000Y-99305000D01*
X130310000Y-92955000D02*
X130310000Y-94225000D01*
X145280000Y-92955000D02*
X145280000Y-94225000D01*
X145280000Y-135645000D02*
X145280000Y-134375000D01*
X130310000Y-135645000D02*
X130310000Y-134375000D01*
X130310000Y-92955000D02*
X145280000Y-92955000D01*
X130310000Y-135645000D02*
X145280000Y-135645000D01*
X130310000Y-94225000D02*
X129025000Y-94225000D01*
X102370000Y-82795000D02*
X102370000Y-84065000D01*
X117340000Y-82795000D02*
X117340000Y-84065000D01*
X117340000Y-135645000D02*
X117340000Y-134375000D01*
X102370000Y-135645000D02*
X102370000Y-134375000D01*
X102370000Y-82795000D02*
X117340000Y-82795000D01*
X102370000Y-135645000D02*
X117340000Y-135645000D01*
X102370000Y-84065000D02*
X101085000Y-84065000D01*
X151765000Y-96520000D02*
X156845000Y-96520000D01*
X156845000Y-96520000D02*
X156845000Y-93980000D01*
X156845000Y-93980000D02*
X151765000Y-93980000D01*
X148945000Y-93700000D02*
X150495000Y-93700000D01*
X151765000Y-93980000D02*
X151765000Y-96520000D01*
X150495000Y-96800000D02*
X148945000Y-96800000D01*
X148945000Y-96800000D02*
X148945000Y-93700000D01*
X140800000Y-80640000D02*
X140800000Y-80755000D01*
X144950000Y-80640000D02*
X144950000Y-80755000D01*
X144950000Y-89540000D02*
X144950000Y-89425000D01*
X140800000Y-89540000D02*
X140800000Y-89425000D01*
X140800000Y-80640000D02*
X144950000Y-80640000D01*
X140800000Y-89540000D02*
X144950000Y-89540000D01*
X140800000Y-80755000D02*
X139425000Y-80755000D01*
X121220000Y-65815000D02*
X121220000Y-66150000D01*
X128970000Y-65815000D02*
X128970000Y-66150000D01*
X128970000Y-78965000D02*
X128970000Y-78630000D01*
X121220000Y-78965000D02*
X121220000Y-78630000D01*
X121220000Y-65815000D02*
X128970000Y-65815000D01*
X121220000Y-78965000D02*
X128970000Y-78965000D01*
X121220000Y-66150000D02*
X119420000Y-66150000D01*
X140960000Y-64775000D02*
X140960000Y-64880000D01*
X145110000Y-64775000D02*
X145110000Y-64880000D01*
X145110000Y-74925000D02*
X145110000Y-74820000D01*
X140960000Y-74925000D02*
X140960000Y-74820000D01*
X140960000Y-64775000D02*
X145110000Y-64775000D01*
X140960000Y-74925000D02*
X145110000Y-74925000D01*
X140960000Y-64880000D02*
X139585000Y-64880000D01*
X153500000Y-64775000D02*
X153500000Y-64880000D01*
X157650000Y-64775000D02*
X157650000Y-64880000D01*
X157650000Y-74925000D02*
X157650000Y-74820000D01*
X153500000Y-74925000D02*
X153500000Y-74820000D01*
X153500000Y-64775000D02*
X157650000Y-64775000D01*
X153500000Y-74925000D02*
X157650000Y-74925000D01*
X153500000Y-64880000D02*
X152125000Y-64880000D01*
X122055000Y-93305000D02*
X123055000Y-93305000D01*
X123055000Y-94655000D02*
X122055000Y-94655000D01*
X122055000Y-98385000D02*
X123055000Y-98385000D01*
X123055000Y-99735000D02*
X122055000Y-99735000D01*
X122055000Y-90765000D02*
X123055000Y-90765000D01*
X123055000Y-92115000D02*
X122055000Y-92115000D01*
X122055000Y-88225000D02*
X123055000Y-88225000D01*
X123055000Y-89575000D02*
X122055000Y-89575000D01*
X122055000Y-95845000D02*
X123055000Y-95845000D01*
X123055000Y-97195000D02*
X122055000Y-97195000D01*
X129255000Y-64735000D02*
X128555000Y-64735000D01*
X128555000Y-63535000D02*
X129255000Y-63535000D01*
X111475000Y-64735000D02*
X110775000Y-64735000D01*
X110775000Y-63535000D02*
X111475000Y-63535000D01*
X99095000Y-102585000D02*
X99095000Y-101885000D01*
X100295000Y-101885000D02*
X100295000Y-102585000D01*
X159670000Y-95920000D02*
X160370000Y-95920000D01*
X160370000Y-97120000D02*
X159670000Y-97120000D01*
X157830000Y-64100000D02*
X157130000Y-64100000D01*
X157130000Y-62900000D02*
X157830000Y-62900000D01*
X164815000Y-97120000D02*
X164115000Y-97120000D01*
X164115000Y-95920000D02*
X164815000Y-95920000D01*
X103440000Y-65815000D02*
X103440000Y-66150000D01*
X111190000Y-65815000D02*
X111190000Y-66150000D01*
X111190000Y-78965000D02*
X111190000Y-78630000D01*
X103440000Y-78965000D02*
X103440000Y-78630000D01*
X103440000Y-65815000D02*
X111190000Y-65815000D01*
X103440000Y-78965000D02*
X111190000Y-78965000D01*
X103440000Y-66150000D02*
X101640000Y-66150000D01*
X166200000Y-80640000D02*
X166200000Y-80755000D01*
X170350000Y-80640000D02*
X170350000Y-80755000D01*
X170350000Y-89540000D02*
X170350000Y-89425000D01*
X166200000Y-89540000D02*
X166200000Y-89425000D01*
X166200000Y-80640000D02*
X170350000Y-80640000D01*
X166200000Y-89540000D02*
X170350000Y-89540000D01*
X166200000Y-80755000D02*
X164825000Y-80755000D01*
X178900000Y-80015000D02*
X178900000Y-80120000D01*
X183050000Y-80015000D02*
X183050000Y-80120000D01*
X183050000Y-90165000D02*
X183050000Y-90060000D01*
X178900000Y-90165000D02*
X178900000Y-90060000D01*
X178900000Y-80015000D02*
X183050000Y-80015000D01*
X178900000Y-90165000D02*
X183050000Y-90165000D01*
X178900000Y-80120000D02*
X177525000Y-80120000D01*
X122055000Y-85685000D02*
X123055000Y-85685000D01*
X123055000Y-87035000D02*
X122055000Y-87035000D01*
X105535000Y-146050000D02*
G75*
G03X105535000Y-146050000I-3300000J0D01*
G01*
X194435000Y-146050000D02*
G75*
G03X194435000Y-146050000I-3300000J0D01*
G01*
X194435000Y-57150000D02*
G75*
G03X194435000Y-57150000I-3300000J0D01*
G01*
X105535000Y-57150000D02*
G75*
G03X105535000Y-57150000I-3300000J0D01*
G01*
X152230000Y-59140000D02*
X150330000Y-59140000D01*
X152230000Y-60240000D02*
X150330000Y-60240000D01*
X151330000Y-59690000D02*
X150880000Y-59690000D01*
X151380000Y-59940000D02*
X151380000Y-59440000D01*
X151380000Y-59690000D02*
X151130000Y-59940000D01*
X151130000Y-59940000D02*
X151130000Y-59440000D01*
X151130000Y-59440000D02*
X151380000Y-59690000D01*
X127085000Y-83990000D02*
X127085000Y-85890000D01*
X128185000Y-83990000D02*
X128185000Y-85890000D01*
X127635000Y-84890000D02*
X127635000Y-85340000D01*
X127885000Y-84840000D02*
X127385000Y-84840000D01*
X127635000Y-84840000D02*
X127885000Y-85090000D01*
X127885000Y-85090000D02*
X127385000Y-85090000D01*
X127385000Y-85090000D02*
X127635000Y-84840000D01*
X155075000Y-59015000D02*
X156075000Y-59015000D01*
X156075000Y-60365000D02*
X155075000Y-60365000D01*
X122055000Y-83780000D02*
X123055000Y-83780000D01*
X123055000Y-85130000D02*
X122055000Y-85130000D01*
X188880000Y-88300000D02*
X189580000Y-88300000D01*
X189580000Y-89500000D02*
X188880000Y-89500000D01*
X180245000Y-76794000D02*
X180245000Y-71796000D01*
X180105000Y-76786000D02*
X180105000Y-71804000D01*
X179965000Y-76770000D02*
X179965000Y-74390000D01*
X179965000Y-74200000D02*
X179965000Y-71820000D01*
X179825000Y-76746000D02*
X179825000Y-74785000D01*
X179825000Y-73805000D02*
X179825000Y-71844000D01*
X179685000Y-76713000D02*
X179685000Y-74952000D01*
X179685000Y-73638000D02*
X179685000Y-71877000D01*
X179545000Y-76672000D02*
X179545000Y-75059000D01*
X179545000Y-73531000D02*
X179545000Y-71918000D01*
X179405000Y-76622000D02*
X179405000Y-75130000D01*
X179405000Y-73460000D02*
X179405000Y-71968000D01*
X179265000Y-76561000D02*
X179265000Y-75174000D01*
X179265000Y-73416000D02*
X179265000Y-72029000D01*
X179125000Y-76491000D02*
X179125000Y-75193000D01*
X179125000Y-73397000D02*
X179125000Y-72099000D01*
X178985000Y-76409000D02*
X178985000Y-75191000D01*
X178985000Y-73399000D02*
X178985000Y-72181000D01*
X178845000Y-76314000D02*
X178845000Y-75166000D01*
X178845000Y-73424000D02*
X178845000Y-72276000D01*
X178705000Y-76203000D02*
X178705000Y-75118000D01*
X178705000Y-73472000D02*
X178705000Y-72387000D01*
X178565000Y-76075000D02*
X178565000Y-75040000D01*
X178565000Y-73550000D02*
X178565000Y-72515000D01*
X178425000Y-75926000D02*
X178425000Y-74923000D01*
X178425000Y-73667000D02*
X178425000Y-72664000D01*
X178285000Y-75747000D02*
X178285000Y-74735000D01*
X178285000Y-73855000D02*
X178285000Y-72843000D01*
X178145000Y-75528000D02*
X178145000Y-73062000D01*
X178005000Y-75239000D02*
X178005000Y-73351000D01*
X177865000Y-74767000D02*
X177865000Y-73823000D01*
X179970000Y-74295000D02*
G75*
G03X179970000Y-74295000I-900000J0D01*
G01*
X182857500Y-74295000D02*
G75*
G03X182857500Y-74295000I-2537500J0D01*
G01*
X189580000Y-84420000D02*
X188880000Y-84420000D01*
X188880000Y-83220000D02*
X189580000Y-83220000D01*
X112490000Y-52746000D02*
X112490000Y-57744000D01*
X112630000Y-52754000D02*
X112630000Y-57736000D01*
X112770000Y-52770000D02*
X112770000Y-55150000D01*
X112770000Y-55340000D02*
X112770000Y-57720000D01*
X112910000Y-52794000D02*
X112910000Y-54755000D01*
X112910000Y-55735000D02*
X112910000Y-57696000D01*
X113050000Y-52827000D02*
X113050000Y-54588000D01*
X113050000Y-55902000D02*
X113050000Y-57663000D01*
X113190000Y-52868000D02*
X113190000Y-54481000D01*
X113190000Y-56009000D02*
X113190000Y-57622000D01*
X113330000Y-52918000D02*
X113330000Y-54410000D01*
X113330000Y-56080000D02*
X113330000Y-57572000D01*
X113470000Y-52979000D02*
X113470000Y-54366000D01*
X113470000Y-56124000D02*
X113470000Y-57511000D01*
X113610000Y-53049000D02*
X113610000Y-54347000D01*
X113610000Y-56143000D02*
X113610000Y-57441000D01*
X113750000Y-53131000D02*
X113750000Y-54349000D01*
X113750000Y-56141000D02*
X113750000Y-57359000D01*
X113890000Y-53226000D02*
X113890000Y-54374000D01*
X113890000Y-56116000D02*
X113890000Y-57264000D01*
X114030000Y-53337000D02*
X114030000Y-54422000D01*
X114030000Y-56068000D02*
X114030000Y-57153000D01*
X114170000Y-53465000D02*
X114170000Y-54500000D01*
X114170000Y-55990000D02*
X114170000Y-57025000D01*
X114310000Y-53614000D02*
X114310000Y-54617000D01*
X114310000Y-55873000D02*
X114310000Y-56876000D01*
X114450000Y-53793000D02*
X114450000Y-54805000D01*
X114450000Y-55685000D02*
X114450000Y-56697000D01*
X114590000Y-54012000D02*
X114590000Y-56478000D01*
X114730000Y-54301000D02*
X114730000Y-56189000D01*
X114870000Y-54773000D02*
X114870000Y-55717000D01*
X114565000Y-55245000D02*
G75*
G03X114565000Y-55245000I-900000J0D01*
G01*
X114952500Y-55245000D02*
G75*
G03X114952500Y-55245000I-2537500J0D01*
G01*
X108235000Y-57820000D02*
X108935000Y-57820000D01*
X108935000Y-59020000D02*
X108235000Y-59020000D01*
X137890000Y-52746000D02*
X137890000Y-57744000D01*
X138030000Y-52754000D02*
X138030000Y-57736000D01*
X138170000Y-52770000D02*
X138170000Y-55150000D01*
X138170000Y-55340000D02*
X138170000Y-57720000D01*
X138310000Y-52794000D02*
X138310000Y-54755000D01*
X138310000Y-55735000D02*
X138310000Y-57696000D01*
X138450000Y-52827000D02*
X138450000Y-54588000D01*
X138450000Y-55902000D02*
X138450000Y-57663000D01*
X138590000Y-52868000D02*
X138590000Y-54481000D01*
X138590000Y-56009000D02*
X138590000Y-57622000D01*
X138730000Y-52918000D02*
X138730000Y-54410000D01*
X138730000Y-56080000D02*
X138730000Y-57572000D01*
X138870000Y-52979000D02*
X138870000Y-54366000D01*
X138870000Y-56124000D02*
X138870000Y-57511000D01*
X139010000Y-53049000D02*
X139010000Y-54347000D01*
X139010000Y-56143000D02*
X139010000Y-57441000D01*
X139150000Y-53131000D02*
X139150000Y-54349000D01*
X139150000Y-56141000D02*
X139150000Y-57359000D01*
X139290000Y-53226000D02*
X139290000Y-54374000D01*
X139290000Y-56116000D02*
X139290000Y-57264000D01*
X139430000Y-53337000D02*
X139430000Y-54422000D01*
X139430000Y-56068000D02*
X139430000Y-57153000D01*
X139570000Y-53465000D02*
X139570000Y-54500000D01*
X139570000Y-55990000D02*
X139570000Y-57025000D01*
X139710000Y-53614000D02*
X139710000Y-54617000D01*
X139710000Y-55873000D02*
X139710000Y-56876000D01*
X139850000Y-53793000D02*
X139850000Y-54805000D01*
X139850000Y-55685000D02*
X139850000Y-56697000D01*
X139990000Y-54012000D02*
X139990000Y-56478000D01*
X140130000Y-54301000D02*
X140130000Y-56189000D01*
X140270000Y-54773000D02*
X140270000Y-55717000D01*
X139965000Y-55245000D02*
G75*
G03X139965000Y-55245000I-900000J0D01*
G01*
X140352500Y-55245000D02*
G75*
G03X140352500Y-55245000I-2537500J0D01*
G01*
X142275000Y-56230000D02*
X142275000Y-55530000D01*
X143475000Y-55530000D02*
X143475000Y-56230000D01*
X192161160Y-69905880D02*
X192161160Y-60904120D01*
X195661280Y-69905880D02*
X195661280Y-60904120D01*
X195661280Y-60904120D02*
X181160420Y-60904120D01*
X181160420Y-60904120D02*
X181160420Y-69905880D01*
X181160420Y-69905880D02*
X195661280Y-69905880D01*
X188730000Y-85685000D02*
X189730000Y-85685000D01*
X189730000Y-87035000D02*
X188730000Y-87035000D01*
D14*
X176029620Y-61785500D02*
X177030380Y-61785500D01*
X176029620Y-53784500D02*
X177030380Y-53784500D01*
X180530500Y-61785500D02*
X180530500Y-53784500D01*
X172529500Y-61785500D02*
X172529500Y-53784500D01*
X178765496Y-57785000D02*
G75*
G03X178765496Y-57785000I-2235496J0D01*
G01*
D13*
X153500000Y-80640000D02*
X153500000Y-80755000D01*
X157650000Y-80640000D02*
X157650000Y-80755000D01*
X157650000Y-89540000D02*
X157650000Y-89425000D01*
X153500000Y-89540000D02*
X153500000Y-89425000D01*
X153500000Y-80640000D02*
X157650000Y-80640000D01*
X153500000Y-89540000D02*
X157650000Y-89540000D01*
X153500000Y-80755000D02*
X152125000Y-80755000D01*
X189060000Y-90135000D02*
X189060000Y-90280000D01*
X193210000Y-90135000D02*
X193210000Y-90280000D01*
X193210000Y-95285000D02*
X193210000Y-95140000D01*
X189060000Y-95285000D02*
X189060000Y-95140000D01*
X189060000Y-90135000D02*
X193210000Y-90135000D01*
X189060000Y-95285000D02*
X193210000Y-95285000D01*
X189060000Y-90280000D02*
X187660000Y-90280000D01*
X130429000Y-53975000D02*
X128524000Y-53975000D01*
X125984000Y-53975000D02*
X126746000Y-53975000D01*
X123571000Y-53975000D02*
X123444000Y-53975000D01*
X123571000Y-53975000D02*
X124206000Y-53975000D01*
X119761000Y-53975000D02*
X121539000Y-53975000D01*
X119761000Y-57658000D02*
X121412000Y-57658000D01*
X124079000Y-57785000D02*
X123444000Y-57785000D01*
X126619000Y-57785000D02*
X125984000Y-57785000D01*
X130429000Y-57658000D02*
X128778000Y-57658000D01*
X123571000Y-52832000D02*
X123571000Y-53975000D01*
X126619000Y-52832000D02*
X126619000Y-53975000D01*
X130429000Y-53975000D02*
X130429000Y-57658000D01*
X119761000Y-57658000D02*
X119761000Y-53975000D01*
X130429000Y-52832000D02*
X130429000Y-53975000D01*
X119761000Y-53975000D02*
X119761000Y-52832000D01*
X125095000Y-52832000D02*
X119761000Y-52832000D01*
X125095000Y-52832000D02*
X130429000Y-52832000D01*
X170530000Y-79975000D02*
X169830000Y-79975000D01*
X169830000Y-78775000D02*
X170530000Y-78775000D01*
X145130000Y-79975000D02*
X144430000Y-79975000D01*
X144430000Y-78775000D02*
X145130000Y-78775000D01*
X183230000Y-79340000D02*
X182530000Y-79340000D01*
X182530000Y-78140000D02*
X183230000Y-78140000D01*
X145130000Y-64100000D02*
X144430000Y-64100000D01*
X144430000Y-62900000D02*
X145130000Y-62900000D01*
X193390000Y-89500000D02*
X192690000Y-89500000D01*
X192690000Y-88300000D02*
X193390000Y-88300000D01*
X157830000Y-79975000D02*
X157130000Y-79975000D01*
X157130000Y-78775000D02*
X157830000Y-78775000D01*
X194910000Y-133635000D02*
X194910000Y-134335000D01*
X193710000Y-134335000D02*
X193710000Y-133635000D01*
X171535000Y-104945000D02*
X171535000Y-106845000D01*
X172635000Y-104945000D02*
X172635000Y-106845000D01*
X172085000Y-105845000D02*
X172085000Y-106295000D01*
X172335000Y-105795000D02*
X171835000Y-105795000D01*
X172085000Y-105795000D02*
X172335000Y-106045000D01*
X172335000Y-106045000D02*
X171835000Y-106045000D01*
X171835000Y-106045000D02*
X172085000Y-105795000D01*
X168995000Y-104945000D02*
X168995000Y-106845000D01*
X170095000Y-104945000D02*
X170095000Y-106845000D01*
X169545000Y-105845000D02*
X169545000Y-106295000D01*
X169795000Y-105795000D02*
X169295000Y-105795000D01*
X169545000Y-105795000D02*
X169795000Y-106045000D01*
X169795000Y-106045000D02*
X169295000Y-106045000D01*
X169295000Y-106045000D02*
X169545000Y-105795000D01*
X172085000Y-93980000D02*
X184785000Y-93980000D01*
X184785000Y-93980000D02*
X184785000Y-96520000D01*
X184785000Y-96520000D02*
X172085000Y-96520000D01*
X169265000Y-93700000D02*
X170815000Y-93700000D01*
X172085000Y-93980000D02*
X172085000Y-96520000D01*
X170815000Y-96800000D02*
X169265000Y-96800000D01*
X169265000Y-96800000D02*
X169265000Y-93700000D01*
X163965000Y-92035000D02*
X164965000Y-92035000D01*
X164965000Y-93385000D02*
X163965000Y-93385000D01*
X172760000Y-101100000D02*
X172760000Y-102100000D01*
X171410000Y-102100000D02*
X171410000Y-101100000D01*
X170220000Y-101100000D02*
X170220000Y-102100000D01*
X168870000Y-102100000D02*
X168870000Y-101100000D01*
X176030000Y-98035000D02*
X176030000Y-99305000D01*
X191000000Y-98035000D02*
X191000000Y-99305000D01*
X191000000Y-135645000D02*
X191000000Y-134375000D01*
X176030000Y-135645000D02*
X176030000Y-134375000D01*
X176030000Y-98035000D02*
X191000000Y-98035000D01*
X176030000Y-135645000D02*
X191000000Y-135645000D01*
X176030000Y-99305000D02*
X174745000Y-99305000D01*
X171815760Y-120169940D02*
X171414440Y-120370600D01*
X171414440Y-120370600D02*
X170815000Y-120472200D01*
X170815000Y-120472200D02*
X170314620Y-120370600D01*
X170314620Y-120370600D02*
X169616120Y-119971820D01*
X169616120Y-119971820D02*
X169214800Y-119369840D01*
X169214800Y-119369840D02*
X169014140Y-118770400D01*
X169014140Y-118770400D02*
X169014140Y-112171480D01*
X169014140Y-112171480D02*
X169214800Y-111470440D01*
X169214800Y-111470440D02*
X169514520Y-111071660D01*
X169514520Y-111071660D02*
X170014900Y-110670340D01*
X170014900Y-110670340D02*
X170614340Y-110469680D01*
X170614340Y-110469680D02*
X171114720Y-110469680D01*
X171114720Y-110469680D02*
X171615100Y-110670340D01*
X171615100Y-110670340D02*
X172214540Y-111170720D01*
X172214540Y-111170720D02*
X172514260Y-111671100D01*
X172514260Y-111671100D02*
X172615860Y-112171480D01*
X172615860Y-112270540D02*
X172615860Y-118872000D01*
X172615860Y-118872000D02*
X172514260Y-119270780D01*
X172514260Y-119270780D02*
X172214540Y-119771160D01*
X172214540Y-119771160D02*
X171714160Y-120271540D01*
X173144180Y-112280700D02*
X173095920Y-111820960D01*
X173095920Y-111820960D02*
X172984160Y-111422180D01*
X172984160Y-111422180D02*
X172765720Y-110990380D01*
X172765720Y-110990380D02*
X172534580Y-110700820D01*
X172534580Y-110700820D02*
X172184060Y-110370620D01*
X172184060Y-110370620D02*
X171645580Y-110081060D01*
X171645580Y-110081060D02*
X171046140Y-109951520D01*
X171046140Y-109951520D02*
X170535600Y-109951520D01*
X170535600Y-109951520D02*
X169834560Y-110121700D01*
X169834560Y-110121700D02*
X169245280Y-110520480D01*
X169245280Y-110520480D02*
X168874440Y-110980220D01*
X168874440Y-110980220D02*
X168666160Y-111401860D01*
X168666160Y-111401860D02*
X168506140Y-111851440D01*
X168506140Y-111851440D02*
X168475660Y-112290860D01*
X168694100Y-119631460D02*
X168915080Y-120009920D01*
X168915080Y-120009920D02*
X169194480Y-120329960D01*
X169194480Y-120329960D02*
X169524680Y-120581420D01*
X169524680Y-120581420D02*
X170075860Y-120881140D01*
X170075860Y-120881140D02*
X170545760Y-120990360D01*
X170545760Y-120990360D02*
X171005500Y-121010680D01*
X171005500Y-121010680D02*
X171465240Y-120921780D01*
X171465240Y-120921780D02*
X171914820Y-120731280D01*
X171914820Y-120731280D02*
X172384720Y-120370600D01*
X172384720Y-120370600D02*
X172704760Y-120020080D01*
X172704760Y-120020080D02*
X172935900Y-119631460D01*
X172935900Y-119631460D02*
X173075600Y-119202200D01*
X173075600Y-119202200D02*
X173144180Y-118760240D01*
X168485820Y-112270540D02*
X168485820Y-118722140D01*
X168485820Y-118722140D02*
X168523920Y-119141240D01*
X168523920Y-119141240D02*
X168694100Y-119631460D01*
X173144180Y-112270540D02*
X173144180Y-118722140D01*
X163330000Y-57395000D02*
X163330000Y-58665000D01*
X170680000Y-57395000D02*
X170680000Y-58665000D01*
X170680000Y-77225000D02*
X170680000Y-75955000D01*
X163330000Y-77225000D02*
X163330000Y-75955000D01*
X163330000Y-57395000D02*
X170680000Y-57395000D01*
X163330000Y-77225000D02*
X170680000Y-77225000D01*
X163330000Y-58665000D02*
X162045000Y-58665000D01*
X177165000Y-68580000D02*
X177165000Y-71120000D01*
X177445000Y-65760000D02*
X177445000Y-67310000D01*
X177165000Y-68580000D02*
X174625000Y-68580000D01*
X174345000Y-67310000D02*
X174345000Y-65760000D01*
X174345000Y-65760000D02*
X177445000Y-65760000D01*
X174625000Y-68580000D02*
X174625000Y-71120000D01*
X174625000Y-71120000D02*
X177165000Y-71120000D01*
X172085000Y-142240000D02*
X154305000Y-142240000D01*
X154305000Y-142240000D02*
X154305000Y-139700000D01*
X154305000Y-139700000D02*
X172085000Y-139700000D01*
X174905000Y-142520000D02*
X173355000Y-142520000D01*
X172085000Y-142240000D02*
X172085000Y-139700000D01*
X173355000Y-139420000D02*
X174905000Y-139420000D01*
X174905000Y-139420000D02*
X174905000Y-142520000D01*
X149225000Y-142240000D02*
X131445000Y-142240000D01*
X131445000Y-142240000D02*
X131445000Y-139700000D01*
X131445000Y-139700000D02*
X149225000Y-139700000D01*
X152045000Y-142520000D02*
X150495000Y-142520000D01*
X149225000Y-142240000D02*
X149225000Y-139700000D01*
X150495000Y-139420000D02*
X152045000Y-139420000D01*
X152045000Y-139420000D02*
X152045000Y-142520000D01*
X149225000Y-147320000D02*
X131445000Y-147320000D01*
X131445000Y-147320000D02*
X131445000Y-144780000D01*
X131445000Y-144780000D02*
X149225000Y-144780000D01*
X152045000Y-147600000D02*
X150495000Y-147600000D01*
X149225000Y-147320000D02*
X149225000Y-144780000D01*
X150495000Y-144500000D02*
X152045000Y-144500000D01*
X152045000Y-144500000D02*
X152045000Y-147600000D01*
X126365000Y-142240000D02*
X108585000Y-142240000D01*
X108585000Y-142240000D02*
X108585000Y-139700000D01*
X108585000Y-139700000D02*
X126365000Y-139700000D01*
X129185000Y-142520000D02*
X127635000Y-142520000D01*
X126365000Y-142240000D02*
X126365000Y-139700000D01*
X127635000Y-139420000D02*
X129185000Y-139420000D01*
X129185000Y-139420000D02*
X129185000Y-142520000D01*
X126365000Y-147320000D02*
X108585000Y-147320000D01*
X108585000Y-147320000D02*
X108585000Y-144780000D01*
X108585000Y-144780000D02*
X126365000Y-144780000D01*
X129185000Y-147600000D02*
X127635000Y-147600000D01*
X126365000Y-147320000D02*
X126365000Y-144780000D01*
X127635000Y-144500000D02*
X129185000Y-144500000D01*
X129185000Y-144500000D02*
X129185000Y-147600000D01*
X172085000Y-147320000D02*
X154305000Y-147320000D01*
X154305000Y-147320000D02*
X154305000Y-144780000D01*
X154305000Y-144780000D02*
X172085000Y-144780000D01*
X174905000Y-147600000D02*
X173355000Y-147600000D01*
X172085000Y-147320000D02*
X172085000Y-144780000D01*
X173355000Y-144500000D02*
X174905000Y-144500000D01*
X174905000Y-144500000D02*
X174905000Y-147600000D01*
D15*
X186055000Y-70485000D02*
X194945000Y-70485000D01*
X194945000Y-80645000D02*
X186055000Y-80645000D01*
X186055000Y-70485000D02*
X186055000Y-73025000D01*
X185420000Y-73025000D02*
X186055000Y-73025000D01*
X186055000Y-80645000D02*
X186055000Y-78105000D01*
X185420000Y-78105000D02*
X186055000Y-78105000D01*
X185420000Y-78105000D02*
X185420000Y-76200000D01*
X194945000Y-80645000D02*
X194945000Y-78105000D01*
X195580000Y-78105000D02*
X194945000Y-78105000D01*
X194945000Y-70485000D02*
X194945000Y-73025000D01*
X195580000Y-73025000D02*
X194945000Y-73025000D01*
X195580000Y-73025000D02*
X195580000Y-74930000D01*
X195580000Y-76200000D02*
X194945000Y-76200000D01*
X195580000Y-76200000D02*
X195580000Y-78105000D01*
X194945000Y-76200000D02*
X194945000Y-74930000D01*
X194945000Y-74930000D02*
X195580000Y-74930000D01*
X195580000Y-74930000D02*
X195580000Y-76200000D01*
X185420000Y-76200000D02*
X186055000Y-76200000D01*
X185420000Y-76200000D02*
X185420000Y-74930000D01*
X186055000Y-76200000D02*
X186055000Y-74930000D01*
X186055000Y-74930000D02*
X185420000Y-74930000D01*
X185420000Y-74930000D02*
X185420000Y-73025000D01*
X186690000Y-78740000D02*
X186690000Y-72390000D01*
X194310000Y-78740000D02*
X194310000Y-72390000D01*
X193929000Y-78740000D02*
X194310000Y-78740000D01*
X187960000Y-77470000D02*
X192405000Y-77470000D01*
X192405000Y-77470000D02*
X193040000Y-77470000D01*
X193040000Y-77470000D02*
X193040000Y-73660000D01*
X193040000Y-73660000D02*
X192405000Y-73660000D01*
X192405000Y-73660000D02*
X187960000Y-73660000D01*
X187960000Y-73660000D02*
X187960000Y-77470000D01*
X186690000Y-78740000D02*
X187071000Y-78740000D01*
X193929000Y-72390000D02*
X194310000Y-72390000D01*
X186690000Y-72390000D02*
X187071000Y-72390000D01*
X190500000Y-76835000D02*
X190500000Y-74295000D01*
X191770000Y-75565000D02*
X189230000Y-75565000D01*
X192405000Y-77470000D02*
X192405000Y-73660000D01*
D16*
X193122235Y-75565000D02*
G75*
G03X193122235Y-75565000I-2622235J0D01*
G01*
X192745064Y-75565000D02*
G75*
G03X192745064Y-75565000I-2245064J0D01*
G01*
D13*
X184785000Y-139700000D02*
X177165000Y-139700000D01*
X184785000Y-142240000D02*
X177165000Y-142240000D01*
X187605000Y-142520000D02*
X186055000Y-142520000D01*
X177165000Y-139700000D02*
X177165000Y-142240000D01*
X184785000Y-142240000D02*
X184785000Y-139700000D01*
X186055000Y-139420000D02*
X187605000Y-139420000D01*
X187605000Y-139420000D02*
X187605000Y-142520000D01*
X148042381Y-101091905D02*
X148851905Y-101091905D01*
X148947143Y-101044286D01*
X148994762Y-100996667D01*
X149042381Y-100901429D01*
X149042381Y-100710952D01*
X148994762Y-100615714D01*
X148947143Y-100568095D01*
X148851905Y-100520476D01*
X148042381Y-100520476D01*
X148470952Y-99901429D02*
X148423333Y-99996667D01*
X148375714Y-100044286D01*
X148280476Y-100091905D01*
X148232857Y-100091905D01*
X148137619Y-100044286D01*
X148090000Y-99996667D01*
X148042381Y-99901429D01*
X148042381Y-99710952D01*
X148090000Y-99615714D01*
X148137619Y-99568095D01*
X148232857Y-99520476D01*
X148280476Y-99520476D01*
X148375714Y-99568095D01*
X148423333Y-99615714D01*
X148470952Y-99710952D01*
X148470952Y-99901429D01*
X148518571Y-99996667D01*
X148566190Y-100044286D01*
X148661429Y-100091905D01*
X148851905Y-100091905D01*
X148947143Y-100044286D01*
X148994762Y-99996667D01*
X149042381Y-99901429D01*
X149042381Y-99710952D01*
X148994762Y-99615714D01*
X148947143Y-99568095D01*
X148851905Y-99520476D01*
X148661429Y-99520476D01*
X148566190Y-99568095D01*
X148518571Y-99615714D01*
X148470952Y-99710952D01*
X128143095Y-92797381D02*
X128143095Y-93606905D01*
X128190714Y-93702143D01*
X128238333Y-93749762D01*
X128333571Y-93797381D01*
X128524048Y-93797381D01*
X128619286Y-93749762D01*
X128666905Y-93702143D01*
X128714524Y-93606905D01*
X128714524Y-92797381D01*
X129095476Y-92797381D02*
X129762143Y-92797381D01*
X129333571Y-93797381D01*
X99147381Y-85851905D02*
X99956905Y-85851905D01*
X100052143Y-85804286D01*
X100099762Y-85756667D01*
X100147381Y-85661429D01*
X100147381Y-85470952D01*
X100099762Y-85375714D01*
X100052143Y-85328095D01*
X99956905Y-85280476D01*
X99147381Y-85280476D01*
X100147381Y-84280476D02*
X100147381Y-84851905D01*
X100147381Y-84566191D02*
X99147381Y-84566191D01*
X99290238Y-84661429D01*
X99385476Y-84756667D01*
X99433095Y-84851905D01*
X147407381Y-96083333D02*
X148121667Y-96083333D01*
X148264524Y-96130953D01*
X148359762Y-96226191D01*
X148407381Y-96369048D01*
X148407381Y-96464286D01*
X148407381Y-95607143D02*
X147407381Y-95607143D01*
X147407381Y-95226190D01*
X147455000Y-95130952D01*
X147502619Y-95083333D01*
X147597857Y-95035714D01*
X147740714Y-95035714D01*
X147835952Y-95083333D01*
X147883571Y-95130952D01*
X147931190Y-95226190D01*
X147931190Y-95607143D01*
X148407381Y-94083333D02*
X148407381Y-94654762D01*
X148407381Y-94369048D02*
X147407381Y-94369048D01*
X147550238Y-94464286D01*
X147645476Y-94559524D01*
X147693095Y-94654762D01*
X137882381Y-82676905D02*
X138691905Y-82676905D01*
X138787143Y-82629286D01*
X138834762Y-82581667D01*
X138882381Y-82486429D01*
X138882381Y-82295952D01*
X138834762Y-82200714D01*
X138787143Y-82153095D01*
X138691905Y-82105476D01*
X137882381Y-82105476D01*
X138215714Y-81200714D02*
X138882381Y-81200714D01*
X137834762Y-81438810D02*
X138549048Y-81676905D01*
X138549048Y-81057857D01*
X117562381Y-68071905D02*
X118371905Y-68071905D01*
X118467143Y-68024286D01*
X118514762Y-67976667D01*
X118562381Y-67881429D01*
X118562381Y-67690952D01*
X118514762Y-67595714D01*
X118467143Y-67548095D01*
X118371905Y-67500476D01*
X117562381Y-67500476D01*
X117562381Y-66595714D02*
X117562381Y-66786191D01*
X117610000Y-66881429D01*
X117657619Y-66929048D01*
X117800476Y-67024286D01*
X117990952Y-67071905D01*
X118371905Y-67071905D01*
X118467143Y-67024286D01*
X118514762Y-66976667D01*
X118562381Y-66881429D01*
X118562381Y-66690952D01*
X118514762Y-66595714D01*
X118467143Y-66548095D01*
X118371905Y-66500476D01*
X118133810Y-66500476D01*
X118038571Y-66548095D01*
X117990952Y-66595714D01*
X117943333Y-66690952D01*
X117943333Y-66881429D01*
X117990952Y-66976667D01*
X118038571Y-67024286D01*
X118133810Y-67071905D01*
X137882381Y-66801905D02*
X138691905Y-66801905D01*
X138787143Y-66754286D01*
X138834762Y-66706667D01*
X138882381Y-66611429D01*
X138882381Y-66420952D01*
X138834762Y-66325714D01*
X138787143Y-66278095D01*
X138691905Y-66230476D01*
X137882381Y-66230476D01*
X138882381Y-65706667D02*
X138882381Y-65516191D01*
X138834762Y-65420952D01*
X138787143Y-65373333D01*
X138644286Y-65278095D01*
X138453810Y-65230476D01*
X138072857Y-65230476D01*
X137977619Y-65278095D01*
X137930000Y-65325714D01*
X137882381Y-65420952D01*
X137882381Y-65611429D01*
X137930000Y-65706667D01*
X137977619Y-65754286D01*
X138072857Y-65801905D01*
X138310952Y-65801905D01*
X138406190Y-65754286D01*
X138453810Y-65706667D01*
X138501429Y-65611429D01*
X138501429Y-65420952D01*
X138453810Y-65325714D01*
X138406190Y-65278095D01*
X138310952Y-65230476D01*
X150582381Y-67278095D02*
X151391905Y-67278095D01*
X151487143Y-67230476D01*
X151534762Y-67182857D01*
X151582381Y-67087619D01*
X151582381Y-66897142D01*
X151534762Y-66801904D01*
X151487143Y-66754285D01*
X151391905Y-66706666D01*
X150582381Y-66706666D01*
X151582381Y-65706666D02*
X151582381Y-66278095D01*
X151582381Y-65992381D02*
X150582381Y-65992381D01*
X150725238Y-66087619D01*
X150820476Y-66182857D01*
X150868095Y-66278095D01*
X150582381Y-65087619D02*
X150582381Y-64992380D01*
X150630000Y-64897142D01*
X150677619Y-64849523D01*
X150772857Y-64801904D01*
X150963333Y-64754285D01*
X151201429Y-64754285D01*
X151391905Y-64801904D01*
X151487143Y-64849523D01*
X151534762Y-64897142D01*
X151582381Y-64992380D01*
X151582381Y-65087619D01*
X151534762Y-65182857D01*
X151487143Y-65230476D01*
X151391905Y-65278095D01*
X151201429Y-65325714D01*
X150963333Y-65325714D01*
X150772857Y-65278095D01*
X150677619Y-65230476D01*
X150630000Y-65182857D01*
X150582381Y-65087619D01*
X125563334Y-94432381D02*
X125230000Y-93956190D01*
X124991905Y-94432381D02*
X124991905Y-93432381D01*
X125372858Y-93432381D01*
X125468096Y-93480000D01*
X125515715Y-93527619D01*
X125563334Y-93622857D01*
X125563334Y-93765714D01*
X125515715Y-93860952D01*
X125468096Y-93908571D01*
X125372858Y-93956190D01*
X124991905Y-93956190D01*
X126515715Y-94432381D02*
X125944286Y-94432381D01*
X126230000Y-94432381D02*
X126230000Y-93432381D01*
X126134762Y-93575238D01*
X126039524Y-93670476D01*
X125944286Y-93718095D01*
X125563334Y-99512381D02*
X125230000Y-99036190D01*
X124991905Y-99512381D02*
X124991905Y-98512381D01*
X125372858Y-98512381D01*
X125468096Y-98560000D01*
X125515715Y-98607619D01*
X125563334Y-98702857D01*
X125563334Y-98845714D01*
X125515715Y-98940952D01*
X125468096Y-98988571D01*
X125372858Y-99036190D01*
X124991905Y-99036190D01*
X125944286Y-98607619D02*
X125991905Y-98560000D01*
X126087143Y-98512381D01*
X126325239Y-98512381D01*
X126420477Y-98560000D01*
X126468096Y-98607619D01*
X126515715Y-98702857D01*
X126515715Y-98798095D01*
X126468096Y-98940952D01*
X125896667Y-99512381D01*
X126515715Y-99512381D01*
X125563334Y-91892381D02*
X125230000Y-91416190D01*
X124991905Y-91892381D02*
X124991905Y-90892381D01*
X125372858Y-90892381D01*
X125468096Y-90940000D01*
X125515715Y-90987619D01*
X125563334Y-91082857D01*
X125563334Y-91225714D01*
X125515715Y-91320952D01*
X125468096Y-91368571D01*
X125372858Y-91416190D01*
X124991905Y-91416190D01*
X125896667Y-90892381D02*
X126515715Y-90892381D01*
X126182381Y-91273333D01*
X126325239Y-91273333D01*
X126420477Y-91320952D01*
X126468096Y-91368571D01*
X126515715Y-91463810D01*
X126515715Y-91701905D01*
X126468096Y-91797143D01*
X126420477Y-91844762D01*
X126325239Y-91892381D01*
X126039524Y-91892381D01*
X125944286Y-91844762D01*
X125896667Y-91797143D01*
X125563334Y-89352381D02*
X125230000Y-88876190D01*
X124991905Y-89352381D02*
X124991905Y-88352381D01*
X125372858Y-88352381D01*
X125468096Y-88400000D01*
X125515715Y-88447619D01*
X125563334Y-88542857D01*
X125563334Y-88685714D01*
X125515715Y-88780952D01*
X125468096Y-88828571D01*
X125372858Y-88876190D01*
X124991905Y-88876190D01*
X126420477Y-88685714D02*
X126420477Y-89352381D01*
X126182381Y-88304762D02*
X125944286Y-89019048D01*
X126563334Y-89019048D01*
X125563334Y-96972381D02*
X125230000Y-96496190D01*
X124991905Y-96972381D02*
X124991905Y-95972381D01*
X125372858Y-95972381D01*
X125468096Y-96020000D01*
X125515715Y-96067619D01*
X125563334Y-96162857D01*
X125563334Y-96305714D01*
X125515715Y-96400952D01*
X125468096Y-96448571D01*
X125372858Y-96496190D01*
X124991905Y-96496190D01*
X126468096Y-95972381D02*
X125991905Y-95972381D01*
X125944286Y-96448571D01*
X125991905Y-96400952D01*
X126087143Y-96353333D01*
X126325239Y-96353333D01*
X126420477Y-96400952D01*
X126468096Y-96448571D01*
X126515715Y-96543810D01*
X126515715Y-96781905D01*
X126468096Y-96877143D01*
X126420477Y-96924762D01*
X126325239Y-96972381D01*
X126087143Y-96972381D01*
X125991905Y-96924762D01*
X125944286Y-96877143D01*
X125563334Y-64492143D02*
X125515715Y-64539762D01*
X125372858Y-64587381D01*
X125277620Y-64587381D01*
X125134762Y-64539762D01*
X125039524Y-64444524D01*
X124991905Y-64349286D01*
X124944286Y-64158810D01*
X124944286Y-64015952D01*
X124991905Y-63825476D01*
X125039524Y-63730238D01*
X125134762Y-63635000D01*
X125277620Y-63587381D01*
X125372858Y-63587381D01*
X125515715Y-63635000D01*
X125563334Y-63682619D01*
X126515715Y-64587381D02*
X125944286Y-64587381D01*
X126230000Y-64587381D02*
X126230000Y-63587381D01*
X126134762Y-63730238D01*
X126039524Y-63825476D01*
X125944286Y-63873095D01*
X107783334Y-64492143D02*
X107735715Y-64539762D01*
X107592858Y-64587381D01*
X107497620Y-64587381D01*
X107354762Y-64539762D01*
X107259524Y-64444524D01*
X107211905Y-64349286D01*
X107164286Y-64158810D01*
X107164286Y-64015952D01*
X107211905Y-63825476D01*
X107259524Y-63730238D01*
X107354762Y-63635000D01*
X107497620Y-63587381D01*
X107592858Y-63587381D01*
X107735715Y-63635000D01*
X107783334Y-63682619D01*
X108116667Y-63587381D02*
X108735715Y-63587381D01*
X108402381Y-63968333D01*
X108545239Y-63968333D01*
X108640477Y-64015952D01*
X108688096Y-64063571D01*
X108735715Y-64158810D01*
X108735715Y-64396905D01*
X108688096Y-64492143D01*
X108640477Y-64539762D01*
X108545239Y-64587381D01*
X108259524Y-64587381D01*
X108164286Y-64539762D01*
X108116667Y-64492143D01*
X100052143Y-105576666D02*
X100099762Y-105624285D01*
X100147381Y-105767142D01*
X100147381Y-105862380D01*
X100099762Y-106005238D01*
X100004524Y-106100476D01*
X99909286Y-106148095D01*
X99718810Y-106195714D01*
X99575952Y-106195714D01*
X99385476Y-106148095D01*
X99290238Y-106100476D01*
X99195000Y-106005238D01*
X99147381Y-105862380D01*
X99147381Y-105767142D01*
X99195000Y-105624285D01*
X99242619Y-105576666D01*
X99480714Y-104719523D02*
X100147381Y-104719523D01*
X99099762Y-104957619D02*
X99814048Y-105195714D01*
X99814048Y-104576666D01*
X159853334Y-95607143D02*
X159805715Y-95654762D01*
X159662858Y-95702381D01*
X159567620Y-95702381D01*
X159424762Y-95654762D01*
X159329524Y-95559524D01*
X159281905Y-95464286D01*
X159234286Y-95273810D01*
X159234286Y-95130952D01*
X159281905Y-94940476D01*
X159329524Y-94845238D01*
X159424762Y-94750000D01*
X159567620Y-94702381D01*
X159662858Y-94702381D01*
X159805715Y-94750000D01*
X159853334Y-94797619D01*
X160758096Y-94702381D02*
X160281905Y-94702381D01*
X160234286Y-95178571D01*
X160281905Y-95130952D01*
X160377143Y-95083333D01*
X160615239Y-95083333D01*
X160710477Y-95130952D01*
X160758096Y-95178571D01*
X160805715Y-95273810D01*
X160805715Y-95511905D01*
X160758096Y-95607143D01*
X160710477Y-95654762D01*
X160615239Y-95702381D01*
X160377143Y-95702381D01*
X160281905Y-95654762D01*
X160234286Y-95607143D01*
X154138334Y-63857143D02*
X154090715Y-63904762D01*
X153947858Y-63952381D01*
X153852620Y-63952381D01*
X153709762Y-63904762D01*
X153614524Y-63809524D01*
X153566905Y-63714286D01*
X153519286Y-63523810D01*
X153519286Y-63380952D01*
X153566905Y-63190476D01*
X153614524Y-63095238D01*
X153709762Y-63000000D01*
X153852620Y-62952381D01*
X153947858Y-62952381D01*
X154090715Y-63000000D01*
X154138334Y-63047619D01*
X154995477Y-62952381D02*
X154805000Y-62952381D01*
X154709762Y-63000000D01*
X154662143Y-63047619D01*
X154566905Y-63190476D01*
X154519286Y-63380952D01*
X154519286Y-63761905D01*
X154566905Y-63857143D01*
X154614524Y-63904762D01*
X154709762Y-63952381D01*
X154900239Y-63952381D01*
X154995477Y-63904762D01*
X155043096Y-63857143D01*
X155090715Y-63761905D01*
X155090715Y-63523810D01*
X155043096Y-63428571D01*
X154995477Y-63380952D01*
X154900239Y-63333333D01*
X154709762Y-63333333D01*
X154614524Y-63380952D01*
X154566905Y-63428571D01*
X154519286Y-63523810D01*
X164298334Y-95607143D02*
X164250715Y-95654762D01*
X164107858Y-95702381D01*
X164012620Y-95702381D01*
X163869762Y-95654762D01*
X163774524Y-95559524D01*
X163726905Y-95464286D01*
X163679286Y-95273810D01*
X163679286Y-95130952D01*
X163726905Y-94940476D01*
X163774524Y-94845238D01*
X163869762Y-94750000D01*
X164012620Y-94702381D01*
X164107858Y-94702381D01*
X164250715Y-94750000D01*
X164298334Y-94797619D01*
X164631667Y-94702381D02*
X165298334Y-94702381D01*
X164869762Y-95702381D01*
X99782381Y-68071905D02*
X100591905Y-68071905D01*
X100687143Y-68024286D01*
X100734762Y-67976667D01*
X100782381Y-67881429D01*
X100782381Y-67690952D01*
X100734762Y-67595714D01*
X100687143Y-67548095D01*
X100591905Y-67500476D01*
X99782381Y-67500476D01*
X99877619Y-67071905D02*
X99830000Y-67024286D01*
X99782381Y-66929048D01*
X99782381Y-66690952D01*
X99830000Y-66595714D01*
X99877619Y-66548095D01*
X99972857Y-66500476D01*
X100068095Y-66500476D01*
X100210952Y-66548095D01*
X100782381Y-67119524D01*
X100782381Y-66500476D01*
X163282381Y-83153095D02*
X164091905Y-83153095D01*
X164187143Y-83105476D01*
X164234762Y-83057857D01*
X164282381Y-82962619D01*
X164282381Y-82772142D01*
X164234762Y-82676904D01*
X164187143Y-82629285D01*
X164091905Y-82581666D01*
X163282381Y-82581666D01*
X164282381Y-81581666D02*
X164282381Y-82153095D01*
X164282381Y-81867381D02*
X163282381Y-81867381D01*
X163425238Y-81962619D01*
X163520476Y-82057857D01*
X163568095Y-82153095D01*
X164282381Y-80629285D02*
X164282381Y-81200714D01*
X164282381Y-80915000D02*
X163282381Y-80915000D01*
X163425238Y-81010238D01*
X163520476Y-81105476D01*
X163568095Y-81200714D01*
X175982381Y-82518095D02*
X176791905Y-82518095D01*
X176887143Y-82470476D01*
X176934762Y-82422857D01*
X176982381Y-82327619D01*
X176982381Y-82137142D01*
X176934762Y-82041904D01*
X176887143Y-81994285D01*
X176791905Y-81946666D01*
X175982381Y-81946666D01*
X176982381Y-80946666D02*
X176982381Y-81518095D01*
X176982381Y-81232381D02*
X175982381Y-81232381D01*
X176125238Y-81327619D01*
X176220476Y-81422857D01*
X176268095Y-81518095D01*
X176077619Y-80565714D02*
X176030000Y-80518095D01*
X175982381Y-80422857D01*
X175982381Y-80184761D01*
X176030000Y-80089523D01*
X176077619Y-80041904D01*
X176172857Y-79994285D01*
X176268095Y-79994285D01*
X176410952Y-80041904D01*
X176982381Y-80613333D01*
X176982381Y-79994285D01*
X125563334Y-86812381D02*
X125230000Y-86336190D01*
X124991905Y-86812381D02*
X124991905Y-85812381D01*
X125372858Y-85812381D01*
X125468096Y-85860000D01*
X125515715Y-85907619D01*
X125563334Y-86002857D01*
X125563334Y-86145714D01*
X125515715Y-86240952D01*
X125468096Y-86288571D01*
X125372858Y-86336190D01*
X124991905Y-86336190D01*
X126420477Y-85812381D02*
X126230000Y-85812381D01*
X126134762Y-85860000D01*
X126087143Y-85907619D01*
X125991905Y-86050476D01*
X125944286Y-86240952D01*
X125944286Y-86621905D01*
X125991905Y-86717143D01*
X126039524Y-86764762D01*
X126134762Y-86812381D01*
X126325239Y-86812381D01*
X126420477Y-86764762D01*
X126468096Y-86717143D01*
X126515715Y-86621905D01*
X126515715Y-86383810D01*
X126468096Y-86288571D01*
X126420477Y-86240952D01*
X126325239Y-86193333D01*
X126134762Y-86193333D01*
X126039524Y-86240952D01*
X125991905Y-86288571D01*
X125944286Y-86383810D01*
X150391905Y-61412381D02*
X150391905Y-60412381D01*
X150630000Y-60412381D01*
X150772858Y-60460000D01*
X150868096Y-60555238D01*
X150915715Y-60650476D01*
X150963334Y-60840952D01*
X150963334Y-60983810D01*
X150915715Y-61174286D01*
X150868096Y-61269524D01*
X150772858Y-61364762D01*
X150630000Y-61412381D01*
X150391905Y-61412381D01*
X151915715Y-61412381D02*
X151344286Y-61412381D01*
X151630000Y-61412381D02*
X151630000Y-60412381D01*
X151534762Y-60555238D01*
X151439524Y-60650476D01*
X151344286Y-60698095D01*
X128087381Y-88368095D02*
X127087381Y-88368095D01*
X127087381Y-88130000D01*
X127135000Y-87987142D01*
X127230238Y-87891904D01*
X127325476Y-87844285D01*
X127515952Y-87796666D01*
X127658810Y-87796666D01*
X127849286Y-87844285D01*
X127944524Y-87891904D01*
X128039762Y-87987142D01*
X128087381Y-88130000D01*
X128087381Y-88368095D01*
X127182619Y-87415714D02*
X127135000Y-87368095D01*
X127087381Y-87272857D01*
X127087381Y-87034761D01*
X127135000Y-86939523D01*
X127182619Y-86891904D01*
X127277857Y-86844285D01*
X127373095Y-86844285D01*
X127515952Y-86891904D01*
X128087381Y-87463333D01*
X128087381Y-86844285D01*
X155408334Y-61412381D02*
X155075000Y-60936190D01*
X154836905Y-61412381D02*
X154836905Y-60412381D01*
X155217858Y-60412381D01*
X155313096Y-60460000D01*
X155360715Y-60507619D01*
X155408334Y-60602857D01*
X155408334Y-60745714D01*
X155360715Y-60840952D01*
X155313096Y-60888571D01*
X155217858Y-60936190D01*
X154836905Y-60936190D01*
X155741667Y-60412381D02*
X156408334Y-60412381D01*
X155979762Y-61412381D01*
X125563334Y-84907381D02*
X125230000Y-84431190D01*
X124991905Y-84907381D02*
X124991905Y-83907381D01*
X125372858Y-83907381D01*
X125468096Y-83955000D01*
X125515715Y-84002619D01*
X125563334Y-84097857D01*
X125563334Y-84240714D01*
X125515715Y-84335952D01*
X125468096Y-84383571D01*
X125372858Y-84431190D01*
X124991905Y-84431190D01*
X126134762Y-84335952D02*
X126039524Y-84288333D01*
X125991905Y-84240714D01*
X125944286Y-84145476D01*
X125944286Y-84097857D01*
X125991905Y-84002619D01*
X126039524Y-83955000D01*
X126134762Y-83907381D01*
X126325239Y-83907381D01*
X126420477Y-83955000D01*
X126468096Y-84002619D01*
X126515715Y-84097857D01*
X126515715Y-84145476D01*
X126468096Y-84240714D01*
X126420477Y-84288333D01*
X126325239Y-84335952D01*
X126134762Y-84335952D01*
X126039524Y-84383571D01*
X125991905Y-84431190D01*
X125944286Y-84526429D01*
X125944286Y-84716905D01*
X125991905Y-84812143D01*
X126039524Y-84859762D01*
X126134762Y-84907381D01*
X126325239Y-84907381D01*
X126420477Y-84859762D01*
X126468096Y-84812143D01*
X126515715Y-84716905D01*
X126515715Y-84526429D01*
X126468096Y-84431190D01*
X126420477Y-84383571D01*
X126325239Y-84335952D01*
X185412143Y-89257143D02*
X185364524Y-89304762D01*
X185221667Y-89352381D01*
X185126429Y-89352381D01*
X184983571Y-89304762D01*
X184888333Y-89209524D01*
X184840714Y-89114286D01*
X184793095Y-88923810D01*
X184793095Y-88780952D01*
X184840714Y-88590476D01*
X184888333Y-88495238D01*
X184983571Y-88400000D01*
X185126429Y-88352381D01*
X185221667Y-88352381D01*
X185364524Y-88400000D01*
X185412143Y-88447619D01*
X186364524Y-89352381D02*
X185793095Y-89352381D01*
X186078809Y-89352381D02*
X186078809Y-88352381D01*
X185983571Y-88495238D01*
X185888333Y-88590476D01*
X185793095Y-88638095D01*
X186697857Y-88352381D02*
X187316905Y-88352381D01*
X186983571Y-88733333D01*
X187126429Y-88733333D01*
X187221667Y-88780952D01*
X187269286Y-88828571D01*
X187316905Y-88923810D01*
X187316905Y-89161905D01*
X187269286Y-89257143D01*
X187221667Y-89304762D01*
X187126429Y-89352381D01*
X186840714Y-89352381D01*
X186745476Y-89304762D01*
X186697857Y-89257143D01*
X176887143Y-75572857D02*
X176934762Y-75620476D01*
X176982381Y-75763333D01*
X176982381Y-75858571D01*
X176934762Y-76001429D01*
X176839524Y-76096667D01*
X176744286Y-76144286D01*
X176553810Y-76191905D01*
X176410952Y-76191905D01*
X176220476Y-76144286D01*
X176125238Y-76096667D01*
X176030000Y-76001429D01*
X175982381Y-75858571D01*
X175982381Y-75763333D01*
X176030000Y-75620476D01*
X176077619Y-75572857D01*
X176982381Y-74620476D02*
X176982381Y-75191905D01*
X176982381Y-74906191D02*
X175982381Y-74906191D01*
X176125238Y-75001429D01*
X176220476Y-75096667D01*
X176268095Y-75191905D01*
X176315714Y-73763333D02*
X176982381Y-73763333D01*
X175934762Y-74001429D02*
X176649048Y-74239524D01*
X176649048Y-73620476D01*
X185412143Y-84177143D02*
X185364524Y-84224762D01*
X185221667Y-84272381D01*
X185126429Y-84272381D01*
X184983571Y-84224762D01*
X184888333Y-84129524D01*
X184840714Y-84034286D01*
X184793095Y-83843810D01*
X184793095Y-83700952D01*
X184840714Y-83510476D01*
X184888333Y-83415238D01*
X184983571Y-83320000D01*
X185126429Y-83272381D01*
X185221667Y-83272381D01*
X185364524Y-83320000D01*
X185412143Y-83367619D01*
X186364524Y-84272381D02*
X185793095Y-84272381D01*
X186078809Y-84272381D02*
X186078809Y-83272381D01*
X185983571Y-83415238D01*
X185888333Y-83510476D01*
X185793095Y-83558095D01*
X187269286Y-83272381D02*
X186793095Y-83272381D01*
X186745476Y-83748571D01*
X186793095Y-83700952D01*
X186888333Y-83653333D01*
X187126429Y-83653333D01*
X187221667Y-83700952D01*
X187269286Y-83748571D01*
X187316905Y-83843810D01*
X187316905Y-84081905D01*
X187269286Y-84177143D01*
X187221667Y-84224762D01*
X187126429Y-84272381D01*
X186888333Y-84272381D01*
X186793095Y-84224762D01*
X186745476Y-84177143D01*
X107307143Y-53697143D02*
X107259524Y-53744762D01*
X107116667Y-53792381D01*
X107021429Y-53792381D01*
X106878571Y-53744762D01*
X106783333Y-53649524D01*
X106735714Y-53554286D01*
X106688095Y-53363810D01*
X106688095Y-53220952D01*
X106735714Y-53030476D01*
X106783333Y-52935238D01*
X106878571Y-52840000D01*
X107021429Y-52792381D01*
X107116667Y-52792381D01*
X107259524Y-52840000D01*
X107307143Y-52887619D01*
X108259524Y-53792381D02*
X107688095Y-53792381D01*
X107973809Y-53792381D02*
X107973809Y-52792381D01*
X107878571Y-52935238D01*
X107783333Y-53030476D01*
X107688095Y-53078095D01*
X109116667Y-52792381D02*
X108926190Y-52792381D01*
X108830952Y-52840000D01*
X108783333Y-52887619D01*
X108688095Y-53030476D01*
X108640476Y-53220952D01*
X108640476Y-53601905D01*
X108688095Y-53697143D01*
X108735714Y-53744762D01*
X108830952Y-53792381D01*
X109021429Y-53792381D01*
X109116667Y-53744762D01*
X109164286Y-53697143D01*
X109211905Y-53601905D01*
X109211905Y-53363810D01*
X109164286Y-53268571D01*
X109116667Y-53220952D01*
X109021429Y-53173333D01*
X108830952Y-53173333D01*
X108735714Y-53220952D01*
X108688095Y-53268571D01*
X108640476Y-53363810D01*
X107942143Y-60682143D02*
X107894524Y-60729762D01*
X107751667Y-60777381D01*
X107656429Y-60777381D01*
X107513571Y-60729762D01*
X107418333Y-60634524D01*
X107370714Y-60539286D01*
X107323095Y-60348810D01*
X107323095Y-60205952D01*
X107370714Y-60015476D01*
X107418333Y-59920238D01*
X107513571Y-59825000D01*
X107656429Y-59777381D01*
X107751667Y-59777381D01*
X107894524Y-59825000D01*
X107942143Y-59872619D01*
X108894524Y-60777381D02*
X108323095Y-60777381D01*
X108608809Y-60777381D02*
X108608809Y-59777381D01*
X108513571Y-59920238D01*
X108418333Y-60015476D01*
X108323095Y-60063095D01*
X109227857Y-59777381D02*
X109894524Y-59777381D01*
X109465952Y-60777381D01*
X132707143Y-53697143D02*
X132659524Y-53744762D01*
X132516667Y-53792381D01*
X132421429Y-53792381D01*
X132278571Y-53744762D01*
X132183333Y-53649524D01*
X132135714Y-53554286D01*
X132088095Y-53363810D01*
X132088095Y-53220952D01*
X132135714Y-53030476D01*
X132183333Y-52935238D01*
X132278571Y-52840000D01*
X132421429Y-52792381D01*
X132516667Y-52792381D01*
X132659524Y-52840000D01*
X132707143Y-52887619D01*
X133659524Y-53792381D02*
X133088095Y-53792381D01*
X133373809Y-53792381D02*
X133373809Y-52792381D01*
X133278571Y-52935238D01*
X133183333Y-53030476D01*
X133088095Y-53078095D01*
X134230952Y-53220952D02*
X134135714Y-53173333D01*
X134088095Y-53125714D01*
X134040476Y-53030476D01*
X134040476Y-52982857D01*
X134088095Y-52887619D01*
X134135714Y-52840000D01*
X134230952Y-52792381D01*
X134421429Y-52792381D01*
X134516667Y-52840000D01*
X134564286Y-52887619D01*
X134611905Y-52982857D01*
X134611905Y-53030476D01*
X134564286Y-53125714D01*
X134516667Y-53173333D01*
X134421429Y-53220952D01*
X134230952Y-53220952D01*
X134135714Y-53268571D01*
X134088095Y-53316190D01*
X134040476Y-53411429D01*
X134040476Y-53601905D01*
X134088095Y-53697143D01*
X134135714Y-53744762D01*
X134230952Y-53792381D01*
X134421429Y-53792381D01*
X134516667Y-53744762D01*
X134564286Y-53697143D01*
X134611905Y-53601905D01*
X134611905Y-53411429D01*
X134564286Y-53316190D01*
X134516667Y-53268571D01*
X134421429Y-53220952D01*
X145137143Y-56522857D02*
X145184762Y-56570476D01*
X145232381Y-56713333D01*
X145232381Y-56808571D01*
X145184762Y-56951429D01*
X145089524Y-57046667D01*
X144994286Y-57094286D01*
X144803810Y-57141905D01*
X144660952Y-57141905D01*
X144470476Y-57094286D01*
X144375238Y-57046667D01*
X144280000Y-56951429D01*
X144232381Y-56808571D01*
X144232381Y-56713333D01*
X144280000Y-56570476D01*
X144327619Y-56522857D01*
X145232381Y-55570476D02*
X145232381Y-56141905D01*
X145232381Y-55856191D02*
X144232381Y-55856191D01*
X144375238Y-55951429D01*
X144470476Y-56046667D01*
X144518095Y-56141905D01*
X145232381Y-55094286D02*
X145232381Y-54903810D01*
X145184762Y-54808571D01*
X145137143Y-54760952D01*
X144994286Y-54665714D01*
X144803810Y-54618095D01*
X144422857Y-54618095D01*
X144327619Y-54665714D01*
X144280000Y-54713333D01*
X144232381Y-54808571D01*
X144232381Y-54999048D01*
X144280000Y-55094286D01*
X144327619Y-55141905D01*
X144422857Y-55189524D01*
X144660952Y-55189524D01*
X144756190Y-55141905D01*
X144803810Y-55094286D01*
X144851429Y-54999048D01*
X144851429Y-54808571D01*
X144803810Y-54713333D01*
X144756190Y-54665714D01*
X144660952Y-54618095D01*
X194667143Y-66619285D02*
X194714762Y-66666904D01*
X194762381Y-66809761D01*
X194762381Y-66904999D01*
X194714762Y-67047857D01*
X194619524Y-67143095D01*
X194524286Y-67190714D01*
X194333810Y-67238333D01*
X194190952Y-67238333D01*
X194000476Y-67190714D01*
X193905238Y-67143095D01*
X193810000Y-67047857D01*
X193762381Y-66904999D01*
X193762381Y-66809761D01*
X193810000Y-66666904D01*
X193857619Y-66619285D01*
X193762381Y-66000238D02*
X193762381Y-65809761D01*
X193810000Y-65714523D01*
X193905238Y-65619285D01*
X194095714Y-65571666D01*
X194429048Y-65571666D01*
X194619524Y-65619285D01*
X194714762Y-65714523D01*
X194762381Y-65809761D01*
X194762381Y-66000238D01*
X194714762Y-66095476D01*
X194619524Y-66190714D01*
X194429048Y-66238333D01*
X194095714Y-66238333D01*
X193905238Y-66190714D01*
X193810000Y-66095476D01*
X193762381Y-66000238D01*
X194762381Y-65143095D02*
X193762381Y-65143095D01*
X194762381Y-64571666D01*
X193762381Y-64571666D01*
X194762381Y-63571666D02*
X194762381Y-64143095D01*
X194762381Y-63857381D02*
X193762381Y-63857381D01*
X193905238Y-63952619D01*
X194000476Y-64047857D01*
X194048095Y-64143095D01*
X185888334Y-86812381D02*
X185555000Y-86336190D01*
X185316905Y-86812381D02*
X185316905Y-85812381D01*
X185697858Y-85812381D01*
X185793096Y-85860000D01*
X185840715Y-85907619D01*
X185888334Y-86002857D01*
X185888334Y-86145714D01*
X185840715Y-86240952D01*
X185793096Y-86288571D01*
X185697858Y-86336190D01*
X185316905Y-86336190D01*
X186364524Y-86812381D02*
X186555000Y-86812381D01*
X186650239Y-86764762D01*
X186697858Y-86717143D01*
X186793096Y-86574286D01*
X186840715Y-86383810D01*
X186840715Y-86002857D01*
X186793096Y-85907619D01*
X186745477Y-85860000D01*
X186650239Y-85812381D01*
X186459762Y-85812381D01*
X186364524Y-85860000D01*
X186316905Y-85907619D01*
X186269286Y-86002857D01*
X186269286Y-86240952D01*
X186316905Y-86336190D01*
X186364524Y-86383810D01*
X186459762Y-86431429D01*
X186650239Y-86431429D01*
X186745477Y-86383810D01*
X186793096Y-86336190D01*
X186840715Y-86240952D01*
X182014762Y-59118333D02*
X182062381Y-58975476D01*
X182062381Y-58737380D01*
X182014762Y-58642142D01*
X181967143Y-58594523D01*
X181871905Y-58546904D01*
X181776667Y-58546904D01*
X181681429Y-58594523D01*
X181633810Y-58642142D01*
X181586190Y-58737380D01*
X181538571Y-58927857D01*
X181490952Y-59023095D01*
X181443333Y-59070714D01*
X181348095Y-59118333D01*
X181252857Y-59118333D01*
X181157619Y-59070714D01*
X181110000Y-59023095D01*
X181062381Y-58927857D01*
X181062381Y-58689761D01*
X181110000Y-58546904D01*
X181062381Y-58213571D02*
X182062381Y-57975476D01*
X181348095Y-57784999D01*
X182062381Y-57594523D01*
X181062381Y-57356428D01*
X182062381Y-56451666D02*
X182062381Y-57023095D01*
X182062381Y-56737381D02*
X181062381Y-56737381D01*
X181205238Y-56832619D01*
X181300476Y-56927857D01*
X181348095Y-57023095D01*
D17*
X181936571Y-55299429D02*
X181428571Y-54573714D01*
X181065714Y-55299429D02*
X181065714Y-53775429D01*
X181646286Y-53775429D01*
X181791428Y-53848000D01*
X181864000Y-53920571D01*
X181936571Y-54065714D01*
X181936571Y-54283429D01*
X181864000Y-54428571D01*
X181791428Y-54501143D01*
X181646286Y-54573714D01*
X181065714Y-54573714D01*
X182589714Y-54501143D02*
X183097714Y-54501143D01*
X183315428Y-55299429D02*
X182589714Y-55299429D01*
X182589714Y-53775429D01*
X183315428Y-53775429D01*
X183896000Y-55226857D02*
X184113714Y-55299429D01*
X184476571Y-55299429D01*
X184621714Y-55226857D01*
X184694285Y-55154286D01*
X184766857Y-55009143D01*
X184766857Y-54864000D01*
X184694285Y-54718857D01*
X184621714Y-54646286D01*
X184476571Y-54573714D01*
X184186285Y-54501143D01*
X184041143Y-54428571D01*
X183968571Y-54356000D01*
X183896000Y-54210857D01*
X183896000Y-54065714D01*
X183968571Y-53920571D01*
X184041143Y-53848000D01*
X184186285Y-53775429D01*
X184549143Y-53775429D01*
X184766857Y-53848000D01*
X185420000Y-54501143D02*
X185928000Y-54501143D01*
X186145714Y-55299429D02*
X185420000Y-55299429D01*
X185420000Y-53775429D01*
X186145714Y-53775429D01*
X186581143Y-53775429D02*
X187452000Y-53775429D01*
X187016571Y-55299429D02*
X187016571Y-53775429D01*
D13*
X150582381Y-82676905D02*
X151391905Y-82676905D01*
X151487143Y-82629286D01*
X151534762Y-82581667D01*
X151582381Y-82486429D01*
X151582381Y-82295952D01*
X151534762Y-82200714D01*
X151487143Y-82153095D01*
X151391905Y-82105476D01*
X150582381Y-82105476D01*
X150582381Y-81724524D02*
X150582381Y-81105476D01*
X150963333Y-81438810D01*
X150963333Y-81295952D01*
X151010952Y-81200714D01*
X151058571Y-81153095D01*
X151153810Y-81105476D01*
X151391905Y-81105476D01*
X151487143Y-81153095D01*
X151534762Y-81200714D01*
X151582381Y-81295952D01*
X151582381Y-81581667D01*
X151534762Y-81676905D01*
X151487143Y-81724524D01*
X186142381Y-92678095D02*
X186951905Y-92678095D01*
X187047143Y-92630476D01*
X187094762Y-92582857D01*
X187142381Y-92487619D01*
X187142381Y-92297142D01*
X187094762Y-92201904D01*
X187047143Y-92154285D01*
X186951905Y-92106666D01*
X186142381Y-92106666D01*
X187142381Y-91106666D02*
X187142381Y-91678095D01*
X187142381Y-91392381D02*
X186142381Y-91392381D01*
X186285238Y-91487619D01*
X186380476Y-91582857D01*
X186428095Y-91678095D01*
X186142381Y-90773333D02*
X186142381Y-90154285D01*
X186523333Y-90487619D01*
X186523333Y-90344761D01*
X186570952Y-90249523D01*
X186618571Y-90201904D01*
X186713810Y-90154285D01*
X186951905Y-90154285D01*
X187047143Y-90201904D01*
X187094762Y-90249523D01*
X187142381Y-90344761D01*
X187142381Y-90630476D01*
X187094762Y-90725714D01*
X187047143Y-90773333D01*
X118197381Y-55848095D02*
X119006905Y-55848095D01*
X119102143Y-55800476D01*
X119149762Y-55752857D01*
X119197381Y-55657619D01*
X119197381Y-55467142D01*
X119149762Y-55371904D01*
X119102143Y-55324285D01*
X119006905Y-55276666D01*
X118197381Y-55276666D01*
X119197381Y-54276666D02*
X119197381Y-54848095D01*
X119197381Y-54562381D02*
X118197381Y-54562381D01*
X118340238Y-54657619D01*
X118435476Y-54752857D01*
X118483095Y-54848095D01*
X118530714Y-53419523D02*
X119197381Y-53419523D01*
X118149762Y-53657619D02*
X118864048Y-53895714D01*
X118864048Y-53276666D01*
X166838334Y-79732143D02*
X166790715Y-79779762D01*
X166647858Y-79827381D01*
X166552620Y-79827381D01*
X166409762Y-79779762D01*
X166314524Y-79684524D01*
X166266905Y-79589286D01*
X166219286Y-79398810D01*
X166219286Y-79255952D01*
X166266905Y-79065476D01*
X166314524Y-78970238D01*
X166409762Y-78875000D01*
X166552620Y-78827381D01*
X166647858Y-78827381D01*
X166790715Y-78875000D01*
X166838334Y-78922619D01*
X167409762Y-79255952D02*
X167314524Y-79208333D01*
X167266905Y-79160714D01*
X167219286Y-79065476D01*
X167219286Y-79017857D01*
X167266905Y-78922619D01*
X167314524Y-78875000D01*
X167409762Y-78827381D01*
X167600239Y-78827381D01*
X167695477Y-78875000D01*
X167743096Y-78922619D01*
X167790715Y-79017857D01*
X167790715Y-79065476D01*
X167743096Y-79160714D01*
X167695477Y-79208333D01*
X167600239Y-79255952D01*
X167409762Y-79255952D01*
X167314524Y-79303571D01*
X167266905Y-79351190D01*
X167219286Y-79446429D01*
X167219286Y-79636905D01*
X167266905Y-79732143D01*
X167314524Y-79779762D01*
X167409762Y-79827381D01*
X167600239Y-79827381D01*
X167695477Y-79779762D01*
X167743096Y-79732143D01*
X167790715Y-79636905D01*
X167790715Y-79446429D01*
X167743096Y-79351190D01*
X167695477Y-79303571D01*
X167600239Y-79255952D01*
X141438334Y-79732143D02*
X141390715Y-79779762D01*
X141247858Y-79827381D01*
X141152620Y-79827381D01*
X141009762Y-79779762D01*
X140914524Y-79684524D01*
X140866905Y-79589286D01*
X140819286Y-79398810D01*
X140819286Y-79255952D01*
X140866905Y-79065476D01*
X140914524Y-78970238D01*
X141009762Y-78875000D01*
X141152620Y-78827381D01*
X141247858Y-78827381D01*
X141390715Y-78875000D01*
X141438334Y-78922619D01*
X141914524Y-79827381D02*
X142105000Y-79827381D01*
X142200239Y-79779762D01*
X142247858Y-79732143D01*
X142343096Y-79589286D01*
X142390715Y-79398810D01*
X142390715Y-79017857D01*
X142343096Y-78922619D01*
X142295477Y-78875000D01*
X142200239Y-78827381D01*
X142009762Y-78827381D01*
X141914524Y-78875000D01*
X141866905Y-78922619D01*
X141819286Y-79017857D01*
X141819286Y-79255952D01*
X141866905Y-79351190D01*
X141914524Y-79398810D01*
X142009762Y-79446429D01*
X142200239Y-79446429D01*
X142295477Y-79398810D01*
X142343096Y-79351190D01*
X142390715Y-79255952D01*
X178427143Y-79097143D02*
X178379524Y-79144762D01*
X178236667Y-79192381D01*
X178141429Y-79192381D01*
X177998571Y-79144762D01*
X177903333Y-79049524D01*
X177855714Y-78954286D01*
X177808095Y-78763810D01*
X177808095Y-78620952D01*
X177855714Y-78430476D01*
X177903333Y-78335238D01*
X177998571Y-78240000D01*
X178141429Y-78192381D01*
X178236667Y-78192381D01*
X178379524Y-78240000D01*
X178427143Y-78287619D01*
X179379524Y-79192381D02*
X178808095Y-79192381D01*
X179093809Y-79192381D02*
X179093809Y-78192381D01*
X178998571Y-78335238D01*
X178903333Y-78430476D01*
X178808095Y-78478095D01*
X179998571Y-78192381D02*
X180093810Y-78192381D01*
X180189048Y-78240000D01*
X180236667Y-78287619D01*
X180284286Y-78382857D01*
X180331905Y-78573333D01*
X180331905Y-78811429D01*
X180284286Y-79001905D01*
X180236667Y-79097143D01*
X180189048Y-79144762D01*
X180093810Y-79192381D01*
X179998571Y-79192381D01*
X179903333Y-79144762D01*
X179855714Y-79097143D01*
X179808095Y-79001905D01*
X179760476Y-78811429D01*
X179760476Y-78573333D01*
X179808095Y-78382857D01*
X179855714Y-78287619D01*
X179903333Y-78240000D01*
X179998571Y-78192381D01*
X140962143Y-63857143D02*
X140914524Y-63904762D01*
X140771667Y-63952381D01*
X140676429Y-63952381D01*
X140533571Y-63904762D01*
X140438333Y-63809524D01*
X140390714Y-63714286D01*
X140343095Y-63523810D01*
X140343095Y-63380952D01*
X140390714Y-63190476D01*
X140438333Y-63095238D01*
X140533571Y-63000000D01*
X140676429Y-62952381D01*
X140771667Y-62952381D01*
X140914524Y-63000000D01*
X140962143Y-63047619D01*
X141914524Y-63952381D02*
X141343095Y-63952381D01*
X141628809Y-63952381D02*
X141628809Y-62952381D01*
X141533571Y-63095238D01*
X141438333Y-63190476D01*
X141343095Y-63238095D01*
X142866905Y-63952381D02*
X142295476Y-63952381D01*
X142581190Y-63952381D02*
X142581190Y-62952381D01*
X142485952Y-63095238D01*
X142390714Y-63190476D01*
X142295476Y-63238095D01*
X192397143Y-87352143D02*
X192349524Y-87399762D01*
X192206667Y-87447381D01*
X192111429Y-87447381D01*
X191968571Y-87399762D01*
X191873333Y-87304524D01*
X191825714Y-87209286D01*
X191778095Y-87018810D01*
X191778095Y-86875952D01*
X191825714Y-86685476D01*
X191873333Y-86590238D01*
X191968571Y-86495000D01*
X192111429Y-86447381D01*
X192206667Y-86447381D01*
X192349524Y-86495000D01*
X192397143Y-86542619D01*
X193349524Y-87447381D02*
X192778095Y-87447381D01*
X193063809Y-87447381D02*
X193063809Y-86447381D01*
X192968571Y-86590238D01*
X192873333Y-86685476D01*
X192778095Y-86733095D01*
X193730476Y-86542619D02*
X193778095Y-86495000D01*
X193873333Y-86447381D01*
X194111429Y-86447381D01*
X194206667Y-86495000D01*
X194254286Y-86542619D01*
X194301905Y-86637857D01*
X194301905Y-86733095D01*
X194254286Y-86875952D01*
X193682857Y-87447381D01*
X194301905Y-87447381D01*
X154138334Y-79732143D02*
X154090715Y-79779762D01*
X153947858Y-79827381D01*
X153852620Y-79827381D01*
X153709762Y-79779762D01*
X153614524Y-79684524D01*
X153566905Y-79589286D01*
X153519286Y-79398810D01*
X153519286Y-79255952D01*
X153566905Y-79065476D01*
X153614524Y-78970238D01*
X153709762Y-78875000D01*
X153852620Y-78827381D01*
X153947858Y-78827381D01*
X154090715Y-78875000D01*
X154138334Y-78922619D01*
X154519286Y-78922619D02*
X154566905Y-78875000D01*
X154662143Y-78827381D01*
X154900239Y-78827381D01*
X154995477Y-78875000D01*
X155043096Y-78922619D01*
X155090715Y-79017857D01*
X155090715Y-79113095D01*
X155043096Y-79255952D01*
X154471667Y-79827381D01*
X155090715Y-79827381D01*
X193397143Y-134627857D02*
X193444762Y-134675476D01*
X193492381Y-134818333D01*
X193492381Y-134913571D01*
X193444762Y-135056429D01*
X193349524Y-135151667D01*
X193254286Y-135199286D01*
X193063810Y-135246905D01*
X192920952Y-135246905D01*
X192730476Y-135199286D01*
X192635238Y-135151667D01*
X192540000Y-135056429D01*
X192492381Y-134913571D01*
X192492381Y-134818333D01*
X192540000Y-134675476D01*
X192587619Y-134627857D01*
X192587619Y-134246905D02*
X192540000Y-134199286D01*
X192492381Y-134104048D01*
X192492381Y-133865952D01*
X192540000Y-133770714D01*
X192587619Y-133723095D01*
X192682857Y-133675476D01*
X192778095Y-133675476D01*
X192920952Y-133723095D01*
X193492381Y-134294524D01*
X193492381Y-133675476D01*
X192492381Y-133056429D02*
X192492381Y-132961190D01*
X192540000Y-132865952D01*
X192587619Y-132818333D01*
X192682857Y-132770714D01*
X192873333Y-132723095D01*
X193111429Y-132723095D01*
X193301905Y-132770714D01*
X193397143Y-132818333D01*
X193444762Y-132865952D01*
X193492381Y-132961190D01*
X193492381Y-133056429D01*
X193444762Y-133151667D01*
X193397143Y-133199286D01*
X193301905Y-133246905D01*
X193111429Y-133294524D01*
X192873333Y-133294524D01*
X192682857Y-133246905D01*
X192587619Y-133199286D01*
X192540000Y-133151667D01*
X192492381Y-133056429D01*
X174442381Y-106783095D02*
X173442381Y-106783095D01*
X173442381Y-106545000D01*
X173490000Y-106402142D01*
X173585238Y-106306904D01*
X173680476Y-106259285D01*
X173870952Y-106211666D01*
X174013810Y-106211666D01*
X174204286Y-106259285D01*
X174299524Y-106306904D01*
X174394762Y-106402142D01*
X174442381Y-106545000D01*
X174442381Y-106783095D01*
X173442381Y-105878333D02*
X173442381Y-105259285D01*
X173823333Y-105592619D01*
X173823333Y-105449761D01*
X173870952Y-105354523D01*
X173918571Y-105306904D01*
X174013810Y-105259285D01*
X174251905Y-105259285D01*
X174347143Y-105306904D01*
X174394762Y-105354523D01*
X174442381Y-105449761D01*
X174442381Y-105735476D01*
X174394762Y-105830714D01*
X174347143Y-105878333D01*
X168092381Y-106783095D02*
X167092381Y-106783095D01*
X167092381Y-106545000D01*
X167140000Y-106402142D01*
X167235238Y-106306904D01*
X167330476Y-106259285D01*
X167520952Y-106211666D01*
X167663810Y-106211666D01*
X167854286Y-106259285D01*
X167949524Y-106306904D01*
X168044762Y-106402142D01*
X168092381Y-106545000D01*
X168092381Y-106783095D01*
X167425714Y-105354523D02*
X168092381Y-105354523D01*
X167044762Y-105592619D02*
X167759048Y-105830714D01*
X167759048Y-105211666D01*
X168727381Y-95988095D02*
X167727381Y-95988095D01*
X167727381Y-95607142D01*
X167775000Y-95511904D01*
X167822619Y-95464285D01*
X167917857Y-95416666D01*
X168060714Y-95416666D01*
X168155952Y-95464285D01*
X168203571Y-95511904D01*
X168251190Y-95607142D01*
X168251190Y-95988095D01*
X167822619Y-95035714D02*
X167775000Y-94988095D01*
X167727381Y-94892857D01*
X167727381Y-94654761D01*
X167775000Y-94559523D01*
X167822619Y-94511904D01*
X167917857Y-94464285D01*
X168013095Y-94464285D01*
X168155952Y-94511904D01*
X168727381Y-95083333D01*
X168727381Y-94464285D01*
X160012143Y-93162381D02*
X159678809Y-92686190D01*
X159440714Y-93162381D02*
X159440714Y-92162381D01*
X159821667Y-92162381D01*
X159916905Y-92210000D01*
X159964524Y-92257619D01*
X160012143Y-92352857D01*
X160012143Y-92495714D01*
X159964524Y-92590952D01*
X159916905Y-92638571D01*
X159821667Y-92686190D01*
X159440714Y-92686190D01*
X160964524Y-93162381D02*
X160393095Y-93162381D01*
X160678809Y-93162381D02*
X160678809Y-92162381D01*
X160583571Y-92305238D01*
X160488333Y-92400476D01*
X160393095Y-92448095D01*
X161583571Y-92162381D02*
X161678810Y-92162381D01*
X161774048Y-92210000D01*
X161821667Y-92257619D01*
X161869286Y-92352857D01*
X161916905Y-92543333D01*
X161916905Y-92781429D01*
X161869286Y-92971905D01*
X161821667Y-93067143D01*
X161774048Y-93114762D01*
X161678810Y-93162381D01*
X161583571Y-93162381D01*
X161488333Y-93114762D01*
X161440714Y-93067143D01*
X161393095Y-92971905D01*
X161345476Y-92781429D01*
X161345476Y-92543333D01*
X161393095Y-92352857D01*
X161440714Y-92257619D01*
X161488333Y-92210000D01*
X161583571Y-92162381D01*
X168092381Y-102242857D02*
X167616190Y-102576191D01*
X168092381Y-102814286D02*
X167092381Y-102814286D01*
X167092381Y-102433333D01*
X167140000Y-102338095D01*
X167187619Y-102290476D01*
X167282857Y-102242857D01*
X167425714Y-102242857D01*
X167520952Y-102290476D01*
X167568571Y-102338095D01*
X167616190Y-102433333D01*
X167616190Y-102814286D01*
X168092381Y-101290476D02*
X168092381Y-101861905D01*
X168092381Y-101576191D02*
X167092381Y-101576191D01*
X167235238Y-101671429D01*
X167330476Y-101766667D01*
X167378095Y-101861905D01*
X168092381Y-100338095D02*
X168092381Y-100909524D01*
X168092381Y-100623810D02*
X167092381Y-100623810D01*
X167235238Y-100719048D01*
X167330476Y-100814286D01*
X167378095Y-100909524D01*
X174442381Y-102242857D02*
X173966190Y-102576191D01*
X174442381Y-102814286D02*
X173442381Y-102814286D01*
X173442381Y-102433333D01*
X173490000Y-102338095D01*
X173537619Y-102290476D01*
X173632857Y-102242857D01*
X173775714Y-102242857D01*
X173870952Y-102290476D01*
X173918571Y-102338095D01*
X173966190Y-102433333D01*
X173966190Y-102814286D01*
X174442381Y-101290476D02*
X174442381Y-101861905D01*
X174442381Y-101576191D02*
X173442381Y-101576191D01*
X173585238Y-101671429D01*
X173680476Y-101766667D01*
X173728095Y-101861905D01*
X173537619Y-100909524D02*
X173490000Y-100861905D01*
X173442381Y-100766667D01*
X173442381Y-100528571D01*
X173490000Y-100433333D01*
X173537619Y-100385714D01*
X173632857Y-100338095D01*
X173728095Y-100338095D01*
X173870952Y-100385714D01*
X174442381Y-100957143D01*
X174442381Y-100338095D01*
X172751905Y-97877381D02*
X172751905Y-98686905D01*
X172799524Y-98782143D01*
X172847143Y-98829762D01*
X172942381Y-98877381D01*
X173132858Y-98877381D01*
X173228096Y-98829762D01*
X173275715Y-98782143D01*
X173323334Y-98686905D01*
X173323334Y-97877381D01*
X174323334Y-98877381D02*
X173751905Y-98877381D01*
X174037619Y-98877381D02*
X174037619Y-97877381D01*
X173942381Y-98020238D01*
X173847143Y-98115476D01*
X173751905Y-98163095D01*
X175228096Y-97877381D02*
X174751905Y-97877381D01*
X174704286Y-98353571D01*
X174751905Y-98305952D01*
X174847143Y-98258333D01*
X175085239Y-98258333D01*
X175180477Y-98305952D01*
X175228096Y-98353571D01*
X175275715Y-98448810D01*
X175275715Y-98686905D01*
X175228096Y-98782143D01*
X175180477Y-98829762D01*
X175085239Y-98877381D01*
X174847143Y-98877381D01*
X174751905Y-98829762D01*
X174704286Y-98782143D01*
X168433809Y-121261190D02*
X168433809Y-121737381D01*
X168100476Y-120737381D02*
X168433809Y-121261190D01*
X168767143Y-120737381D01*
X169624286Y-121737381D02*
X169052857Y-121737381D01*
X169338571Y-121737381D02*
X169338571Y-120737381D01*
X169243333Y-120880238D01*
X169148095Y-120975476D01*
X169052857Y-121023095D01*
X160107381Y-59181905D02*
X160916905Y-59181905D01*
X161012143Y-59134286D01*
X161059762Y-59086667D01*
X161107381Y-58991429D01*
X161107381Y-58800952D01*
X161059762Y-58705714D01*
X161012143Y-58658095D01*
X160916905Y-58610476D01*
X160107381Y-58610476D01*
X160107381Y-57658095D02*
X160107381Y-58134286D01*
X160583571Y-58181905D01*
X160535952Y-58134286D01*
X160488333Y-58039048D01*
X160488333Y-57800952D01*
X160535952Y-57705714D01*
X160583571Y-57658095D01*
X160678810Y-57610476D01*
X160916905Y-57610476D01*
X161012143Y-57658095D01*
X161059762Y-57705714D01*
X161107381Y-57800952D01*
X161107381Y-58039048D01*
X161059762Y-58134286D01*
X161012143Y-58181905D01*
X175061667Y-71842381D02*
X175061667Y-72556667D01*
X175014047Y-72699524D01*
X174918809Y-72794762D01*
X174775952Y-72842381D01*
X174680714Y-72842381D01*
X175537857Y-72842381D02*
X175537857Y-71842381D01*
X175918810Y-71842381D01*
X176014048Y-71890000D01*
X176061667Y-71937619D01*
X176109286Y-72032857D01*
X176109286Y-72175714D01*
X176061667Y-72270952D01*
X176014048Y-72318571D01*
X175918810Y-72366190D01*
X175537857Y-72366190D01*
X176490238Y-71937619D02*
X176537857Y-71890000D01*
X176633095Y-71842381D01*
X176871191Y-71842381D01*
X176966429Y-71890000D01*
X177014048Y-71937619D01*
X177061667Y-72032857D01*
X177061667Y-72128095D01*
X177014048Y-72270952D01*
X176442619Y-72842381D01*
X177061667Y-72842381D01*
X156047381Y-141708095D02*
X155047381Y-141708095D01*
X155047381Y-141327142D01*
X155095000Y-141231904D01*
X155142619Y-141184285D01*
X155237857Y-141136666D01*
X155380714Y-141136666D01*
X155475952Y-141184285D01*
X155523571Y-141231904D01*
X155571190Y-141327142D01*
X155571190Y-141708095D01*
X155047381Y-140803333D02*
X155047381Y-140184285D01*
X155428333Y-140517619D01*
X155428333Y-140374761D01*
X155475952Y-140279523D01*
X155523571Y-140231904D01*
X155618810Y-140184285D01*
X155856905Y-140184285D01*
X155952143Y-140231904D01*
X155999762Y-140279523D01*
X156047381Y-140374761D01*
X156047381Y-140660476D01*
X155999762Y-140755714D01*
X155952143Y-140803333D01*
X156047381Y-146788095D02*
X155047381Y-146788095D01*
X155047381Y-146407142D01*
X155095000Y-146311904D01*
X155142619Y-146264285D01*
X155237857Y-146216666D01*
X155380714Y-146216666D01*
X155475952Y-146264285D01*
X155523571Y-146311904D01*
X155571190Y-146407142D01*
X155571190Y-146788095D01*
X155380714Y-145359523D02*
X156047381Y-145359523D01*
X154999762Y-145597619D02*
X155714048Y-145835714D01*
X155714048Y-145216666D01*
X133187381Y-141708095D02*
X132187381Y-141708095D01*
X132187381Y-141327142D01*
X132235000Y-141231904D01*
X132282619Y-141184285D01*
X132377857Y-141136666D01*
X132520714Y-141136666D01*
X132615952Y-141184285D01*
X132663571Y-141231904D01*
X132711190Y-141327142D01*
X132711190Y-141708095D01*
X132187381Y-140231904D02*
X132187381Y-140708095D01*
X132663571Y-140755714D01*
X132615952Y-140708095D01*
X132568333Y-140612857D01*
X132568333Y-140374761D01*
X132615952Y-140279523D01*
X132663571Y-140231904D01*
X132758810Y-140184285D01*
X132996905Y-140184285D01*
X133092143Y-140231904D01*
X133139762Y-140279523D01*
X133187381Y-140374761D01*
X133187381Y-140612857D01*
X133139762Y-140708095D01*
X133092143Y-140755714D01*
X133187381Y-146788095D02*
X132187381Y-146788095D01*
X132187381Y-146407142D01*
X132235000Y-146311904D01*
X132282619Y-146264285D01*
X132377857Y-146216666D01*
X132520714Y-146216666D01*
X132615952Y-146264285D01*
X132663571Y-146311904D01*
X132711190Y-146407142D01*
X132711190Y-146788095D01*
X132187381Y-145359523D02*
X132187381Y-145550000D01*
X132235000Y-145645238D01*
X132282619Y-145692857D01*
X132425476Y-145788095D01*
X132615952Y-145835714D01*
X132996905Y-145835714D01*
X133092143Y-145788095D01*
X133139762Y-145740476D01*
X133187381Y-145645238D01*
X133187381Y-145454761D01*
X133139762Y-145359523D01*
X133092143Y-145311904D01*
X132996905Y-145264285D01*
X132758810Y-145264285D01*
X132663571Y-145311904D01*
X132615952Y-145359523D01*
X132568333Y-145454761D01*
X132568333Y-145645238D01*
X132615952Y-145740476D01*
X132663571Y-145788095D01*
X132758810Y-145835714D01*
D12*
X184664048Y-77258333D02*
X184724524Y-77076905D01*
X184724524Y-76774524D01*
X184664048Y-76653571D01*
X184603571Y-76593095D01*
X184482619Y-76532619D01*
X184361667Y-76532619D01*
X184240714Y-76593095D01*
X184180238Y-76653571D01*
X184119762Y-76774524D01*
X184059286Y-77016428D01*
X183998810Y-77137381D01*
X183938333Y-77197857D01*
X183817381Y-77258333D01*
X183696429Y-77258333D01*
X183575476Y-77197857D01*
X183515000Y-77137381D01*
X183454524Y-77016428D01*
X183454524Y-76714048D01*
X183515000Y-76532619D01*
X183454524Y-76109285D02*
X184724524Y-75806904D01*
X183817381Y-75565000D01*
X184724524Y-75323095D01*
X183454524Y-75020714D01*
X183575476Y-74597380D02*
X183515000Y-74536904D01*
X183454524Y-74415952D01*
X183454524Y-74113571D01*
X183515000Y-73992618D01*
X183575476Y-73932142D01*
X183696429Y-73871666D01*
X183817381Y-73871666D01*
X183998810Y-73932142D01*
X184724524Y-74657856D01*
X184724524Y-73871666D01*
D11*
X186714285Y-81093571D02*
X186999999Y-81093571D01*
X187142857Y-81165000D01*
X187285714Y-81307857D01*
X187357142Y-81593571D01*
X187357142Y-82093571D01*
X187285714Y-82379286D01*
X187142857Y-82522143D01*
X186999999Y-82593571D01*
X186714285Y-82593571D01*
X186571428Y-82522143D01*
X186428571Y-82379286D01*
X186357142Y-82093571D01*
X186357142Y-81593571D01*
X186428571Y-81307857D01*
X186571428Y-81165000D01*
X186714285Y-81093571D01*
X188000000Y-82593571D02*
X188000000Y-81093571D01*
X188857143Y-82593571D01*
X188857143Y-81093571D01*
X190642857Y-81022143D02*
X189357143Y-82950714D01*
X191428572Y-81093571D02*
X191714286Y-81093571D01*
X191857144Y-81165000D01*
X192000001Y-81307857D01*
X192071429Y-81593571D01*
X192071429Y-82093571D01*
X192000001Y-82379286D01*
X191857144Y-82522143D01*
X191714286Y-82593571D01*
X191428572Y-82593571D01*
X191285715Y-82522143D01*
X191142858Y-82379286D01*
X191071429Y-82093571D01*
X191071429Y-81593571D01*
X191142858Y-81307857D01*
X191285715Y-81165000D01*
X191428572Y-81093571D01*
X193214287Y-81807857D02*
X192714287Y-81807857D01*
X192714287Y-82593571D02*
X192714287Y-81093571D01*
X193428573Y-81093571D01*
X194500001Y-81807857D02*
X194000001Y-81807857D01*
X194000001Y-82593571D02*
X194000001Y-81093571D01*
X194714287Y-81093571D01*
%LPC*%
D18*
X150495000Y-100330000D03*
X150495000Y-102870000D03*
X150495000Y-105410000D03*
X150495000Y-107950000D03*
X150495000Y-110490000D03*
X150495000Y-113030000D03*
X150495000Y-115570000D03*
X150495000Y-118110000D03*
X150495000Y-120650000D03*
X150495000Y-123190000D03*
X150495000Y-125730000D03*
X150495000Y-128270000D03*
X150495000Y-130810000D03*
X150495000Y-133350000D03*
X165735000Y-133350000D03*
X165735000Y-130810000D03*
X165735000Y-128270000D03*
X165735000Y-125730000D03*
X165735000Y-123190000D03*
X165735000Y-120650000D03*
X165735000Y-118110000D03*
X165735000Y-115570000D03*
X165735000Y-113030000D03*
X165735000Y-110490000D03*
X165735000Y-107950000D03*
X165735000Y-105410000D03*
X165735000Y-102870000D03*
X165735000Y-100330000D03*
X130175000Y-95250000D03*
X130175000Y-97790000D03*
X130175000Y-100330000D03*
X130175000Y-102870000D03*
X130175000Y-105410000D03*
X130175000Y-107950000D03*
X130175000Y-110490000D03*
X130175000Y-113030000D03*
X130175000Y-115570000D03*
X130175000Y-118110000D03*
X130175000Y-120650000D03*
X130175000Y-123190000D03*
X130175000Y-125730000D03*
X130175000Y-128270000D03*
X130175000Y-130810000D03*
X130175000Y-133350000D03*
X145415000Y-133350000D03*
X145415000Y-130810000D03*
X145415000Y-128270000D03*
X145415000Y-125730000D03*
X145415000Y-123190000D03*
X145415000Y-120650000D03*
X145415000Y-118110000D03*
X145415000Y-115570000D03*
X145415000Y-113030000D03*
X145415000Y-110490000D03*
X145415000Y-107950000D03*
X145415000Y-105410000D03*
X145415000Y-102870000D03*
X145415000Y-100330000D03*
X145415000Y-97790000D03*
X145415000Y-95250000D03*
X102235000Y-85090000D03*
X102235000Y-87630000D03*
X102235000Y-90170000D03*
X102235000Y-92710000D03*
X102235000Y-95250000D03*
X102235000Y-97790000D03*
X102235000Y-100330000D03*
X102235000Y-102870000D03*
X102235000Y-105410000D03*
X102235000Y-107950000D03*
X102235000Y-110490000D03*
X102235000Y-113030000D03*
X102235000Y-115570000D03*
X102235000Y-118110000D03*
X102235000Y-120650000D03*
X102235000Y-123190000D03*
X102235000Y-125730000D03*
X102235000Y-128270000D03*
X102235000Y-130810000D03*
X102235000Y-133350000D03*
X117475000Y-133350000D03*
X117475000Y-130810000D03*
X117475000Y-128270000D03*
X117475000Y-125730000D03*
X117475000Y-123190000D03*
X117475000Y-120650000D03*
X117475000Y-118110000D03*
X117475000Y-115570000D03*
X117475000Y-113030000D03*
X117475000Y-110490000D03*
X117475000Y-107950000D03*
X117475000Y-105410000D03*
X117475000Y-102870000D03*
X117475000Y-100330000D03*
X117475000Y-97790000D03*
X117475000Y-95250000D03*
X117475000Y-92710000D03*
X117475000Y-90170000D03*
X117475000Y-87630000D03*
X117475000Y-85090000D03*
D19*
X150495000Y-95250000D03*
D20*
X153035000Y-95250000D03*
X155575000Y-95250000D03*
D21*
X140175000Y-81280000D03*
X140175000Y-82550000D03*
X140175000Y-83820000D03*
X140175000Y-85090000D03*
X140175000Y-86360000D03*
X140175000Y-87630000D03*
X140175000Y-88900000D03*
X145575000Y-88900000D03*
X145575000Y-87630000D03*
X145575000Y-86360000D03*
X145575000Y-85090000D03*
X145575000Y-83820000D03*
X145575000Y-82550000D03*
X145575000Y-81280000D03*
D22*
X120395000Y-66675000D03*
X120395000Y-67945000D03*
X120395000Y-69215000D03*
X120395000Y-70485000D03*
X120395000Y-71755000D03*
X120395000Y-73025000D03*
X120395000Y-74295000D03*
X120395000Y-75565000D03*
X120395000Y-76835000D03*
X120395000Y-78105000D03*
X129795000Y-78105000D03*
X129795000Y-76835000D03*
X129795000Y-75565000D03*
X129795000Y-74295000D03*
X129795000Y-73025000D03*
X129795000Y-71755000D03*
X129795000Y-70485000D03*
X129795000Y-69215000D03*
X129795000Y-67945000D03*
X129795000Y-66675000D03*
D21*
X140335000Y-65405000D03*
X140335000Y-66675000D03*
X140335000Y-67945000D03*
X140335000Y-69215000D03*
X140335000Y-70485000D03*
X140335000Y-71755000D03*
X140335000Y-73025000D03*
X140335000Y-74295000D03*
X145735000Y-74295000D03*
X145735000Y-73025000D03*
X145735000Y-71755000D03*
X145735000Y-70485000D03*
X145735000Y-69215000D03*
X145735000Y-67945000D03*
X145735000Y-66675000D03*
X145735000Y-65405000D03*
X152875000Y-65405000D03*
X152875000Y-66675000D03*
X152875000Y-67945000D03*
X152875000Y-69215000D03*
X152875000Y-70485000D03*
X152875000Y-71755000D03*
X152875000Y-73025000D03*
X152875000Y-74295000D03*
X158275000Y-74295000D03*
X158275000Y-73025000D03*
X158275000Y-71755000D03*
X158275000Y-70485000D03*
X158275000Y-69215000D03*
X158275000Y-67945000D03*
X158275000Y-66675000D03*
X158275000Y-65405000D03*
D23*
X123655000Y-93980000D03*
X121455000Y-93980000D03*
X123655000Y-99060000D03*
X121455000Y-99060000D03*
X123655000Y-91440000D03*
X121455000Y-91440000D03*
X123655000Y-88900000D03*
X121455000Y-88900000D03*
X123655000Y-96520000D03*
X121455000Y-96520000D03*
D24*
X129855000Y-64135000D03*
X127955000Y-64135000D03*
X112075000Y-64135000D03*
X110175000Y-64135000D03*
D25*
X99695000Y-103185000D03*
X99695000Y-101285000D03*
D24*
X159070000Y-96520000D03*
X160970000Y-96520000D03*
X158430000Y-63500000D03*
X156530000Y-63500000D03*
X165415000Y-96520000D03*
X163515000Y-96520000D03*
D22*
X102615000Y-66675000D03*
X102615000Y-67945000D03*
X102615000Y-69215000D03*
X102615000Y-70485000D03*
X102615000Y-71755000D03*
X102615000Y-73025000D03*
X102615000Y-74295000D03*
X102615000Y-75565000D03*
X102615000Y-76835000D03*
X102615000Y-78105000D03*
X112015000Y-78105000D03*
X112015000Y-76835000D03*
X112015000Y-75565000D03*
X112015000Y-74295000D03*
X112015000Y-73025000D03*
X112015000Y-71755000D03*
X112015000Y-70485000D03*
X112015000Y-69215000D03*
X112015000Y-67945000D03*
X112015000Y-66675000D03*
D21*
X165575000Y-81280000D03*
X165575000Y-82550000D03*
X165575000Y-83820000D03*
X165575000Y-85090000D03*
X165575000Y-86360000D03*
X165575000Y-87630000D03*
X165575000Y-88900000D03*
X170975000Y-88900000D03*
X170975000Y-87630000D03*
X170975000Y-86360000D03*
X170975000Y-85090000D03*
X170975000Y-83820000D03*
X170975000Y-82550000D03*
X170975000Y-81280000D03*
X178275000Y-80645000D03*
X178275000Y-81915000D03*
X178275000Y-83185000D03*
X178275000Y-84455000D03*
X178275000Y-85725000D03*
X178275000Y-86995000D03*
X178275000Y-88265000D03*
X178275000Y-89535000D03*
X183675000Y-89535000D03*
X183675000Y-88265000D03*
X183675000Y-86995000D03*
X183675000Y-85725000D03*
X183675000Y-84455000D03*
X183675000Y-83185000D03*
X183675000Y-81915000D03*
X183675000Y-80645000D03*
D23*
X123655000Y-86360000D03*
X121455000Y-86360000D03*
D26*
X102235000Y-146050000D03*
D27*
X102235000Y-143550000D03*
X104735000Y-146050000D03*
X102235000Y-148550000D03*
X99735000Y-146050000D03*
X100435000Y-144250000D03*
X104035000Y-144250000D03*
X100435000Y-147850000D03*
X104035000Y-147850000D03*
D26*
X191135000Y-146050000D03*
D27*
X191135000Y-143550000D03*
X193635000Y-146050000D03*
X191135000Y-148550000D03*
X188635000Y-146050000D03*
X189335000Y-144250000D03*
X192935000Y-144250000D03*
X189335000Y-147850000D03*
X192935000Y-147850000D03*
D26*
X191135000Y-57150000D03*
D27*
X191135000Y-54650000D03*
X193635000Y-57150000D03*
X191135000Y-59650000D03*
X188635000Y-57150000D03*
X189335000Y-55350000D03*
X192935000Y-55350000D03*
X189335000Y-58950000D03*
X192935000Y-58950000D03*
D26*
X102235000Y-57150000D03*
D27*
X102235000Y-54650000D03*
X104735000Y-57150000D03*
X102235000Y-59650000D03*
X99735000Y-57150000D03*
X100435000Y-55350000D03*
X104035000Y-55350000D03*
X100435000Y-58950000D03*
X104035000Y-58950000D03*
D28*
X150380700Y-59690000D03*
X151879300Y-59690000D03*
X127635000Y-85839300D03*
X127635000Y-84340700D03*
D23*
X156675000Y-59690000D03*
X154475000Y-59690000D03*
X123655000Y-84455000D03*
X121455000Y-84455000D03*
D24*
X188280000Y-88900000D03*
X190180000Y-88900000D03*
D29*
X181570000Y-74295000D03*
D30*
X179070000Y-74295000D03*
D24*
X190180000Y-83820000D03*
X188280000Y-83820000D03*
D29*
X111165000Y-55245000D03*
D30*
X113665000Y-55245000D03*
D24*
X107635000Y-58420000D03*
X109535000Y-58420000D03*
D29*
X136565000Y-55245000D03*
D30*
X139065000Y-55245000D03*
D25*
X142875000Y-56830000D03*
X142875000Y-54930000D03*
D31*
X181960520Y-65405000D03*
X187960000Y-65405000D03*
X184960260Y-60706000D03*
D23*
X190330000Y-86360000D03*
X188130000Y-86360000D03*
D32*
X174279560Y-54533800D03*
X174279560Y-61036200D03*
X178780440Y-61036200D03*
X178780440Y-54533800D03*
D21*
X152875000Y-81280000D03*
X152875000Y-82550000D03*
X152875000Y-83820000D03*
X152875000Y-85090000D03*
X152875000Y-86360000D03*
X152875000Y-87630000D03*
X152875000Y-88900000D03*
X158275000Y-88900000D03*
X158275000Y-87630000D03*
X158275000Y-86360000D03*
X158275000Y-85090000D03*
X158275000Y-83820000D03*
X158275000Y-82550000D03*
X158275000Y-81280000D03*
D33*
X188435000Y-90805000D03*
X188435000Y-92075000D03*
X188435000Y-93345000D03*
X188435000Y-94615000D03*
X193835000Y-94615000D03*
X193835000Y-93345000D03*
X193835000Y-92075000D03*
X193835000Y-90805000D03*
D34*
X125095000Y-55880000D03*
X122555000Y-55880000D03*
X127635000Y-55880000D03*
D24*
X171130000Y-79375000D03*
X169230000Y-79375000D03*
X145730000Y-79375000D03*
X143830000Y-79375000D03*
X183830000Y-78740000D03*
X181930000Y-78740000D03*
X145730000Y-63500000D03*
X143830000Y-63500000D03*
X193990000Y-88900000D03*
X192090000Y-88900000D03*
X158430000Y-79375000D03*
X156530000Y-79375000D03*
D25*
X194310000Y-133035000D03*
X194310000Y-134935000D03*
D28*
X172085000Y-106794300D03*
X172085000Y-105295700D03*
X169545000Y-106794300D03*
X169545000Y-105295700D03*
D19*
X170815000Y-95250000D03*
D20*
X173355000Y-95250000D03*
X175895000Y-95250000D03*
X178435000Y-95250000D03*
X180975000Y-95250000D03*
X183515000Y-95250000D03*
D23*
X165565000Y-92710000D03*
X163365000Y-92710000D03*
D35*
X172085000Y-102700000D03*
X172085000Y-100500000D03*
X169545000Y-102700000D03*
X169545000Y-100500000D03*
D18*
X175895000Y-100330000D03*
X175895000Y-102870000D03*
X175895000Y-105410000D03*
X175895000Y-107950000D03*
X175895000Y-110490000D03*
X175895000Y-113030000D03*
X175895000Y-115570000D03*
X175895000Y-118110000D03*
X175895000Y-120650000D03*
X175895000Y-123190000D03*
X175895000Y-125730000D03*
X175895000Y-128270000D03*
X175895000Y-130810000D03*
X175895000Y-133350000D03*
X191135000Y-133350000D03*
X191135000Y-130810000D03*
X191135000Y-128270000D03*
X191135000Y-125730000D03*
X191135000Y-123190000D03*
X191135000Y-120650000D03*
X191135000Y-118110000D03*
X191135000Y-115570000D03*
X191135000Y-113030000D03*
X191135000Y-110490000D03*
X191135000Y-107950000D03*
X191135000Y-105410000D03*
X191135000Y-102870000D03*
X191135000Y-100330000D03*
D36*
X170815000Y-113030000D03*
X170815000Y-117911880D03*
D18*
X163195000Y-59690000D03*
X163195000Y-62230000D03*
X163195000Y-64770000D03*
X163195000Y-67310000D03*
X163195000Y-69850000D03*
X163195000Y-72390000D03*
X163195000Y-74930000D03*
X170815000Y-74930000D03*
X170815000Y-72390000D03*
X170815000Y-69850000D03*
X170815000Y-67310000D03*
X170815000Y-64770000D03*
X170815000Y-62230000D03*
X170815000Y-59690000D03*
D37*
X175895000Y-67310000D03*
D38*
X175895000Y-69850000D03*
D19*
X173355000Y-140970000D03*
D20*
X170815000Y-140970000D03*
X168275000Y-140970000D03*
X165735000Y-140970000D03*
X163195000Y-140970000D03*
X160655000Y-140970000D03*
X158115000Y-140970000D03*
X155575000Y-140970000D03*
D19*
X150495000Y-140970000D03*
D20*
X147955000Y-140970000D03*
X145415000Y-140970000D03*
X142875000Y-140970000D03*
X140335000Y-140970000D03*
X137795000Y-140970000D03*
X135255000Y-140970000D03*
X132715000Y-140970000D03*
D19*
X150495000Y-146050000D03*
D20*
X147955000Y-146050000D03*
X145415000Y-146050000D03*
X142875000Y-146050000D03*
X140335000Y-146050000D03*
X137795000Y-146050000D03*
X135255000Y-146050000D03*
X132715000Y-146050000D03*
D19*
X127635000Y-140970000D03*
D20*
X125095000Y-140970000D03*
X122555000Y-140970000D03*
X120015000Y-140970000D03*
X117475000Y-140970000D03*
X114935000Y-140970000D03*
X112395000Y-140970000D03*
X109855000Y-140970000D03*
D19*
X127635000Y-146050000D03*
D20*
X125095000Y-146050000D03*
X122555000Y-146050000D03*
X120015000Y-146050000D03*
X117475000Y-146050000D03*
X114935000Y-146050000D03*
X112395000Y-146050000D03*
X109855000Y-146050000D03*
D19*
X173355000Y-146050000D03*
D20*
X170815000Y-146050000D03*
X168275000Y-146050000D03*
X165735000Y-146050000D03*
X163195000Y-146050000D03*
X160655000Y-146050000D03*
X158115000Y-146050000D03*
X155575000Y-146050000D03*
D39*
X188010800Y-78562200D03*
X190500000Y-78562200D03*
X192989200Y-78562200D03*
X188010800Y-72567800D03*
X190500000Y-72567800D03*
X192989200Y-72567800D03*
D19*
X186055000Y-140970000D03*
D20*
X183515000Y-140970000D03*
X180975000Y-140970000D03*
X178435000Y-140970000D03*
M02*
