G04 #@! TF.FileFunction,Soldermask,Top*
%FSLAX46Y46*%
G04 Gerber Fmt 4.6, Leading zero omitted, Abs format (unit mm)*
G04 Created by KiCad (PCBNEW 4.0.3-1.fc24-product) date Thu Dec  8 13:22:35 2016*
%MOMM*%
%LPD*%
G01*
G04 APERTURE LIST*
%ADD10C,0.100000*%
%ADD11O,2.300000X1.600000*%
%ADD12R,1.727200X2.032000*%
%ADD13O,1.727200X2.032000*%
%ADD14R,1.500000X0.600000*%
%ADD15R,1.950000X0.600000*%
%ADD16R,1.200000X0.900000*%
%ADD17R,1.200000X0.750000*%
%ADD18R,0.750000X1.200000*%
%ADD19C,6.300000*%
%ADD20C,0.600000*%
%ADD21R,0.797560X0.797560*%
%ADD22R,1.300000X1.300000*%
%ADD23C,1.300000*%
%ADD24R,3.500120X3.500120*%
%ADD25C,1.998980*%
%ADD26R,1.550000X0.600000*%
%ADD27O,1.699260X3.500120*%
%ADD28R,0.900000X1.200000*%
%ADD29C,1.501140*%
%ADD30R,2.032000X2.032000*%
%ADD31O,2.032000X2.032000*%
%ADD32C,1.320800*%
G04 APERTURE END LIST*
D10*
D11*
X150495000Y-100330000D03*
X150495000Y-102870000D03*
X150495000Y-105410000D03*
X150495000Y-107950000D03*
X150495000Y-110490000D03*
X150495000Y-113030000D03*
X150495000Y-115570000D03*
X150495000Y-118110000D03*
X150495000Y-120650000D03*
X150495000Y-123190000D03*
X150495000Y-125730000D03*
X150495000Y-128270000D03*
X150495000Y-130810000D03*
X150495000Y-133350000D03*
X165735000Y-133350000D03*
X165735000Y-130810000D03*
X165735000Y-128270000D03*
X165735000Y-125730000D03*
X165735000Y-123190000D03*
X165735000Y-120650000D03*
X165735000Y-118110000D03*
X165735000Y-115570000D03*
X165735000Y-113030000D03*
X165735000Y-110490000D03*
X165735000Y-107950000D03*
X165735000Y-105410000D03*
X165735000Y-102870000D03*
X165735000Y-100330000D03*
X130175000Y-95250000D03*
X130175000Y-97790000D03*
X130175000Y-100330000D03*
X130175000Y-102870000D03*
X130175000Y-105410000D03*
X130175000Y-107950000D03*
X130175000Y-110490000D03*
X130175000Y-113030000D03*
X130175000Y-115570000D03*
X130175000Y-118110000D03*
X130175000Y-120650000D03*
X130175000Y-123190000D03*
X130175000Y-125730000D03*
X130175000Y-128270000D03*
X130175000Y-130810000D03*
X130175000Y-133350000D03*
X145415000Y-133350000D03*
X145415000Y-130810000D03*
X145415000Y-128270000D03*
X145415000Y-125730000D03*
X145415000Y-123190000D03*
X145415000Y-120650000D03*
X145415000Y-118110000D03*
X145415000Y-115570000D03*
X145415000Y-113030000D03*
X145415000Y-110490000D03*
X145415000Y-107950000D03*
X145415000Y-105410000D03*
X145415000Y-102870000D03*
X145415000Y-100330000D03*
X145415000Y-97790000D03*
X145415000Y-95250000D03*
X102235000Y-85090000D03*
X102235000Y-87630000D03*
X102235000Y-90170000D03*
X102235000Y-92710000D03*
X102235000Y-95250000D03*
X102235000Y-97790000D03*
X102235000Y-100330000D03*
X102235000Y-102870000D03*
X102235000Y-105410000D03*
X102235000Y-107950000D03*
X102235000Y-110490000D03*
X102235000Y-113030000D03*
X102235000Y-115570000D03*
X102235000Y-118110000D03*
X102235000Y-120650000D03*
X102235000Y-123190000D03*
X102235000Y-125730000D03*
X102235000Y-128270000D03*
X102235000Y-130810000D03*
X102235000Y-133350000D03*
X117475000Y-133350000D03*
X117475000Y-130810000D03*
X117475000Y-128270000D03*
X117475000Y-125730000D03*
X117475000Y-123190000D03*
X117475000Y-120650000D03*
X117475000Y-118110000D03*
X117475000Y-115570000D03*
X117475000Y-113030000D03*
X117475000Y-110490000D03*
X117475000Y-107950000D03*
X117475000Y-105410000D03*
X117475000Y-102870000D03*
X117475000Y-100330000D03*
X117475000Y-97790000D03*
X117475000Y-95250000D03*
X117475000Y-92710000D03*
X117475000Y-90170000D03*
X117475000Y-87630000D03*
X117475000Y-85090000D03*
D12*
X150495000Y-95250000D03*
D13*
X153035000Y-95250000D03*
X155575000Y-95250000D03*
D14*
X140175000Y-81280000D03*
X140175000Y-82550000D03*
X140175000Y-83820000D03*
X140175000Y-85090000D03*
X140175000Y-86360000D03*
X140175000Y-87630000D03*
X140175000Y-88900000D03*
X145575000Y-88900000D03*
X145575000Y-87630000D03*
X145575000Y-86360000D03*
X145575000Y-85090000D03*
X145575000Y-83820000D03*
X145575000Y-82550000D03*
X145575000Y-81280000D03*
D15*
X120395000Y-66675000D03*
X120395000Y-67945000D03*
X120395000Y-69215000D03*
X120395000Y-70485000D03*
X120395000Y-71755000D03*
X120395000Y-73025000D03*
X120395000Y-74295000D03*
X120395000Y-75565000D03*
X120395000Y-76835000D03*
X120395000Y-78105000D03*
X129795000Y-78105000D03*
X129795000Y-76835000D03*
X129795000Y-75565000D03*
X129795000Y-74295000D03*
X129795000Y-73025000D03*
X129795000Y-71755000D03*
X129795000Y-70485000D03*
X129795000Y-69215000D03*
X129795000Y-67945000D03*
X129795000Y-66675000D03*
D14*
X140335000Y-65405000D03*
X140335000Y-66675000D03*
X140335000Y-67945000D03*
X140335000Y-69215000D03*
X140335000Y-70485000D03*
X140335000Y-71755000D03*
X140335000Y-73025000D03*
X140335000Y-74295000D03*
X145735000Y-74295000D03*
X145735000Y-73025000D03*
X145735000Y-71755000D03*
X145735000Y-70485000D03*
X145735000Y-69215000D03*
X145735000Y-67945000D03*
X145735000Y-66675000D03*
X145735000Y-65405000D03*
X152875000Y-65405000D03*
X152875000Y-66675000D03*
X152875000Y-67945000D03*
X152875000Y-69215000D03*
X152875000Y-70485000D03*
X152875000Y-71755000D03*
X152875000Y-73025000D03*
X152875000Y-74295000D03*
X158275000Y-74295000D03*
X158275000Y-73025000D03*
X158275000Y-71755000D03*
X158275000Y-70485000D03*
X158275000Y-69215000D03*
X158275000Y-67945000D03*
X158275000Y-66675000D03*
X158275000Y-65405000D03*
D16*
X123655000Y-93980000D03*
X121455000Y-93980000D03*
X123655000Y-99060000D03*
X121455000Y-99060000D03*
X123655000Y-91440000D03*
X121455000Y-91440000D03*
X123655000Y-88900000D03*
X121455000Y-88900000D03*
X123655000Y-96520000D03*
X121455000Y-96520000D03*
D17*
X129855000Y-64135000D03*
X127955000Y-64135000D03*
X112075000Y-64135000D03*
X110175000Y-64135000D03*
D18*
X99695000Y-103185000D03*
X99695000Y-101285000D03*
D17*
X159070000Y-96520000D03*
X160970000Y-96520000D03*
X158430000Y-63500000D03*
X156530000Y-63500000D03*
X165415000Y-96520000D03*
X163515000Y-96520000D03*
D15*
X102615000Y-66675000D03*
X102615000Y-67945000D03*
X102615000Y-69215000D03*
X102615000Y-70485000D03*
X102615000Y-71755000D03*
X102615000Y-73025000D03*
X102615000Y-74295000D03*
X102615000Y-75565000D03*
X102615000Y-76835000D03*
X102615000Y-78105000D03*
X112015000Y-78105000D03*
X112015000Y-76835000D03*
X112015000Y-75565000D03*
X112015000Y-74295000D03*
X112015000Y-73025000D03*
X112015000Y-71755000D03*
X112015000Y-70485000D03*
X112015000Y-69215000D03*
X112015000Y-67945000D03*
X112015000Y-66675000D03*
D14*
X165575000Y-81280000D03*
X165575000Y-82550000D03*
X165575000Y-83820000D03*
X165575000Y-85090000D03*
X165575000Y-86360000D03*
X165575000Y-87630000D03*
X165575000Y-88900000D03*
X170975000Y-88900000D03*
X170975000Y-87630000D03*
X170975000Y-86360000D03*
X170975000Y-85090000D03*
X170975000Y-83820000D03*
X170975000Y-82550000D03*
X170975000Y-81280000D03*
X178275000Y-80645000D03*
X178275000Y-81915000D03*
X178275000Y-83185000D03*
X178275000Y-84455000D03*
X178275000Y-85725000D03*
X178275000Y-86995000D03*
X178275000Y-88265000D03*
X178275000Y-89535000D03*
X183675000Y-89535000D03*
X183675000Y-88265000D03*
X183675000Y-86995000D03*
X183675000Y-85725000D03*
X183675000Y-84455000D03*
X183675000Y-83185000D03*
X183675000Y-81915000D03*
X183675000Y-80645000D03*
D16*
X123655000Y-86360000D03*
X121455000Y-86360000D03*
D19*
X102235000Y-146050000D03*
D20*
X102235000Y-143550000D03*
X104735000Y-146050000D03*
X102235000Y-148550000D03*
X99735000Y-146050000D03*
X100435000Y-144250000D03*
X104035000Y-144250000D03*
X100435000Y-147850000D03*
X104035000Y-147850000D03*
D19*
X191135000Y-146050000D03*
D20*
X191135000Y-143550000D03*
X193635000Y-146050000D03*
X191135000Y-148550000D03*
X188635000Y-146050000D03*
X189335000Y-144250000D03*
X192935000Y-144250000D03*
X189335000Y-147850000D03*
X192935000Y-147850000D03*
D19*
X191135000Y-57150000D03*
D20*
X191135000Y-54650000D03*
X193635000Y-57150000D03*
X191135000Y-59650000D03*
X188635000Y-57150000D03*
X189335000Y-55350000D03*
X192935000Y-55350000D03*
X189335000Y-58950000D03*
X192935000Y-58950000D03*
D19*
X102235000Y-57150000D03*
D20*
X102235000Y-54650000D03*
X104735000Y-57150000D03*
X102235000Y-59650000D03*
X99735000Y-57150000D03*
X100435000Y-55350000D03*
X104035000Y-55350000D03*
X100435000Y-58950000D03*
X104035000Y-58950000D03*
D21*
X150380700Y-59690000D03*
X151879300Y-59690000D03*
X127635000Y-85839300D03*
X127635000Y-84340700D03*
D16*
X156675000Y-59690000D03*
X154475000Y-59690000D03*
X123655000Y-84455000D03*
X121455000Y-84455000D03*
D17*
X188280000Y-88900000D03*
X190180000Y-88900000D03*
D22*
X181570000Y-74295000D03*
D23*
X179070000Y-74295000D03*
D17*
X190180000Y-83820000D03*
X188280000Y-83820000D03*
D22*
X111165000Y-55245000D03*
D23*
X113665000Y-55245000D03*
D17*
X107635000Y-58420000D03*
X109535000Y-58420000D03*
D22*
X136565000Y-55245000D03*
D23*
X139065000Y-55245000D03*
D18*
X142875000Y-56830000D03*
X142875000Y-54930000D03*
D24*
X181960520Y-65405000D03*
X187960000Y-65405000D03*
X184960260Y-60706000D03*
D16*
X190330000Y-86360000D03*
X188130000Y-86360000D03*
D25*
X174279560Y-54533800D03*
X174279560Y-61036200D03*
X178780440Y-61036200D03*
X178780440Y-54533800D03*
D14*
X152875000Y-81280000D03*
X152875000Y-82550000D03*
X152875000Y-83820000D03*
X152875000Y-85090000D03*
X152875000Y-86360000D03*
X152875000Y-87630000D03*
X152875000Y-88900000D03*
X158275000Y-88900000D03*
X158275000Y-87630000D03*
X158275000Y-86360000D03*
X158275000Y-85090000D03*
X158275000Y-83820000D03*
X158275000Y-82550000D03*
X158275000Y-81280000D03*
D26*
X188435000Y-90805000D03*
X188435000Y-92075000D03*
X188435000Y-93345000D03*
X188435000Y-94615000D03*
X193835000Y-94615000D03*
X193835000Y-93345000D03*
X193835000Y-92075000D03*
X193835000Y-90805000D03*
D27*
X125095000Y-55880000D03*
X122555000Y-55880000D03*
X127635000Y-55880000D03*
D17*
X171130000Y-79375000D03*
X169230000Y-79375000D03*
X145730000Y-79375000D03*
X143830000Y-79375000D03*
X183830000Y-78740000D03*
X181930000Y-78740000D03*
X145730000Y-63500000D03*
X143830000Y-63500000D03*
X193990000Y-88900000D03*
X192090000Y-88900000D03*
X158430000Y-79375000D03*
X156530000Y-79375000D03*
D18*
X194310000Y-133035000D03*
X194310000Y-134935000D03*
D21*
X172085000Y-106794300D03*
X172085000Y-105295700D03*
X169545000Y-106794300D03*
X169545000Y-105295700D03*
D12*
X170815000Y-95250000D03*
D13*
X173355000Y-95250000D03*
X175895000Y-95250000D03*
X178435000Y-95250000D03*
X180975000Y-95250000D03*
X183515000Y-95250000D03*
D16*
X165565000Y-92710000D03*
X163365000Y-92710000D03*
D28*
X172085000Y-102700000D03*
X172085000Y-100500000D03*
X169545000Y-102700000D03*
X169545000Y-100500000D03*
D11*
X175895000Y-100330000D03*
X175895000Y-102870000D03*
X175895000Y-105410000D03*
X175895000Y-107950000D03*
X175895000Y-110490000D03*
X175895000Y-113030000D03*
X175895000Y-115570000D03*
X175895000Y-118110000D03*
X175895000Y-120650000D03*
X175895000Y-123190000D03*
X175895000Y-125730000D03*
X175895000Y-128270000D03*
X175895000Y-130810000D03*
X175895000Y-133350000D03*
X191135000Y-133350000D03*
X191135000Y-130810000D03*
X191135000Y-128270000D03*
X191135000Y-125730000D03*
X191135000Y-123190000D03*
X191135000Y-120650000D03*
X191135000Y-118110000D03*
X191135000Y-115570000D03*
X191135000Y-113030000D03*
X191135000Y-110490000D03*
X191135000Y-107950000D03*
X191135000Y-105410000D03*
X191135000Y-102870000D03*
X191135000Y-100330000D03*
D29*
X170815000Y-113030000D03*
X170815000Y-117911880D03*
D11*
X163195000Y-59690000D03*
X163195000Y-62230000D03*
X163195000Y-64770000D03*
X163195000Y-67310000D03*
X163195000Y-69850000D03*
X163195000Y-72390000D03*
X163195000Y-74930000D03*
X170815000Y-74930000D03*
X170815000Y-72390000D03*
X170815000Y-69850000D03*
X170815000Y-67310000D03*
X170815000Y-64770000D03*
X170815000Y-62230000D03*
X170815000Y-59690000D03*
D30*
X175895000Y-67310000D03*
D31*
X175895000Y-69850000D03*
D12*
X173355000Y-140970000D03*
D13*
X170815000Y-140970000D03*
X168275000Y-140970000D03*
X165735000Y-140970000D03*
X163195000Y-140970000D03*
X160655000Y-140970000D03*
X158115000Y-140970000D03*
X155575000Y-140970000D03*
D12*
X150495000Y-140970000D03*
D13*
X147955000Y-140970000D03*
X145415000Y-140970000D03*
X142875000Y-140970000D03*
X140335000Y-140970000D03*
X137795000Y-140970000D03*
X135255000Y-140970000D03*
X132715000Y-140970000D03*
D12*
X150495000Y-146050000D03*
D13*
X147955000Y-146050000D03*
X145415000Y-146050000D03*
X142875000Y-146050000D03*
X140335000Y-146050000D03*
X137795000Y-146050000D03*
X135255000Y-146050000D03*
X132715000Y-146050000D03*
D12*
X127635000Y-140970000D03*
D13*
X125095000Y-140970000D03*
X122555000Y-140970000D03*
X120015000Y-140970000D03*
X117475000Y-140970000D03*
X114935000Y-140970000D03*
X112395000Y-140970000D03*
X109855000Y-140970000D03*
D12*
X127635000Y-146050000D03*
D13*
X125095000Y-146050000D03*
X122555000Y-146050000D03*
X120015000Y-146050000D03*
X117475000Y-146050000D03*
X114935000Y-146050000D03*
X112395000Y-146050000D03*
X109855000Y-146050000D03*
D12*
X173355000Y-146050000D03*
D13*
X170815000Y-146050000D03*
X168275000Y-146050000D03*
X165735000Y-146050000D03*
X163195000Y-146050000D03*
X160655000Y-146050000D03*
X158115000Y-146050000D03*
X155575000Y-146050000D03*
D32*
X188010800Y-78562200D03*
X190500000Y-78562200D03*
X192989200Y-78562200D03*
X188010800Y-72567800D03*
X190500000Y-72567800D03*
X192989200Y-72567800D03*
D12*
X186055000Y-140970000D03*
D13*
X183515000Y-140970000D03*
X180975000Y-140970000D03*
X178435000Y-140970000D03*
M02*
