G04 #@! TF.FileFunction,Legend,Bot*
%FSLAX46Y46*%
G04 Gerber Fmt 4.6, Leading zero omitted, Abs format (unit mm)*
G04 Created by KiCad (PCBNEW 4.0.3-1.fc24-product) date Thu Dec  8 13:22:35 2016*
%MOMM*%
%LPD*%
G01*
G04 APERTURE LIST*
%ADD10C,0.100000*%
%ADD11C,0.400000*%
%ADD12O,2.300000X1.600000*%
%ADD13R,1.727200X2.032000*%
%ADD14O,1.727200X2.032000*%
%ADD15C,6.300000*%
%ADD16C,0.600000*%
%ADD17R,1.300000X1.300000*%
%ADD18C,1.300000*%
%ADD19R,3.500120X3.500120*%
%ADD20C,1.998980*%
%ADD21O,1.699260X3.500120*%
%ADD22C,1.501140*%
%ADD23R,2.032000X2.032000*%
%ADD24O,2.032000X2.032000*%
%ADD25C,1.320800*%
G04 APERTURE END LIST*
D10*
D11*
X151892143Y-63542143D02*
X151606429Y-63637381D01*
X151511190Y-63732619D01*
X151415952Y-63923095D01*
X151415952Y-64208810D01*
X151511190Y-64399286D01*
X151606429Y-64494524D01*
X151796905Y-64589762D01*
X152558810Y-64589762D01*
X152558810Y-62589762D01*
X151892143Y-62589762D01*
X151701667Y-62685000D01*
X151606429Y-62780238D01*
X151511190Y-62970714D01*
X151511190Y-63161190D01*
X151606429Y-63351667D01*
X151701667Y-63446905D01*
X151892143Y-63542143D01*
X152558810Y-63542143D01*
X149701667Y-63256429D02*
X149701667Y-64589762D01*
X150558810Y-63256429D02*
X150558810Y-64304048D01*
X150463571Y-64494524D01*
X150273095Y-64589762D01*
X149987381Y-64589762D01*
X149796905Y-64494524D01*
X149701667Y-64399286D01*
X149892143Y-62494524D02*
X150177857Y-62780238D01*
X148749286Y-64589762D02*
X148749286Y-63256429D01*
X148749286Y-63637381D02*
X148654047Y-63446905D01*
X148558809Y-63351667D01*
X148368333Y-63256429D01*
X148177857Y-63256429D01*
X147511191Y-64589762D02*
X147511191Y-63256429D01*
X147511191Y-62589762D02*
X147606429Y-62685000D01*
X147511191Y-62780238D01*
X147415952Y-62685000D01*
X147511191Y-62589762D01*
X147511191Y-62780238D01*
X145035000Y-64589762D02*
X145035000Y-62589762D01*
X144368333Y-64018333D01*
X143701666Y-62589762D01*
X143701666Y-64589762D01*
X142749286Y-64589762D02*
X142749286Y-63256429D01*
X142749286Y-62589762D02*
X142844524Y-62685000D01*
X142749286Y-62780238D01*
X142654047Y-62685000D01*
X142749286Y-62589762D01*
X142749286Y-62780238D01*
X140939762Y-64494524D02*
X141130238Y-64589762D01*
X141511190Y-64589762D01*
X141701666Y-64494524D01*
X141796905Y-64399286D01*
X141892143Y-64208810D01*
X141892143Y-63637381D01*
X141796905Y-63446905D01*
X141701666Y-63351667D01*
X141511190Y-63256429D01*
X141130238Y-63256429D01*
X140939762Y-63351667D01*
X140082619Y-64589762D02*
X140082619Y-63256429D01*
X140082619Y-63637381D02*
X139987380Y-63446905D01*
X139892142Y-63351667D01*
X139701666Y-63256429D01*
X139511190Y-63256429D01*
X138558809Y-64589762D02*
X138749285Y-64494524D01*
X138844524Y-64399286D01*
X138939762Y-64208810D01*
X138939762Y-63637381D01*
X138844524Y-63446905D01*
X138749285Y-63351667D01*
X138558809Y-63256429D01*
X138273095Y-63256429D01*
X138082619Y-63351667D01*
X137987381Y-63446905D01*
X137892143Y-63637381D01*
X137892143Y-64208810D01*
X137987381Y-64399286D01*
X138082619Y-64494524D01*
X138273095Y-64589762D01*
X138558809Y-64589762D01*
X136177857Y-64494524D02*
X136368333Y-64589762D01*
X136749285Y-64589762D01*
X136939761Y-64494524D01*
X137035000Y-64399286D01*
X137130238Y-64208810D01*
X137130238Y-63637381D01*
X137035000Y-63446905D01*
X136939761Y-63351667D01*
X136749285Y-63256429D01*
X136368333Y-63256429D01*
X136177857Y-63351667D01*
X135034999Y-64589762D02*
X135225475Y-64494524D01*
X135320714Y-64399286D01*
X135415952Y-64208810D01*
X135415952Y-63637381D01*
X135320714Y-63446905D01*
X135225475Y-63351667D01*
X135034999Y-63256429D01*
X134749285Y-63256429D01*
X134558809Y-63351667D01*
X134463571Y-63446905D01*
X134368333Y-63637381D01*
X134368333Y-64208810D01*
X134463571Y-64399286D01*
X134558809Y-64494524D01*
X134749285Y-64589762D01*
X135034999Y-64589762D01*
X133511190Y-64589762D02*
X133511190Y-63256429D01*
X133511190Y-63446905D02*
X133415951Y-63351667D01*
X133225475Y-63256429D01*
X132939761Y-63256429D01*
X132749285Y-63351667D01*
X132654047Y-63542143D01*
X132654047Y-64589762D01*
X132654047Y-63542143D02*
X132558809Y-63351667D01*
X132368332Y-63256429D01*
X132082618Y-63256429D01*
X131892142Y-63351667D01*
X131796904Y-63542143D01*
X131796904Y-64589762D01*
X130844523Y-63256429D02*
X130844523Y-65256429D01*
X130844523Y-63351667D02*
X130654046Y-63256429D01*
X130273094Y-63256429D01*
X130082618Y-63351667D01*
X129987380Y-63446905D01*
X129892142Y-63637381D01*
X129892142Y-64208810D01*
X129987380Y-64399286D01*
X130082618Y-64494524D01*
X130273094Y-64589762D01*
X130654046Y-64589762D01*
X130844523Y-64494524D01*
X128177856Y-63256429D02*
X128177856Y-64589762D01*
X129034999Y-63256429D02*
X129034999Y-64304048D01*
X128939760Y-64494524D01*
X128749284Y-64589762D01*
X128463570Y-64589762D01*
X128273094Y-64494524D01*
X128177856Y-64399286D01*
X127511189Y-63256429D02*
X126749284Y-63256429D01*
X127225475Y-62589762D02*
X127225475Y-64304048D01*
X127130236Y-64494524D01*
X126939760Y-64589762D01*
X126749284Y-64589762D01*
X125320713Y-64494524D02*
X125511189Y-64589762D01*
X125892141Y-64589762D01*
X126082618Y-64494524D01*
X126177856Y-64304048D01*
X126177856Y-63542143D01*
X126082618Y-63351667D01*
X125892141Y-63256429D01*
X125511189Y-63256429D01*
X125320713Y-63351667D01*
X125225475Y-63542143D01*
X125225475Y-63732619D01*
X126177856Y-63923095D01*
X124368332Y-64589762D02*
X124368332Y-63256429D01*
X124368332Y-63637381D02*
X124273093Y-63446905D01*
X124177855Y-63351667D01*
X123987379Y-63256429D01*
X123796903Y-63256429D01*
X152558810Y-67989762D02*
X152558810Y-65989762D01*
X151892143Y-67418333D01*
X151225476Y-65989762D01*
X151225476Y-67989762D01*
X149415953Y-67989762D02*
X149415953Y-66942143D01*
X149511191Y-66751667D01*
X149701667Y-66656429D01*
X150082619Y-66656429D01*
X150273096Y-66751667D01*
X149415953Y-67894524D02*
X149606429Y-67989762D01*
X150082619Y-67989762D01*
X150273096Y-67894524D01*
X150368334Y-67704048D01*
X150368334Y-67513571D01*
X150273096Y-67323095D01*
X150082619Y-67227857D01*
X149606429Y-67227857D01*
X149415953Y-67132619D01*
X148463572Y-67989762D02*
X148463572Y-66656429D01*
X148463572Y-65989762D02*
X148558810Y-66085000D01*
X148463572Y-66180238D01*
X148368333Y-66085000D01*
X148463572Y-65989762D01*
X148463572Y-66180238D01*
X147511191Y-66656429D02*
X147511191Y-67989762D01*
X147511191Y-66846905D02*
X147415952Y-66751667D01*
X147225476Y-66656429D01*
X146939762Y-66656429D01*
X146749286Y-66751667D01*
X146654048Y-66942143D01*
X146654048Y-67989762D01*
X144177857Y-67989762D02*
X144177857Y-65989762D01*
X143415952Y-65989762D01*
X143225476Y-66085000D01*
X143130237Y-66180238D01*
X143034999Y-66370714D01*
X143034999Y-66656429D01*
X143130237Y-66846905D01*
X143225476Y-66942143D01*
X143415952Y-67037381D01*
X144177857Y-67037381D01*
X142177857Y-67989762D02*
X142177857Y-66656429D01*
X142177857Y-67037381D02*
X142082618Y-66846905D01*
X141987380Y-66751667D01*
X141796904Y-66656429D01*
X141606428Y-66656429D01*
X140654047Y-67989762D02*
X140844523Y-67894524D01*
X140939762Y-67799286D01*
X141035000Y-67608810D01*
X141035000Y-67037381D01*
X140939762Y-66846905D01*
X140844523Y-66751667D01*
X140654047Y-66656429D01*
X140368333Y-66656429D01*
X140177857Y-66751667D01*
X140082619Y-66846905D01*
X139987381Y-67037381D01*
X139987381Y-67608810D01*
X140082619Y-67799286D01*
X140177857Y-67894524D01*
X140368333Y-67989762D01*
X140654047Y-67989762D01*
X138273095Y-67894524D02*
X138463571Y-67989762D01*
X138844523Y-67989762D01*
X139034999Y-67894524D01*
X139130238Y-67799286D01*
X139225476Y-67608810D01*
X139225476Y-67037381D01*
X139130238Y-66846905D01*
X139034999Y-66751667D01*
X138844523Y-66656429D01*
X138463571Y-66656429D01*
X138273095Y-66751667D01*
X136654047Y-67894524D02*
X136844523Y-67989762D01*
X137225475Y-67989762D01*
X137415952Y-67894524D01*
X137511190Y-67704048D01*
X137511190Y-66942143D01*
X137415952Y-66751667D01*
X137225475Y-66656429D01*
X136844523Y-66656429D01*
X136654047Y-66751667D01*
X136558809Y-66942143D01*
X136558809Y-67132619D01*
X137511190Y-67323095D01*
X135796904Y-67894524D02*
X135606427Y-67989762D01*
X135225475Y-67989762D01*
X135034999Y-67894524D01*
X134939761Y-67704048D01*
X134939761Y-67608810D01*
X135034999Y-67418333D01*
X135225475Y-67323095D01*
X135511189Y-67323095D01*
X135701666Y-67227857D01*
X135796904Y-67037381D01*
X135796904Y-66942143D01*
X135701666Y-66751667D01*
X135511189Y-66656429D01*
X135225475Y-66656429D01*
X135034999Y-66751667D01*
X134177856Y-67894524D02*
X133987379Y-67989762D01*
X133606427Y-67989762D01*
X133415951Y-67894524D01*
X133320713Y-67704048D01*
X133320713Y-67608810D01*
X133415951Y-67418333D01*
X133606427Y-67323095D01*
X133892141Y-67323095D01*
X134082618Y-67227857D01*
X134177856Y-67037381D01*
X134177856Y-66942143D01*
X134082618Y-66751667D01*
X133892141Y-66656429D01*
X133606427Y-66656429D01*
X133415951Y-66751667D01*
X132177855Y-67989762D02*
X132368331Y-67894524D01*
X132463570Y-67799286D01*
X132558808Y-67608810D01*
X132558808Y-67037381D01*
X132463570Y-66846905D01*
X132368331Y-66751667D01*
X132177855Y-66656429D01*
X131892141Y-66656429D01*
X131701665Y-66751667D01*
X131606427Y-66846905D01*
X131511189Y-67037381D01*
X131511189Y-67608810D01*
X131606427Y-67799286D01*
X131701665Y-67894524D01*
X131892141Y-67989762D01*
X132177855Y-67989762D01*
X130654046Y-67989762D02*
X130654046Y-66656429D01*
X130654046Y-67037381D02*
X130558807Y-66846905D01*
X130463569Y-66751667D01*
X130273093Y-66656429D01*
X130082617Y-66656429D01*
X127225474Y-66942143D02*
X126939760Y-67037381D01*
X126844521Y-67132619D01*
X126749283Y-67323095D01*
X126749283Y-67608810D01*
X126844521Y-67799286D01*
X126939760Y-67894524D01*
X127130236Y-67989762D01*
X127892141Y-67989762D01*
X127892141Y-65989762D01*
X127225474Y-65989762D01*
X127034998Y-66085000D01*
X126939760Y-66180238D01*
X126844521Y-66370714D01*
X126844521Y-66561190D01*
X126939760Y-66751667D01*
X127034998Y-66846905D01*
X127225474Y-66942143D01*
X127892141Y-66942143D01*
X125606426Y-67989762D02*
X125796902Y-67894524D01*
X125892141Y-67799286D01*
X125987379Y-67608810D01*
X125987379Y-67037381D01*
X125892141Y-66846905D01*
X125796902Y-66751667D01*
X125606426Y-66656429D01*
X125320712Y-66656429D01*
X125130236Y-66751667D01*
X125034998Y-66846905D01*
X124939760Y-67037381D01*
X124939760Y-67608810D01*
X125034998Y-67799286D01*
X125130236Y-67894524D01*
X125320712Y-67989762D01*
X125606426Y-67989762D01*
X123225474Y-67989762D02*
X123225474Y-66942143D01*
X123320712Y-66751667D01*
X123511188Y-66656429D01*
X123892140Y-66656429D01*
X124082617Y-66751667D01*
X123225474Y-67894524D02*
X123415950Y-67989762D01*
X123892140Y-67989762D01*
X124082617Y-67894524D01*
X124177855Y-67704048D01*
X124177855Y-67513571D01*
X124082617Y-67323095D01*
X123892140Y-67227857D01*
X123415950Y-67227857D01*
X123225474Y-67132619D01*
X122273093Y-67989762D02*
X122273093Y-66656429D01*
X122273093Y-67037381D02*
X122177854Y-66846905D01*
X122082616Y-66751667D01*
X121892140Y-66656429D01*
X121701664Y-66656429D01*
X120177855Y-67989762D02*
X120177855Y-65989762D01*
X120177855Y-67894524D02*
X120368331Y-67989762D01*
X120749283Y-67989762D01*
X120939759Y-67894524D01*
X121034998Y-67799286D01*
X121130236Y-67608810D01*
X121130236Y-67037381D01*
X121034998Y-66846905D01*
X120939759Y-66751667D01*
X120749283Y-66656429D01*
X120368331Y-66656429D01*
X120177855Y-66751667D01*
X117892140Y-66656429D02*
X117415949Y-67989762D01*
X116939759Y-66656429D01*
X116368330Y-65989762D02*
X115130234Y-65989762D01*
X115796901Y-66751667D01*
X115511187Y-66751667D01*
X115320711Y-66846905D01*
X115225473Y-66942143D01*
X115130234Y-67132619D01*
X115130234Y-67608810D01*
X115225473Y-67799286D01*
X115320711Y-67894524D01*
X115511187Y-67989762D01*
X116082615Y-67989762D01*
X116273092Y-67894524D01*
X116368330Y-67799286D01*
X114273092Y-67799286D02*
X114177853Y-67894524D01*
X114273092Y-67989762D01*
X114368330Y-67894524D01*
X114273092Y-67799286D01*
X114273092Y-67989762D01*
X112273091Y-67989762D02*
X113415949Y-67989762D01*
X112844520Y-67989762D02*
X112844520Y-65989762D01*
X113034996Y-66275476D01*
X113225472Y-66465952D01*
X113415949Y-66561190D01*
X150939762Y-69865952D02*
X151130238Y-69770714D01*
X151511190Y-69770714D01*
X151701667Y-69865952D01*
X151892143Y-70056429D01*
X151987381Y-70246905D01*
X151987381Y-70627857D01*
X151892143Y-70818333D01*
X151701667Y-71008810D01*
X151511190Y-71104048D01*
X151130238Y-71104048D01*
X150939762Y-71008810D01*
X151320714Y-69104048D02*
X151796905Y-69199286D01*
X152273095Y-69485000D01*
X152558810Y-69961190D01*
X152654048Y-70437381D01*
X152558810Y-70913571D01*
X152273095Y-71389762D01*
X151796905Y-71675476D01*
X151320714Y-71770714D01*
X150844524Y-71675476D01*
X150368333Y-71389762D01*
X150082619Y-70913571D01*
X149987381Y-70437381D01*
X150082619Y-69961190D01*
X150368333Y-69485000D01*
X150844524Y-69199286D01*
X151320714Y-69104048D01*
X149225477Y-69580238D02*
X149130239Y-69485000D01*
X148939762Y-69389762D01*
X148463572Y-69389762D01*
X148273096Y-69485000D01*
X148177858Y-69580238D01*
X148082619Y-69770714D01*
X148082619Y-69961190D01*
X148177858Y-70246905D01*
X149320715Y-71389762D01*
X148082619Y-71389762D01*
X146844524Y-69389762D02*
X146654048Y-69389762D01*
X146463572Y-69485000D01*
X146368334Y-69580238D01*
X146273096Y-69770714D01*
X146177857Y-70151667D01*
X146177857Y-70627857D01*
X146273096Y-71008810D01*
X146368334Y-71199286D01*
X146463572Y-71294524D01*
X146654048Y-71389762D01*
X146844524Y-71389762D01*
X147035000Y-71294524D01*
X147130238Y-71199286D01*
X147225477Y-71008810D01*
X147320715Y-70627857D01*
X147320715Y-70151667D01*
X147225477Y-69770714D01*
X147130238Y-69580238D01*
X147035000Y-69485000D01*
X146844524Y-69389762D01*
X144273095Y-71389762D02*
X145415953Y-71389762D01*
X144844524Y-71389762D02*
X144844524Y-69389762D01*
X145035000Y-69675476D01*
X145225476Y-69865952D01*
X145415953Y-69961190D01*
X142558810Y-69389762D02*
X142939762Y-69389762D01*
X143130238Y-69485000D01*
X143225476Y-69580238D01*
X143415953Y-69865952D01*
X143511191Y-70246905D01*
X143511191Y-71008810D01*
X143415953Y-71199286D01*
X143320714Y-71294524D01*
X143130238Y-71389762D01*
X142749286Y-71389762D01*
X142558810Y-71294524D01*
X142463572Y-71199286D01*
X142368333Y-71008810D01*
X142368333Y-70532619D01*
X142463572Y-70342143D01*
X142558810Y-70246905D01*
X142749286Y-70151667D01*
X143130238Y-70151667D01*
X143320714Y-70246905D01*
X143415953Y-70342143D01*
X143511191Y-70532619D01*
X138844523Y-71389762D02*
X139511190Y-70437381D01*
X139987381Y-71389762D02*
X139987381Y-69389762D01*
X139225476Y-69389762D01*
X139035000Y-69485000D01*
X138939761Y-69580238D01*
X138844523Y-69770714D01*
X138844523Y-70056429D01*
X138939761Y-70246905D01*
X139035000Y-70342143D01*
X139225476Y-70437381D01*
X139987381Y-70437381D01*
X137987381Y-71389762D02*
X137987381Y-70056429D01*
X137987381Y-69389762D02*
X138082619Y-69485000D01*
X137987381Y-69580238D01*
X137892142Y-69485000D01*
X137987381Y-69389762D01*
X137987381Y-69580238D01*
X136177857Y-71294524D02*
X136368333Y-71389762D01*
X136749285Y-71389762D01*
X136939761Y-71294524D01*
X137035000Y-71199286D01*
X137130238Y-71008810D01*
X137130238Y-70437381D01*
X137035000Y-70246905D01*
X136939761Y-70151667D01*
X136749285Y-70056429D01*
X136368333Y-70056429D01*
X136177857Y-70151667D01*
X135320714Y-71389762D02*
X135320714Y-69389762D01*
X134463571Y-71389762D02*
X134463571Y-70342143D01*
X134558809Y-70151667D01*
X134749285Y-70056429D01*
X135034999Y-70056429D01*
X135225475Y-70151667D01*
X135320714Y-70246905D01*
X132177856Y-69389762D02*
X131701665Y-71389762D01*
X131320713Y-69961190D01*
X130939760Y-71389762D01*
X130463570Y-69389762D01*
X128844523Y-71389762D02*
X128844523Y-70342143D01*
X128939761Y-70151667D01*
X129130237Y-70056429D01*
X129511189Y-70056429D01*
X129701666Y-70151667D01*
X128844523Y-71294524D02*
X129034999Y-71389762D01*
X129511189Y-71389762D01*
X129701666Y-71294524D01*
X129796904Y-71104048D01*
X129796904Y-70913571D01*
X129701666Y-70723095D01*
X129511189Y-70627857D01*
X129034999Y-70627857D01*
X128844523Y-70532619D01*
X127892142Y-71389762D02*
X127892142Y-70056429D01*
X127892142Y-70437381D02*
X127796903Y-70246905D01*
X127701665Y-70151667D01*
X127511189Y-70056429D01*
X127320713Y-70056429D01*
X125892142Y-71294524D02*
X126082618Y-71389762D01*
X126463570Y-71389762D01*
X126654047Y-71294524D01*
X126749285Y-71104048D01*
X126749285Y-70342143D01*
X126654047Y-70151667D01*
X126463570Y-70056429D01*
X126082618Y-70056429D01*
X125892142Y-70151667D01*
X125796904Y-70342143D01*
X125796904Y-70532619D01*
X126749285Y-70723095D01*
X124939761Y-71389762D02*
X124939761Y-69389762D01*
X124082618Y-71389762D02*
X124082618Y-70342143D01*
X124177856Y-70151667D01*
X124368332Y-70056429D01*
X124654046Y-70056429D01*
X124844522Y-70151667D01*
X124939761Y-70246905D01*
X122273094Y-71389762D02*
X122273094Y-70342143D01*
X122368332Y-70151667D01*
X122558808Y-70056429D01*
X122939760Y-70056429D01*
X123130237Y-70151667D01*
X122273094Y-71294524D02*
X122463570Y-71389762D01*
X122939760Y-71389762D01*
X123130237Y-71294524D01*
X123225475Y-71104048D01*
X123225475Y-70913571D01*
X123130237Y-70723095D01*
X122939760Y-70627857D01*
X122463570Y-70627857D01*
X122273094Y-70532619D01*
X121320713Y-71389762D02*
X121320713Y-70056429D01*
X121320713Y-70246905D02*
X121225474Y-70151667D01*
X121034998Y-70056429D01*
X120749284Y-70056429D01*
X120558808Y-70151667D01*
X120463570Y-70342143D01*
X120463570Y-71389762D01*
X120463570Y-70342143D02*
X120368332Y-70151667D01*
X120177855Y-70056429D01*
X119892141Y-70056429D01*
X119701665Y-70151667D01*
X119606427Y-70342143D01*
X119606427Y-71389762D01*
X152558810Y-74789762D02*
X152558810Y-73456429D01*
X152558810Y-73837381D02*
X152463571Y-73646905D01*
X152368333Y-73551667D01*
X152177857Y-73456429D01*
X151987381Y-73456429D01*
X151320715Y-74789762D02*
X151320715Y-73456429D01*
X151320715Y-72789762D02*
X151415953Y-72885000D01*
X151320715Y-72980238D01*
X151225476Y-72885000D01*
X151320715Y-72789762D01*
X151320715Y-72980238D01*
X149511191Y-74694524D02*
X149701667Y-74789762D01*
X150082619Y-74789762D01*
X150273095Y-74694524D01*
X150368334Y-74599286D01*
X150463572Y-74408810D01*
X150463572Y-73837381D01*
X150368334Y-73646905D01*
X150273095Y-73551667D01*
X150082619Y-73456429D01*
X149701667Y-73456429D01*
X149511191Y-73551667D01*
X148654048Y-74789762D02*
X148654048Y-72789762D01*
X147796905Y-74789762D02*
X147796905Y-73742143D01*
X147892143Y-73551667D01*
X148082619Y-73456429D01*
X148368333Y-73456429D01*
X148558809Y-73551667D01*
X148654048Y-73646905D01*
X146844524Y-74599286D02*
X146749285Y-74694524D01*
X146844524Y-74789762D01*
X146939762Y-74694524D01*
X146844524Y-74599286D01*
X146844524Y-74789762D01*
X145892143Y-74789762D02*
X145892143Y-72789762D01*
X145892143Y-73551667D02*
X145701666Y-73456429D01*
X145320714Y-73456429D01*
X145130238Y-73551667D01*
X145035000Y-73646905D01*
X144939762Y-73837381D01*
X144939762Y-74408810D01*
X145035000Y-74599286D01*
X145130238Y-74694524D01*
X145320714Y-74789762D01*
X145701666Y-74789762D01*
X145892143Y-74694524D01*
X143225476Y-73456429D02*
X143225476Y-74789762D01*
X144082619Y-73456429D02*
X144082619Y-74504048D01*
X143987380Y-74694524D01*
X143796904Y-74789762D01*
X143511190Y-74789762D01*
X143320714Y-74694524D01*
X143225476Y-74599286D01*
X142273095Y-74789762D02*
X142273095Y-73456429D01*
X142273095Y-73837381D02*
X142177856Y-73646905D01*
X142082618Y-73551667D01*
X141892142Y-73456429D01*
X141701666Y-73456429D01*
X141035000Y-74789762D02*
X141035000Y-73456429D01*
X141035000Y-72789762D02*
X141130238Y-72885000D01*
X141035000Y-72980238D01*
X140939761Y-72885000D01*
X141035000Y-72789762D01*
X141035000Y-72980238D01*
X138844523Y-73837381D02*
X138939761Y-73742143D01*
X139130238Y-73646905D01*
X139320714Y-73646905D01*
X139511190Y-73742143D01*
X139606428Y-73837381D01*
X139701666Y-74027857D01*
X139701666Y-74218333D01*
X139606428Y-74408810D01*
X139511190Y-74504048D01*
X139320714Y-74599286D01*
X139130238Y-74599286D01*
X138939761Y-74504048D01*
X138844523Y-74408810D01*
X138844523Y-73646905D02*
X138844523Y-74408810D01*
X138749285Y-74504048D01*
X138654047Y-74504048D01*
X138463571Y-74408810D01*
X138368333Y-74218333D01*
X138368333Y-73742143D01*
X138558809Y-73456429D01*
X138844523Y-73265952D01*
X139225476Y-73170714D01*
X139606428Y-73265952D01*
X139892142Y-73456429D01*
X140082619Y-73742143D01*
X140177857Y-74123095D01*
X140082619Y-74504048D01*
X139892142Y-74789762D01*
X139606428Y-74980238D01*
X139225476Y-75075476D01*
X138844523Y-74980238D01*
X138558809Y-74789762D01*
X137511190Y-74789762D02*
X137511190Y-73456429D01*
X137511190Y-73837381D02*
X137415951Y-73646905D01*
X137320713Y-73551667D01*
X137130237Y-73456429D01*
X136939761Y-73456429D01*
X136273095Y-74789762D02*
X136273095Y-73456429D01*
X136273095Y-72789762D02*
X136368333Y-72885000D01*
X136273095Y-72980238D01*
X136177856Y-72885000D01*
X136273095Y-72789762D01*
X136273095Y-72980238D01*
X134463571Y-74694524D02*
X134654047Y-74789762D01*
X135034999Y-74789762D01*
X135225475Y-74694524D01*
X135320714Y-74599286D01*
X135415952Y-74408810D01*
X135415952Y-73837381D01*
X135320714Y-73646905D01*
X135225475Y-73551667D01*
X135034999Y-73456429D01*
X134654047Y-73456429D01*
X134463571Y-73551667D01*
X133606428Y-74789762D02*
X133606428Y-72789762D01*
X132749285Y-74789762D02*
X132749285Y-73742143D01*
X132844523Y-73551667D01*
X133034999Y-73456429D01*
X133320713Y-73456429D01*
X133511189Y-73551667D01*
X133606428Y-73646905D01*
X131987380Y-73456429D02*
X131606427Y-74789762D01*
X131225475Y-73837381D01*
X130844523Y-74789762D01*
X130463570Y-73456429D01*
X128844523Y-74789762D02*
X128844523Y-73742143D01*
X128939761Y-73551667D01*
X129130237Y-73456429D01*
X129511189Y-73456429D01*
X129701666Y-73551667D01*
X128844523Y-74694524D02*
X129034999Y-74789762D01*
X129511189Y-74789762D01*
X129701666Y-74694524D01*
X129796904Y-74504048D01*
X129796904Y-74313571D01*
X129701666Y-74123095D01*
X129511189Y-74027857D01*
X129034999Y-74027857D01*
X128844523Y-73932619D01*
X127892142Y-74789762D02*
X127892142Y-73456429D01*
X127892142Y-73837381D02*
X127796903Y-73646905D01*
X127701665Y-73551667D01*
X127511189Y-73456429D01*
X127320713Y-73456429D01*
X125892142Y-74694524D02*
X126082618Y-74789762D01*
X126463570Y-74789762D01*
X126654047Y-74694524D01*
X126749285Y-74504048D01*
X126749285Y-73742143D01*
X126654047Y-73551667D01*
X126463570Y-73456429D01*
X126082618Y-73456429D01*
X125892142Y-73551667D01*
X125796904Y-73742143D01*
X125796904Y-73932619D01*
X126749285Y-74123095D01*
X124939761Y-74789762D02*
X124939761Y-72789762D01*
X124082618Y-74789762D02*
X124082618Y-73742143D01*
X124177856Y-73551667D01*
X124368332Y-73456429D01*
X124654046Y-73456429D01*
X124844522Y-73551667D01*
X124939761Y-73646905D01*
X122273094Y-74789762D02*
X122273094Y-73742143D01*
X122368332Y-73551667D01*
X122558808Y-73456429D01*
X122939760Y-73456429D01*
X123130237Y-73551667D01*
X122273094Y-74694524D02*
X122463570Y-74789762D01*
X122939760Y-74789762D01*
X123130237Y-74694524D01*
X123225475Y-74504048D01*
X123225475Y-74313571D01*
X123130237Y-74123095D01*
X122939760Y-74027857D01*
X122463570Y-74027857D01*
X122273094Y-73932619D01*
X121320713Y-74789762D02*
X121320713Y-73456429D01*
X121320713Y-73646905D02*
X121225474Y-73551667D01*
X121034998Y-73456429D01*
X120749284Y-73456429D01*
X120558808Y-73551667D01*
X120463570Y-73742143D01*
X120463570Y-74789762D01*
X120463570Y-73742143D02*
X120368332Y-73551667D01*
X120177855Y-73456429D01*
X119892141Y-73456429D01*
X119701665Y-73551667D01*
X119606427Y-73742143D01*
X119606427Y-74789762D01*
X118654046Y-74599286D02*
X118558807Y-74694524D01*
X118654046Y-74789762D01*
X118749284Y-74694524D01*
X118654046Y-74599286D01*
X118654046Y-74789762D01*
X116844522Y-74694524D02*
X117034998Y-74789762D01*
X117415950Y-74789762D01*
X117606426Y-74694524D01*
X117701665Y-74599286D01*
X117796903Y-74408810D01*
X117796903Y-73837381D01*
X117701665Y-73646905D01*
X117606426Y-73551667D01*
X117415950Y-73456429D01*
X117034998Y-73456429D01*
X116844522Y-73551667D01*
X115701664Y-74789762D02*
X115892140Y-74694524D01*
X115987379Y-74599286D01*
X116082617Y-74408810D01*
X116082617Y-73837381D01*
X115987379Y-73646905D01*
X115892140Y-73551667D01*
X115701664Y-73456429D01*
X115415950Y-73456429D01*
X115225474Y-73551667D01*
X115130236Y-73646905D01*
X115034998Y-73837381D01*
X115034998Y-74408810D01*
X115130236Y-74599286D01*
X115225474Y-74694524D01*
X115415950Y-74789762D01*
X115701664Y-74789762D01*
X114177855Y-74789762D02*
X114177855Y-73456429D01*
X114177855Y-73646905D02*
X114082616Y-73551667D01*
X113892140Y-73456429D01*
X113606426Y-73456429D01*
X113415950Y-73551667D01*
X113320712Y-73742143D01*
X113320712Y-74789762D01*
X113320712Y-73742143D02*
X113225474Y-73551667D01*
X113034997Y-73456429D01*
X112749283Y-73456429D01*
X112558807Y-73551667D01*
X112463569Y-73742143D01*
X112463569Y-74789762D01*
X151415952Y-77999286D02*
X151511190Y-78094524D01*
X151796905Y-78189762D01*
X151987381Y-78189762D01*
X152273095Y-78094524D01*
X152463571Y-77904048D01*
X152558810Y-77713571D01*
X152654048Y-77332619D01*
X152654048Y-77046905D01*
X152558810Y-76665952D01*
X152463571Y-76475476D01*
X152273095Y-76285000D01*
X151987381Y-76189762D01*
X151796905Y-76189762D01*
X151511190Y-76285000D01*
X151415952Y-76380238D01*
X149415952Y-77999286D02*
X149511190Y-78094524D01*
X149796905Y-78189762D01*
X149987381Y-78189762D01*
X150273095Y-78094524D01*
X150463571Y-77904048D01*
X150558810Y-77713571D01*
X150654048Y-77332619D01*
X150654048Y-77046905D01*
X150558810Y-76665952D01*
X150463571Y-76475476D01*
X150273095Y-76285000D01*
X149987381Y-76189762D01*
X149796905Y-76189762D01*
X149511190Y-76285000D01*
X149415952Y-76380238D01*
X146368333Y-77142143D02*
X146082619Y-77237381D01*
X145987380Y-77332619D01*
X145892142Y-77523095D01*
X145892142Y-77808810D01*
X145987380Y-77999286D01*
X146082619Y-78094524D01*
X146273095Y-78189762D01*
X147035000Y-78189762D01*
X147035000Y-76189762D01*
X146368333Y-76189762D01*
X146177857Y-76285000D01*
X146082619Y-76380238D01*
X145987380Y-76570714D01*
X145987380Y-76761190D01*
X146082619Y-76951667D01*
X146177857Y-77046905D01*
X146368333Y-77142143D01*
X147035000Y-77142143D01*
X144654047Y-77237381D02*
X144654047Y-78189762D01*
X145320714Y-76189762D02*
X144654047Y-77237381D01*
X143987380Y-76189762D01*
X143320714Y-77427857D02*
X141796904Y-77427857D01*
X140844524Y-78189762D02*
X140844524Y-76189762D01*
X139701666Y-78189762D01*
X139701666Y-76189762D01*
X137606428Y-77999286D02*
X137701666Y-78094524D01*
X137987381Y-78189762D01*
X138177857Y-78189762D01*
X138463571Y-78094524D01*
X138654047Y-77904048D01*
X138749286Y-77713571D01*
X138844524Y-77332619D01*
X138844524Y-77046905D01*
X138749286Y-76665952D01*
X138654047Y-76475476D01*
X138463571Y-76285000D01*
X138177857Y-76189762D01*
X137987381Y-76189762D01*
X137701666Y-76285000D01*
X137606428Y-76380238D01*
X136749286Y-77427857D02*
X135225476Y-77427857D01*
X134368334Y-78094524D02*
X134082619Y-78189762D01*
X133606429Y-78189762D01*
X133415953Y-78094524D01*
X133320715Y-77999286D01*
X133225476Y-77808810D01*
X133225476Y-77618333D01*
X133320715Y-77427857D01*
X133415953Y-77332619D01*
X133606429Y-77237381D01*
X133987381Y-77142143D01*
X134177857Y-77046905D01*
X134273096Y-76951667D01*
X134368334Y-76761190D01*
X134368334Y-76570714D01*
X134273096Y-76380238D01*
X134177857Y-76285000D01*
X133987381Y-76189762D01*
X133511191Y-76189762D01*
X133225476Y-76285000D01*
X132463572Y-77618333D02*
X131511191Y-77618333D01*
X132654048Y-78189762D02*
X131987381Y-76189762D01*
X131320714Y-78189762D01*
X128273095Y-76856429D02*
X128273095Y-78189762D01*
X128749285Y-76094524D02*
X129225476Y-77523095D01*
X127987380Y-77523095D01*
X127225476Y-77999286D02*
X127130237Y-78094524D01*
X127225476Y-78189762D01*
X127320714Y-78094524D01*
X127225476Y-77999286D01*
X127225476Y-78189762D01*
X125892142Y-76189762D02*
X125701666Y-76189762D01*
X125511190Y-76285000D01*
X125415952Y-76380238D01*
X125320714Y-76570714D01*
X125225475Y-76951667D01*
X125225475Y-77427857D01*
X125320714Y-77808810D01*
X125415952Y-77999286D01*
X125511190Y-78094524D01*
X125701666Y-78189762D01*
X125892142Y-78189762D01*
X126082618Y-78094524D01*
X126177856Y-77999286D01*
X126273095Y-77808810D01*
X126368333Y-77427857D01*
X126368333Y-76951667D01*
X126273095Y-76570714D01*
X126177856Y-76380238D01*
X126082618Y-76285000D01*
X125892142Y-76189762D01*
%LPC*%
D12*
X150495000Y-100330000D03*
X150495000Y-102870000D03*
X150495000Y-105410000D03*
X150495000Y-107950000D03*
X150495000Y-110490000D03*
X150495000Y-113030000D03*
X150495000Y-115570000D03*
X150495000Y-118110000D03*
X150495000Y-120650000D03*
X150495000Y-123190000D03*
X150495000Y-125730000D03*
X150495000Y-128270000D03*
X150495000Y-130810000D03*
X150495000Y-133350000D03*
X165735000Y-133350000D03*
X165735000Y-130810000D03*
X165735000Y-128270000D03*
X165735000Y-125730000D03*
X165735000Y-123190000D03*
X165735000Y-120650000D03*
X165735000Y-118110000D03*
X165735000Y-115570000D03*
X165735000Y-113030000D03*
X165735000Y-110490000D03*
X165735000Y-107950000D03*
X165735000Y-105410000D03*
X165735000Y-102870000D03*
X165735000Y-100330000D03*
X130175000Y-95250000D03*
X130175000Y-97790000D03*
X130175000Y-100330000D03*
X130175000Y-102870000D03*
X130175000Y-105410000D03*
X130175000Y-107950000D03*
X130175000Y-110490000D03*
X130175000Y-113030000D03*
X130175000Y-115570000D03*
X130175000Y-118110000D03*
X130175000Y-120650000D03*
X130175000Y-123190000D03*
X130175000Y-125730000D03*
X130175000Y-128270000D03*
X130175000Y-130810000D03*
X130175000Y-133350000D03*
X145415000Y-133350000D03*
X145415000Y-130810000D03*
X145415000Y-128270000D03*
X145415000Y-125730000D03*
X145415000Y-123190000D03*
X145415000Y-120650000D03*
X145415000Y-118110000D03*
X145415000Y-115570000D03*
X145415000Y-113030000D03*
X145415000Y-110490000D03*
X145415000Y-107950000D03*
X145415000Y-105410000D03*
X145415000Y-102870000D03*
X145415000Y-100330000D03*
X145415000Y-97790000D03*
X145415000Y-95250000D03*
X102235000Y-85090000D03*
X102235000Y-87630000D03*
X102235000Y-90170000D03*
X102235000Y-92710000D03*
X102235000Y-95250000D03*
X102235000Y-97790000D03*
X102235000Y-100330000D03*
X102235000Y-102870000D03*
X102235000Y-105410000D03*
X102235000Y-107950000D03*
X102235000Y-110490000D03*
X102235000Y-113030000D03*
X102235000Y-115570000D03*
X102235000Y-118110000D03*
X102235000Y-120650000D03*
X102235000Y-123190000D03*
X102235000Y-125730000D03*
X102235000Y-128270000D03*
X102235000Y-130810000D03*
X102235000Y-133350000D03*
X117475000Y-133350000D03*
X117475000Y-130810000D03*
X117475000Y-128270000D03*
X117475000Y-125730000D03*
X117475000Y-123190000D03*
X117475000Y-120650000D03*
X117475000Y-118110000D03*
X117475000Y-115570000D03*
X117475000Y-113030000D03*
X117475000Y-110490000D03*
X117475000Y-107950000D03*
X117475000Y-105410000D03*
X117475000Y-102870000D03*
X117475000Y-100330000D03*
X117475000Y-97790000D03*
X117475000Y-95250000D03*
X117475000Y-92710000D03*
X117475000Y-90170000D03*
X117475000Y-87630000D03*
X117475000Y-85090000D03*
D13*
X150495000Y-95250000D03*
D14*
X153035000Y-95250000D03*
X155575000Y-95250000D03*
D15*
X102235000Y-146050000D03*
D16*
X102235000Y-143550000D03*
X104735000Y-146050000D03*
X102235000Y-148550000D03*
X99735000Y-146050000D03*
X100435000Y-144250000D03*
X104035000Y-144250000D03*
X100435000Y-147850000D03*
X104035000Y-147850000D03*
D15*
X191135000Y-146050000D03*
D16*
X191135000Y-143550000D03*
X193635000Y-146050000D03*
X191135000Y-148550000D03*
X188635000Y-146050000D03*
X189335000Y-144250000D03*
X192935000Y-144250000D03*
X189335000Y-147850000D03*
X192935000Y-147850000D03*
D15*
X191135000Y-57150000D03*
D16*
X191135000Y-54650000D03*
X193635000Y-57150000D03*
X191135000Y-59650000D03*
X188635000Y-57150000D03*
X189335000Y-55350000D03*
X192935000Y-55350000D03*
X189335000Y-58950000D03*
X192935000Y-58950000D03*
D15*
X102235000Y-57150000D03*
D16*
X102235000Y-54650000D03*
X104735000Y-57150000D03*
X102235000Y-59650000D03*
X99735000Y-57150000D03*
X100435000Y-55350000D03*
X104035000Y-55350000D03*
X100435000Y-58950000D03*
X104035000Y-58950000D03*
D17*
X181570000Y-74295000D03*
D18*
X179070000Y-74295000D03*
D17*
X111165000Y-55245000D03*
D18*
X113665000Y-55245000D03*
D17*
X136565000Y-55245000D03*
D18*
X139065000Y-55245000D03*
D19*
X181960520Y-65405000D03*
X187960000Y-65405000D03*
X184960260Y-60706000D03*
D20*
X174279560Y-54533800D03*
X174279560Y-61036200D03*
X178780440Y-61036200D03*
X178780440Y-54533800D03*
D21*
X125095000Y-55880000D03*
X122555000Y-55880000D03*
X127635000Y-55880000D03*
D13*
X170815000Y-95250000D03*
D14*
X173355000Y-95250000D03*
X175895000Y-95250000D03*
X178435000Y-95250000D03*
X180975000Y-95250000D03*
X183515000Y-95250000D03*
D12*
X175895000Y-100330000D03*
X175895000Y-102870000D03*
X175895000Y-105410000D03*
X175895000Y-107950000D03*
X175895000Y-110490000D03*
X175895000Y-113030000D03*
X175895000Y-115570000D03*
X175895000Y-118110000D03*
X175895000Y-120650000D03*
X175895000Y-123190000D03*
X175895000Y-125730000D03*
X175895000Y-128270000D03*
X175895000Y-130810000D03*
X175895000Y-133350000D03*
X191135000Y-133350000D03*
X191135000Y-130810000D03*
X191135000Y-128270000D03*
X191135000Y-125730000D03*
X191135000Y-123190000D03*
X191135000Y-120650000D03*
X191135000Y-118110000D03*
X191135000Y-115570000D03*
X191135000Y-113030000D03*
X191135000Y-110490000D03*
X191135000Y-107950000D03*
X191135000Y-105410000D03*
X191135000Y-102870000D03*
X191135000Y-100330000D03*
D22*
X170815000Y-113030000D03*
X170815000Y-117911880D03*
D12*
X163195000Y-59690000D03*
X163195000Y-62230000D03*
X163195000Y-64770000D03*
X163195000Y-67310000D03*
X163195000Y-69850000D03*
X163195000Y-72390000D03*
X163195000Y-74930000D03*
X170815000Y-74930000D03*
X170815000Y-72390000D03*
X170815000Y-69850000D03*
X170815000Y-67310000D03*
X170815000Y-64770000D03*
X170815000Y-62230000D03*
X170815000Y-59690000D03*
D23*
X175895000Y-67310000D03*
D24*
X175895000Y-69850000D03*
D13*
X173355000Y-140970000D03*
D14*
X170815000Y-140970000D03*
X168275000Y-140970000D03*
X165735000Y-140970000D03*
X163195000Y-140970000D03*
X160655000Y-140970000D03*
X158115000Y-140970000D03*
X155575000Y-140970000D03*
D13*
X150495000Y-140970000D03*
D14*
X147955000Y-140970000D03*
X145415000Y-140970000D03*
X142875000Y-140970000D03*
X140335000Y-140970000D03*
X137795000Y-140970000D03*
X135255000Y-140970000D03*
X132715000Y-140970000D03*
D13*
X150495000Y-146050000D03*
D14*
X147955000Y-146050000D03*
X145415000Y-146050000D03*
X142875000Y-146050000D03*
X140335000Y-146050000D03*
X137795000Y-146050000D03*
X135255000Y-146050000D03*
X132715000Y-146050000D03*
D13*
X127635000Y-140970000D03*
D14*
X125095000Y-140970000D03*
X122555000Y-140970000D03*
X120015000Y-140970000D03*
X117475000Y-140970000D03*
X114935000Y-140970000D03*
X112395000Y-140970000D03*
X109855000Y-140970000D03*
D13*
X127635000Y-146050000D03*
D14*
X125095000Y-146050000D03*
X122555000Y-146050000D03*
X120015000Y-146050000D03*
X117475000Y-146050000D03*
X114935000Y-146050000D03*
X112395000Y-146050000D03*
X109855000Y-146050000D03*
D13*
X173355000Y-146050000D03*
D14*
X170815000Y-146050000D03*
X168275000Y-146050000D03*
X165735000Y-146050000D03*
X163195000Y-146050000D03*
X160655000Y-146050000D03*
X158115000Y-146050000D03*
X155575000Y-146050000D03*
D25*
X188010800Y-78562200D03*
X190500000Y-78562200D03*
X192989200Y-78562200D03*
X188010800Y-72567800D03*
X190500000Y-72567800D03*
X192989200Y-72567800D03*
D13*
X186055000Y-140970000D03*
D14*
X183515000Y-140970000D03*
X180975000Y-140970000D03*
X178435000Y-140970000D03*
M02*
